<svg  viewBox="0 0 40 40" fill="none" xmlns="http://www.w3.org/2000/svg">
<path d="M31.2243 12.8547C31.0864 5.61495 25.1062 -0.135471 17.8639 0.00242924C10.8146 0.133434 5.13795 5.8149 5.0069 12.8547C5.0069 12.8892 5 12.9236 5 12.9512V13.1512V36.8492C5 37.656 5.65526 38.3041 6.45537 38.3041C7.25549 38.3041 7.91075 37.6491 7.91075 36.8492V32.6157C7.91075 31.809 8.56601 31.1609 9.36612 31.1609C10.1662 31.1609 10.8215 31.8159 10.8215 32.6157V34.6222C10.8422 35.4289 11.5044 36.0632 12.3114 36.0494C13.0908 36.0356 13.7185 35.4013 13.7391 34.6222V32.6157C13.7391 31.809 14.3944 31.1609 15.1945 31.1609C16.0015 31.1609 16.6499 31.8159 16.6499 32.6157V33.1673C16.6499 33.974 17.3052 34.6222 18.1053 34.6222C18.9123 34.6222 19.5606 33.9671 19.5606 33.1673V32.6157C19.5813 31.809 20.2435 31.1747 21.0505 31.1885C21.8299 31.2022 22.4576 31.8366 22.4783 32.6157V34.6222C22.4783 35.4289 23.1336 36.077 23.9337 36.077C24.7338 36.077 25.4028 35.4358 25.4028 34.6291V32.6226C25.4028 31.8159 26.0581 31.1678 26.8582 31.1678C27.6652 31.1678 28.3136 31.8228 28.3136 32.6226V36.8561C28.3136 37.6628 28.9688 38.311 29.769 38.311C30.5691 38.311 31.2243 37.656 31.2243 36.8561V12.9581C31.2312 12.9236 31.2312 12.8892 31.2243 12.8547ZM13.277 14.9577C11.9872 14.9577 10.9457 13.7648 10.9457 12.2824C10.9457 10.8 11.9941 9.60715 13.277 9.60715C14.5599 9.60715 15.6084 10.8 15.6084 12.2824C15.6084 13.7648 14.5668 14.9577 13.277 14.9577ZM18.2156 18.7361C17.0431 18.7361 16.0981 18.0397 16.0981 17.1778C16.0981 16.316 17.05 16.84 18.2156 16.84C19.3813 16.84 20.3332 16.3229 20.3332 17.1778C20.3332 18.0328 19.3882 18.7292 18.2156 18.7361ZM22.9542 14.9577C21.6644 14.9577 20.6229 13.7648 20.6229 12.2824C20.6229 10.8 21.6644 9.60715 22.9542 9.60715C24.2441 9.60715 25.2856 10.8 25.2856 12.2824C25.2856 13.7648 24.2372 14.9577 22.9542 14.9577Z" fill="url(#paint0_linear)"/>
<circle cx="26.3114" cy="31.1476" r="8.85246" fill="white" fill-opacity="0.9"/>
<path d="M23.0049 34.0984L25.2163 27.8033C25.3158 27.5862 25.4605 27.4777 25.6504 27.4777C25.759 27.4777 25.8494 27.5048 25.9218 27.5591C26.0303 27.6495 26.0846 27.7581 26.0846 27.8847V27.939C26.0846 27.957 26.0755 27.9842 26.0575 28.0204L23.7375 34.3426C23.629 34.7044 23.3712 34.8853 22.9642 34.8853C22.6024 34.8853 22.3582 34.7044 22.2316 34.3426L19.8709 28.0475C19.8528 27.9932 19.8438 27.9435 19.8438 27.8983C19.8438 27.853 19.8573 27.8033 19.8845 27.749C19.9116 27.6948 19.9478 27.645 19.993 27.5998C20.0925 27.5184 20.1965 27.4777 20.3051 27.4777C20.5312 27.4777 20.6759 27.5772 20.7392 27.7762L23.0049 34.0984ZM29.3668 28.1832C29.2221 28.1832 29.0864 28.1967 28.9598 28.2239C28.8422 28.251 28.7246 28.2872 28.607 28.3324C28.399 28.3957 28.2136 28.4726 28.0508 28.563C27.897 28.6535 27.7749 28.6987 27.6845 28.6987C27.594 28.6987 27.5171 28.6671 27.4538 28.6037C27.3905 28.5404 27.3589 28.4681 27.3589 28.3867C27.3589 28.3053 27.3905 28.2284 27.4538 28.156C27.5171 28.0837 27.6031 28.0113 27.7116 27.939C27.8201 27.8666 27.9422 27.7988 28.0779 27.7355C28.2136 27.6721 28.3628 27.6224 28.5256 27.5862C28.8693 27.4777 29.1768 27.4234 29.4482 27.4234C29.7195 27.4234 29.9863 27.4596 30.2486 27.5319C30.52 27.6043 30.7596 27.7219 30.9677 27.8847C31.4018 28.2103 31.6189 28.6354 31.6189 29.16C31.6189 30.0735 30.9179 31.2131 29.516 32.5789C29.2447 32.8412 28.9643 33.1215 28.6749 33.42C28.3945 33.7094 28.1457 33.9446 27.9287 34.1255H31.239C31.3656 34.1255 31.4606 34.1662 31.5239 34.2476C31.5872 34.329 31.6189 34.4195 31.6189 34.5189C31.6189 34.6184 31.5872 34.7044 31.5239 34.7767C31.4606 34.8491 31.3656 34.8853 31.239 34.8853H27.481C27.2639 34.8853 27.1011 34.84 26.9925 34.7496C26.8931 34.6591 26.8433 34.5551 26.8433 34.4375C26.8433 34.1933 26.9428 33.9808 27.1418 33.7999C27.3408 33.619 27.5714 33.3929 27.8337 33.1215C28.096 32.8502 28.3538 32.5879 28.607 32.3347C28.8603 32.0814 29.1135 31.8146 29.3668 31.5342C29.62 31.2538 29.8371 30.978 30.018 30.7066C30.4521 30.1097 30.6692 29.6213 30.6692 29.2414C30.6692 28.9067 30.5335 28.6444 30.2622 28.4545C30.027 28.2736 29.7286 28.1832 29.3668 28.1832Z" fill="url(#paint1_linear)"/>
<defs>
<linearGradient id="paint0_linear" x1="4.06121" y1="36.6364" x2="37.7598" y2="20.827" gradientUnits="userSpaceOnUse">
<stop stop-color="#30BAC6"/>
<stop offset="1" stop-color="#B6509E"/>
</linearGradient>
<linearGradient id="paint1_linear" x1="30.5981" y1="28.9237" x2="22.9129" y2="35.8965" gradientUnits="userSpaceOnUse">
<stop stop-color="#B155A0"/>
<stop offset="1" stop-color="#49BFCA"/>
</linearGradient>
</defs>
</svg>
