<svg  viewBox="0 0 16 16" fill="none" xmlns="http://www.w3.org/2000/svg">
<path fill-rule="evenodd" clip-rule="evenodd" d="M8.55401 13.004V13.364L8.55376 13.3688C8.55143 13.4147 8.54112 13.6184 8.37201 13.774C8.20962 13.9126 8.0237 13.9022 7.98512 13.9001L7.98401 13.9C7.91601 13.892 7.69801 13.854 7.57201 13.678C7.47001 13.534 7.46201 13.346 7.46001 13.286C7.45832 13.2422 7.46055 13.2133 7.46248 13.1881C7.46514 13.1534 7.46727 13.1258 7.45801 13.076C7.43001 12.922 7.33601 12.82 7.30401 12.786C7.28801 12.768 7.13401 12.616 6.91401 12.61C6.67201 12.602 6.43601 12.774 6.33201 13.038V13.976C6.29801 14.252 6.06401 14.462 5.79001 14.468C5.52601 14.474 5.29001 14.288 5.23201 14.026V13.032C5.17801 12.77 4.95001 12.578 4.68801 12.572C4.41401 12.564 4.17001 12.762 4.11601 13.036V14.866C4.05801 15.128 3.82401 15.312 3.56401 15.308C3.32201 15.304 3.10601 15.138 3.03601 14.898V5.252C3.07201 4.848 3.24801 3.368 4.48401 2.15199C5.95601 0.70199 7.81001 0.73399 8.13401 0.74599C9.96001 0.80799 11.132 1.85999 11.438 2.15199C12.742 3.402 12.94 4.93 12.98 5.33C12.978 6.92 12.9755 8.51001 12.973 10.1V10.1V10.1C12.9705 11.69 12.968 13.28 12.966 14.87C12.902 15.12 12.69 15.296 12.456 15.306C12.174 15.318 11.908 15.09 11.878 14.774V13.02C11.82 12.75 11.576 12.56 11.308 12.57C11.024 12.58 10.786 12.814 10.772 13.108V13.922C10.764 14.198 10.554 14.426 10.288 14.462C10.008 14.498 9.73801 14.312 9.67001 14.03V13.112C9.65201 12.842 9.45201 12.622 9.19801 12.58C8.91801 12.534 8.63401 12.714 8.55401 13.004ZM7.08196 5.38998C7.08196 5.97651 6.60649 6.45199 6.01995 6.45199C5.43342 6.45199 4.95795 5.97651 4.95795 5.38998C4.95795 4.80345 5.43342 4.32797 6.01995 4.32797C6.60649 4.32797 7.08196 4.80345 7.08196 5.38998ZM9.69402 6.45199C10.2805 6.45199 10.756 5.97651 10.756 5.38998C10.756 4.80345 10.2805 4.32797 9.69402 4.32797C9.10749 4.32797 8.63202 4.80345 8.63202 5.38998C8.63202 5.97651 9.10749 6.45199 9.69402 6.45199ZM8.84197 7.31399C8.84197 7.31399 8.73597 7.78 8.22597 7.84C7.33795 7.946 7.23395 7.31399 7.23395 7.31399C7.23395 7.31399 7.18195 6.96999 7.56996 7.08399C7.95796 7.19799 8.51597 7.08399 8.51597 7.08399C8.51597 7.08399 8.92198 6.98599 8.84197 7.31399Z" fill="url(#paint0_linear)"/>
<defs>
<linearGradient id="paint0_linear" x1="2.49721" y1="14.2119" x2="12.8691" y2="4.82402" gradientUnits="userSpaceOnUse">
<stop offset="0.229" stop-color="#8ADAE2"/>
<stop offset="0.72" stop-color="#9EADCE"/>
<stop offset="1" stop-color="#C499C9"/>
</linearGradient>
</defs>
</svg>
