<svg viewBox="0 0 40 40" fill="none" xmlns="http://www.w3.org/2000/svg">
<path d="M34.241 13.4214C34.0977 5.8625 27.8857 -0.141443 20.3626 0.00253633C13.04 0.139317 7.1433 6.07127 7.00716 13.4214C7.00716 13.4574 7 13.4934 7 13.5222V13.731V38.4738C7 39.3161 7.68067 39.9928 8.5118 39.9928C9.34293 39.9928 10.0236 39.3089 10.0236 38.4738V34.0537C10.0236 33.2114 10.7043 32.5347 11.5354 32.5347C12.3665 32.5347 13.0472 33.2186 13.0472 34.0537V36.1486C13.0687 36.9908 13.7565 37.6531 14.5948 37.6387C15.4044 37.6243 16.0565 36.962 16.0779 36.1486V34.0537C16.0779 33.2114 16.7586 32.5347 17.5897 32.5347C18.428 32.5347 19.1015 33.2186 19.1015 34.0537V34.6296C19.1015 35.4718 19.7822 36.1486 20.6133 36.1486C21.4516 36.1486 22.1251 35.4646 22.1251 34.6296V34.0537C22.1466 33.2114 22.8345 32.5491 23.6728 32.5635C24.4824 32.5779 25.1344 33.2402 25.1559 34.0537V36.1486C25.1559 36.9908 25.8366 37.6675 26.6677 37.6675C27.4988 37.6675 28.1938 36.998 28.1938 36.1557V34.0609C28.1938 33.2186 28.8745 32.5419 29.7056 32.5419C30.5439 32.5419 31.2174 33.2258 31.2174 34.0609V38.481C31.2174 39.3233 31.8981 40 32.7292 40C33.5603 40 34.241 39.3161 34.241 38.481V13.5294C34.2482 13.4934 34.2482 13.4574 34.241 13.4214ZM15.5979 15.6171C14.2581 15.6171 13.1762 14.3717 13.1762 12.8239C13.1762 11.2761 14.2652 10.0307 15.5979 10.0307C16.9306 10.0307 18.0196 11.2761 18.0196 12.8239C18.0196 14.3717 16.9377 15.6171 15.5979 15.6171ZM20.728 19.5621C19.5099 19.5621 18.5283 18.835 18.5283 17.9352C18.5283 17.0353 19.5171 17.5824 20.728 17.5824C21.9388 17.5824 22.9276 17.0425 22.9276 17.9352C22.9276 18.8278 21.946 19.5549 20.728 19.5621ZM25.6503 15.6171C24.3104 15.6171 23.2285 14.3717 23.2285 12.8239C23.2285 11.2761 24.3104 10.0307 25.6503 10.0307C26.9901 10.0307 28.072 11.2761 28.072 12.8239C28.072 14.3717 26.9829 15.6171 25.6503 15.6171Z" fill="url(#paint0_linear)"/>
<defs>
<linearGradient id="paint0_linear" x1="6.02481" y1="38.2515" x2="41.0941" y2="21.883" gradientUnits="userSpaceOnUse">
<stop stop-color="#30BAC6"/>
<stop offset="1" stop-color="#B6509E"/>
</linearGradient>
</defs>
</svg>
