<svg  viewBox="0 0 16 16" fill="none" xmlns="http://www.w3.org/2000/svg">
<path d="M2.56159 11.9083C2.39017 11.8037 2.24851 11.6568 2.15018 11.4816C2.05184 11.3065 2.00013 11.1091 2 10.9083V8.63114C2.00005 8.54507 2.02279 8.46053 2.06592 8.38604C2.10905 8.31155 2.17105 8.24974 2.24567 8.20684C2.32029 8.16394 2.4049 8.14146 2.49097 8.14167C2.57705 8.14188 2.66155 8.16477 2.73596 8.20803L7.87486 11.2057C8.02237 11.2923 8.14469 11.416 8.2297 11.5644C8.31471 11.7128 8.35946 11.8809 8.35951 12.0519V14.4111C8.35951 14.5188 8.32874 14.6265 8.27489 14.7188C8.23465 14.7847 8.18184 14.842 8.11947 14.8874C8.0571 14.9328 7.98639 14.9655 7.91138 14.9836C7.83637 15.0017 7.75853 15.0049 7.6823 14.9929C7.60608 14.9809 7.53296 14.954 7.46713 14.9137L2.56159 11.9083ZM10.2212 7.58746C10.3687 7.67406 10.491 7.7977 10.5761 7.94614C10.6611 8.09457 10.7058 8.26264 10.7059 8.43369V13.2213C10.7059 13.3623 10.6289 13.4931 10.5058 13.5623L9.38011 14.1957C9.36729 14.2034 9.34934 14.2085 9.33395 14.2137V11.5519C9.33395 11.2083 9.15445 10.8877 8.85699 10.7108L4.34379 8.01058V5.01032C4.34384 4.92424 4.36658 4.8397 4.40971 4.76521C4.45284 4.69072 4.51484 4.62892 4.58946 4.58601C4.66408 4.54311 4.74869 4.52064 4.83476 4.52084C4.92084 4.52105 5.00534 4.54394 5.07975 4.58721L10.2212 7.58746ZM12.4701 4.05126C12.7727 4.22564 12.9573 4.54874 12.9573 4.89749V11.8904C12.9573 12.034 12.8778 12.1648 12.7522 12.234L11.6854 12.811V7.94134C11.6854 7.59772 11.5059 7.27974 11.211 7.10281L6.60039 4.3359V1.4895C6.60039 1.40232 6.62347 1.31769 6.6645 1.24333C6.80041 1.00998 7.10043 0.930481 7.33378 1.06639L12.4701 4.05126Z" fill="#0AD394"/>
</svg>
