<svg xmlns="http://www.w3.org/2000/svg" viewBox="0 0 800 800"><linearGradient id="a" x1="322.323" x2="453.787" y1="405.315" y2="872.74" gradientTransform="translate(0 -278)" gradientUnits="userSpaceOnUse"><stop offset="0" stop-color="#f44336"/><stop offset=".123" stop-color="#f66342"/><stop offset=".392" stop-color="#fbb45f"/><stop offset=".578" stop-color="#fef075"/><stop offset=".596" stop-color="#f2ed7c"/><stop offset=".707" stop-color="#acdaa7"/><stop offset=".806" stop-color="#75cbc9"/><stop offset=".891" stop-color="#4dc0e1"/><stop offset=".959" stop-color="#34b9f0"/><stop offset="1" stop-color="#2bb7f6"/></linearGradient><path fill="url(#a)" d="M704.9 372.1c-1.3-22.7-6.4-40.9-10.3-52.4 0 0-7.9-22-22.2-42.6-50.9-73.6-191.6-131.6-216.9-142-29.8-12.3-59.8-21.2-59.8-21.2-7.7-2.3-15.8-4.6-24.5-6.8-36.9-9.3-69-13.7-92.9-15.8-11.6-1-49.9.4-86.7 21.6-55.5 31.9-74.1 91.6-85.8 129C91.7 286.7 91 325.4 91 356.7c0 24.4 1.6 52.1 6 82.5 3 20.5 8.9 59.8 25.5 105 18.1 49.7 55.5 152 127.4 162.6 6.3.9 18.4 2.5 32.9-1.7 56.2-16 91.6-102.6 93-214.7 1.3-25.3 1.2-54.6-1.8-87-1.9-20.2-5-52.6-16.5-93.4-8.3-29.5-18.1-53.6-26.1-71-4-12.5-6.3-27.4 1.2-36.3 15.9-18.6 66.3.1 115.7 18.9A822.1 822.1 0 01569 279.4c36.6 26.5 37.8 42.5 36.4 49.7-5.5 28.1-71.6 40.2-130.8 50.8-30.9 5.6-46 10-64.1 8.3-13.3-1.2-18.5-3.6-23.6.2-11.9 8.8.8 33 .7 82.5 0 17.4-1.7 36.5-2.5 45.8-2.8 33-6.6 51.5 1.7 56.3 3.9 2.2 8.6.4 13.3-1.4 18-6.7 36.7-11.4 55.2-16.4 49.1-13.1 97.8-25.3 113.2-29.2 21.7-4 39.3-9.2 51.9-13.4 22.3-7.4 35.4-12.9 47.7-23.1 41.4-33.8 37.8-100.1 36.8-117.4zm-432.8 283c-45.1 10.7-97-45.5-116-125.6s2.1-153.6 47.2-164.3 97 45.5 116 125.6c18.9 80-2.2 153.6-47.2 164.3z"/><linearGradient id="b" x1="196.24" x2="257.764" y1="685.638" y2="904.518" gradientTransform="translate(0 -278)" gradientUnits="userSpaceOnUse"><stop offset=".392" stop-color="#fef075"/><stop offset=".418" stop-color="#f2ed7c"/><stop offset=".577" stop-color="#acdaa7"/><stop offset=".721" stop-color="#75cbc9"/><stop offset=".844" stop-color="#4dc0e1"/><stop offset=".941" stop-color="#34b9f0"/><stop offset="1" stop-color="#2bb7f6"/></linearGradient><path fill="url(#b)" d="M186.5 422.2c-42.1 46.7.3 139.6 5 149.5 13.4 28.5 27.4 39.8 39.2 45.8a77.3 77.3 0 0028.3 7.8c3.1-.2 10-.9 17-5.6 6.2-4.1 9.4-9.3 10.9-12a148.1 148.1 0 01-40.6-36.8c-2.7-3.5-51.3-70.2-22.4-126.9 7.8-15.3 19-25.5 28.1-32.1-4.1-3.9-11.2-9.3-21-10.8-22.4-3.5-40.9 17-44.5 21.1z"/></svg>