<svg viewBox="0 0 56 56" fill="none" xmlns="http://www.w3.org/2000/svg">
<path d="M28 56C43.464 56 56 43.464 56 28C56 12.536 43.464 0 28 0C12.536 0 0 12.536 0 28C0 43.464 12.536 56 28 56Z" fill="#ECF1FF" fill-opacity="0.75"/>
<path d="M38.4203 21H19.0625C18.6136 21 18.25 20.6084 18.25 20.125C18.25 19.6416 18.6136 19.25 19.0625 19.25H38.5625C39.0114 19.25 39.375 18.8584 39.375 18.375C39.375 16.9252 38.2837 15.75 36.9375 15.75H18.25C16.4549 15.75 15 17.3168 15 19.25V36.75C15 38.6832 16.4549 40.25 18.25 40.25H38.4203C39.8432 40.25 41 39.0726 41 37.625V23.625C41 22.1774 39.8432 21 38.4203 21ZM36.125 32.375C35.2277 32.375 34.5 31.5913 34.5 30.625C34.5 29.6587 35.2277 28.875 36.125 28.875C37.0223 28.875 37.75 29.6587 37.75 30.625C37.75 31.5913 37.0223 32.375 36.125 32.375Z" fill="#3F75FF"/>
</svg>
