<svg viewBox="0 0 16 16" fill="none" xmlns="http://www.w3.org/2000/svg">
<path d="M13.06 4.10884C11.848 3.16763 9.9315 3.00819 9.8505 3.00143C9.7225 2.9908 9.601 3.06086 9.5485 3.17392C9.5465 3.17778 9.4395 3.47782 9.336 3.76724C10.7445 4.00544 11.7015 4.53402 11.7525 4.56301C11.9915 4.69733 12.0715 4.99351 11.932 5.22398C11.8395 5.37762 11.672 5.46362 11.5 5.46362C11.4145 5.46362 11.3285 5.44285 11.2495 5.3984C11.2355 5.39018 9.8315 4.61809 8.001 4.61809C6.17 4.61809 4.7655 5.39067 4.7515 5.3984C4.513 5.53223 4.207 5.45348 4.0685 5.22253C3.93 4.99254 4.0105 4.69733 4.2485 4.56301C4.2995 4.53402 5.26 4.00351 6.6725 3.76579C6.5635 3.47299 6.4535 3.17778 6.4515 3.17392C6.399 3.06037 6.2775 2.98886 6.1495 3.00143C6.0685 3.00771 4.152 3.16715 2.924 4.1214C2.282 4.69443 1 8.04468 1 10.9412C1 10.9925 1.0135 11.0422 1.04 11.0867C1.9255 12.5893 4.3395 12.9826 4.8895 12.9995C4.893 13 4.896 13 4.899 13C4.996 13 5.0875 12.9551 5.145 12.8792L5.74 12.1004C4.435 11.7964 3.745 11.3186 3.7035 11.2891C3.4815 11.1311 3.4335 10.8287 3.597 10.6137C3.76 10.3996 4.072 10.3523 4.294 10.5093C4.3125 10.5209 5.586 11.3824 8 11.3824C10.4235 11.3824 11.6935 10.5175 11.706 10.5088C11.928 10.3532 12.241 10.4001 12.4035 10.6156C12.5655 10.8301 12.5185 11.1306 12.2975 11.2882C12.256 11.3176 11.5695 11.7945 10.2675 12.0984L10.855 12.8787C10.9125 12.9551 11.004 12.9995 11.101 12.9995C11.1045 12.9995 11.1075 12.9995 11.1105 12.999C11.661 12.9821 14.075 12.5888 14.96 11.0862C14.9865 11.0417 15 10.992 15 10.9408C15 8.04468 13.718 4.69443 13.06 4.10884ZM6 9.93288C5.4475 9.93288 5 9.39222 5 8.72497C5 8.05773 5.4475 7.51707 6 7.51707C6.5525 7.51707 7 8.05773 7 8.72497C7 9.39222 6.5525 9.93288 6 9.93288ZM10 9.93288C9.4475 9.93288 9 9.39222 9 8.72497C9 8.05773 9.4475 7.51707 10 7.51707C10.5525 7.51707 11 8.05773 11 8.72497C11 9.39222 10.5525 9.93288 10 9.93288Z" fill="currentColor"/>
</svg>
