<svg  viewBox="0 0 412 58" fill="none" xmlns="http://www.w3.org/2000/svg">
<path d="M0 6.72772H12.8057V52.0002H0V6.72772Z" fill="currentColor"/>
<path d="M64.9898 6.72772V52.0002H54.4478L34.4632 27.8764V52.0002H21.9162V6.72772H32.4583L52.4429 30.8515V6.72772H64.9898Z" fill="currentColor"/>
<path d="M89.9326 52.9057C86.2677 52.9057 82.7106 52.453 79.2613 51.5475C75.8119 50.6421 73.0093 49.4348 70.8535 47.9257L75.0574 38.4832C77.0839 39.8198 79.4337 40.8977 82.107 41.7169C84.7802 42.5361 87.4103 42.9457 89.9973 42.9457C94.9126 42.9457 97.3703 41.7169 97.3703 39.2593C97.3703 37.9658 96.6588 37.0172 95.236 36.4136C93.8563 35.7668 91.6142 35.0985 88.5098 34.4086C85.1036 33.6756 82.2579 32.8995 79.9727 32.0803C77.6875 31.218 75.7257 29.8598 74.0873 28.0058C72.4488 26.1518 71.6296 23.651 71.6296 20.5035C71.6296 17.744 72.3842 15.2648 73.8932 13.0659C75.4023 10.8238 77.6444 9.05602 80.6194 7.76252C83.6376 6.46902 87.3241 5.82227 91.6789 5.82227C94.6539 5.82227 97.5859 6.1672 100.475 6.85707C103.363 7.50382 105.907 8.47394 108.106 9.76744L104.161 19.2747C99.8495 16.9464 95.6672 15.7822 91.6142 15.7822C89.0703 15.7822 87.2163 16.1703 86.0521 16.9464C84.888 17.6794 84.3059 18.6495 84.3059 19.8567C84.3059 21.064 84.9958 21.9695 86.3755 22.5731C87.7552 23.1767 89.9758 23.8019 93.037 24.4487C96.4864 25.1817 99.3321 25.9793 101.574 26.8416C103.859 27.6609 105.821 28.9975 107.46 30.8515C109.141 32.6624 109.982 35.1416 109.982 38.2891C109.982 41.0055 109.227 43.4631 107.718 45.6621C106.209 47.861 103.946 49.6288 100.927 50.9654C97.9092 52.2589 94.2443 52.9057 89.9326 52.9057Z" fill="currentColor"/>
<path d="M124.902 16.8817H110.997V6.72772H151.548V16.8817H137.708V52.0002H124.902V16.8817Z" fill="currentColor"/>
<path d="M184.378 43.2044H165.234L161.677 52.0002H148.613L168.597 6.72772H181.209L201.258 52.0002H187.935L184.378 43.2044ZM180.627 33.7619L174.806 19.2747L168.985 33.7619H180.627Z" fill="currentColor"/>
<path d="M234.26 55C234.26 56.6569 235.607 58.0163 237.255 57.8472C251.864 56.3482 263.26 44.0049 263.26 29C263.26 13.9951 251.864 1.6518 237.255 0.152804C235.607 -0.0163155 234.26 1.34315 234.26 3V11C234.26 12.6569 235.616 13.9687 237.241 14.2962C244.097 15.6786 249.26 21.7364 249.26 29C249.26 36.2636 244.097 42.3214 237.241 43.7038C235.616 44.0313 234.26 45.3431 234.26 47V55Z" fill="#3F75FF"/>
<path d="M225.26 5.55782C225.26 3.51831 223.263 2.08002 221.434 2.98319C211.851 7.71639 205.26 17.5885 205.26 29.0002C205.26 40.4118 211.851 50.2839 221.434 55.0171C223.263 55.9203 225.26 54.482 225.26 52.4425V5.55782Z" fill="#3F75FF"/>
<path d="M303.12 43.2043H283.976L280.419 52.0001H267.354L287.339 6.72754H299.951L320 52.0001H306.677L303.12 43.2043ZM299.369 33.7617L293.548 19.2745L287.727 33.7617H299.369Z" fill="currentColor"/>
<path d="M344.326 6.72754C348.422 6.72754 351.98 7.41741 354.998 8.79714C358.016 10.1338 360.344 12.074 361.983 14.6179C363.621 17.1187 364.44 20.0722 364.44 23.4784C364.44 26.8846 363.621 29.8381 361.983 32.3388C360.344 34.8396 358.016 36.7799 354.998 38.1596C351.98 39.4962 348.422 40.1645 344.326 40.1645H336.436V52.0001H323.63V6.72754H344.326ZM343.55 30.0752C346.18 30.0752 348.164 29.5147 349.5 28.3937C350.837 27.2295 351.505 25.5911 351.505 23.4784C351.505 21.3657 350.837 19.7272 349.5 18.5631C348.164 17.3989 346.18 16.8168 343.55 16.8168H336.436V30.0752H343.55Z" fill="currentColor"/>
<path d="M391.38 6.72754C395.476 6.72754 399.033 7.41741 402.051 8.79714C405.069 10.1338 407.398 12.074 409.036 14.6179C410.675 17.1187 411.494 20.0722 411.494 23.4784C411.494 26.8846 410.675 29.8381 409.036 32.3388C407.398 34.8396 405.069 36.7799 402.051 38.1596C399.033 39.4962 395.476 40.1645 391.38 40.1645H383.49V52.0001H370.684V6.72754H391.38ZM390.604 30.0752C393.234 30.0752 395.217 29.5147 396.554 28.3937C397.891 27.2295 398.559 25.5911 398.559 23.4784C398.559 21.3657 397.891 19.7272 396.554 18.5631C395.217 17.3989 393.234 16.8168 390.604 16.8168H383.49V30.0752H390.604Z" fill="currentColor"/>
</svg>
