<svg width="40" height="40" viewBox="0 0 40 40" fill="none" xmlns="http://www.w3.org/2000/svg">
<path d="M20 38.2752C20 39.268 20.8046 40.0812 21.7899 39.9935C31.997 39.0849 40 30.4805 40 20C40 9.51953 31.997 0.915054 21.7899 0.00648919C20.8046 -0.0812148 20 0.731997 20 1.72476V7.81995C20 8.81272 20.8084 9.60123 21.783 9.77115C26.6466 10.6192 30.3448 14.8761 30.3448 20C30.3448 25.1239 26.6466 29.3808 21.783 30.2288C20.8084 30.3988 20 31.1873 20 32.18V38.2752Z" fill="currentColor"/>
<path d="M13.7931 3.38976C13.7931 2.16772 12.6019 1.30513 11.5 1.82512C4.70451 5.03194 0 11.9646 0 20.0001C0 28.0356 4.70451 34.9683 11.5 38.1751C12.6019 38.6951 13.7931 37.8325 13.7931 36.6105V3.38976Z" fill="currentColor"/>
</svg>
