<svg  viewBox="0 0 16 16" fill="none" xmlns="http://www.w3.org/2000/svg">
<path d="M13.768 4.702V10.836C13.768 10.836 13.802 11.504 13.256 11.504C12.71 11.504 12.818 10.846 12.818 10.846V5.798C12.818 5.798 12.866 5.24 12.598 5.506C12.33 5.772 9.532 7.626 9.532 7.626C9.532 7.626 9.24 7.76 9.24 8.21V11.062C9.24 11.062 9.33 11.574 8.802 11.574C8.802 11.574 8.436 11.58 8.436 11.282V7.918C8.436 7.918 8.392 7.552 8.802 7.26C9.212 6.968 13.11 4.336 13.11 4.336C13.11 4.336 13.734 4.064 13.768 4.702V4.702ZM7.562 11.282V8.066C7.562 8.066 7.562 7.638 7.196 7.408L2.816 4.336C2.816 4.336 2.304 4.114 2.232 4.628V11.21C2.232 11.21 2.22 11.568 2.524 11.648C2.524 11.648 3.036 11.818 3.036 11.136V5.872C3.036 5.872 2.97 5.47 3.328 5.726C3.686 5.982 6.468 7.92 6.468 7.92C6.468 7.92 6.688 8.008 6.688 8.286V11.284C6.688 11.284 6.658 11.726 7.126 11.722C7.592 11.718 7.562 11.282 7.562 11.282Z" fill="#1AAB9A"/>
</svg>
