<svg  viewBox="0 0 40 40" fill="none" xmlns="http://www.w3.org/2000/svg">
<path d="M28.6572 14.5486C28.3311 14.374 27.964 14.2824 27.5906 14.2824C27.2172 14.2824 26.8501 14.374 26.5241 14.5486L21.6305 17.2712L18.3068 19.0475L13.4132 21.77C13.0872 21.9446 12.72 22.0362 12.3467 22.0362C11.9733 22.0362 11.6062 21.9446 11.2801 21.77L7.39035 19.6396C7.07396 19.4654 6.80966 19.2161 6.62286 18.9155C6.43606 18.6149 6.33307 18.2733 6.32382 17.9234V13.7241C6.31954 13.3716 6.41689 13.0248 6.60509 12.7219C6.7933 12.4191 7.06503 12.1721 7.39035 12.008L11.2174 9.93638C11.5434 9.76182 11.9106 9.67018 12.2839 9.67018C12.6573 9.67018 13.0244 9.76182 13.3505 9.93638L17.1775 12.008C17.4941 12.182 17.7586 12.4313 17.9454 12.7319C18.1322 13.0325 18.2351 13.3743 18.2441 13.7241V16.4453L21.5677 14.6116V11.8891C21.5722 11.5365 21.4749 11.1896 21.2867 10.8867C21.0985 10.5839 20.8266 10.3368 20.5012 10.1729L13.4132 6.26619C13.0872 6.09163 12.72 6 12.3467 6C11.9733 6 11.6062 6.09163 11.2801 6.26619L4.06671 10.1729C3.74139 10.337 3.46961 10.584 3.28141 10.8868C3.0932 11.1897 2.99586 11.5365 3.00014 11.8891V19.7613C2.99586 20.1139 3.0932 20.4607 3.28141 20.7635C3.46961 21.0664 3.74139 21.3134 4.06671 21.4775L11.2801 25.3842C11.6062 25.5588 11.9733 25.6504 12.3467 25.6504C12.72 25.6504 13.0872 25.5588 13.4132 25.3842L18.3068 22.7246L21.6305 20.8896L26.5241 18.23C26.8501 18.0554 27.2172 17.9638 27.5906 17.9638C27.964 17.9638 28.3311 18.0554 28.6572 18.23L32.4842 20.3016C32.8005 20.4757 33.0647 20.7251 33.2512 21.0257C33.4378 21.3263 33.5405 21.668 33.5493 22.0178V26.2171C33.5537 26.5695 33.4566 26.9162 33.2686 27.219C33.0807 27.5218 32.8092 27.769 32.4842 27.9332L28.6572 30.0636C28.3311 30.2382 27.964 30.3298 27.5906 30.3298C27.2172 30.3298 26.8501 30.2382 26.5241 30.0636L22.697 27.992C22.3806 27.8178 22.1163 27.5685 21.9295 27.2679C21.7427 26.9673 21.6397 26.6257 21.6305 26.2759V23.5533L18.3068 25.3884V28.1109C18.3023 28.4635 18.3996 28.8104 18.5878 29.1133C18.7761 29.4161 19.0479 29.6632 19.3734 29.827L26.5868 33.7338C26.9128 33.9084 27.28 34 27.6533 34C28.0267 34 28.3939 33.9084 28.7199 33.7338L35.9333 29.827C36.2499 29.6531 36.5144 29.4038 36.7012 29.1032C36.888 28.8026 36.9909 28.4608 36.9999 28.1109V20.2247C37.0041 19.8721 36.9068 19.5253 36.7186 19.2225C36.5304 18.9196 36.2587 18.6726 35.9333 18.5085L28.6572 14.5486Z" fill="currentColor"/>
</svg>
