<svg  viewBox="0 0 16 16" fill="currentcolor" xmlns="http://www.w3.org/2000/svg">
<path d="M7.39837 7.23184C7.70419 7.76948 7.0229 7.9356 6.70192 7.9658C6.21741 8.01413 6.1175 7.73323 6.21137 7.38285C6.24165 7.256 6.3113 7.14425 6.4082 7.05968C6.50509 6.9751 6.6262 6.92072 6.75642 6.90865C6.8836 6.89657 7.01078 6.92072 7.12584 6.97811C7.23787 7.03249 7.33176 7.12309 7.39837 7.23184ZM9.29999 6.23811C8.94571 8.95349 13.721 8.38867 13.6301 10.5483C14.1025 9.93513 14.3023 8.26786 12.9155 7.41004C11.6831 6.64284 10.0722 7.06269 9.29999 6.23811ZM12.0525 5.21419C12.0222 5.18396 11.9889 5.1568 11.9586 5.12961C11.9889 5.1568 12.0222 5.187 12.0525 5.21419ZM13.1608 7.19258L13.1577 7.18954C13.1158 7.10842 13.0661 7.03155 13.0094 6.95999C12.8483 6.74174 12.6176 6.58508 12.3553 6.51599C12.1797 6.47068 12.001 6.44351 11.8224 6.43141C11.6407 6.41933 11.453 6.41027 11.2652 6.40121C10.8897 6.38007 10.5021 6.34081 10.1266 6.23509C10.0328 6.2079 9.9389 6.1777 9.84807 6.14447C9.79963 6.12636 9.75723 6.10824 9.71181 6.09011C9.66638 6.06897 9.61793 6.04781 9.56948 6.02366C9.39084 5.92701 9.22732 5.80618 9.08198 5.66725C8.79129 5.39539 8.56417 5.09035 8.33405 4.79132C8.11905 4.49228 7.88891 4.20536 7.64061 3.9335C7.39837 3.66468 7.11069 3.44117 6.79275 3.26901C6.46269 3.10259 6.10412 3.00011 5.73596 2.96697C6.1175 2.92467 6.50206 2.973 6.8624 3.1059C7.22578 3.24787 7.55885 3.4593 7.84046 3.72812C8.02461 3.90119 8.19756 4.0858 8.35826 4.28085C9.55435 4.04527 10.5264 4.25368 11.2713 4.66143L11.2894 4.6705C11.5256 4.80037 11.7497 4.95443 11.9526 5.13262C11.9859 5.15981 12.0162 5.19001 12.0464 5.2172C12.2039 5.36218 12.3523 5.52227 12.4885 5.68839L12.4976 5.7035C12.9427 6.25924 13.1608 6.83918 13.1608 7.19258V7.19258ZM13.1608 7.19258L13.1577 7.18653L13.1608 7.19258Z" fill="currentcolor"/>
<path d="M5.8043 3.31486C6.11022 3.36022 6.42222 3.48116 6.62214 3.71402C6.82205 3.94685 6.89779 4.24926 6.95534 4.53653C7.00381 4.7603 7.04016 4.98711 7.12799 5.19878C7.17039 5.30159 7.23401 5.39231 7.2855 5.48907C7.32792 5.57073 7.40667 5.64329 7.43695 5.72797C7.44302 5.74007 7.44302 5.75518 7.44302 5.76727C7.43999 5.77937 7.43695 5.7945 7.42787 5.80357C7.32185 5.9215 7.03409 5.79147 6.92505 5.73703C6.73725 5.64329 6.57064 5.5163 6.4313 5.35906C5.99512 4.87522 5.77098 4.17667 5.78611 3.54165C5.78611 3.46605 5.79218 3.39046 5.8043 3.31486V3.31486ZM10.9113 8.77611C10.2509 10.6237 13.2437 11.8605 12.1229 13.7384C13.274 13.2606 13.8192 11.8243 13.3436 10.6812C12.9256 9.68028 11.6897 9.31438 10.9113 8.77611ZM6.95534 11.1922C7.13459 11.0559 7.33118 10.9441 7.53994 10.8596C7.75137 10.7751 7.97048 10.7113 8.19421 10.6691C8.63646 10.5844 9.07568 10.5633 9.44522 10.4151C9.62696 10.3425 9.79357 10.2397 9.93895 10.1066C10.0783 9.97661 10.1873 9.81332 10.2509 9.6349C10.3176 9.44441 10.3449 9.2418 10.3297 9.04222C10.3146 8.82751 10.2631 8.61282 10.1843 8.41324C10.3479 8.58561 10.469 8.79425 10.5327 9.02407C10.5963 9.25389 10.6053 9.4928 10.5539 9.72563C10.4963 9.97056 10.3721 10.1974 10.1934 10.3758C10.0173 10.5488 9.80533 10.681 9.57244 10.7628C9.35132 10.8415 9.11808 10.8898 8.88485 10.905C8.65766 10.9231 8.43957 10.9292 8.22451 10.9413C7.79135 10.9564 7.36425 11.0441 6.95534 11.1922V11.1922ZM11.1748 14.4369C11.1082 14.4914 11.0415 14.5458 10.9688 14.5942C10.8961 14.6426 10.8174 14.6849 10.7386 14.7242C10.572 14.8059 10.3903 14.8482 10.2055 14.8452C9.7027 14.8361 9.34828 14.4611 9.14231 14.0378C8.99996 13.7505 8.90302 13.439 8.73641 13.1639C8.49712 12.7708 8.08518 12.4563 7.60657 12.5137C7.4097 12.5379 7.22794 12.6256 7.11891 12.798C6.83115 13.2425 7.2431 13.8684 7.76711 13.7807C7.85711 13.7688 7.94204 13.7322 8.01247 13.6749C8.08518 13.6144 8.13969 13.5328 8.17301 13.4421C8.20633 13.3483 8.21543 13.2455 8.19421 13.1487C8.17301 13.0459 8.11244 12.9552 8.02459 12.8977C8.12454 12.9461 8.20331 13.0308 8.24268 13.1336C8.2851 13.2395 8.29418 13.3574 8.27298 13.4693C8.25193 13.5862 8.20078 13.6956 8.12456 13.7868C8.04126 13.8797 7.93456 13.9487 7.81558 13.9864C7.69746 14.0257 7.57024 14.0408 7.44604 14.0257C7.27189 14.0012 7.10759 13.9302 6.97049 13.8201C6.80692 13.69 6.68878 13.5237 6.54036 13.3786C6.37186 13.2026 6.17405 13.0573 5.95575 12.9492C5.80439 12.8827 5.64582 12.834 5.48322 12.804C5.40143 12.7859 5.31965 12.7738 5.23786 12.7647C5.20151 12.7617 5.01674 12.7193 4.98947 12.7435C5.24396 12.5079 5.52209 12.2991 5.81943 12.1206C6.12538 11.9392 6.45252 11.8001 6.79176 11.7033C7.14616 11.6035 7.5157 11.5763 7.8792 11.6186C8.06678 11.6399 8.25037 11.6877 8.42444 11.7607C8.60919 11.8333 8.7758 11.9392 8.92422 12.0722C9.06963 12.2113 9.18775 12.3746 9.27257 12.5591C9.34828 12.7314 9.40282 12.9098 9.43917 13.0943C9.54517 13.6447 9.50581 14.4974 10.2237 14.6214C10.26 14.6275 10.2994 14.6335 10.3358 14.6365L10.4539 14.6396C10.5357 14.6335 10.6144 14.6214 10.6932 14.6063C10.8628 14.5609 11.0203 14.5065 11.1748 14.4369V14.4369ZM7.00381 13.8382L6.98562 13.8231L7.00381 13.8382ZM6.36163 6.08177C6.33438 6.18156 6.28895 6.27832 6.22836 6.35998C6.11326 6.51117 5.95877 6.62911 5.7831 6.70169C5.62518 6.77031 5.45762 6.81416 5.28633 6.8317C5.24927 6.83773 5.21179 6.84077 5.17424 6.84078C5.06521 6.8438 4.96222 6.88312 4.8774 6.95267C4.79226 7.02065 4.73077 7.11378 4.70171 7.21878C4.68944 7.27161 4.68034 7.32512 4.67446 7.37903C4.65627 7.51815 4.65326 7.66329 4.63811 7.83868C4.60071 8.13594 4.51476 8.42505 4.38367 8.69446C4.21404 9.05431 4.0232 9.34462 4.06562 9.75889C4.09591 10.028 4.23221 10.2095 4.41395 10.3939C4.74413 10.7326 5.48322 10.8838 5.31661 11.7184C5.21666 12.2174 4.39578 12.7375 3.23868 12.9219C3.35378 12.9038 3.09025 12.4593 3.0751 12.4321C2.95092 12.2385 2.81461 12.0541 2.71767 11.8424C2.52382 11.4311 2.43598 10.9594 2.51473 10.5088C2.59956 10.0371 2.94788 9.67423 3.23566 9.31438C3.58097 8.88498 3.94142 8.32251 4.0232 7.76308C4.04139 7.627 4.05652 7.45766 4.08682 7.29134C4.11407 7.10386 4.17466 6.92546 4.25948 6.75611C4.31703 6.64725 4.39578 6.54746 4.48665 6.46279C4.53514 6.41856 4.56723 6.35921 4.57768 6.29442C4.58813 6.22962 4.57633 6.1632 4.5442 6.10597L2.69951 2.77962L5.3469 6.05758C5.37681 6.09579 5.41495 6.12678 5.45847 6.14825C5.502 6.16971 5.5498 6.1811 5.59833 6.18156C5.64636 6.18282 5.69408 6.17345 5.73807 6.1541C5.78206 6.13476 5.82123 6.10593 5.85277 6.06968C5.88608 6.03037 5.90425 5.98198 5.90728 5.93056C5.90728 5.87916 5.89213 5.82776 5.86185 5.78845C5.68919 5.5677 5.50744 5.34091 5.32873 5.12015L4.66234 4.2916L3.3235 2.64051L1.5 0.345337L3.49615 2.49233L4.9198 4.07084L5.62861 4.86312C5.86486 5.12923 6.10114 5.38626 6.33438 5.66749L6.37375 5.71587L6.38285 5.78845C6.3889 5.8822 6.38285 5.98198 6.36163 6.08177V6.08177Z" fill="currentcolor"/>
</svg>
