<svg  viewBox="0 0 16 16" fill="none" xmlns="http://www.w3.org/2000/svg">
<path d="M9.86535 12.9335C13.5154 11.844 14.5282 7.9164 13.7589 5.61088C13.6994 5.43254 13.457 5.48216 13.4337 5.66834C13.0478 8.75078 10.1351 10.2574 8.4782 10.5984C8.39722 10.6151 8.31659 10.5747 8.27958 10.5025L7.7516 9.47151C7.68483 9.34114 7.49611 9.33622 7.42231 9.46293L5.02458 13.5797C4.95922 13.6919 5.03077 13.8331 5.16179 13.8504L10.0555 14.4983C10.2022 14.5177 10.3126 14.3708 10.2495 14.24L9.74411 13.1914C9.69453 13.0886 9.754 12.9667 9.86535 12.9335Z" fill="currentColor"/>
<path d="M9.86535 12.9335C13.5154 11.844 14.5282 7.9164 13.7589 5.61088C13.6994 5.43254 13.457 5.48216 13.4337 5.66834C13.0478 8.75078 10.1351 10.2574 8.4782 10.5984C8.39722 10.6151 8.31659 10.5747 8.27958 10.5025L7.7516 9.47151C7.68483 9.34114 7.49611 9.33622 7.42231 9.46293L5.02458 13.5797C4.95922 13.6919 5.03077 13.8331 5.16179 13.8504L10.0555 14.4983C10.2022 14.5177 10.3126 14.3708 10.2495 14.24L9.74411 13.1914C9.69453 13.0886 9.754 12.9667 9.86535 12.9335Z" fill="currentColor"/>
<path d="M6.13465 3.0665C2.48457 4.15597 1.47177 8.0836 2.24108 10.3891C2.30059 10.5675 2.54302 10.5178 2.56632 10.3317C2.95216 7.24922 5.86494 5.74265 7.52179 5.4016C7.60278 5.38493 7.68341 5.42528 7.72042 5.49755L8.2484 6.52849C8.31517 6.65886 8.50389 6.66378 8.57769 6.53707L10.9754 2.42029C11.0408 2.30808 10.9692 2.16691 10.8382 2.14957L5.94448 1.50174C5.79783 1.48233 5.68745 1.62925 5.75046 1.75998L6.25589 2.80857C6.30547 2.91142 6.246 3.03326 6.13465 3.0665Z" fill="currentColor"/>
<path d="M6.13465 3.0665C2.48457 4.15597 1.47177 8.0836 2.24108 10.3891C2.30059 10.5675 2.54302 10.5178 2.56632 10.3317C2.95216 7.24922 5.86494 5.74265 7.52179 5.4016C7.60278 5.38493 7.68341 5.42528 7.72042 5.49755L8.2484 6.52849C8.31517 6.65886 8.50389 6.66378 8.57769 6.53707L10.9754 2.42029C11.0408 2.30808 10.9692 2.16691 10.8382 2.14957L5.94448 1.50174C5.79783 1.48233 5.68745 1.62925 5.75046 1.75998L6.25589 2.80857C6.30547 2.91142 6.246 3.03326 6.13465 3.0665Z" fill="currentColor"/>
</svg>
