<svg  viewBox="0 0 24 24" fill="none" xmlns="http://www.w3.org/2000/svg">
<path fill-rule="evenodd" clip-rule="evenodd" d="M16.9345 10.3586L17.88 10.5686C18.049 10.6062 18.1695 10.759 18.1695 10.9357V13.0643C18.1695 13.241 18.049 13.3938 17.88 13.4314L16.9345 13.6414C16.8522 13.8987 16.7504 14.1496 16.6302 14.3913L17.1536 15.2233C17.2471 15.372 17.2266 15.5672 17.1043 15.692L15.6313 17.1973C15.5091 17.3223 15.3181 17.3432 15.1726 17.2476L14.3583 16.7127C14.1218 16.8356 13.8763 16.9397 13.6245 17.0237L13.419 17.9899C13.3823 18.1626 13.2327 18.2857 13.0598 18.2857H10.9766C10.8037 18.2857 10.6541 18.1626 10.6174 17.9899L10.4118 17.0237C10.1601 16.9397 9.91456 16.8356 9.67803 16.7127L8.86379 17.2476C8.7183 17.3432 8.52729 17.3222 8.40509 17.1973L6.93202 15.692C6.80982 15.5672 6.78926 15.372 6.88275 15.2233L7.40621 14.3913C7.28598 14.1496 7.18414 13.8987 7.10191 13.6414L6.15635 13.4314C5.9874 13.3938 5.86688 13.241 5.86688 13.0643V10.9357C5.86688 10.759 5.9874 10.6062 6.15635 10.5686L7.10191 10.3586C7.18414 10.1013 7.28598 9.85041 7.40621 9.60871L6.88275 8.77667C6.78926 8.628 6.80982 8.43282 6.93202 8.30795L8.40509 6.8027C8.52729 6.67782 8.7183 6.65682 8.86379 6.75234L9.67803 7.28725C9.91456 7.16438 10.1601 7.06032 10.4118 6.9763L10.6174 6.01008C10.6541 5.83744 10.8037 5.71428 10.9766 5.71428H13.0598C13.2327 5.71428 13.3823 5.83744 13.419 6.01008L13.6245 6.9763C13.8763 7.06032 14.1218 7.16438 14.3583 7.28725L15.1726 6.75234C15.3181 6.65682 15.5091 6.67782 15.6313 6.8027L17.1043 8.30795C17.2266 8.43282 17.2471 8.628 17.1536 8.77667L16.6302 9.60871C16.7504 9.85041 16.8522 10.1013 16.9345 10.3586ZM12.0182 13.5714C12.8675 13.5714 13.556 12.8679 13.556 12C13.556 11.1321 12.8675 10.4286 12.0182 10.4286C11.1689 10.4286 10.4804 11.1321 10.4804 12C10.4804 12.8679 11.1689 13.5714 12.0182 13.5714Z" fill="currentColor"/>
<path d="M1.91842 12C1.55114 12 1.25127 12.3046 1.27394 12.6791C1.39651 14.7043 2.06538 16.6603 3.2125 18.3273C4.48741 20.1799 6.29091 21.5853 8.37669 22.3515C10.4625 23.1177 12.7289 23.2072 14.8663 22.608C16.7895 22.0688 18.524 20.9957 19.8803 19.5137C20.1312 19.2396 20.0897 18.8097 19.8065 18.5708L19.7529 18.5256C19.4697 18.2867 19.0522 18.3295 18.7989 18.6012C17.6278 19.8573 16.1413 20.7677 14.4961 21.229C12.6365 21.7503 10.6647 21.6724 8.85008 21.0058C7.03545 20.3392 5.46641 19.1166 4.35724 17.5047C3.3759 16.0786 2.79687 14.4095 2.67643 12.679C2.65037 12.3047 2.3551 12 1.98783 12H1.91842Z" fill="currentColor"/>
<path d="M22.0981 12C22.4653 12 22.7652 11.6954 22.7425 11.3209C22.62 9.2957 21.9511 7.33972 20.804 5.67274C19.5291 3.82005 17.7256 2.41466 15.6398 1.6485C13.554 0.882334 11.2876 0.792756 9.15016 1.392C7.22696 1.93117 5.49248 3.00433 4.13617 4.48626C3.8853 4.76036 3.92679 5.19031 4.21001 5.42925L4.26353 5.47441C4.54675 5.71335 4.96426 5.67053 5.21759 5.3988C6.38864 4.14274 7.87515 3.23229 9.52042 2.77104C11.38 2.2497 13.3518 2.32763 15.1664 2.99419C16.981 3.66075 18.5501 4.88344 19.6592 6.49529C20.6406 7.92136 21.2196 9.59053 21.3401 11.321C21.3661 11.6953 21.6614 12 22.0287 12H22.0981Z" fill="currentColor"/>
<path d="M2.1132 9.11295C2.08921 9.06104 2.01693 9.06104 1.99294 9.11295L0.0064498 13.4108C-0.0143851 13.4559 0.0177948 13.5078 0.0665811 13.5078L4.03957 13.5078C4.08836 13.5078 4.12054 13.4559 4.0997 13.4108L2.1132 9.11295Z" fill="currentColor"/>
<path d="M21.803 15.6455C21.8256 15.6986 21.8986 15.7003 21.9237 15.6484L23.9931 11.3596C24.0148 11.3144 23.9827 11.2616 23.9334 11.2616L20.0381 11.2616C19.9902 11.2616 19.958 11.3117 19.9771 11.3566L21.803 15.6455Z" fill="currentColor"/>
</svg>
