<svg width="16" height="16" fill="none" xmlns="http://www.w3.org/2000/svg"><path d="M2.66 1.994A.668.668 0 002.574 2h-.147A.427.427 0 002 2.427v.149a.667.667 0 000 .177V4.24a.428.428 0 00.73.302l.434-.435 1.698 1.698a.667.667 0 10.943-.943L4.107 3.164l.435-.434A.427.427 0 004.24 2H2.745a.668.668 0 00-.085-.006zm10.66 0a.667.667 0 00-.074.006H11.76a.428.428 0 00-.302.73l.435.434-1.698 1.698a.667.667 0 10.943.943l1.698-1.698.435.435A.427.427 0 0014 4.24V2.752a.672.672 0 000-.184v-.14A.427.427 0 0013.573 2h-.142a.668.668 0 00-.11-.006zM8 2.667c-.738 0-1.442.151-2.082.423l1.05 1.051A3.97 3.97 0 018 4.001c.357 0 .703.051 1.033.14l1.049-1.05A5.312 5.312 0 008 2.666zM3.09 5.918A5.312 5.312 0 002.667 8c0 .738.15 1.442.423 2.082l1.05-1.05A3.97 3.97 0 014 8c0-.357.052-.702.14-1.032l-1.05-1.05zm9.82 0l-1.05 1.05c.088.33.14.675.14 1.032 0 .358-.052.703-.14 1.033l1.05 1.05c.272-.64.423-1.345.423-2.083 0-.738-.15-1.442-.423-2.082zM5.32 9.994a.667.667 0 00-.458.202l-1.698 1.698-.435-.435A.427.427 0 002 11.76v1.471a.667.667 0 000 .222v.12c0 .235.191.426.427.426h.122a.67.67 0 00.22 0h1.47a.428.428 0 00.303-.729l-.435-.435 1.698-1.698a.667.667 0 00-.485-1.144zm5.34 0a.667.667 0 00-.465 1.144l1.698 1.698-.435.435a.427.427 0 00.302.73h1.472a.669.669 0 00.221 0h.12a.427.427 0 00.427-.428v-.122a.67.67 0 000-.219v-1.471a.428.428 0 00-.73-.302l-.434.435-1.698-1.698a.665.665 0 00-.478-.202zM6.967 11.86l-1.05 1.05a5.318 5.318 0 004.165.001l-1.05-1.051A3.97 3.97 0 018 12a3.97 3.97 0 01-1.033-.14z" fill="currentColor"/></svg>