<svg width="32" height="32" fill="none" xmlns="http://www.w3.org/2000/svg"><path d="M1 0a1 1 0 00-1 1v10a1 1 0 001 1h4v3h2v-3h4a1 1 0 001-1V7h3V5h-3V1a1 1 0 00-1-1H1zm20 0a1 1 0 00-1 1v4h-3v2h3v4a1 1 0 001 1h4v3h2v-3h4a1 1 0 001-1V1a1 1 0 00-1-1H21zM2 2h8v8H2V2zm20 0h8v8h-8V2zM5 17v3H1a1 1 0 00-1 1v10a1 1 0 001 1h10a1 1 0 001-1v-4h3v-2h-3v-4a1 1 0 00-1-1H7v-3H5zm20 0v3h-4a1 1 0 00-1 1v4h-3v2h3v4a1 1 0 001 1h10a1 1 0 001-1V21a1 1 0 00-1-1h-4v-3h-2zM2 22h8v8H2v-8zm20 0h8v8h-8v-8z" fill="currentColor"/></svg>