<svg  viewBox="0 0 6 9" fill="none" xmlns="http://www.w3.org/2000/svg">
<path d="M1.54787 4.53535L0.947872 3.93535C0.789102 4.09467 0.699951 4.31043 0.699951 4.53535C0.699951 4.76028 0.789101 4.97603 0.947872 5.13535L1.54787 4.53535ZM4.44787 8.63535C4.60991 8.77936 4.82084 8.85601 5.03753 8.84963C5.25421 8.84325 5.46027 8.75433 5.61356 8.60104C5.76684 8.44775 5.85577 8.24169 5.86215 8.02501C5.86853 7.80833 5.79187 7.59739 5.64787 7.43535L4.44787 8.63535ZM5.64787 1.63535C5.73446 1.55841 5.8044 1.46457 5.85341 1.35962C5.90241 1.25466 5.92945 1.14079 5.93286 1.02501C5.93627 0.909226 5.91597 0.793966 5.87323 0.686308C5.83048 0.57865 5.76618 0.480866 5.68427 0.398958C5.60236 0.317051 5.50458 0.25275 5.39692 0.210001C5.28926 0.167252 5.174 0.146959 5.05822 0.150368C4.94243 0.153776 4.82857 0.180814 4.72361 0.229821C4.61865 0.278828 4.52482 0.34877 4.44787 0.435354L5.64787 1.63535ZM0.947872 5.13535L4.44787 8.63535L5.64787 7.43535L2.14787 3.93535L0.947872 5.13535ZM2.14787 5.13535L5.64787 1.63535L4.44787 0.435354L0.947872 3.93535L2.14787 5.13535Z" fill="currentColor"/>
</svg>
