<svg  viewBox="0 0 9 6" fill="none" xmlns="http://www.w3.org/2000/svg">
<path d="M4.65196 5.11875L4.05196 5.71875C4.21128 5.87752 4.42703 5.96667 4.65196 5.96667C4.87688 5.96667 5.09264 5.87752 5.25196 5.71875L4.65196 5.11875ZM8.75196 2.21875C8.89596 2.05672 8.97261 1.84578 8.96623 1.6291C8.95985 1.41241 8.87093 1.20635 8.71764 1.05307C8.56436 0.899783 8.3583 0.810856 8.14161 0.804477C7.92493 0.798099 7.71399 0.87475 7.55196 1.01875L8.75196 2.21875ZM1.75196 1.01875C1.67501 0.93217 1.58118 0.862227 1.47622 0.81322C1.37126 0.764213 1.2574 0.737175 1.14161 0.733767C1.02583 0.730358 0.910568 0.750651 0.80291 0.7934C0.695252 0.836148 0.597468 0.90045 0.51556 0.982358C0.433653 1.06427 0.369351 1.16205 0.326603 1.26971C0.283854 1.37737 0.263561 1.49262 0.26697 1.60841C0.270378 1.72419 0.297416 1.83806 0.346423 1.94302C0.39543 2.04797 0.465372 2.14181 0.551956 2.21875L1.75196 1.01875ZM5.25196 5.71875L8.75196 2.21875L7.55196 1.01875L4.05196 4.51875L5.25196 5.71875ZM5.25196 4.51875L1.75196 1.01875L0.551956 2.21875L4.05196 5.71875L5.25196 4.51875Z" fill="currentColor"/>
</svg>
