<svg width="16" height="16" fill="none" xmlns="http://www.w3.org/2000/svg"><path fill-rule="evenodd" clip-rule="evenodd" d="M2.643 12.47A1.342 1.342 0 012 11.326V8.724a.56.56 0 01.843-.482l5.885 3.424c.344.2.556.567.556.966v2.696a.673.673 0 01-1.023.573L2.643 12.47zm8.773-4.942c.344.201.556.568.556.966v5.472a.446.446 0 01-.228.39l-1.289.723a.264.264 0 01-.052.022v-3.039a1.12 1.12 0 00-.545-.96L4.69 8.016v-3.43a.56.56 0 01.843-.482l5.884 3.424zm2.575-4.04c.346.198.558.568.558.967v7.992c0 .163-.09.315-.235.393l-1.221.658V7.934a1.12 1.12 0 00-.544-.959L7.267 3.813V.559c0-.1.026-.195.074-.28a.562.562 0 01.767-.203l5.883 3.411z" fill="#00D395"/></svg>