<svg width="16" height="16" fill="none" xmlns="http://www.w3.org/2000/svg"><path d="M8 1.333c-1.66 0-3.18.62-4.349 1.63l-.819-.818A.487.487 0 002 2.488v2.175c0 .37.3.67.67.67h2.175a.487.487 0 00.345-.832l-.596-.596A5.295 5.295 0 018 2.667a5.338 5.338 0 015.301 4.74.666.666 0 101.325-.148C14.257 3.93 11.42 1.333 8 1.333zm-.012 2.4a.335.335 0 00-.334.335v.618c-.226.029-1.491.267-1.491 1.793 0 2.228 2.306 1.569 2.306 3.055 0 .744-.48.762-.578.762-.077 0-.52.034-.645-.673-.043-.248-.275-.418-.527-.418h-.175c-.33 0-.598.296-.535.62.264 1.342 1.37 1.464 1.552 1.489v.553a.334.334 0 00.668 0v-.553c.226-.028 1.5-.238 1.5-1.79 0-2.137-2.306-1.728-2.306-3.04 0-.75.415-.774.504-.774.131 0 .405.093.51.599.053.262.265.46.533.46h.173c.35 0 .602-.329.526-.67-.256-1.155-1.16-1.36-1.342-1.394v-.637a.335.335 0 00-.335-.335h-.004zm-5.97 4.258a.667.667 0 00-.644.75c.37 3.33 3.207 5.926 6.626 5.926a6.634 6.634 0 004.34-1.623l.809.809a.498.498 0 00.851-.351V11.34a.674.674 0 00-.673-.673h-2.161a.498.498 0 00-.352.85l.58.58A5.28 5.28 0 018 13.335a5.338 5.338 0 01-5.3-4.741.667.667 0 00-.682-.602z" fill="currentColor"/></svg>