<svg viewBox="0 0 24 24" fill="none" xmlns="http://www.w3.org/2000/svg">
<path d="M3.5 3.58824C3.5 2.15879 4.61396 1 5.9881 1H18.4286C19.8027 1 20.9167 2.15879 20.9167 3.58824V10.0588C20.9167 11.4883 19.8027 12.6471 18.4286 12.6471H5.98809C4.61396 12.6471 3.5 11.4883 3.5 10.0588V3.58824Z" fill="currentColor"/>
<path d="M9.09821 12.6471H10.3423V17.8235H9.09821V12.6471Z" fill="currentColor"/>
<path d="M15.3185 12.6471H14.0744V17.8235H15.3185V12.6471Z" fill="currentColor"/>
<path d="M11.5863 12.6471H12.8304V20.4118H11.5863V12.6471Z" fill="currentColor"/>
<path d="M6.61012 16.5294H10.3423V17.8235H6.61012V16.5294Z" fill="currentColor"/>
<path d="M17.8065 16.5294H14.0744V17.8235H17.8065V16.5294Z" fill="currentColor"/>
<path d="M4.12202 16.5294C4.12202 15.8147 4.679 15.2353 5.36607 15.2353H6.61012C7.29719 15.2353 7.85417 15.8147 7.85417 16.5294V17.8235C7.85417 18.5383 7.29719 19.1176 6.61012 19.1176H5.36607C4.679 19.1176 4.12202 18.5383 4.12202 17.8235V16.5294Z" fill="currentColor"/>
<path d="M20.2946 16.5294C20.2946 15.8147 19.7377 15.2353 19.0506 15.2353H17.8065C17.1195 15.2353 16.5625 15.8147 16.5625 16.5294V17.8235C16.5625 18.5383 17.1195 19.1176 17.8065 19.1176H19.0506C19.7377 19.1176 20.2946 18.5383 20.2946 17.8235V16.5294Z" fill="currentColor"/>
<path d="M10.3423 20.4118C10.3423 19.697 10.8992 19.1176 11.5863 19.1176H12.8304C13.5174 19.1176 14.0744 19.697 14.0744 20.4118V21.7059C14.0744 22.4206 13.5174 23 12.8304 23H11.5863C10.8992 23 10.3423 22.4206 10.3423 21.7059V20.4118Z" fill="currentColor"/>
</svg>
