<svg  viewBox="0 0 16 16" fill="none" xmlns="http://www.w3.org/2000/svg">
<path d="M7.89055 7.69734L2.20532 3.89963C2.35321 3.69108 2.58479 3.55865 2.84458 3.55865H13.2226C13.34 3.55859 13.4561 3.58631 13.5624 3.63985C13.6687 3.69338 13.7626 3.77141 13.8375 3.86835L8.17564 7.69734C8.13291 7.72602 8.08351 7.74123 8.0331 7.74123C7.98268 7.74123 7.93328 7.72602 7.89055 7.69734ZM8.65726 8.04145L8.65921 8.03936L14 4.4304V11.689C14 12.1687 13.6371 12.5587 13.1895 12.5587H2.81051C2.70399 12.5587 2.59851 12.5362 2.50012 12.4924C2.40172 12.4487 2.31232 12.3846 2.23705 12.3039C2.16177 12.2231 2.10209 12.1272 2.06142 12.0217C2.02074 11.9162 1.99987 11.8032 2 11.689V4.47315L7.34177 8.03936C7.74362 8.30839 8.25347 8.31048 8.65726 8.04145Z" fill="currentColor"/>
</svg>
