<svg  viewBox="0 0 16 16" fill="none" xmlns="http://www.w3.org/2000/svg">
<path d="M14 15C14 15 11.9799 14.1885 10.3455 13.5384H3.47321C2.65967 13.5384 2 12.8244 2 11.9438V2.5946C2 1.714 2.65967 1 3.47321 1H12.5264C13.3399 1 13.9996 1.714 13.9996 2.5946L14 15ZM12.2263 9.75793C12.0847 9.5796 11.8375 9.55898 11.6725 9.71173C11.6597 9.7234 10.3802 10.8849 7.99957 10.8849C5.64852 10.8849 4.34934 9.7318 4.32619 9.7108C4.16126 9.55879 3.91469 9.5796 3.77325 9.75747C3.70534 9.84297 3.67162 9.95446 3.67959 10.0672C3.68756 10.1799 3.73656 10.2844 3.81569 10.3576C3.87655 10.4136 5.33176 11.7357 7.99957 11.7357C10.6678 11.7357 12.123 10.4136 12.1839 10.3576C12.2629 10.2844 12.3118 10.18 12.3198 10.0674C12.3277 9.9548 12.2941 9.84341 12.2263 9.75793Z" fill="currentColor"/>
</svg>
