<svg viewBox="0 0 24 24" fill="none" xmlns="http://www.w3.org/2000/svg">
<path d="M11.999 2C11.8667 2.00005 11.7358 2.02667 11.6137 2.07833C11.4917 2.12996 11.3809 2.20562 11.2879 2.3009L1.20102 11.22C1.11696 11.2835 1.05474 11.3721 1.02317 11.4734C0.99161 11.5747 0.992306 11.6835 1.02516 11.7843C1.05802 11.8852 1.12137 11.973 1.20624 12.0354C1.29111 12.0978 1.3932 12.1315 1.49805 12.1318H3.99877V20.2379C3.99877 20.7956 4.44581 21.25 4.99785 21.25H8.99871C9.26383 21.25 9.5181 21.1435 9.7057 20.9537C9.89331 20.7638 9.99891 20.5064 9.9993 20.2379V14.1591H13.9986V20.2379C13.9986 20.7956 14.4472 21.25 14.9992 21.25H18.9986C19.2637 21.25 19.518 21.1435 19.7056 20.9537C19.8932 20.7638 19.9988 20.5064 19.9992 20.2379V12.1318H22.4999C22.6051 12.1319 22.7077 12.0984 22.7931 12.0359C22.8783 11.9735 22.942 11.8854 22.9749 11.7841C23.0079 11.6829 23.0083 11.5737 22.9764 11.4721C22.9444 11.3705 22.8816 11.2818 22.797 11.2185L12.716 2.30698L12.71 2.3009C12.617 2.20562 12.5063 2.12996 12.3843 2.07833C12.2622 2.02667 12.1313 2.00005 11.999 2Z" fill="currentColor"/>
</svg>
