<svg  viewBox="0 0 16 16" fill="none" xmlns="http://www.w3.org/2000/svg">
<path d="M6.80757 6.57329C6.32912 3.24933 9.12951 0.957875 11.2806 0.701282C11.4478 0.68158 11.4975 0.893581 11.3556 0.982162C9.00524 2.45422 8.87104 5.34785 9.21313 6.79855C9.22133 6.83258 9.24056 6.86291 9.2679 6.8849C9.29524 6.90688 9.32918 6.91932 9.36454 6.92031L10.3944 6.95278C10.5246 6.95717 10.5998 7.10573 10.5254 7.21236L8.08681 10.68C8.07117 10.7016 8.05044 10.7191 8.02646 10.7309C8.00248 10.7427 7.97599 10.7485 7.94933 10.7478C7.92268 10.747 7.89669 10.7398 7.87367 10.7267C7.85065 10.7136 7.83131 10.695 7.81736 10.6726L5.47038 7.01174C5.39982 6.90278 5.4774 6.7587 5.60684 6.75952L6.64392 6.76726C6.74506 6.76865 6.82222 6.67433 6.80757 6.57329Z" fill="currentColor"/>
<path d="M12.3928 3.46703L10.679 3.46757V5.0915H12.3928C13.0842 5.0915 13.6205 5.5071 13.6205 5.86502V13.0688C13.6205 13.4264 13.0842 13.8426 12.3928 13.8426H3.60677C2.91554 13.8426 2.37924 13.4264 2.37924 13.0688V5.86584C2.37924 5.50791 2.91554 5.09204 3.60677 5.09204L5.07539 5.0915V3.46703L3.60677 3.46757C2.145 3.46757 1 4.52104 1 5.86584V13.069C1 14.4141 2.145 15.467 3.60677 15.467H12.3932C13.8545 15.467 15 14.4136 15 13.069V5.86584C14.9998 4.5205 13.8548 3.46703 12.3928 3.46703Z" fill="currentColor"/>
</svg>
