<svg  viewBox="0 0 16 16" fill="none" xmlns="http://www.w3.org/2000/svg">
<path d="M8 13.8341C8 14.2217 8.31353 14.5395 8.69711 14.5C12.0975 14.1494 14.75 11.2626 14.75 7.75331C14.75 4.24399 12.0975 1.35724 8.69711 1.00666C8.31353 0.966901 8 1.28497 8 1.67251V3.54353C8 3.93106 8.31562 4.23791 8.69385 4.31438C10.2896 4.63784 11.4914 6.05443 11.4914 7.75331C11.4914 9.4522 10.2896 10.8688 8.69385 11.1922C8.31562 11.2687 8 11.5758 8 11.9631V13.8341ZM5.90517 2.27077C5.90517 1.79366 5.44036 1.45734 5.01464 1.66853C2.78411 2.77547 1.25 5.08431 1.25 7.75331C1.25 10.4223 2.78411 12.7312 5.01464 13.8381C5.44036 14.0493 5.90517 13.713 5.90517 13.2359V2.27077Z" fill="currentColor"/>
</svg>
