<svg viewBox="0 0 40 40" fill="none" xmlns="http://www.w3.org/2000/svg"><path d="M0 20C0 8.954 8.954 0 20 0s20 8.954 20 20-8.954 20-20 20S0 31.046 0 20z" fill="#ECF1FF"/><path d="M16.25 13.333a2.93 2.93 0 00-2.917 2.917 2.93 2.93 0 002.917 2.917 2.93 2.93 0 002.917-2.917 2.93 2.93 0 00-2.917-2.917zm7.067.824a.834.834 0 00-.677.38l-6.667 10a.836.836 0 00.224 1.167.834.834 0 001.163-.242l6.667-10a.834.834 0 00-.71-1.305zM16.25 15c.7 0 1.25.55 1.25 1.25s-.55 1.25-1.25 1.25S15 16.95 15 16.25 15.55 15 16.25 15zm7.5 5.833a2.93 2.93 0 00-2.917 2.917 2.93 2.93 0 002.917 2.917 2.93 2.93 0 002.917-2.917 2.93 2.93 0 00-2.917-2.917zm0 1.667c.7 0 1.25.55 1.25 1.25S24.45 25 23.75 25s-1.25-.55-1.25-1.25.55-1.25 1.25-1.25z" fill="#5484FF"/></svg>