<svg viewBox="0 0 24 24" fill="none" xmlns="http://www.w3.org/2000/svg">
<path d="M18.1875 15.5556H13.375V16.9611H14.75V18.3667H23V21.1778H14.75V22.5833H9.25V21.1778H1V18.3667H9.25V16.9611H10.625V15.5556H5.8125C3.15463 15.5556 1 13.353 1 10.6361C1 7.91918 3.15463 5.71667 5.8125 5.71667C6.29898 5.71667 6.76861 5.79045 7.21124 5.92768C7.45262 3.44164 9.50449 1.5 12 1.5C14.4955 1.5 16.5474 3.44164 16.7888 5.92768C17.2314 5.79046 17.701 5.71667 18.1875 5.71667C20.8454 5.71667 23 7.91918 23 10.6361C23 13.353 20.8454 15.5556 18.1875 15.5556Z" fill="currentColor"/>
</svg>
