<svg  viewBox="0 0 16 16" fill="none" xmlns="http://www.w3.org/2000/svg">
<path d="M1 12.0824V13.25C1 14.2152 3.35156 15 6.25 15C9.14844 15 11.5 14.2152 11.5 13.25V12.0824C10.3707 12.8781 8.30625 13.25 6.25 13.25C4.19375 13.25 2.1293 12.8781 1 12.0824ZM9.75 4.5C12.6484 4.5 15 3.71523 15 2.75C15 1.78477 12.6484 1 9.75 1C6.85156 1 4.5 1.78477 4.5 2.75C4.5 3.71523 6.85156 4.5 9.75 4.5ZM1 9.21406V10.625C1 11.5902 3.35156 12.375 6.25 12.375C9.14844 12.375 11.5 11.5902 11.5 10.625V9.21406C10.3707 10.1437 8.30352 10.625 6.25 10.625C4.19648 10.625 2.1293 10.1437 1 9.21406ZM12.375 9.51484C13.9418 9.21133 15 8.64805 15 8V6.83242C14.3656 7.28086 13.4332 7.58711 12.375 7.77578V9.51484ZM6.25 5.375C3.35156 5.375 1 6.35391 1 7.5625C1 8.77109 3.35156 9.75 6.25 9.75C9.14844 9.75 11.5 8.77109 11.5 7.5625C11.5 6.35391 9.14844 5.375 6.25 5.375ZM12.2465 6.91445C13.8871 6.61914 15 6.03945 15 5.375V4.20742C14.0293 4.89375 12.3613 5.26289 10.6059 5.35039C11.4125 5.74141 12.0059 6.26641 12.2465 6.91445Z" fill="currentColor"/>
</svg>
