<svg viewBox="0 0 16 16" fill="none" xmlns="http://www.w3.org/2000/svg"><path d="M8 1.333a.667.667 0 100 1.334.667.667 0 000-1.334zm2.667 0A.667.667 0 0010 2v3a.334.334 0 00.569.236l1.103-1.103A5.314 5.314 0 0113.333 8a.668.668 0 00.924.624.668.668 0 00.41-.624 6.596 6.596 0 00-.836-3.204.669.669 0 00-.095-.187 6.702 6.702 0 00-1.13-1.411l1.296-1.296a.334.334 0 00-.235-.569h-3zM5 2.137A.667.667 0 105 3.47a.667.667 0 000-1.333zM2.803 4.333a.667.667 0 100 1.334.667.667 0 000-1.334zM1.99 7.324A.667.667 0 001.333 8c0 1.163.31 2.252.836 3.204a.68.68 0 00.104.2 6.7 6.7 0 001.12 1.398l-1.295 1.296a.334.334 0 00.235.569h3A.667.667 0 006 14v-3a.334.334 0 00-.569-.236l-1.103 1.103A5.314 5.314 0 012.667 8a.667.667 0 00-.677-.676zm11.207 3.01a.667.667 0 100 1.333.667.667 0 000-1.334zM11 12.53a.667.667 0 100 1.333.667.667 0 000-1.333zm-3 .803a.666.666 0 100 1.333.666.666 0 000-1.333z" fill="currentColor"/></svg>