<svg  viewBox="0 0 10 9" fill="none" xmlns="http://www.w3.org/2000/svg">
<path d="M5 8L4.49 8.68C4.79222 8.90667 5.20778 8.90667 5.51 8.68L5 8ZM9.51 5.68C9.88555 5.39834 9.96167 4.86555 9.68 4.49C9.39833 4.11445 8.86555 4.03834 8.49 4.32L9.51 5.68ZM1.51 4.32C1.13445 4.03833 0.601665 4.11445 0.32 4.49C0.0383348 4.86555 0.114446 5.39833 0.49 5.68L1.51 4.32ZM5 4L4.49 4.68C4.79222 4.90667 5.20778 4.90667 5.51 4.68L5 4ZM9.51 1.68C9.88555 1.39834 9.96167 0.865554 9.68 0.49C9.39833 0.114447 8.86555 0.038335 8.49 0.32L9.51 1.68ZM1.51 0.32C1.13445 0.0383348 0.601665 0.114446 0.32 0.49C0.0383348 0.865554 0.114446 1.39833 0.49 1.68L1.51 0.32ZM5.51 8.68L9.51 5.68L8.49 4.32L4.49 7.32L5.51 8.68ZM5.51 7.32L1.51 4.32L0.49 5.68L4.49 8.68L5.51 7.32ZM5.51 4.68L9.51 1.68L8.49 0.32L4.49 3.32L5.51 4.68ZM5.51 3.32L1.51 0.32L0.49 1.68L4.49 4.68L5.51 3.32Z" fill="currentColor"/>
</svg>
