<svg width="16" height="16" fill="none" xmlns="http://www.w3.org/2000/svg"><path d="M4 2a.52.52 0 00-.409.197L2.06 4.113a.34.34 0 00.264.554h1.01v6A2.677 2.677 0 006 13.333a2.677 2.677 0 002.667-2.666V5.333C8.667 4.59 9.256 4 10 4s1.333.589 1.333 1.333v6h-.992a.34.34 0 00-.265.554l1.532 1.916c.21.262.61.262.82 0l1.532-1.916a.34.34 0 00-.266-.554h-1.027v-6A2.677 2.677 0 0010 2.667a2.677 2.677 0 00-2.667 2.666v5.334C7.333 11.41 6.744 12 6 12a1.323 1.323 0 01-1.333-1.333v-6h1.01a.34.34 0 00.266-.554L4.409 2.197A.521.521 0 004 2z" fill="currentColor"/></svg>