<svg  viewBox="0 0 16 16" fill="none" xmlns="http://www.w3.org/2000/svg">
<path d="M8 11.5C9.933 11.5 11.5 9.933 11.5 8C11.5 6.067 9.933 4.5 8 4.5C6.067 4.5 4.5 6.067 4.5 8C4.5 9.933 6.067 11.5 8 11.5Z" fill="currentColor"/>
<path d="M12.0473 3.95273L12.9509 3.04909M8 1V2.27273V1ZM8 13.7273V15V13.7273ZM3.04909 3.04909L3.95273 3.95273L3.04909 3.04909ZM12.0473 12.0473L12.9509 12.9509L12.0473 12.0473ZM1 8H2.27273H1ZM13.7273 8H15H13.7273ZM3.04909 12.9509L3.95273 12.0473L3.04909 12.9509Z" stroke="currentColor" stroke-width="1.5" stroke-linecap="round" stroke-linejoin="round"/>
</svg>
