<svg  viewBox="0 0 16 16" fill="none" xmlns="http://www.w3.org/2000/svg">
<path d="M13.4347 8.89887C13.6629 8.77616 13.9538 8.94899 13.9014 9.20279C13.717 10.0961 13.3311 10.9388 12.7696 11.665C12.071 12.5685 11.1296 13.2544 10.0554 13.6424C8.9813 14.0304 7.81888 14.1044 6.70419 13.8559C5.5895 13.6073 4.56866 13.0465 3.7611 12.2389C2.95354 11.4313 2.39267 10.4105 2.14412 9.29581C1.89557 8.18112 1.96962 7.0187 2.35761 5.94457C2.74559 4.87043 3.43147 3.929 4.33497 3.23045C5.06121 2.66895 5.90391 2.28303 6.79722 2.09863C7.05101 2.04625 7.22384 2.33709 7.10113 2.56534C6.68142 3.34604 6.48997 4.23451 6.55656 5.12758C6.63986 6.24459 7.12132 7.2946 7.91336 8.08664C8.7054 8.87869 9.75541 9.36014 10.8724 9.44344C11.7655 9.51003 12.654 9.31859 13.4347 8.89887Z" fill="currentColor"/>
</svg>
