<svg width="16" height="16" fill="none" xmlns="http://www.w3.org/2000/svg"><path d="M13.535 1.99c-.193.008-.37.064-.525.125-.143.056-.658.273-1.479.617-.82.344-1.907.8-3.066 1.288L2.208 6.653c-.045.019-.232.076-.437.233a1.174 1.174 0 00-.435.872c0 .301.15.608.332.784.182.176.366.258.52.319l2.445.977c.212.634.709 2.129.825 2.497h-.001c.095.3.187.495.315.657a.763.763 0 00.35.27l.017.005-.015-.004c.011.005.022.012.034.016.019.007.032.006.058.012a.929.929 0 00.267.046c.362 0 .585-.196.585-.196l.014-.01 1.565-1.325 1.917 1.772c.034.049.308.421.944.421.379 0 .68-.186.87-.383.192-.197.312-.398.365-.67v-.004l1.878-9.431-.004.015a1.54 1.54 0 00.007-.752 1.08 1.08 0 00-.47-.625 1.1 1.1 0 00-.619-.16zm-.263 1.46c-.072.362-1.71 8.59-1.816 9.136l-1.904-1.759a1.341 1.341 0 00-1.766-.039l-.97.822.517-2.026s3.575-3.62 3.79-3.83c.174-.168.21-.228.21-.286 0-.078-.04-.134-.133-.134-.083 0-.196.08-.256.117-.766.477-4.044 2.345-5.632 3.249-.06-.036-.118-.073-.183-.1-.521-.208-1.522-.61-2.108-.843a29471.068 29471.068 0 019.026-3.796c.692-.29 1.053-.44 1.225-.511zm-1.837 9.233h.001l-.001.005v-.005z" fill="currentColor"/></svg>