<svg  viewBox="0 0 16 16" fill="none" xmlns="http://www.w3.org/2000/svg">
<path d="M14.9333 3.69971C14.4229 3.92638 13.8746 4.07891 13.2992 4.14771C13.8869 3.79571 14.3376 3.23838 14.5498 2.57384C14.0005 2.89971 13.3914 3.13651 12.7429 3.26451C12.224 2.71144 11.4848 2.36584 10.6666 2.36584C9.09543 2.36584 7.82184 3.63998 7.82184 5.21064C7.82184 5.43358 7.84743 5.65118 7.89543 5.85864C5.53117 5.74024 3.43517 4.60744 2.03143 2.88584C1.78717 3.30611 1.6469 3.79464 1.6469 4.31678C1.6469 5.30344 2.14877 6.17438 2.91197 6.68424C2.44583 6.66931 2.0069 6.54131 1.62343 6.32851C1.62343 6.34078 1.62343 6.35198 1.62343 6.36424C1.62343 7.74291 2.6037 8.89278 3.90557 9.15358C3.66717 9.21864 3.41543 9.25331 3.1557 9.25331C2.97277 9.25331 2.7941 9.23518 2.62077 9.20264C2.9829 10.3328 4.03357 11.1557 5.27837 11.1786C4.30503 11.9418 3.07837 12.3968 1.74503 12.3968C1.5157 12.3968 1.28903 12.3834 1.0661 12.3568C2.3253 13.1637 3.82023 13.6346 5.42717 13.6346C10.6602 13.6346 13.521 9.29971 13.521 5.54024C13.521 5.41704 13.5184 5.29438 13.513 5.17224C14.0693 4.77064 14.552 4.26984 14.9333 3.69971Z" fill="currentColor"/>
</svg>
