<svg viewBox="0 0 24 24" fill="none" xmlns="http://www.w3.org/2000/svg">
<path d="M6.30759 13.1271C6.32035 13.1143 6.32121 13.1133 6.30759 13.1271Z" fill="currentColor"/>
<path fill-rule="evenodd" clip-rule="evenodd" d="M21.4176 14.1771L22.5116 13.914C22.7986 13.8429 23 13.5849 23 13.289V10.7109C23 10.4151 22.7985 10.1577 22.5122 10.0859L21.4181 9.82282C21.1802 8.78426 20.7704 7.79732 20.1977 6.87964L20.7521 5.94874C20.9032 5.69506 20.8623 5.37155 20.654 5.16321L18.8367 3.34609C18.6487 3.15809 18.3669 3.10639 18.1273 3.20911C18.1014 3.22022 18.0759 3.23314 18.051 3.24789L17.1202 3.80232C16.2026 3.2296 15.2157 2.81986 14.1772 2.58197L13.9141 1.48784C13.8424 1.20142 13.585 1 13.2891 1H10.7111C10.4153 1 10.1576 1.20142 10.0859 1.48784L9.82277 2.58197C8.78428 2.81986 7.79739 3.2296 6.87977 3.80232L5.94899 3.24789C5.92415 3.23314 5.89865 3.22022 5.87266 3.20911C5.63307 3.10639 5.35125 3.15809 5.16326 3.34609L3.34604 5.16321C3.13771 5.37155 3.0968 5.69506 3.24785 5.94874L3.80233 6.87964C3.22959 7.79732 2.81984 8.78426 2.58193 9.82282L1.48783 10.0859C1.20146 10.1577 1 10.4151 1 10.7109V13.289C1 13.5849 1.20142 13.8429 1.48844 13.914L2.58243 14.1771C2.82035 15.2161 3.22941 16.2028 3.80269 17.1203L3.2482 18.0512C3.09715 18.3049 3.13806 18.6284 3.3464 18.8367L5.16353 20.6539C5.37251 20.8616 5.69665 20.9032 5.94904 20.7521L6.87992 20.1976C7.79753 20.7703 8.7844 21.1801 9.82287 21.418L10.0858 22.5122C10.1576 22.7985 10.415 23 10.7108 23H13.2889C13.5847 23 13.8424 22.7985 13.9142 22.5122L14.1771 21.418C15.2156 21.1801 16.2025 20.7703 17.1201 20.1976L18.051 20.7521C18.3033 20.9032 18.6275 20.8616 18.8365 20.6539L20.6536 18.8367C20.8619 18.6284 20.9028 18.3049 20.7518 18.0512L20.1973 17.1203C20.7706 16.2028 21.1796 15.2161 21.4176 14.1771ZM17.7905 12.1808C17.7765 12.3771 17.7327 12.7857 17.7083 12.9966C17.2733 15.5315 15.2133 17.5535 12.4581 17.7593C12.4445 17.7604 12.426 17.7622 12.403 17.7646C12.322 17.7727 12.1842 17.7866 12 17.7911C11.8158 17.7866 11.678 17.7727 11.597 17.7646C11.574 17.7622 11.5555 17.7604 11.5419 17.7593C8.78673 17.5535 6.72673 15.5315 6.29173 12.9966C6.2673 12.7857 6.22352 12.3772 6.20948 12.1808C6.2078 12.1274 6.20683 12.0738 6.20658 12.0201C6.20338 11.1739 6.37917 10.3702 6.69877 9.64508C7.60417 7.6029 9.65255 6.19979 12.0023 6.19979C14.3818 6.19979 16.4059 7.61378 17.3013 9.6452" fill="currentColor"/>
<path d="M11.9988 15.3035C11.9988 15.514 12.1691 15.6867 12.3775 15.6652C14.2248 15.4748 15.6659 13.9065 15.6659 11.9999C15.6659 10.0934 14.2248 8.52506 12.3775 8.3346C12.1691 8.313 11.9988 8.4858 11.9988 8.69634V9.71283C11.9988 9.92336 12.1703 10.0901 12.3758 10.1316C13.2427 10.3073 13.8956 11.0769 13.8956 11.9999C13.8956 12.9229 13.2427 13.6925 12.3758 13.8682C12.1703 13.9098 11.9988 14.0766 11.9988 14.287V15.3035ZM10.8608 9.02136C10.8608 8.76216 10.6082 8.57945 10.377 8.69418C9.16518 9.29556 8.33174 10.5499 8.33174 11.9999C8.33174 13.4499 9.16518 14.7043 10.377 15.3056C10.6082 15.4204 10.8608 15.2377 10.8608 14.9785V9.02136Z" fill="currentColor"/>
</svg>
