<svg fill="none" viewBox="0 0 600 572"  xmlns="http://www.w3.org/2000/svg"><radialGradient id="b" cx="0" cy="0" gradientTransform="matrix(182.99981 475.50005 -475.8799 183.146 267.5 70)" gradientUnits="userSpaceOnUse" r="1"><stop offset=".19" stop-color="#fff" stop-opacity="0"/><stop offset="1" stop-color="#020e37" stop-opacity=".45"/></radialGradient><clipPath id="a"><path d="M0 0h571.43v600H0z"/></clipPath><g clip-path="url(#a)"><path d="M285.71 597.66c157.8 0 285.72-127.92 285.72-285.71 0-157.8-127.92-285.71-285.72-285.71S0 154.15 0 311.95c0 157.8 127.92 285.71 285.71 285.71z" fill="#3b5d8b"/><path d="M288.16 211.94c0 68.07 90.24 86.02 131.06 135.35 67.2 81.2-39.83 196.8-140.65 196.8-141.05 0-239.28-118.7-239.28-260.71C39.29 141.36 114.29 25 285.7 25c13.45 0 2.45 44.93 2.45 186.94z" fill="#ecf3ff"/><path clip-rule="evenodd" d="M107.14 126.24l25 21.42a263.99 263.99 0 00-59.68 188.38L75 369.09l-5.25-17.07a256.4 256.4 0 0137.4-225.78zM150 165.52l21.43 17.86a173.96 173.96 0 00-49.8 103.06l-3.77 32.65-2.83-25.43A180.36 180.36 0 01150 165.5z" fill="#c9d2e2" fill-rule="evenodd"/><path d="M217.86 67.86l14.28-28.57-45.71 18.28a167.28 167.28 0 00-46.74 28.3 62.03 62.03 0 00-7.33 7.44l-14.5 17.4h67.85z" fill="#c9d2e2"/><path d="M343.85 396.83l60.57-58.49a4.74 4.74 0 015.89-.55l29.92 19.64a111.95 111.95 0 0141.91 136.66 296.77 296.77 0 0053.18-312.11L525 157.14l32.14 22.66A198.55 198.55 0 00363.76 26.23h-20.9L378.57 4.8c-39.61-7-80.4-2.28-117.38 13.57l-18.33 7.87L264.29 0l-30.6 11.08a162.85 162.85 0 00-23.65 10.77l-7.5 4.16A60.75 60.75 0 00175 100L47.19 42.14c-2.2-1-4.11 1.84-2.36 3.5l148.03 141.3-1.88 3.76a49.9 49.9 0 00-5.27 22.3v1.75c0 2.84.78 5.61 2.23 8.05a42.66 42.66 0 015.25 30.31l-.33 1.69-23.95 89.8a89.6 89.6 0 01-15.56 31.56l-10.26 13.33a57.25 57.25 0 00-11.37 42.48l1.84 13.8a58.64 58.64 0 0012.34 28.9l.84 1.06a29.1 29.1 0 007.72 6.75 90.04 90.04 0 0028.71 11.1l13.1 2.61c4.78.96 9.73.65 14.36-.89 2.43-.81 4.8-1.8 7.1-2.94l10.84-5.4 21.43 3.57a37.82 37.82 0 0031.79-8.17l45.42-38.25a27.38 27.38 0 009.61-18.21l1.84-18.35c.4-4.07 2.25-7.87 5.19-10.71z" fill="#3b5d8b"/><path d="M141.34 115.44l72.95 60.79.81.07c10.13.93 14.8-12.29 6.33-17.93l-78.46-45.26c-1.51-.87-2.97 1.21-1.63 2.33zM317.18 401.8l-.22-.57-1.02-2.82a44.42 44.42 0 00-58.8-25.75 40.04 40.04 0 0136.92-14.62l23.05 3.29c2.7.38 5.43-.57 7.29-2.57l50.6-53.95 39.28 1.78a57.89 57.89 0 0055.9-55.34l1.25-28.59 6.71 21.64c12.85 41.38-17 83.7-60.28 85.5l18.68 13.08a132.52 132.52 0 0156.32 101.21c64.81-89.6 37.47-215.63-58.65-270.31l-27.07-15.4 13.26 62.98a14.3 14.3 0 01-1.2 9.33l-10.09 20.17a7.15 7.15 0 01-6.38 3.95h-24.16l17.03-28.39a21.43 21.43 0 002.54-15.68l-12.43-55.94a63.75 63.75 0 01-46.76 9.68L325 161.94l19.56-10.35a84.52 84.52 0 0044.73-68.22V50.93a2.72 2.72 0 00-4.7-1.86l-96.96 102.65c-7.88 8.34-21.92 3.75-23.34-7.64l-35.57 71.13a46.8 46.8 0 00.65 43.12 52 52 0 01-.33 49.9L225 315.5c0-9.31-2.76-18.42-7.93-26.17l-6.36-9.55-19.8 76.37a84.86 84.86 0 01-19.07 35.47L168 395.9a46.01 46.01 0 00-11.33 37.36l1.71 11.8c.37 2.58.96 5.12 1.77 7.6l1.55 4.8a17.98 17.98 0 0010.44 11.18l.36.14a54.02 54.02 0 0020.05 3.86c4.93 0 9.81-.94 14.38-2.76l6.64-2.66a44.3 44.3 0 008.15-4.29 56.82 56.82 0 0023.23-32.07l7.2-25.93a29.8 29.8 0 0123.39-21.34l20.9-3.8a17.16 17.16 0 01-10.24 7.7L275 390.51c14.6-3.25 27.36 10.38 23.43 24.8a21.19 21.19 0 01-8.18 11.71l-22.4 15.84-29.52 21.28a2.82 2.82 0 00.78 4.97l1.69.55a33.67 33.67 0 0018.6.65c3.22-.81 6.25-2.27 8.9-4.29l39-29.83a30.02 30.02 0 009.88-34.39z" fill="#fff"/><path d="M338.95 164.48L325 161.94l8.47 2.55a134.21 134.21 0 0055.46 4.6l-3.22-14.28a63.75 63.75 0 01-46.76 9.68z" fill="#c9d2e2"/><path clip-rule="evenodd" d="M500 404.8l7.5-26.63a165.86 165.86 0 00-36.07-155.51l-7.1 23.65a67.05 67.05 0 01-64.2 47.78h-28.6c-11.94 0-23.86 1.18-35.57 3.52a.58.58 0 00-.38.25l-39.15 60.51 25 3.57 49.07-52.34a14.3 14.3 0 0111.07-4.5l32.72 1.5a57.88 57.88 0 0055.9-55.35l1.24-28.59 6.71 21.64c12.85 41.38-17 83.7-60.28 85.5l14.8 5.76A116.24 116.24 0 01500 404.8zm-183.04-3.57l.22.57a30.03 30.03 0 01-9.87 34.4l-39.02 29.82a24.26 24.26 0 01-8.9 4.29 33.67 33.67 0 01-18.59-.65l-2.1-.68a2.6 2.6 0 01-.71-4.6l29.87-21.52 6.8-1.49c2.6-.57 5.08-1.52 7.38-2.83l10.29-5.88a25.28 25.28 0 0012.6-19.3c2.24-21.33-21.74-35.31-39.2-22.84L263.7 392a21.65 21.65 0 00-7.89 10.61l-9.84 28.96a61.11 61.11 0 01-23.96 31.2 47.78 47.78 0 01-8.76 4.6l-2 .8c-1.5.61-3.15.75-4.74.42l-20.44-4.3a27.67 27.67 0 01-17.32-11.74.92.92 0 01.24-1.28c.13-.1.29-.15.45-.16l.83-.07a44.13 44.13 0 0040.45-43.97V370c0-.84 1.13-1.13 1.53-.4l1.03 1.88a73.28 73.28 0 016.9 17.52l1.26 5.08a98.82 98.82 0 0165.78-59.74l16.36-4.54-14.28 27.83a45.78 45.78 0 00-30.5 13.37l-1.65 1.65a44.4 44.4 0 0158.79 25.75l1.03 2.83z" fill="#c9d2e2" fill-rule="evenodd"/><path clip-rule="evenodd" d="M245.25 238.79l2.82 15.9a5.26 5.26 0 009.14 2.53l70.23-80.8c.41-.46 1.15.05.84.59l-17.34 30.95a.42.42 0 00.22.6c22.28 9.18 22.38 40.7.15 50.03l-50.6 21.21a13.4 13.4 0 01-19.34-13.14l2.43-27.8c.08-.85 1.3-.91 1.45-.07zm-48.82 148.16l-24.84 35.49c-.1.15-.2.32-.26.5-3.33 8.86 6.66 16.78 14.53 11.53l1.97-1.3a19.45 19.45 0 007.27-8.97l1.3-3.27a9.12 9.12 0 00-5.57-12.04 1.61 1.61 0 01-1.1-1.42c-.02-.21 0-.43.07-.63z" fill="#4b6a92" fill-rule="evenodd"/><path d="M302.54 220.38l-41.83 52.28L304 252.04c13.29-6.32 13.87-25 1.01-32.15a1.95 1.95 0 00-2.47.49z" fill="#ebd56e"/><path d="M266.79 406.93l-16.29 32.6c-1.04 2.06 1.4 4.14 3.29 2.78l30.42-22.12a5.83 5.83 0 002.09-2.86l.23-.68c3.33-10.01-7.7-18.7-16.65-13.1a8.4 8.4 0 00-3.09 3.39z" fill="#fff"/><path clip-rule="evenodd" d="M300 26.13l15.44-5.66-19.27 21.32a120.63 120.63 0 00-31.12 80.87c-20.9-36.05-4.19-82.22 34.94-96.53zm-78.2 95.71l21.06 15.1a90.46 90.46 0 01-16.62-96.38l3.05-7.19-11.9 10.76c-23.64 21.38-21.5 59.13 4.41 77.71zM400 63.57v18.24c0 .88.67 1.61 1.55 1.69a194.65 194.65 0 0177.63 23.41l33.12 18.22c.33.18.64-.24.39-.5l-11.55-11.55a220.35 220.35 0 00-33.58-27.52 138.36 138.36 0 00-54-21.36l-11.95-2a1.38 1.38 0 00-1.61 1.37zm-113.88 48.05l-3.98 7.46.3-.25a166.02 166.02 0 0155.57-31.47c.84-.28 1.6-.75 2.23-1.37l23.03-23.04a.54.54 0 00-.41-.91 94.06 94.06 0 00-76.74 49.58zm128.69 7.79l7.78 4.85a298.31 298.31 0 01133.1 188.26l.3 1.38c.12.56.95.45.93-.12l-.78-19.02a206.43 206.43 0 00-38.28-111.39l-8.15-11.52a125.05 125.05 0 00-94.81-52.73c-.16 0-.24.2-.1.29z" fill="#ff8484" fill-rule="evenodd"/><path d="M372.98 85.55l-41.93 45.16a1.26 1.26 0 001.11 2.11l3.41-.52A46.5 46.5 0 00375 86.34a1.17 1.17 0 00-1.43-1.14c-.23.05-.43.18-.6.35z" fill="#3b5d8b"/><path clip-rule="evenodd" d="M381.96 248.96l6.18 3.57-21.7 34.42-.03-.02v.01l-33.25 3.15-43.85 72.85-5.57-3.81 43.89-73.7a4.78 4.78 0 014.01-3.02l31.62-3.15z" fill="#3b5d8b" fill-rule="evenodd"/><path d="M288 598c159.06 0 288-128.27 288-286.5S447.06 25 288 25 0 153.27 0 311.5 128.94 598 288 598z" fill="url(#b)" fill-opacity=".8"/></g></svg>