<svg fill="none" viewBox="0 0 600 600" xmlns="http://www.w3.org/2000/svg"><linearGradient id="a" gradientUnits="userSpaceOnUse" x1="515.48" x2="86.23" y1="91.22" y2="507.26"><stop offset="0" stop-color="#d372de"/><stop offset=".5" stop-color="#93aadd"/><stop offset="1" stop-color="#73edf9"/></linearGradient><radialGradient id="b" cx="0" cy="0" gradientTransform="rotate(54.17 -42.31 263.4) scale(497.082)" gradientUnits="userSpaceOnUse" r="1"><stop offset="0" stop-color="#fff" stop-opacity="0"/><stop offset="1" stop-color="#47186b"/></radialGradient><path d="M300 600c165.69 0 300-134.31 300-300S465.69 0 300 0 0 134.31 0 300s134.31 300 300 300z" fill="url(#a)"/><path d="M300 600c165.69 0 300-134.31 300-300S465.69 0 300 0 0 134.31 0 300s134.31 300 300 300z" fill="url(#b)" fill-opacity=".35"/><path d="M270.88 176.72a29.8 29.8 0 019.41-13.37 28.8 28.8 0 0110.25-5.12c2.53-.51 5.64-1.01 9.17-1.01 2.69 0 5.04.16 7.14.42 7.06.92 11.85 4.79 12.78 5.46 5.88 4.45 8.4 10 9.4 12.6 53.46 126.75 91.79 220.2 95.06 231.89.6 2.1 2.19 7.9-.42 13.28a16.55 16.55 0 01-10 8.57c-1.18.5-6.64 2.52-12.77.17-7.4-2.86-9.84-9.84-10.17-10.85-30.34-75.38-60.77-150.86-91.1-226.25-11.02 27.66-22.03 55.22-32.95 82.87 6.8.09 13.7.17 20.5.17 1.94.84 5.8 2.86 8.66 7.06 3.36 5.05 5.3 13.28 1.1 19.92-3.7 5.8-10.1 7.14-11.52 7.48-11.1-.08-22.27-.17-33.37-.17L206.42 423.3a20.19 20.19 0 01-9.16 6.14 19.74 19.74 0 01-11.52.08 19.94 19.94 0 01-8.9-8.9c-3.45-6.98-1.44-13.45-1.02-14.88l39.84-95.56c-7.14-.17-14.2-.25-21.35-.42a17.57 17.57 0 01-8.74-6.47c-4.62-6.64-3.95-16.4 1.35-22.27a17.42 17.42 0 018.4-5.05c11.43-.08 22.95-.17 34.38-.17 13.7-32.94 27.48-66.06 41.18-99.08z" fill="#e7e6f2"/></svg>