<svg width="600" height="600" viewBox="0 0 600 600" fill="none" xmlns="http://www.w3.org/2000/svg">
<path d="M300 600C465.685 600 600 465.685 600 300C600 134.315 465.685 0 300 0C134.315 0 0 134.315 0 300C0 465.685 134.315 600 300 600Z" fill="url(#paint0_radial_440_32)"/>
<path d="M130.226 446.272C129.985 441.447 129.904 436.623 130.146 431.799C131.754 431.316 133.362 430.995 135.05 430.753C139.875 429.949 144.699 428.743 149.363 427.376C150.649 426.974 151.936 426.492 153.222 426.01C159.413 423.597 164.881 419.577 169.062 414.431C171.957 410.813 174.449 406.873 176.62 402.772C179.675 397.144 182.329 391.274 184.741 385.324C189.565 373.263 194.39 361.283 199.134 349.222C215.536 307.733 231.939 266.244 248.342 224.754C263.86 185.275 279.137 145.796 294.093 106.076C294.414 105.272 294.736 104.468 295.058 103.664C300.606 102.136 305.993 100.528 311.621 99C311.943 99.8041 312.264 100.528 312.506 101.251C318.858 118.941 325.21 136.63 331.481 154.399C353.11 214.784 374.739 275.088 396.931 335.232C403.042 351.634 409.153 368.118 415.344 384.52C417.756 391.194 420.651 397.787 423.948 404.059C425.395 406.793 426.923 409.366 428.611 411.939C433.757 419.979 441.717 425.688 450.964 428.1C455.949 429.387 460.934 430.432 466.08 431.075L469.698 431.638C470.181 433.246 469.94 434.774 469.94 436.301C469.94 437.829 469.94 439.598 469.94 441.206C470.02 442.814 469.94 444.342 469.859 445.95C469.377 446.031 468.975 446.111 468.492 446.191C467.93 446.191 467.367 446.191 466.804 446.191H341.291C341.13 445.95 341.05 445.629 340.969 445.307C340.969 440.965 340.969 436.623 340.969 432.281C340.969 432.12 341.05 431.879 341.13 431.718C342.175 431.397 343.22 431.236 344.346 431.075C349.573 430.351 354.718 429.387 359.864 428.02C361.875 427.457 363.965 426.733 365.895 425.929C366.86 425.527 367.825 425.045 368.789 424.482C373.855 421.668 375.865 417.245 375.383 411.617C375.142 409.044 374.739 406.551 374.016 404.059C372.971 400.199 371.604 396.42 370.317 392.722C343.944 319.151 317.893 245.499 292.083 171.687C291.841 170.883 291.681 169.998 290.876 169.274C290.635 169.435 290.233 169.596 290.072 169.757C289.831 170.159 289.67 170.561 289.59 170.963C276.966 207.226 263.539 243.248 250.191 279.189C240.301 305.803 230.411 332.498 221.245 359.353C217.547 370.128 214.009 380.982 210.551 391.837C209.184 396.018 208.219 400.28 207.576 404.541C207.094 407.436 207.013 410.33 207.335 413.305C207.737 417.085 209.747 420.542 212.883 422.793C214.893 424.241 217.145 425.366 219.557 426.17C223.336 427.537 227.195 428.502 231.135 429.145C235.477 429.949 239.819 430.593 244.241 431.236C244.563 431.316 244.804 431.316 245.206 431.397C245.286 431.718 245.367 432.04 245.447 432.362C245.447 436.543 245.447 440.804 245.447 444.985C245.447 445.227 245.367 445.468 245.286 445.709C244.884 445.789 244.482 445.87 244.08 445.87C243.518 445.87 242.955 445.87 242.392 445.87L130.226 446.272Z" fill="#1E2231"/>
<defs>
<radialGradient id="paint0_radial_440_32" cx="0" cy="0" r="1" gradientUnits="userSpaceOnUse" gradientTransform="translate(196 143.5) rotate(54.1675) scale(497.082)">
<stop offset="0.230743" stop-color="white"/>
<stop offset="1" stop-color="#D6D9DF"/>
</radialGradient>
</defs>
</svg>
