<svg xmlns="http://www.w3.org/2000/svg" viewBox="0 0 600 600" fill="none">
<g clip-path="url(#clip0_6216_38373)">
<path d="M300 600.014C465.684 600.014 600 465.698 600 300.014C600 134.328 465.684 0.0136719 300 0.0136719C134.315 0.0136719 0 134.328 0 300.014C0 465.698 134.315 600.014 300 600.014Z" fill="url(#paint0_radial_6216_38373)"/>
<path d="M471.265 233.602C472.824 229.871 474.154 226.648 475.292 220.001C477.009 209.818 478.247 202.467 474.848 195.546C473.751 193.299 473.023 192.664 469.329 189.626L469.207 189.527C466.576 187.367 462.981 184.415 457.525 179.34C447.043 169.597 441.79 164.713 438.679 158.452C434.257 149.579 417.129 140.024 408.78 137.16C390.359 130.853 372.896 132.819 352.683 135.108C351.826 135.203 350.965 135.3 350.102 135.397C347.763 135.66 345.399 135.927 343.004 136.163C332.977 137.191 322.887 143.034 314.757 147.742L314.662 147.797C311.553 149.607 308.7 151.261 306.141 152.479C319.947 152.507 334.397 154.52 345.598 161.381C364.36 172.877 368.175 196.458 369.421 218.003C369.78 224.178 369.354 231.391 368.903 239.018C367.899 256.083 366.763 275.427 375.636 277.94C383.263 280.112 405.299 289.789 430.947 302.886C431.615 303.228 433.259 303.145 434.043 303.094C443.083 302.014 449.859 293.021 453.904 287.647C458.918 281.006 460.998 274.841 462.243 271.146C463.773 266.632 464.096 264.091 464.575 260.329L464.578 260.306L464.596 260.168L464.615 260.023C464.914 257.666 465.257 254.993 465.944 251.348C467.673 242.243 469.58 237.654 471.261 233.61L471.265 233.602Z" fill="white"/>
<path d="M382.65 311.998C383.499 310.688 382.945 308.894 381.468 308.39C377.62 307.077 374.008 306.035 371.146 305.55C360.331 303.733 351.884 310.132 349.112 312.237C346.49 314.223 346.414 314.565 346.212 315.468L346.212 315.47C345.74 317.657 344.984 320.187 341.577 324.851C335.167 333.66 330.836 336.394 327.678 338.377L327.649 338.395C325.405 339.819 324.032 340.689 322.275 343.513C320.838 345.86 320.873 348.131 321.15 353.522C321.299 356.23 321.473 359.588 321.363 363.727V364.642C321.35 369.131 321.256 372.757 321.105 375.702C321.024 377.282 322.479 378.542 323.943 377.941L324.053 377.895L324.109 377.872L324.197 377.835C324.248 377.813 324.298 377.792 324.348 377.771C324.446 377.728 324.544 377.686 324.643 377.644C326.08 377.015 327.717 376.302 331.401 375.731C352.519 372.515 355.564 371.851 358.539 369.856C362.141 367.453 362.447 364.685 362.787 358.655C363.103 352.891 363.508 345.707 368.477 337.174C369.879 334.754 371.551 331.652 373.314 328.365C376.938 321.648 379.983 316.111 382.65 311.998Z" fill="white"/>
<path d="M297.971 405.926C297.509 406.524 296.973 406.801 296.196 406.842C293.988 406.931 292.437 406.388 291.412 405.15C289.232 402.5 289.527 397.172 290.034 394.059L298.964 391.678C299.664 396.405 299.994 403.292 297.971 405.926Z" fill="white"/>
<path d="M298.385 378.008C298.378 376.475 298.541 375.009 298.69 373.707C298.783 373.004 298.875 372.117 298.9 371.521C297.366 371.29 294.956 371.797 293.111 372.195C292.188 372.408 291.329 372.592 290.488 372.713C290.072 373.53 290.09 376.268 290.101 377.992L290.101 378.076C290.101 378.318 290.102 378.56 290.103 378.803V378.806C290.106 379.292 290.108 379.781 290.101 380.273C290.097 380.666 290.082 381.07 290.066 381.48L290.066 381.482C290.055 381.767 290.044 382.054 290.037 382.342L290.032 382.479C289.996 383.385 289.947 384.647 289.991 385.508C293.121 385.561 295.503 385.561 298.293 384.547C298.475 383.598 298.447 381.626 298.427 380.177L298.421 379.716C298.407 379.279 298.399 378.834 298.392 378.389L298.385 378.008Z" fill="white"/>
<path d="M282.168 403.174C281.735 407.751 280.322 413.411 276.028 414.272C274.097 414.667 273.163 414.087 272.574 413.533C269.674 410.847 269.213 402.73 269.617 396.922C271.549 396.957 274.079 396.524 277.078 395.942C278.906 395.58 280.727 395.175 282.175 394.842C282.342 396.993 282.462 400.06 282.168 403.174Z" fill="white"/>
<path d="M270.455 390.142L280.141 386.745C280.177 382.905 280.177 376.587 279.918 373.709L273.795 374.042L273.593 374.014L273.582 374.014L273.571 374.013L273.553 374.013L273.54 374.012C273.527 374.011 273.514 374.01 273.501 374.008C273.474 374.006 273.446 374.003 273.419 374.003C273.061 374.003 272.93 374.12 272.865 374.177C272.674 374.34 271.999 375.1 271.832 377.574C271.601 381.091 270.945 386.383 270.455 390.142Z" fill="white"/>
<path d="M264.488 383.732C263.941 385.191 263.295 389.319 262.891 392.226L250.756 391.857C251.441 388.098 252.388 384.275 253.432 381.226C254.486 378.199 255.622 375.927 256.666 375.288C257.883 374.557 260.562 374.394 262.206 375.796C264.875 378.071 265.613 380.676 264.488 383.732Z" fill="white"/>
<path d="M256.68 422.95C257.976 422.813 259.019 422.16 259.96 420.874C263.69 415.794 263.58 403.82 263.193 399.181C260.616 399.329 255.186 400.306 250.153 401.452L250.15 401.558C250.011 407.14 249.726 418.539 253.514 422.034C254.334 422.802 255.36 423.098 256.68 422.95Z" fill="white"/>
<path d="M243.893 392.142C243.384 393.496 242.902 394.778 242.525 395.927C241.112 396.371 236.8 395.984 232.396 395.011L235.423 375.916C240.399 374.596 246.17 374.17 247.565 375.65C249.403 377.602 245.712 387.37 244.122 391.533L243.893 392.142Z" fill="white"/>
<path d="M227.823 427.997C232.746 428.049 236.274 426.693 238.627 423.792C241.615 420.079 242.198 414.301 242.017 409.665C241.953 408.146 241.814 406.757 241.647 405.608L225.211 404.622C222.531 411.143 219.855 421.347 222.588 425.677C223.198 426.645 224.416 427.938 227.823 427.997Z" fill="white"/>
<path d="M196.849 268.981C196.855 268.974 196.861 268.966 196.866 268.958C196.767 268.942 196.663 268.932 196.565 268.922L196.536 268.919L196.288 268.901C195.234 268.752 194.265 268.688 193.406 268.688C191.237 268.688 189.722 269.104 189.186 269.906C187.717 272.074 187.301 274.956 186.684 279.315L186.654 279.523C186.244 282.358 185.737 285.86 184.792 289.934C184.607 290.729 184.533 291.219 184.458 291.847C184.1 294.729 183.535 297.239 178.946 307.823C177.204 311.831 177.602 313.621 178.21 316.353L178.215 316.373C178.325 316.845 178.428 317.317 178.52 317.797C178.896 318.829 181.594 320.771 183.358 321.619C182.084 312.82 184.927 306.282 187.106 301.296C187.798 299.709 188.398 298.332 188.767 297.132C189.295 295.338 189.323 293.799 189.358 291.878L189.36 291.794C189.416 288.057 189.487 283.411 193.182 275.201C194.536 272.172 195.676 270.595 196.673 269.214L196.717 269.153C196.743 269.117 196.771 269.081 196.799 269.046L196.819 269.02C196.829 269.007 196.84 268.994 196.849 268.981Z" fill="white"/>
<path d="M224.426 184.263C225.487 181.576 226.474 179.102 227.298 177.107C225.47 177.451 223.723 178.086 222.289 179.084C219.085 181.274 218.133 183.897 216.121 190.147L216.091 190.238C214.227 195.976 211.683 203.807 205.444 214.314C204.586 215.762 203.801 217.065 203.07 218.265C199.421 224.267 198.183 226.446 198.609 228.44C199.18 231.117 204.23 233.243 207.315 233.584C206.179 227.536 206.491 221.974 208.238 216.998C209.223 214.19 210.523 212.164 212.148 209.632L212.209 209.537L212.321 209.364C213.75 207.147 215.527 204.392 217.796 200.089C219.145 197.533 221.952 190.484 224.426 184.263Z" fill="white"/>
<path fill-rule="evenodd" clip-rule="evenodd" d="M374.462 285.194C359.665 281.002 360.939 259.365 362.171 238.453C362.607 231.053 363.019 224.056 362.682 218.335C361.546 198.761 358.256 177.443 342.511 167.793C325.578 157.437 297.876 159.798 280.784 161.973C280.776 161.974 280.769 161.977 280.761 161.979C280.754 161.982 280.746 161.985 280.738 161.986C280.731 161.986 280.725 161.987 280.718 161.989C274.458 163.887 268.601 165.117 264.061 164.876C254.004 164.355 246.171 160.131 239.274 156.412L239.219 156.382C233.828 153.461 229.125 150.937 224.695 150.937C224.461 150.937 224.216 150.937 223.975 150.948C210.725 151.807 204.635 155.044 199.101 159.981C197.71 161.212 196.013 164.779 190.459 180.787C187.683 188.796 187.147 193.214 186.63 197.476L186.615 197.604L186.609 197.656C186.142 201.569 185.661 205.602 183.58 211.606C182.169 215.639 181.119 219.135 180.108 222.498L180.013 222.814C177.273 232.007 175.108 239.248 168.602 247.858C167.905 248.789 167.054 250.119 166.078 251.644L165.798 252.082L165.647 252.32C164.197 254.603 162.416 257.409 160.087 260.639C158.387 262.996 154.483 271.816 154.696 274.503C155.01 278.716 156.365 281.355 157.925 284.394L157.997 284.533L158.02 284.577C159.597 287.623 161.384 291.073 161.713 295.827L161.766 296.601C162.348 304.179 161.266 307.98 146.852 320.857C137.636 329.102 131.089 337.049 126.673 342.877C126.284 343.392 126.79 344.156 127.434 344.105C127.583 344.084 127.732 344.073 127.87 344.073C128.147 344.051 128.424 344.041 128.697 344.041C128.974 344.041 129.251 344.051 129.524 344.062C129.801 344.073 130.067 344.094 130.34 344.137C133.826 344.534 137.224 346.008 139.677 348.549C140.104 348.991 140.766 349.11 141.336 348.882C143.682 347.906 146.263 348.066 148.726 348.296C151.657 348.569 154.617 349.424 156.636 351.242C157.405 351.935 158.46 352.302 159.473 352.094C161.768 351.623 164.158 351.702 166.38 352.51C168.028 353.124 169.441 354.056 170.599 355.225C171.691 356.327 173.538 356.547 174.886 355.779C175.424 355.472 176.005 355.208 176.634 354.994C179.765 353.933 183.225 354.536 186.264 355.63C186.481 355.708 186.701 355.785 186.921 355.863C188.213 356.317 189.526 356.779 190.679 357.55C192.906 359.032 194.354 361.133 195.326 363.5C196.073 365.317 198.558 365.938 200.153 364.79C202.069 363.412 203.651 363.234 205.245 363.942C205.905 364.24 206.42 364.617 206.814 365.072C207.957 366.389 209.792 367.703 211.489 367.301C216.215 366.184 221.937 366.925 226.136 369.174C227.686 369.989 229.212 371.231 230.326 373.11L230.327 373.111L230.328 373.113L230.328 373.115C230.33 373.122 230.339 373.119 230.341 373.112L230.468 372.276C230.526 371.898 230.794 371.586 231.159 371.473L232.177 371.158C234.577 370.395 246.804 366.87 251.56 371.878C251.766 372.084 252.124 372.104 252.321 371.889C252.97 371.181 253.495 370.79 253.832 370.597C256.93 368.719 262.24 368.602 265.775 371.626C266.486 372.223 267.639 372.007 268.175 371.248C268.505 370.78 268.88 370.369 269.299 370.015C270.542 368.943 272.114 368.432 273.853 368.538L280.572 368.176C282.262 368.083 287.511 367.727 289.166 367.376C289.291 367.35 289.42 367.327 289.552 367.307C290.147 367.216 290.837 367.072 291.566 366.919L291.598 366.912L291.951 366.838C295.209 366.128 298.904 365.33 301.939 366.732C304.857 368.08 304.487 371.402 304.136 374.331L304.124 374.432C303.989 375.59 303.849 376.795 303.859 377.941C303.88 378.491 303.891 379.044 303.902 379.609L303.905 379.794C303.947 382.247 303.985 384.51 303.499 386.258C303.498 386.262 303.497 386.265 303.497 386.269L303.497 386.273L303.498 386.277L303.498 386.279L303.806 387.666C304.127 389.03 305.584 389.798 306.776 389.062C309.045 387.66 311.381 385.89 312.127 384.843C312.196 384.746 312.249 384.641 312.29 384.529C312.394 384.247 312.576 383.664 312.779 382.487C313.194 379.992 313.659 374.92 313.702 364.62C313.702 364.077 313.702 363.687 313.712 363.506C313.797 359.683 313.648 356.616 313.499 353.908L313.497 353.874C313.221 348.307 313.004 343.922 315.771 339.459C318.456 335.127 321.064 333.475 323.57 331.888L323.604 331.867C326.532 330.032 329.836 327.948 335.398 320.317C338.128 316.559 338.465 315.043 338.731 313.833C339.335 310.997 340.272 309.29 344.485 306.106L344.502 306.093C347.948 303.489 358.372 295.611 372.425 297.975C377.041 298.759 384.524 301.221 391.91 304.13C391.913 304.132 391.917 304.133 391.921 304.133C391.923 304.133 391.924 304.133 391.926 304.133L391.928 304.134C392.194 304.212 392.468 304.303 392.719 304.431C392.833 304.491 392.952 304.551 393.073 304.599C399.458 307.149 405.672 309.985 409.784 312.295C410.955 312.953 412.444 312.56 413.297 311.524C414.568 309.983 415.946 309.043 417.424 308.157L417.535 308.09C418.073 307.76 418.501 307.499 418.909 307.149C420.294 305.973 420.28 303.506 418.665 302.675C399.011 292.579 380.588 286.935 374.462 285.194ZM233.455 289.747C228.88 309.78 197.848 331.796 183.744 331.796H183.466C183.243 331.785 182.998 331.764 182.735 331.721C182.469 331.679 182.182 331.615 181.876 331.53C181.844 331.52 181.81 331.51 181.777 331.5L181.689 331.474L181.688 331.473C181.648 331.461 181.607 331.448 181.567 331.436C181.514 331.421 181.461 331.405 181.408 331.391C178.849 330.585 175.303 328.619 172.62 325.978C170.774 324.165 169.319 322.028 168.861 319.725C168.819 319.523 168.776 319.322 168.734 319.12C168.691 318.919 168.648 318.717 168.606 318.514C167.842 315.107 166.895 310.851 169.901 303.888C170.231 303.146 170.531 302.443 170.812 301.787C170.885 301.617 170.956 301.45 171.026 301.286C171.101 301.1 171.18 300.914 171.258 300.733C171.291 300.655 171.324 300.577 171.356 300.502C171.676 299.749 171.96 299.057 172.215 298.432C172.641 297.371 172.989 296.469 173.276 295.703C173.393 295.405 173.5 295.117 173.596 294.855C174.445 292.473 174.559 291.564 174.674 290.642L174.678 290.61C174.693 290.506 174.708 290.4 174.724 290.289C174.819 289.618 174.934 288.804 175.19 287.71C176.07 283.951 176.527 280.767 176.932 277.932C177.653 272.835 178.281 268.43 181.028 264.387C181.497 263.699 182.015 263.071 182.6 262.52C182.803 262.329 182.995 262.148 183.204 261.967C183.394 261.805 183.583 261.661 183.771 261.519L183.771 261.518L183.839 261.466C184.506 260.998 185.22 260.586 185.993 260.235C186.26 260.118 186.526 260 186.789 259.905C187.332 259.702 187.903 259.532 188.499 259.383C191.026 258.769 194.008 258.673 197.437 259.106C201.185 259.404 204.656 260.114 207.733 260.973C210.303 261.683 212.596 262.513 214.537 263.287C214.74 263.362 214.931 263.436 215.123 263.521C215.495 263.671 215.854 263.819 216.205 263.979C216.657 264.169 217.076 264.351 217.472 264.523L217.682 264.614C218.111 264.812 218.516 264.993 218.89 265.16C219.041 265.228 219.188 265.293 219.329 265.356L219.787 265.569C221.952 266.556 223.812 267.638 225.402 268.774C226.186 269.349 226.921 269.932 227.577 270.524C227.801 270.716 228.014 270.918 228.213 271.131C228.426 271.333 228.628 271.536 228.816 271.738C234.779 278.017 234.484 285.278 233.455 289.747ZM247.837 213.824L247.233 217.455C245.842 225.64 242.648 236.859 230.864 239.748C219.528 242.52 216.841 243.113 208.773 243.475C208.592 243.496 208.401 243.496 208.209 243.496C202.317 243.496 190.98 239.78 188.972 230.545C187.691 224.622 190.29 220.323 194.581 213.225L194.629 213.146L194.832 212.814C195.495 211.73 196.204 210.572 196.954 209.291C202.658 199.684 204.91 192.725 206.715 187.146L206.722 187.126C208.482 181.671 209.948 177.16 213.717 173.422C214.587 172.553 215.574 171.733 216.72 170.948C217.451 170.448 218.218 170.004 219.024 169.589C220.095 169.057 221.22 168.591 222.399 168.219C225.022 167.381 227.854 166.955 230.69 166.955C236.188 166.955 241.679 168.538 245.594 171.679C247.354 173.092 249.86 175.914 251.315 184.237C252.064 188.524 250.79 196.404 247.837 213.824ZM331.902 237.115L331.808 237.275C327.811 244.137 325.6 247.934 322.124 250.786C315.171 256.497 307.061 257.942 300.384 257.942C295.587 257.942 291.513 257.2 289.114 256.764L289.112 256.763L289.074 256.756C282.166 255.491 269.359 253.146 265.09 243.028C264.252 241.022 264.242 239.748 264.242 238.133C264.242 236.539 264.242 233.856 263.5 227.475L263.457 227.049C263.117 224.159 262.737 220.891 263.564 216.699L263.66 216.199C266.08 203.886 266.737 202.005 267.28 200.943C268.533 198.523 271.503 197.568 273.924 198.811C276.27 200.031 277.247 202.874 276.143 205.263C275.898 205.962 275.209 208.585 273.339 218.108L273.243 218.609C272.71 221.295 272.945 223.333 273.254 225.913L273.296 226.35C274.102 233.281 274.102 236.422 274.102 238.122C274.102 238.422 274.102 238.752 274.112 238.947C274.115 239.014 274.145 239.101 274.168 239.17L274.176 239.195C274.895 240.897 276.417 242.232 278.31 243.289C279.938 244.198 281.69 242.604 281.34 240.772C279.302 230.096 279.512 217.842 283.561 210.204C284.918 207.606 287.43 203.358 289.815 199.391C289.822 199.38 289.83 199.37 289.836 199.359C289.841 199.347 289.85 199.337 289.856 199.326L290.054 199C290.229 198.711 290.404 198.423 290.578 198.133C290.673 197.971 290.769 197.813 290.863 197.658L290.864 197.657L290.868 197.65C290.971 197.48 291.073 197.312 291.17 197.146C292.221 195.403 293.208 193.802 293.995 192.528C294.102 192.347 294.209 192.166 294.315 191.996C294.39 191.868 294.464 191.751 294.539 191.644C294.615 191.52 294.687 191.4 294.756 191.285C294.8 191.213 294.842 191.144 294.883 191.076C294.91 191.031 294.937 190.988 294.963 190.945L294.996 190.892C295.021 190.851 295.045 190.812 295.069 190.775C295.107 190.713 295.144 190.653 295.177 190.594C295.183 190.586 295.188 190.579 295.193 190.571C295.202 190.559 295.21 190.546 295.217 190.534L295.228 190.516C295.236 190.502 295.244 190.488 295.252 190.476C295.327 190.349 295.401 190.232 295.465 190.136L295.541 190.015L295.542 190.014C295.632 189.872 295.7 189.764 295.742 189.689C295.744 189.684 295.747 189.679 295.749 189.674L295.753 189.666C295.765 189.644 295.788 189.613 295.8 189.592C295.808 189.579 295.81 189.576 295.817 189.566L295.82 189.561C296.407 188.706 296.989 187.882 297.562 187.091C298.853 185.309 297.343 183.031 295.337 183.935C291.894 185.489 289.575 187.258 289.066 187.662C286.932 189.362 283.83 189.011 282.144 186.878C280.455 184.745 280.806 181.635 282.939 179.935C285.477 177.94 298.925 168.13 315.032 172.737C326.615 176.032 332.698 184.874 335 188.22L335.011 188.237L335.053 188.297C336.94 191.066 342.517 199.246 342.337 210.637C342.202 219.386 338.55 225.682 331.902 237.115Z" fill="white"/>
<path d="M221.178 398.637C217.76 405.619 213.505 412.062 210.853 415.258C208.656 409.321 204.841 395.719 205.849 384.777C205.877 384.461 205.913 384.148 205.959 383.843C206.364 380.464 207.261 377.362 208.859 374.877C209.913 373.245 212.83 372.247 216.145 372.247C218.591 372.247 221.253 372.783 223.542 374.011H223.56C224.788 374.668 226.46 375.995 226.634 379.857C226.886 385.071 224.401 392.081 221.178 398.637Z" fill="white"/>
<path d="M408.752 321.223C408.904 320.918 408.738 320.596 408.472 320.383C407.131 319.304 400.99 316.232 393.731 313.136C392.608 312.656 391.3 312.967 390.587 313.959C387.471 318.296 383.226 326.173 380.148 331.884L379.688 332.736C378.034 335.803 376.478 338.686 375.117 341.029C371.075 347.964 370.741 353.872 370.446 359.078L370.446 359.081L370.446 359.084C370.105 365.241 369.753 371.604 362.819 376.228C358.183 379.319 354.002 380.04 332.578 383.309C329.885 383.727 328.923 384.143 327.723 384.668C326.294 385.291 324.727 385.968 321.225 386.653C320.213 386.851 319.412 387.583 318.902 388.48L318.884 388.511L318.867 388.54C317.209 391.406 311.647 395.578 306.934 397.633C305.808 398.123 305.021 399.2 304.95 400.425C304.757 403.754 304.046 407.027 302.331 409.262C300.873 411.146 298.849 412.199 296.45 412.31C296.213 412.321 295.972 412.321 295.742 412.321H295.74C291.208 412.321 288.603 410.337 287.19 408.619C287.075 408.483 286.822 408.531 286.778 408.704C285.464 413.91 282.689 418.524 277.117 419.644C276.322 419.81 275.573 419.884 274.881 419.884C272.045 419.884 270.079 418.683 268.851 417.549C268.342 417.083 267.431 417.279 267.24 417.944C266.593 420.198 265.706 422.281 264.492 423.977C262.636 426.571 260.151 428.093 257.28 428.4C256.875 428.444 256.485 428.462 256.098 428.462C253.688 428.462 251.527 427.642 249.809 426.054C248.281 424.65 244.717 424.724 243.516 426.412C243.318 426.693 243.111 426.966 242.894 427.236C239.555 431.381 234.603 433.479 228.186 433.479H227.753C222.167 433.387 219.348 430.775 217.964 428.584C217.359 427.624 216.912 426.563 216.597 425.433C215.978 423.212 212.392 422.463 210.085 422.463C209.928 422.463 209.786 422.443 209.655 422.424C209.599 422.417 209.544 422.409 209.492 422.403C207.896 422.148 207.288 420.827 206.794 419.755L206.777 419.717C206.69 419.518 206.361 419.603 206.388 419.817C206.612 421.628 206.874 423.453 207.164 425.292C207.331 426.32 207.331 428.858 203.923 430.509C201.542 431.673 197.495 432.264 192.981 432.264C184.707 432.264 174.854 430.269 170.801 426.105C169.981 425.448 169.05 424.69 168.201 423.708C166.758 422.041 163.899 421.336 162 422.455C160.461 423.364 159.334 423.556 158.567 423.556C158.215 423.556 157.938 423.523 157.725 423.493C153.79 422.947 151.168 419.234 149.054 414.106C148.585 412.968 147.333 412.369 146.109 412.499C143.798 412.776 141.462 412.905 139.145 412.942C136.894 412.96 134.595 412.879 132.572 411.822C130.552 410.751 129.349 408.896 128.593 406.809C128.508 406.602 128.256 406.517 128.055 406.617C128.044 406.622 128.033 406.627 128.022 406.632C128 406.643 127.977 406.654 127.954 406.661C127.776 406.739 127.592 406.783 127.389 406.82C126.236 407.016 125.1 407.005 124.011 406.82C123.464 406.728 122.921 406.587 122.403 406.403C121.781 406.196 121.193 405.908 120.628 405.557C120.312 405.368 119.901 405.693 120.048 406.029L120.11 406.174C132.011 433.247 139.205 449.591 156.242 458.68C163.453 462.53 174.305 463.77 195.9 466.238L196.005 466.25C211.796 468.049 223.753 468.038 243.562 468.001C262.622 467.975 268.215 467.151 271.956 466.394C278.186 465.114 281.46 463.791 284.895 462.403L284.896 462.403L285.073 462.331C288.883 460.791 292.841 459.192 300.368 457.734C307.587 456.344 316.021 456.04 332.8 455.433L332.801 455.433L332.926 455.428C342.151 455.085 347.024 455.077 349.952 455.077H349.956C353.321 455.066 353.36 455.066 354.56 454.697C367.468 450.855 375.263 438.814 382.798 427.162C388.821 417.844 393.576 410.481 395.607 399.366C396.612 393.875 396.374 390.473 395.982 384.861L395.977 384.796C395.559 378.943 395.009 370.918 395.534 356.632C395.977 344.472 396.823 339.723 399.465 334.516C401.3 330.888 403.268 328.545 404.996 326.487L405.062 326.41L405.073 326.396C406.513 324.706 407.735 323.269 408.752 321.223Z" fill="white"/>
<path d="M200.416 384.103C199.567 391.51 199.049 401.405 200.249 414.298C200.589 417.933 201.061 421.712 201.651 425.533C200.635 426.087 197.604 426.866 192.213 426.778C184.465 426.622 176.923 424.675 174.658 422.226L174.307 421.908C172.422 420.393 171.187 419.396 171.009 416.692C170.953 415.779 171.343 414.874 172.181 413.596C172.634 412.889 173.23 412.079 173.966 411.078L173.967 411.076L174.008 411.021C175.311 409.273 176.926 407.093 178.58 404.289C183.428 396.096 185.267 393.565 187.602 390.371C187.787 390.112 187.982 389.852 188.185 389.586C189.562 387.701 191.176 385.448 193.604 381.746C195.414 378.995 196.919 376.841 198.158 375.151C200.227 372.337 201.583 370.81 202.453 369.98C202.325 371.254 202.037 373.046 201.761 374.7L201.685 375.164L201.685 375.165C201.287 377.618 200.806 380.58 200.416 384.103Z" fill="white"/>
<path d="M190.812 373.355C190.564 370.817 190.12 368.275 189.198 365.883C189.157 365.807 189.033 365.538 188.932 365.319L188.88 365.206C188.844 365.128 188.815 365.065 188.8 365.035C188.698 364.848 188.587 364.668 188.475 364.488C188.404 364.373 188.333 364.258 188.264 364.14C188.26 364.136 188.256 364.133 188.253 364.131C188.249 364.129 188.246 364.127 188.246 364.123C188.235 364.105 188.228 364.105 188.228 364.094C188.184 364.047 188.142 364 188.1 363.953L188.1 363.952C188.073 363.922 188.047 363.893 188.02 363.863L188.003 363.845L187.973 363.813C187.96 363.799 187.947 363.785 187.934 363.771C187.785 363.622 187.621 363.477 187.462 363.345C187.433 363.31 187.405 363.282 187.38 363.271C187.306 363.207 187.196 363.122 187.075 363.051C186.984 363.003 186.896 362.953 186.807 362.904C186.707 362.848 186.606 362.791 186.504 362.738C186.447 362.703 186.308 362.646 186.181 362.6C186.181 362.6 186.17 362.6 186.17 362.59L186.158 362.585L186.145 362.581L186.133 362.577C186.118 362.572 186.102 362.567 186.088 362.561C186.06 362.543 186.042 362.533 186.024 362.526L186.021 362.524C185.995 362.514 185.977 362.508 185.96 362.508C185.958 362.508 185.957 362.508 185.955 362.508C185.953 362.507 185.951 362.507 185.95 362.506C185.948 362.505 185.946 362.504 185.945 362.503C185.944 362.502 185.943 362.5 185.943 362.499C185.943 362.498 185.943 362.497 185.943 362.497C185.915 362.483 185.893 362.475 185.874 362.468C185.865 362.465 185.856 362.462 185.849 362.46C185.839 362.457 185.83 362.454 185.822 362.451C185.679 362.398 185.535 362.345 185.392 362.292C184.054 361.796 182.696 361.293 181.279 361.084C181.275 361.084 181.268 361.083 181.26 361.081L181.253 361.079C181.243 361.076 181.232 361.074 181.222 361.074H181.187C181.055 361.074 180.815 361.053 180.699 361.043C180.662 361.04 180.637 361.038 180.633 361.038C180.413 361.028 180.2 361.028 179.987 361.038C179.884 361.038 179.785 361.038 179.692 361.049H179.611C179.594 361.049 179.575 361.051 179.555 361.054C179.532 361.057 179.508 361.06 179.483 361.06C179.466 361.077 179.437 361.077 179.426 361.077H179.409C179.264 361.12 179.116 361.161 178.967 361.201C178.756 361.26 178.543 361.318 178.336 361.383C178.303 361.399 178.27 361.416 178.236 361.432C178.116 361.491 177.991 361.552 177.875 361.624C177.827 361.652 177.779 361.683 177.73 361.713C177.649 361.764 177.568 361.815 177.488 361.855C177.477 361.865 177.46 361.883 177.442 361.883L177.414 361.912C177.332 361.993 177.249 362.072 177.165 362.151C177.078 362.234 176.991 362.316 176.906 362.401C176.849 362.458 176.693 362.65 176.583 362.788C176.555 362.806 176.537 362.824 176.537 362.841L176.52 362.859C176.509 362.87 176.509 362.877 176.491 362.888C176.487 362.891 176.485 362.895 176.483 362.897L176.482 362.899C176.479 362.903 176.478 362.905 176.473 362.905C176.45 362.947 176.427 362.984 176.407 363.016C176.388 363.047 176.372 363.072 176.363 363.09C175.771 364.013 175.171 364.928 174.553 365.841C173.13 368.02 171.671 370.188 170.195 372.343C168.846 374.291 167.497 376.24 166.159 378.189C165.41 379.278 164.672 380.357 163.934 381.447C163.811 381.623 163.696 381.799 163.581 381.976L163.58 381.977L163.564 382.001C163.949 382.074 164.334 382.148 164.719 382.223L164.72 382.223L164.722 382.223C165.214 382.319 165.708 382.415 166.205 382.508C168.189 382.87 170.166 383.218 172.179 383.495C176.324 384.059 180.537 384.318 184.736 384.169C184.939 384.159 185.141 384.169 185.329 384.205C186.337 382.764 187.526 381.046 189.041 378.746C189.882 377.461 190.685 376.272 191.441 375.172C191.1 374.646 190.887 374.018 190.812 373.355Z" fill="white"/>
<path d="M166.541 409.831C172.121 401.953 175.695 393.68 176.053 390.486C175.425 390.433 174.802 390.367 174.176 390.299L173.76 390.255H173.725C162.108 390.209 153.834 389.506 149.125 386.894C148.911 390.439 149.132 396.083 150.342 400.292L150.368 400.385C150.899 402.24 151.529 404.441 152.226 406.646C153.991 412.177 156.216 417.756 158.47 418.066C159.034 418.011 161.87 416.415 166.541 409.831Z" fill="white"/>
<path d="M167.786 364.184V364.202C167.768 364.226 167.75 364.25 167.734 364.275C167.721 364.294 167.709 364.313 167.696 364.332C167.686 364.348 167.676 364.363 167.666 364.379L167.648 364.405C167.642 364.414 167.636 364.423 167.629 364.432C165.788 367.142 163.932 369.839 162.075 372.538L161.61 373.213C160.566 374.719 159.534 376.223 158.508 377.739C158.249 378.117 157.949 378.512 157.638 378.924C157.27 379.408 156.886 379.916 156.531 380.444L156.195 380.365L156.193 380.364C154.652 380.005 153.115 379.645 151.59 379.216C150.252 378.829 148.932 378.413 147.636 377.895C147.377 377.803 147.129 377.7 146.887 377.583C146.674 377.15 146.369 376.759 146 376.465C146.006 376.458 146.009 376.448 146.011 376.438C146.013 376.43 146.015 376.423 146.018 376.418C146.309 375.825 146.603 375.23 146.896 374.635C147.078 374.266 147.26 373.897 147.441 373.529C148.335 371.766 149.233 370.012 150.231 368.312C152.005 365.245 154.146 362.126 157.148 360.138C157.297 360.028 157.461 359.925 157.62 359.825C158.784 359.094 159.949 358.58 161.379 358.402C161.546 358.385 162.551 358.392 163.022 358.431C163.069 358.431 163.111 358.434 163.147 358.437C163.174 358.439 163.198 358.441 163.218 358.441H163.228C163.264 358.452 163.331 358.47 163.431 358.505C163.583 358.553 163.736 358.594 163.889 358.635C164.088 358.689 164.286 358.742 164.485 358.811C164.605 358.867 164.716 358.921 164.836 358.985C164.87 359.005 164.905 359.026 164.939 359.046L165.033 359.101C165.274 359.243 165.515 359.385 165.741 359.566C165.28 359.215 166.38 360.351 166.38 360.269C167.267 361.497 167.537 362.523 167.786 364.184Z" fill="white"/>
<path d="M143.36 367.132C145.603 362.922 148.29 358.876 151.985 355.838C151.772 355.692 151.485 355.515 151.218 355.401C150.057 354.935 148.752 354.86 147.508 354.787C147.368 354.779 147.229 354.771 147.09 354.762C146.977 354.756 146.863 354.749 146.749 354.742C145.562 354.667 144.341 354.59 143.314 355.195C142.263 355.805 141.458 356.801 140.705 357.733L140.599 357.864C138.512 360.413 136.591 363.128 134.817 365.89C134.704 366.066 134.59 366.242 134.476 366.419L134.467 366.433C133.318 368.217 132.138 370.051 131.133 371.955C131.64 372.222 132.148 372.47 132.655 372.711C133.763 373.226 134.916 373.652 136.08 374.021C137.17 374.369 138.288 374.692 139.406 374.933C139.544 374.695 139.665 374.464 139.786 374.223C140.09 373.613 140.391 373.001 140.692 372.391C141.56 370.627 142.427 368.867 143.36 367.132Z" fill="white"/>
<path d="M146.119 405.416C145.934 405.571 145.778 405.741 145.64 405.933C145.516 405.969 145.388 405.998 145.306 406.016L145.304 406.017L145.299 406.018C144.412 406.111 143.506 406.177 142.612 406.233C140.894 406.343 139.148 406.417 137.412 406.354C136.443 406.318 135.567 406.17 135.169 405.553C134.631 404.735 134.41 403.409 134.216 402.244C134.18 402.025 134.144 401.811 134.108 401.608C132.972 395.301 132.823 388.728 133.628 382.346C136.926 383.528 140.316 384.444 143.794 385.015C143.045 390.769 144.319 399.216 145.068 401.803C145.416 403.007 145.767 404.223 146.119 405.416Z" fill="white"/>
<path d="M127.552 365.096C129.937 361.145 132.595 357.33 135.513 353.748C134.111 352.116 132.421 351.136 130.26 350.717C129.532 350.59 128.34 350.469 127.435 350.728C126.623 350.969 126.069 351.702 125.544 352.396C125.428 352.549 125.314 352.7 125.199 352.844C123.481 355.005 121.965 357.351 120.609 359.75C119.896 361.032 119.214 362.345 118.604 363.683C118.523 363.852 118.423 364.046 118.314 364.255C118.061 364.744 117.765 365.315 117.578 365.844C117.648 365.883 117.711 365.933 117.777 365.985L117.82 366.019C117.971 366.14 118.164 366.293 118.349 366.439L118.354 366.443L118.358 366.446L118.36 366.448C118.59 366.631 118.808 366.803 118.92 366.895C119.722 367.506 120.546 368.088 121.394 368.613C122.501 369.298 123.545 369.76 124.698 370.082C125.317 368.758 126.106 367.467 126.876 366.208C127.105 365.835 127.332 365.463 127.552 365.096Z" fill="white"/>
<path d="M113.012 369.361C113.06 369.175 113.299 369.15 113.411 369.307C114.175 370.37 115.223 371.297 116.346 372.172L116.459 372.258C116.924 372.612 117.387 372.964 117.857 373.297C117.936 373.353 117.974 373.451 117.951 373.545C116.776 378.421 115.964 383.588 115.937 388.689C115.936 388.971 115.511 389.031 115.445 388.757C113.99 382.668 112.099 372.936 113.012 369.361Z" fill="white"/>
<path d="M126.634 393.299C126.443 388.905 126.727 384.536 127.319 380.178H127.323V380.167C126.611 379.838 125.886 379.526 125.169 379.219C124.835 379.076 124.503 378.933 124.175 378.79C123.131 378.339 122.503 378.069 121.782 377.775C120.941 382.197 120.554 386.705 120.728 391.22C120.821 393.519 121.08 395.986 122.251 398.016C122.695 398.772 123.359 399.514 123.987 399.919C124.04 399.952 124.087 399.983 124.131 400.011C124.488 400.239 124.59 400.304 125.133 400.437C125.157 400.444 125.21 400.449 125.267 400.454C125.304 400.458 125.342 400.461 125.374 400.465H125.41C125.439 400.465 125.477 400.464 125.517 400.463C125.644 400.46 125.788 400.456 125.705 400.483C126.258 400.402 126.801 400.419 127.319 400.54V400.529C127.309 400.519 127.309 400.501 127.309 400.483C126.986 398.102 126.727 395.709 126.634 393.299Z" fill="white"/>
</g>
<defs>
<radialGradient id="paint0_radial_6216_38373" cx="0" cy="0" r="1" gradientUnits="userSpaceOnUse" gradientTransform="translate(196 143.514) rotate(54.1676) scale(497.082)">
<stop offset="0.230743" stop-color="#0054F9"/>
<stop offset="1" stop-color="#073183"/>
</radialGradient>
<clipPath id="clip0_6216_38373">
<rect width="600" height="600" fill="white"/>
</clipPath>
</defs>
</svg>