<svg viewBox="0 0 600 600" fill="none" xmlns="http://www.w3.org/2000/svg">
<path d="M300 600C465.685 600 600 465.685 600 300C600 134.315 465.685 0 300 0C134.315 0 0 134.315 0 300C0 465.685 134.315 600 300 600Z" fill="url(#paint0_radial)"/>
<path fill-rule="evenodd" clip-rule="evenodd" d="M213.174 435H145.633C129.619 435 121.612 435 116.817 431.953C111.634 428.66 108.364 423.134 108.018 417.084C107.697 411.485 111.663 404.658 119.594 391.006L119.598 391.001L267.476 136.454C275.524 122.599 279.548 115.672 284.669 113.093C290.2 110.307 296.761 110.302 302.296 113.08C307.421 115.651 311.455 122.574 319.524 136.416L353.63 194.925L353.631 194.927C359.499 204.992 362.432 210.025 363.722 215.335C365.127 221.116 365.129 227.138 363.73 232.92C362.445 238.231 359.515 243.268 353.656 253.339L265.227 405.337C259.282 415.556 256.31 420.666 252.237 424.485C247.804 428.642 242.429 431.706 236.553 433.423C231.154 435 225.161 435 213.174 435ZM454.141 435H375.834C359.676 435 351.595 435 346.785 431.926C341.588 428.605 338.327 423.038 338.02 416.959C337.736 411.333 341.802 404.477 349.935 390.769L389.023 324.876C397.053 311.341 401.069 304.574 406.152 302.039C411.646 299.299 418.142 299.295 423.64 302.026C428.728 304.553 432.752 311.315 440.8 324.837L440.802 324.841L480.02 390.732C488.184 404.449 492.265 411.308 491.987 416.939C491.685 423.023 488.427 428.596 483.226 431.923C478.416 435 470.324 435 454.141 435Z" fill="white"/>
<defs>
<radialGradient id="paint0_radial" cx="0" cy="0" r="1" gradientUnits="userSpaceOnUse" gradientTransform="translate(196 143.5) rotate(54.1675) scale(497.082)">
<stop stop-color="#FF6A6B"/>
<stop offset="1" stop-color="#C20C0D"/>
</radialGradient>
</defs>
</svg>
