<svg fill="none" viewBox="0 0 600 600" xmlns="http://www.w3.org/2000/svg"><radialGradient id="a" cx="0" cy="0" gradientTransform="rotate(54.17 -42.31 263.4) scale(497.082)" gradientUnits="userSpaceOnUse" r="1"><stop offset="0" stop-color="#e9edf4"/><stop offset="1" stop-color="#1e2231"/></radialGradient><path d="M300 600c165.69 0 300-134.31 300-300S465.69 0 300 0 0 134.31 0 300s134.31 300 300 300z" fill="#d9d9d9"/><path d="M300 600c165.69 0 300-134.31 300-300S465.69 0 300 0 0 134.31 0 300s134.31 300 300 300z" fill="url(#a)" fill-opacity=".35"/><g fill="#1e2231"><path d="M300 465.4c-121.32 0-219.65-35.05-219.65-82.02 0-24.5 26.78-46.58 69.65-62.14 33.46 21.48 89.6 32.48 153.26 32.48 62.14 0 117.07-13.43 150.84-34 40.44 15.4 65.55 36.88 65.55 60.55 0 47.04-98.33 85.13-219.65 85.13z"/><path d="M301.29 343.17c-91.96 0-166.54-28.83-166.54-64.41 0-19.73 22.99-37.4 59.03-49.17 25.72 13.43 64.26 22 107.51 22s81.79-8.57 107.51-22c36.12 11.84 59.03 29.44 59.03 49.17.08 35.58-74.5 64.41-166.54 64.41z"/><path d="M300.68 240.9c-71.09 0-128.75-23.83-128.75-53.11 0-29.3 57.66-53.12 128.75-53.12 71.1 0 128.76 23.83 128.76 53.12 0 29.28-57.67 53.1-128.76 53.1z"/></g></svg>