<svg fill="none" viewBox="0 0 600 600" xmlns="http://www.w3.org/2000/svg"><radialGradient id="a" cx="0" cy="0" gradientTransform="rotate(54.17 -42.31 263.4) scale(497.082)" gradientUnits="userSpaceOnUse" r="1"><stop offset="0" stop-color="#f7e2ff"/><stop offset="1" stop-color="#a47ebe"/></radialGradient><path d="M600 300.05c0 67-21.94 128.89-59.1 178.74C486.25 552.39 398.62 600 300 600c-19.17 0-37.8-1.81-56.02-5.22C105.01 568.58 0 446.62 0 300.05 0 134.32 134.3 0 300 0s300 134.32 300 300.05z" fill="#e7daec"/><path d="M300 600c165.69 0 300-134.31 300-300S465.69 0 300 0 0 134.31 0 300s134.31 300 300 300z" fill="url(#a)" fill-opacity=".35"/><path d="M300 234l-76 130-114 65 190-325z" fill="#ff4f00"/><path d="M490 429H110l114-65h153z" fill="#672893"/><path d="M377 364l-77-130V104l190 325z" fill="#a01a63"/></svg>