<svg fill="none" viewBox="0 0 600 600" xmlns="http://www.w3.org/2000/svg"><radialGradient id="b" cx="0" cy="0" gradientTransform="rotate(54.17 -42.3 263.4) scale(497.082)" gradientUnits="userSpaceOnUse" r="1"><stop offset="0" stop-color="#9e9e9e"/><stop offset="1" stop-color="#212121"/></radialGradient><clipPath id="a"><path d="M0 0h600v600H0z"/></clipPath><g clip-path="url(#a)"><path clip-rule="evenodd" d="M600 300c0 165.68-134.31 300-300 300S0 465.68 0 300C0 134.31 134.31 0 300 0s300 134.31 300 300" fill="#212121" fill-rule="evenodd"/><path d="M300 600c165.69 0 300-134.31 300-300S465.69 0 300 0 0 134.31 0 300s134.32 300 300 300z" fill="url(#b)" fill-opacity=".35"/><g clip-rule="evenodd" fill="#f4bb0b" fill-rule="evenodd"><path d="M300.31 356L242 298l58.31-58 58.32 58zm132.53-58l-.25.24 54.08 53.8L541 298l-54.7-54.41-54.09 53.8z"/><path d="M206.24 259.16l93.9-93.85 95.3 95.23 54.18-54.15L300.15 57l-148.1 148zm189.57 75.93l-95.66 95.6-94.82-94.76-54.18 54.16 149 148.91L450 389.24zM167.37 298l2-2-54.18-54.16L59 298l55.28 55.25 54.19-54.15z"/></g></g></svg>