<svg viewBox="0 0 40 40" fill="none" xmlns="http://www.w3.org/2000/svg">
<g clip-path="url(#clip0)">
<path d="M20 40C31.0457 40 40 31.0457 40 20C40 8.95433 31.0457 0 20 0C8.95433 0 0 8.95433 0 20C0 31.0457 8.95433 40 20 40Z" fill="url(#paint0_radial)"/>
<path d="M38.2182 28.2521C40.4068 23.4203 40.5864 17.9171 38.7174 12.9529C36.8484 7.98874 33.084 3.97039 28.2522 1.78178C23.4204 -0.406836 17.9172 -0.586402 12.953 1.28258C7.98883 3.15157 3.97047 6.91601 1.78186 11.7477L20 19.9999L38.2182 28.2521Z" fill="url(#paint1_radial)"/>
<path d="M12.6667 25.2972V23.0667L17.5766 25.2972V31.8667L21.2667 34.0972V36.2667L15.5333 32.9361V30.4L13.8865 29.6972V27.6195L15.5333 28.2611V26.6417L12.6667 25.2972Z" fill="white"/>
<path d="M19.5588 23.1889L21.2666 24.2278V31.6222L19.5588 30.5833V23.1889Z" fill="white"/>
<path d="M28.7605 17.3333H25.2358V16.6358L26.8993 14.8672C27.1276 14.6183 27.296 14.401 27.4043 14.2155C27.515 14.0299 27.5703 13.8537 27.5703 13.687C27.5703 13.4592 27.5126 13.2807 27.3972 13.1515C27.2819 13.0199 27.117 12.9542 26.9028 12.9542C26.672 12.9542 26.4896 13.0341 26.3554 13.1938C26.2235 13.3511 26.1576 13.559 26.1576 13.8173H25.1334C25.1334 13.505 25.2076 13.2196 25.3559 12.9613C25.5066 12.7029 25.7185 12.5009 25.9916 12.3553C26.2647 12.2073 26.5744 12.1333 26.9204 12.1333C27.4502 12.1333 27.8611 12.2601 28.153 12.5138C28.4474 12.7675 28.5945 13.1257 28.5945 13.5883C28.5945 13.842 28.5286 14.1003 28.3968 14.3634C28.2649 14.6265 28.0388 14.933 27.7186 15.2829L26.5496 16.5125H28.7605V17.3333Z" fill="#63249E"/>
<path d="M30.8867 14.6593L31.5294 13.5214H32.6207L31.533 15.3886L32.6667 17.3334H31.5718L30.8902 16.1355L30.2121 17.3334H29.1137L30.2474 15.3886L29.1632 13.5214H30.258L30.8867 14.6593Z" fill="#63249E"/>
<path d="M24.0334 7.63901C23.887 6.11018 22.5647 5.5985 20.8932 5.44212L20.8928 3.33479L19.6018 3.33631L19.6045 5.40125C19.2638 5.403 18.919 5.40238 18.5736 5.41236L18.5706 3.33358L17.286 3.33334L17.2866 5.45452C17.0078 5.45343 16.7332 5.4547 16.465 5.45422L14.6703 5.45984L14.6719 6.84001C14.6719 6.84001 15.6244 6.82228 15.6117 6.83961C15.9696 6.79848 16.2924 7.05194 16.3466 7.40588L16.3506 13.2124C16.3416 13.3331 16.2892 13.4481 16.1962 13.5289C16.1032 13.6097 15.985 13.6487 15.8609 13.6405C15.8792 13.6564 14.9212 13.6409 14.9212 13.6409L14.6667 15.1807L16.3474 15.1781L17.2733 15.178L17.2762 17.3333L18.5673 17.3318L18.5658 15.2074C18.9106 15.208 19.2545 15.2054 19.5961 15.2069L19.5982 17.3207L20.8925 17.3183L20.8892 15.1874C23.0703 15.0529 24.5922 14.5161 24.7806 12.4759C24.9344 10.8345 24.1613 10.1013 22.9256 9.80614C23.673 9.43008 24.1448 8.75641 24.0334 7.63901ZM22.2278 12.2275C22.2305 13.83 19.4801 13.649 18.6063 13.6489L18.6046 10.8047C19.4761 10.8089 22.227 10.5551 22.2278 12.2275ZM21.6255 8.22081C21.6264 9.68814 19.3325 9.50888 18.6055 9.51081L18.6016 6.92801C19.3286 6.92608 21.6226 6.69494 21.6255 8.22081Z" fill="#63249E"/>
</g>
<defs>
<radialGradient id="paint0_radial" cx="0" cy="0" r="1" gradientUnits="userSpaceOnUse" gradientTransform="translate(13.0667 9.56667) rotate(54.1675) scale(33.1388)">
<stop stop-color="#9C61D2"/>
<stop offset="1" stop-color="#480685"/>
</radialGradient>
<radialGradient id="paint1_radial" cx="0" cy="0" r="1" gradientUnits="userSpaceOnUse" gradientTransform="translate(13.0667 9.56661) rotate(54.1675) scale(33.1388)">
<stop stop-color="white"/>
<stop offset="1" stop-color="#DECFED"/>
</radialGradient>
<clipPath id="clip0">
<rect width="40" height="40" fill="white"/>
</clipPath>
</defs>
</svg>
