<svg fill="none" viewBox="0 0 600 601" xmlns="http://www.w3.org/2000/svg"><linearGradient id="b" gradientUnits="userSpaceOnUse" x1="225.45" x2="319.31" y1="31.2" y2="551.92"><stop offset="0" stop-color="#27d3a2"/><stop offset="1" stop-color="#9388fd"/></linearGradient><radialGradient id="c" cx="0" cy="0" gradientTransform="matrix(190.62474 497.90568 -496.37409 190.03836 279.31 47.12)" gradientUnits="userSpaceOnUse" r="1"><stop offset=".19" stop-color="#fff" stop-opacity="0"/><stop offset="1" stop-color="#031249" stop-opacity=".45"/></radialGradient><clipPath id="a"><path d="M.67 0h600v600H.67z"/></clipPath><g clip-path="url(#a)"><path d="M300.67 600c165.68 0 300-134.31 300-300S466.34 0 300.66 0 .66 134.31.66 300s134.31 300 300 300z" fill="#fff"/><path d="M490.67 530.92a299.87 299.87 0 01-380.29.2A299.31 299.31 0 01121.7 59.04a299.83 299.83 0 01251.35-50.1A299.81 299.81 0 01490.4 67.87l-60.46 73.7a204.44 204.44 0 00-309.84 61.77 204.09 204.09 0 0016.2 217.9 204.52 204.52 0 00293.81 36.04l60.56 73.63z" fill="url(#b)"/><path d="M300.67 600c165.68 0 300-134.32 300-300 0-165.69-134.32-300-300-300C134.97 0 .66 134.31.66 300c0 165.68 134.31 300 300 300z" fill="url(#c)" fill-opacity=".8" opacity=".6"/><path d="M324.7 293.55c6.11-3.27 9.94-9.01 9.05-18.59-1.2-13.09-12-17.48-25.61-18.73v-18.15h-10.56v17.68c-2.78 0-5.6.05-8.42.11v-17.79H278.6v18.15c-2.28.05-4.53.1-6.72.1v-.06h-14.55v11.8s7.8-.16 7.67 0c4.27 0 5.66 2.6 6.06 4.84V322.64c-.18 1.4-.97 3.65-3.96 3.66.14.12-7.68 0-7.68 0l-2.09 13.2h13.73c2.56 0 5.07.04 7.54.06v18.36h10.55v-18.17c2.9.06 5.7.1 8.42.09v18.08h10.55v-18.33c17.74-1.07 30.16-5.75 31.7-23.2 1.25-14.04-5.06-20.3-15.13-22.84zm-35.3-24.69c5.96 0 24.68-1.98 24.68 11.04 0 12.49-18.71 11.02-24.67 11.02zm0 57.53v-24.33c7.16 0 29.59-2.15 29.59 12.16 0 13.73-22.43 12.16-29.58 12.17z" fill="#657786"/><path d="M298.67 434.37c75.31 0 136.36-61.06 136.36-136.37s-61.05-136.37-136.36-136.37c-75.32 0-136.37 61.06-136.37 136.37s61.05 136.37 136.36 136.37z" stroke="#283947" stroke-width="7.05"/><path clip-rule="evenodd" d="M224.98 230.71a99.52 99.52 0 0173.69-32.5 99.52 99.52 0 0173.72 32.55l5.02-4.96a106.56 106.56 0 00-78.75-34.64c-31.15 0-59.2 13.34-78.72 34.62zm-3.47 4l-5.06-4.94A106.4 106.4 0 00191.83 298c0 30.62 12.88 58.24 33.53 77.72l5.02-4.96a99.5 99.5 0 01-31.5-72.76 99.38 99.38 0 0122.63-63.28zm12.83 139.58l-5.04 4.97a106.42 106.42 0 0069.36 25.58c26.56 0 50.85-9.69 69.53-25.72l-5.04-4.97a99.39 99.39 0 01-64.48 23.63 99.38 99.38 0 01-64.33-23.5zm132.76-3.67l5.03 4.95A106.54 106.54 0 00405.5 298c0-25.93-9.24-49.7-24.6-68.2l-5.04 4.97A99.37 99.37 0 01398.45 298a99.5 99.5 0 01-31.35 72.62z" fill="#657786" fill-rule="evenodd"/></g></svg>