<svg fill="none" viewBox="0 0 600 600" xmlns="http://www.w3.org/2000/svg"><radialGradient id="a" cx="0" cy="0" gradientTransform="rotate(54.17 -42.31 263.4) scale(497.082)" gradientUnits="userSpaceOnUse" r="1"><stop offset="0" stop-color="#d6ffe4"/><stop offset="1" stop-color="#00b04c"/></radialGradient><path d="M300 600c165.69 0 300-134.31 300-300S465.69 0 300 0 0 134.31 0 300s134.31 300 300 300z" fill="#bae7c9"/><path d="M300 600c165.69 0 300-134.31 300-300S465.69 0 300 0 0 134.31 0 300s134.31 300 300 300z" fill="url(#a)" fill-opacity=".35"/><path d="M170.4 387.3a28.32 28.32 0 01-13.53-24.13v-54.9a11.78 11.78 0 0117.75-10.12l123.92 72.24a23.6 23.6 0 0111.7 20.4v56.9a14.16 14.16 0 01-21.56 12.11zm184.79-104.25a23.61 23.61 0 0111.7 20.4v115.46c0 3.4-1.83 6.55-4.82 8.2l-27.12 15.27c-.33.16-.75.33-1.08.41v-64.11c0-8.3-4.31-16-11.45-20.24l-108.81-65.1V221c0-2.08.58-4.15 1.57-5.9a11.78 11.78 0 0116.18-4.22zm54.16-85.27a23.61 23.61 0 0111.78 20.4v168.63a9.4 9.4 0 01-4.98 8.3l-25.71 13.84V291.6a23.6 23.6 0 00-11.45-20.24l-111.22-66.77v-68.67c0-2.07.58-4.15 1.57-5.97a11.88 11.88 0 0116.18-4.32z" fill="#00b04c"/></svg>