<svg fill="none" viewBox="0 0 600 600" xmlns="http://www.w3.org/2000/svg"><linearGradient id="b" gradientUnits="userSpaceOnUse" x1="224.79" x2="318.64" y1="30.2" y2="550.92"><stop offset="0" stop-color="#27d3a2"/><stop offset="1" stop-color="#9388fd"/></linearGradient><radialGradient id="c" cx="0" cy="0" gradientTransform="matrix(190.62474 497.90568 -496.37409 190.03836 277.65 46.12)" gradientUnits="userSpaceOnUse" r="1"><stop offset=".19" stop-color="#fff" stop-opacity="0"/><stop offset="1" stop-color="#031249" stop-opacity=".45"/></radialGradient><clipPath id="a"><path d="M0 0h600v600H0z"/></clipPath><g clip-path="url(#a)"><path d="M328.7 597.5c164.87-16.34 285.29-163.24 268.95-328.12S434.42-15.92 269.54.42C104.66 16.76-15.76 163.66.58 328.54 16.9 493.42 163.8 613.84 328.69 597.5z" fill="#fff"/><path d="M490 529.92a299.87 299.87 0 01-380.28.2 299.31 299.31 0 0111.31-472.08 299.84 299.84 0 01251.35-50.1 299.81 299.81 0 01117.35 58.94l-60.46 73.7a204.46 204.46 0 00-309.83 61.77 204.08 204.08 0 0016.2 217.9 204.34 204.34 0 00194.18 80.24 204.43 204.43 0 0099.64-44.2z" fill="url(#b)"/><path d="M300 505c113.22 0 205-91.78 205-205S413.22 95 300 95 95 186.78 95 300s91.78 205 205 205z" fill="#fff"/><path d="M299 599c165.68 0 300-134.32 300-300C599 133.31 464.68-1 299-1S-1 133.31-1 299c0 165.68 134.32 300 300 300z" fill="url(#c)" fill-opacity=".8" opacity=".6"/><path clip-rule="evenodd" d="M336.57 303.15a42.5 42.5 0 00-11.91-17.98l-2.07-1.75-.11-.11a23.2 23.2 0 00-2.06-1.52l-.12-.12c-.7-.5-1.43-.96-2.18-1.4-.11 0-.11-.11-.22-.11-.7-.47-1.5-.82-2.18-1.17-.12 0-.12-.12-.23-.12a46 46 0 00-2.3-1.05c-.1 0-.1-.12-.22-.12-.69-.23-1.38-.58-2.07-.81a32.09 32.09 0 00-5.72-1.64 29.53 29.53 0 01-5.85 7.7c3.56.24 7 1.17 10.09 2.46 1.83.82 3.66 1.75 5.27 2.8.11 0 .22.12.22.12.46.23.8.58 1.27.93a2 2 0 01.57.47c.34.23.8.58 1.15.93.22.23.45.35.68.58.35.35.69.59 1.03.94l.7.7.9.93.7.7c.22.35.57.7.8.94.23.23.45.58.68.81l.7 1.05c.22.36.45.59.57.94l.68 1.05c.23.35.35.7.58.93.23.35.34.7.57 1.05.23.35.34.7.57 1.05.12.35.34.7.46 1.05.23.47.34.94.57 1.29.92 2.33 1.6 4.78 1.95 7.47l1.03 4.09c.46 1.75 4.58 16.69 14.21 21.7 11 5.84 25.56 13.08 31.28 15.88l-75.5 46v-31.52c0-5.02 9.73-10.86 14.2-12.84l.23-.12c.92-.47 1.83-.93 2.75-1.52l.34-.23c1.96-1.2 3.8-2.56 5.5-4.09.12-.11.35-.23.46-.46.23-.12.35-.35.58-.47.57-.47 1.03-1.05 1.6-1.52l.23-.23c.57-.58 1.14-1.17 1.6-1.87.12-.23.35-.35.46-.58.46-.47.8-1.05 1.26-1.64.11-.11.23-.35.34-.46l1.38-2.1c0-.12.11-.12.11-.24.58-.93 1.15-1.98 1.72-2.92a44.5 44.5 0 01-5.38-8.63 32.76 32.76 0 01-2.18 5.01c-.34.7-.8 1.4-1.14 2.1-.12.12-.12.24-.23.24-.35.58-.8 1.17-1.15 1.63-.12.12-.23.35-.34.47-.35.58-.8 1.05-1.27 1.52-.1.11-.1.23-.22.23a32.01 32.01 0 01-9.86 7.7l-.69.36c-1.94.81-18.79 8.63-18.79 20.43v31.51l-75.62-45.88c4.92-3.03 19.13-11.67 30.82-15.4 4.58-1.52 14.32 4.78 19.82 9.34l.35.35c.68.7 1.49 1.4 2.29 1.98l.23.23a32.1 32.1 0 005.61 3.86l1.38.7c.11 0 .23.11.23.11 1.26.7 2.52 1.29 3.9 1.87.22.12.34.12.57.23.11 0 .23.12.45.12 1.95.7 3.9 1.29 5.85 1.75a29.91 29.91 0 015.96-7.7 31.56 31.56 0 01-9.4-2.1c-.12-.12-.34-.12-.46-.24-.34-.11-.69-.23-1.03-.46-.11-.12-.34-.12-.46-.24-.34-.11-.68-.35-.91-.46a32.56 32.56 0 01-6.3-4.09l-2.99-2.8c-.11-.12-3.78-3.5-8.93-6.54-7.45-4.32-13.75-5.72-18.57-4.2-9.97 3.27-21.3 9.45-28.18 13.54l75.5-138.21v60.58c0 2.1-3.09 7.7-13.51 12.5l-.7.34c-1.02.47-1.94 1.05-2.97 1.64l-.23.11a45.85 45.85 0 00-5.61 4.09 25.78 25.78 0 00-3.1 3.03l-.11.12a24.26 24.26 0 00-2.75 3.27l-.12.12c-.46.58-.8 1.17-1.26 1.75 0 .11-.11.11-.11.23-.35.58-.69 1.05-1.03 1.64 0 .11-.12.11-.12.23l-1.03 1.75c-.11.12-.11.23-.23.47-.34.58-.57 1.16-.8 1.63 0 .12-.12.24-.12.24-.22.58-.45 1.05-.68 1.63-.12.23-.12.35-.23.59l-.69 1.75c-.11.23-.11.35-.23.58-.1.44-.25.87-.46 1.28-.11.24-.11.47-.23.7-.11.59-.34 1.17-.46 1.64-.11.23-.11.58-.22.81-.12.36-.12.82-.23 1.17-.12.35-.12.7-.23 1.05-.12.47-.12.94-.23 1.4 0 .35-.12.59-.12.94 0 .46-.11.81-.11 1.28s0 .82-.12 1.29v1.75c0 2.1.12 4.31.46 6.3 2.98.7 6.08 1.98 9.4 3.62a37.07 37.07 0 01-1.5-9.46v-.58c0-.82 0-1.52.12-2.33v-.59c0-.7.12-1.28.23-1.98v-.24l.35-2.21c0-.24.11-.35.11-.59.12-.58.34-1.17.46-1.75 0-.12.11-.23.11-.35l.7-2.1c.1-.12.1-.35.22-.47.23-.58.46-1.16.69-1.63.11-.12.11-.23.23-.47.34-.7.57-1.28 1.03-1.87.11-.11.11-.23.23-.35.34-.58.57-1.05.91-1.63.12-.12.12-.23.23-.35.35-.59.8-1.17 1.27-1.75 0 0 0-.12.11-.12l1.26-1.63c.11-.12.11-.24.23-.35a35.16 35.16 0 016.99-6.07l3.55-1.75c1.95-.82 18.68-8.88 18.68-20.67v-60.23l76.2 139.38a1598.9 1598.9 0 01-28.08-14.36c-5.38-2.8-8.93-12.72-9.97-16.34l-1.03-4.2c0-2.22-.57-4.44-1.26-6.66zm51.57 43.9l-84-153.51a8.2 8.2 0 00-7.33-4.44 8.2 8.2 0 00-7.33 4.44l-84 153.5a8.58 8.58 0 002.99 11.44l84.1 51.24a8.4 8.4 0 004.36 1.17c1.49 0 2.98-.35 4.35-1.17l84-51.12a8.72 8.72 0 002.86-11.56z" fill="#323232" fill-rule="evenodd" stroke="#323232"/></g></svg>