<svg fill="none" viewBox="0 0 600 601" xmlns="http://www.w3.org/2000/svg"><linearGradient id="b" gradientUnits="userSpaceOnUse" x1="225.66" x2="319.74" y1="31.25" y2="552.81"><stop offset="0" stop-color="#27d3a2"/><stop offset="1" stop-color="#9388fd"/></linearGradient><radialGradient id="c" cx="0" cy="0" gradientTransform="matrix(190.62474 497.90568 -496.37409 190.03836 279.31 47.12)" gradientUnits="userSpaceOnUse" r="1"><stop offset=".19" stop-color="#fff" stop-opacity="0"/><stop offset="1" stop-color="#031249" stop-opacity=".45"/></radialGradient><clipPath id="a"><path d="M.67 0h600v600H.67z"/></clipPath><g clip-path="url(#a)"><path d="M300.67 600c165.68 0 300-134.31 300-300S466.34 0 300.66 0 .66 134.31.66 300s134.31 300 300 300z" fill="#fff"/><path d="M491.12 531.79a300 300 0 11-.27-463.8l-60.51 73.82a204.53 204.53 0 10.18 316.23z" fill="url(#b)"/><path d="M300.67 505c113.22 0 205-91.78 205-205s-91.78-205-205-205-205 91.78-205 205 91.78 205 205 205z" fill="#fff"/><path d="M300.67 600c165.68 0 300-134.32 300-300 0-165.69-134.32-300-300-300C134.97 0 .66 134.31.66 300c0 165.68 134.31 300 300 300z" fill="url(#c)" fill-opacity=".8" opacity=".6"/><g fill="#323232"><path d="M297.37 412.5L183.43 295.94l113.06 41.2 113.05-41.2z" opacity=".8"/><path clip-rule="evenodd" d="M183.43 295.94l113.06-113.05 113.05 113.05-113.05 41.19zm32.42.87h49.09l32.42-32.42 32.43 32.44h48.2l-80.63-80.63-81.5 80.63z" fill-rule="evenodd"/></g></g></svg>