<svg fill="none" viewBox="0 0 600 600" xmlns="http://www.w3.org/2000/svg"><linearGradient id="b" gradientUnits="userSpaceOnUse" x1="225.79" x2="319.94" y1="31.25" y2="552.79"><stop offset="0" stop-color="#27d3a2"/><stop offset="1" stop-color="#9388fd"/></linearGradient><radialGradient id="c" cx="0" cy="0" gradientTransform="matrix(190.62474 497.90568 -496.37409 190.03836 279.65 48.12)" gradientUnits="userSpaceOnUse" r="1"><stop offset=".19" stop-color="#fff" stop-opacity="0"/><stop offset="1" stop-color="#031249" stop-opacity=".45"/></radialGradient><clipPath id="a"><path d="M0 0h600v600H0z"/></clipPath><g clip-path="url(#a)"><path d="M330.7 599.5c164.87-16.34 285.29-163.24 268.95-328.12S436.42-13.92 271.54 2.42C106.66 18.76-13.76 165.66 2.58 330.54 18.9 495.42 165.8 615.84 330.69 599.5z" fill="#fff"/><path d="M491 531.8a299.57 299.57 0 01-380.28.21A300.25 300.25 0 0136.3 158.74a299.92 299.92 0 0185.73-99.6 299.59 299.59 0 01251.35-50.2A299.62 299.62 0 01490.73 68l-60.46 73.82a204.26 204.26 0 00-309.83 61.88 204.71 204.71 0 0016.2 218.26 204.39 204.39 0 0085.98 67.09 204.18 204.18 0 00207.83-30.99z" fill="url(#b)"/><path d="M300 505c113.22 0 205-91.78 205-205S413.22 95 300 95 95 186.78 95 300s91.78 205 205 205z" fill="#fff"/><path d="M301 601c165.68 0 300-134.32 300-300C601 135.31 466.68 1 301 1S1 135.31 1 301c0 165.68 134.32 300 300 300z" fill="url(#c)" fill-opacity=".8" opacity=".6"/><g fill="#323232"><path d="M341.2 322.92c0-22.88-14.16-30.6-41.58-34.28-20.26-2.88-24.15-7.55-24.15-16.83s6.85-15.07 19.96-15.07c11.94 0 18.83 4.09 21.66 13.53.3 1.04.93 1.95 1.8 2.6a5.14 5.14 0 003.02 1.03h10.48a4.74 4.74 0 003.62-1.58 4.54 4.54 0 001.07-3.75c-3.33-14.93-13.57-23.92-29.64-26.73v-15.75a4.85 4.85 0 00-1.46-3.47 5.03 5.03 0 00-3.53-1.43h-9.98a5.03 5.03 0 00-4.61 3.02c-.25.6-.38 1.23-.38 1.88v15.2c-19.97 2.74-32.57 15.68-32.57 32.28 0 21.47 13.3 29.8 41.12 33.5 18.93 3.04 24.32 7.06 24.32 17.61 0 10.56-9.15 17.65-22.06 17.65-17.4 0-23.29-7.48-25.25-17.2a4.97 4.97 0 00-1.73-2.83c-.9-.73-2-1.13-3.16-1.15h-11.38a4.71 4.71 0 00-3.58 1.6 4.57 4.57 0 00-1.05 3.73c2.9 16.34 13.58 28.3 35.34 31.17v15.5c0 1.3.52 2.54 1.46 3.46.94.92 2.2 1.44 3.53 1.44h9.98c1.32 0 2.6-.52 3.53-1.44a4.85 4.85 0 001.46-3.47v-15.49c20.63-3.2 33.77-17.19 33.77-34.73z"/><path d="M265.64 393.32a98.64 98.64 0 01-47.05-35.83 97.24 97.24 0 01-17.83-56.09 97.25 97.25 0 0117.83-56.09 98.65 98.65 0 0147.05-35.83 7.09 7.09 0 004.25-6.16v-9.14a4.58 4.58 0 00-3.02-4.78 4.7 4.7 0 00-3.57.12 118.47 118.47 0 00-59.69 42.59 116.72 116.72 0 00-22.83 69.29 116.72 116.72 0 0022.83 69.29 118.5 118.5 0 0059.7 42.6 4.7 4.7 0 006.18-2.3 4.6 4.6 0 00.4-2.37v-9.14a7.01 7.01 0 00-4.25-6.16zm67.91-203.8a4.72 4.72 0 00-6.18 2.3 4.6 4.6 0 00-.4 2.36v9.14a7.01 7.01 0 004.25 6.16 98.66 98.66 0 0147.05 35.83 97.26 97.26 0 0117.83 56.1 97.24 97.24 0 01-17.83 56.08 98.65 98.65 0 01-47.05 35.83 6.57 6.57 0 00-4.25 6.17v9.13a4.61 4.61 0 004.2 5.06c.81.08 1.64-.06 2.38-.4a118.47 118.47 0 0059.7-42.59 116.7 116.7 0 0022.82-69.29 116.71 116.71 0 00-22.83-69.29 118.45 118.45 0 00-59.69-42.6z"/></g></g></svg>