<svg fill="none" viewBox="0 0 600 598" xmlns="http://www.w3.org/2000/svg"><linearGradient id="b" gradientUnits="userSpaceOnUse" x1="224.79" x2="318.94" y1="31.25" y2="552.79"><stop offset="0" stop-color="#27d3a2"/><stop offset="1" stop-color="#9388fd"/></linearGradient><radialGradient id="c" cx="0" cy="0" gradientTransform="matrix(190.62474 497.90568 -496.37409 190.03836 277.65 47.12)" gradientUnits="userSpaceOnUse" r="1"><stop offset=".19" stop-color="#fff" stop-opacity="0"/><stop offset="1" stop-color="#031249" stop-opacity=".45"/></radialGradient><clipPath id="a"><path d="M0 0h597.66v600H0z"/></clipPath><g clip-path="url(#a)"><path d="M299 600c165.69 0 300-134.31 300-300S464.69 0 299 0-1 134.31-1 300s134.31 300 300 300z" fill="#fff"/><path d="M490 531.8a299.57 299.57 0 01-380.28.21A300.25 300.25 0 0135.3 158.74a299.92 299.92 0 0185.73-99.6 299.59 299.59 0 01251.35-50.2A299.62 299.62 0 01489.73 68l-60.46 73.82a204.26 204.26 0 00-309.83 61.88 204.71 204.71 0 0016.2 218.26 204.18 204.18 0 00293.81 36.1z" fill="url(#b)"/><path d="M299 505c113.22 0 205-91.78 205-205S412.22 95 299 95 94 186.78 94 300s91.78 205 205 205z" fill="#fff"/><path d="M299 600c165.68 0 300-134.32 300-300C599 134.31 464.68 0 299 0S-1 134.31-1 300c0 165.68 134.32 300 300 300z" fill="url(#c)" fill-opacity=".8" opacity=".6"/><path d="M322.13 308.15v-.03c-1.3.1-8.06.48-23.08.48-12.02 0-20.44-.33-23.42-.48v.03c-46.2-2.04-80.65-10.07-80.65-19.7 0-9.62 34.49-17.68 80.65-19.71v31.41a351 351 0 0023.63.73c14.35 0 21.53-.6 22.87-.73v-31.38c46.1 2.07 80.46 10.1 80.46 19.7s-34.4 17.64-80.46 19.71zm0-42.63v-28.1h64.31v-42.85h-175.1v42.85h64.32v28.1c-52.28 2.4-91.56 12.74-91.56 25.14s39.32 22.75 91.56 25.18v90.08h46.5v-90.08c52.18-2.4 91.41-12.74 91.41-25.15 0-12.37-39.23-22.74-91.41-25.14" fill="#283947"/></g></svg>