<svg  viewBox="0 0 40 40" fill="none" xmlns="http://www.w3.org/2000/svg">
<path d="M20 40C31.0457 40 40 31.0457 40 20C40 8.9543 31.0457 0 20 0C8.9543 0 0 8.9543 0 20C0 31.0457 8.9543 40 20 40Z" fill="#C5CAE9"/>
<path d="M20 40C31.0457 40 40 31.0457 40 20C40 8.95431 31.0457 0 20 0C8.95431 0 0 8.95431 0 20C0 31.0457 8.95431 40 20 40Z" fill="url(#paint0_radial)" fill-opacity="0.35"/>
<path d="M6.618 23.04C6.12333 23.04 5.67533 22.9327 5.274 22.718C4.87733 22.4987 4.56467 22.1977 4.336 21.815C4.112 21.4323 4 21.0007 4 20.52C4 20.0393 4.11433 19.6077 4.343 19.225C4.57167 18.8423 4.88433 18.5437 5.281 18.329C5.68233 18.1097 6.13033 18 6.625 18C7.02633 18 7.39267 18.07 7.724 18.21C8.05533 18.35 8.33533 18.553 8.564 18.819L7.976 19.372C7.62133 18.9893 7.185 18.798 6.667 18.798C6.331 18.798 6.03 18.8727 5.764 19.022C5.498 19.1667 5.29033 19.3697 5.141 19.631C4.99167 19.8923 4.917 20.1887 4.917 20.52C4.917 20.8513 4.99167 21.1477 5.141 21.409C5.29033 21.6703 5.498 21.8757 5.764 22.025C6.03 22.1697 6.331 22.242 6.667 22.242C7.185 22.242 7.62133 22.0483 7.976 21.661L8.564 22.221C8.33533 22.487 8.053 22.69 7.717 22.83C7.38567 22.97 7.01933 23.04 6.618 23.04ZM11.5088 23.04C10.8321 23.04 10.3048 22.851 9.9268 22.473C9.54876 22.0903 9.35976 21.5443 9.35976 20.835V18.07H10.2698V20.8C10.2698 21.7613 10.6851 22.242 11.5158 22.242C12.3418 22.242 12.7548 21.7613 12.7548 20.8V18.07H13.6508V20.835C13.6508 21.5443 13.4618 22.0903 13.0838 22.473C12.7104 22.851 12.1854 23.04 11.5088 23.04ZM16.4442 23.04C16.0662 23.04 15.6999 22.9863 15.3452 22.879C14.9952 22.7717 14.7175 22.6293 14.5122 22.452L14.8272 21.745C15.0279 21.9037 15.2729 22.0343 15.5622 22.137C15.8562 22.235 16.1502 22.284 16.4442 22.284C16.8082 22.284 17.0789 22.2257 17.2562 22.109C17.4382 21.9923 17.5292 21.8383 17.5292 21.647C17.5292 21.507 17.4779 21.3927 17.3752 21.304C17.2772 21.2107 17.1512 21.1383 16.9972 21.087C16.8432 21.0357 16.6332 20.9773 16.3672 20.912C15.9939 20.8233 15.6905 20.7347 15.4572 20.646C15.2285 20.5573 15.0302 20.4197 14.8622 20.233C14.6989 20.0417 14.6172 19.785 14.6172 19.463C14.6172 19.1923 14.6895 18.9473 14.8342 18.728C14.9835 18.504 15.2052 18.3267 15.4992 18.196C15.7979 18.0653 16.1619 18 16.5912 18C16.8899 18 17.1839 18.0373 17.4732 18.112C17.7625 18.1867 18.0122 18.294 18.2222 18.434L17.9352 19.141C17.7205 19.015 17.4965 18.9193 17.2632 18.854C17.0299 18.7887 16.8035 18.756 16.5842 18.756C16.2249 18.756 15.9565 18.8167 15.7792 18.938C15.6065 19.0593 15.5202 19.2203 15.5202 19.421C15.5202 19.561 15.5692 19.6753 15.6672 19.764C15.7699 19.8527 15.8982 19.9227 16.0522 19.974C16.2062 20.0253 16.4162 20.0837 16.6822 20.149C17.0462 20.233 17.3449 20.3217 17.5782 20.415C17.8115 20.5037 18.0099 20.6413 18.1732 20.828C18.3412 21.0147 18.4252 21.2667 18.4252 21.584C18.4252 21.8547 18.3505 22.0997 18.2012 22.319C18.0565 22.5383 17.8349 22.7133 17.5362 22.844C17.2375 22.9747 16.8735 23.04 16.4442 23.04ZM20.2532 18.84H18.6292V18.07H22.7872V18.84H21.1632V22.97H20.2532V18.84ZM25.6908 23.04C25.1914 23.04 24.7411 22.9327 24.3398 22.718C23.9384 22.4987 23.6234 22.1977 23.3948 21.815C23.1661 21.4277 23.0518 20.996 23.0518 20.52C23.0518 20.044 23.1661 19.6147 23.3948 19.232C23.6234 18.8447 23.9384 18.5437 24.3398 18.329C24.7411 18.1097 25.1914 18 25.6908 18C26.1901 18 26.6404 18.1097 27.0418 18.329C27.4431 18.5437 27.7581 18.8423 27.9868 19.225C28.2154 19.6077 28.3298 20.0393 28.3298 20.52C28.3298 21.0007 28.2154 21.4323 27.9868 21.815C27.7581 22.1977 27.4431 22.4987 27.0418 22.718C26.6404 22.9327 26.1901 23.04 25.6908 23.04ZM25.6908 22.242C26.0174 22.242 26.3114 22.1697 26.5728 22.025C26.8341 21.8757 27.0394 21.6703 27.1888 21.409C27.3381 21.143 27.4128 20.8467 27.4128 20.52C27.4128 20.1933 27.3381 19.8993 27.1888 19.638C27.0394 19.372 26.8341 19.1667 26.5728 19.022C26.3114 18.8727 26.0174 18.798 25.6908 18.798C25.3641 18.798 25.0701 18.8727 24.8088 19.022C24.5474 19.1667 24.3421 19.372 24.1928 19.638C24.0434 19.8993 23.9688 20.1933 23.9688 20.52C23.9688 20.8467 24.0434 21.143 24.1928 21.409C24.3421 21.6703 24.5474 21.8757 24.8088 22.025C25.0701 22.1697 25.3641 22.242 25.6908 22.242ZM33.7953 22.97L33.7883 19.722L32.1783 22.41H31.7723L30.1623 19.764V22.97H29.2943V18.07H30.0433L31.9893 21.318L33.9003 18.07H34.6493L34.6563 22.97H33.7953Z" fill="white" fill-opacity="0.9"/>
<defs>
<radialGradient id="paint0_radial" cx="0" cy="0" r="1" gradientUnits="userSpaceOnUse" gradientTransform="translate(13.0667 9.56667) rotate(54.1675) scale(33.1388)">
<stop offset="0.11694" stop-color="#D0DDFF"/>
<stop offset="0.677083" stop-color="#3F75FF"/>
</radialGradient>
</defs>
</svg>
