<svg fill="none" viewBox="0 0 600 601" xmlns="http://www.w3.org/2000/svg"><linearGradient id="b" gradientUnits="userSpaceOnUse" x1="225.2" x2="319.2" y1="31.3" y2="552.9"><stop offset="0" stop-color="#27d3a2"/><stop offset="1" stop-color="#9388fd"/></linearGradient><radialGradient id="c" cx="0" cy="0" gradientTransform="matrix(190.62474 497.90568 -496.37409 190.03836 279.6 47.1)" gradientUnits="userSpaceOnUse" r="1"><stop offset=".2" stop-color="#fff" stop-opacity="0"/><stop offset="1" stop-color="#031249" stop-opacity=".5"/></radialGradient><clipPath id="a"><path d="M.7 0h600v600H.7z"/></clipPath><g clip-path="url(#a)"><path d="M300 600a300 300 0 100-600 300 300 0 000 600z" fill="#fff"/><path d="M491 531.8A300.6 300.6 0 015.8 358.7 299.7 299.7 0 01241.6 5.8 300.7 300.7 0 01490.7 68l-60.6 73.8A204.9 204.9 0 0096.6 320.2a204.4 204.4 0 00233.9 182.1 204.9 204.9 0 0099.8-44.3z" fill="url(#b)"/><path d="M300.5 505A205.3 205.3 0 00506 300c0-113.2-92-205-205.5-205S95 186.8 95 300s92 205 205.5 205z" fill="#fff"/><path d="M301 600a300 300 0 100-600 300 300 0 000 600z" fill="url(#c)" fill-opacity=".8" opacity=".6"/><path d="M235.4 328.7l16.8-17.6-21-28.5-26.6-38a109.6 109.6 0 00-4.9 101 109.6 109.6 0 0028.3 37.6l33.9-24.2a69.9 69.9 0 01-26.5-30.3zm36.6-94l17.5 16.9 28.5-21 38.1-26.7a109.6 109.6 0 00-101.1-4.8 109.6 109.6 0 00-37.5 28.2l24.1 33.9a69.9 69.9 0 0130.4-26.5zM349 289l21 28.5 26.6 38a109.6 109.6 0 004.9-101 109.6 109.6 0 00-28.3-37.6L339.5 241a69.9 69.9 0 0126.5 30.3zm34.7 83.8l-24-33.9a69.9 69.9 0 01-30.4 26.5l-17.6-16.9-28.5 21-38 26.7a109.6 109.6 0 00101 4.8 109.6 109.6 0 0037.5-28.2z" fill="#323232"/></g></svg>