<svg fill="none" viewBox="0 0 600 600" xmlns="http://www.w3.org/2000/svg"><radialGradient id="b" cx="0" cy="0" gradientTransform="rotate(54.17 -42.31 263.4) scale(497.082)" gradientUnits="userSpaceOnUse" r="1"><stop offset="0" stop-color="#5f687a"/><stop offset="1" stop-color="#131e33"/></radialGradient><clipPath id="a"><path d="M0 0h600v600H0z"/></clipPath><g clip-path="url(#a)"><path d="M299.83 599.66c165.59 0 299.83-134.24 299.83-299.83C599.66 134.23 465.42 0 299.83 0 134.23 0 0 134.24 0 299.83c0 165.59 134.24 299.83 299.83 299.83z" fill="#131e33"/><path d="M300 600c165.69 0 300-134.31 300-300S465.69 0 300 0 0 134.31 0 300s134.31 300 300 300z" fill="url(#b)" fill-opacity=".35"/><g fill="#bf9e5b"><path d="M299.83 582.56c-156.15 0-282.73-126.58-282.73-282.73S143.68 17.1 299.83 17.1s282.73 126.58 282.73 282.73-126.58 282.73-282.73 282.73zm0-5.36c153.22 0 277.4-124.18 277.4-277.37s-124.2-277.4-277.4-277.4-277.4 124.2-277.4 277.4c0 153.21 124.2 277.4 277.4 277.4z"/><path d="M299.83 571.93c-150.26 0-272.08-121.82-272.08-272.1 0-150.26 121.82-272.08 272.08-272.08 150.28 0 272.08 121.82 272.08 272.08 0 150.28-121.8 272.08-272.08 272.08zm0-2.06c149.14 0 270.04-120.9 270.04-270.04 0-149.14-120.9-270.02-270.04-270.02S29.8 150.7 29.8 299.83c0 149.14 120.9 270.04 270.02 270.04z"/><path d="M299.83 480.73c99.9 0 180.9-81 180.9-180.9s-81-180.9-180.9-180.9-180.9 81-180.9 180.9 81 180.9 180.9 180.9z"/></g><path d="M299.83 168.94L168.94 299.83l47.58 47.61 83.3-83.31 83.3 83.31 47.62-47.61z" fill="#1b263b"/><path d="M233.08 359.33l66.75-66.77 66.77 66.77-66.77 66.75z" fill="#bf9e5b"/><path d="M299.83 297.21l62.12 62.13-62.12 62.1-62.1-62.1zm0-9.27l-71.4 71.4 71.4 71.42 71.42-71.42z" fill="#121e33"/><path d="M299.83 542.08c-133.78 0-242.25-108.45-242.25-242.25 0-133.78 108.47-242.25 242.25-242.25 133.8 0 242.25 108.47 242.25 242.25 0 133.8-108.45 242.25-242.25 242.25zm0-3.28c131.98 0 238.97-107 238.97-238.97 0-131.98-107-238.95-238.97-238.95-131.98 0-238.95 106.97-238.95 238.95S167.85 538.8 299.83 538.8z" fill="#bf9e5b"/></g></svg>