<svg fill="none" viewBox="0 0 600 600" xmlns="http://www.w3.org/2000/svg"><radialGradient id="a" cx="0" cy="0" gradientTransform="rotate(54.17 -42.31 263.4) scale(497.082)" gradientUnits="userSpaceOnUse" r="1"><stop offset="0" stop-color="#e7daff"/><stop offset="1" stop-color="#6f45bf"/></radialGradient><path d="M300 600c165.69 0 300-134.31 300-300S465.69 0 300 0 0 134.31 0 300s134.31 300 300 300z" fill="#d4c7ec"/><path d="M300 600c165.69 0 300-134.31 300-300S465.69 0 300 0 0 134.31 0 300s134.31 300 300 300z" fill="url(#a)" fill-opacity=".35"/><path d="M427.87 220.95H251.82c-39.3 1.03-49 15.68-49 15.68-8.74 7.56-10.32 35.13-10.32 35.13-.63 5.6 6.15 5.75 6.15 5.75h236.23c17.88 1.02 17.1 14.89 17.1 14.89v13.31c-.8 13.47-20.25 13.08-20.25 13.08s-228.67.63-234.26 0-4.97 3.78-4.97 3.78c-.23 10.08 4.02 28.9 4.02 28.9 8.04 30.73 66.72 27.02 66.72 27.02s154.79.24 170.78 0c16.07-.23 17.96 13.79 17.96 13.79 5.51 31.9-41.28 30.01-41.28 30.01H238.5c-63.48-.7-83.02-26.39-83.02-26.39-22.21-27.72-20.16-63.25-20.16-63.25v-65.38c.94-54.82 28.43-70.42 28.43-70.42 25.45-18.83 78.85-20.17 78.85-20.17h163.45s46.16-3.54 46.32 23.56c.08.08 1.34 21.74-24.5 20.71z" fill="#6f45bf"/></svg>