<svg viewBox="0 0 600 600" fill="none" xmlns="http://www.w3.org/2000/svg">
<path d="M300 600C465.685 600 600 465.685 600 300C600 134.315 465.685 0 300 0C134.315 0 0 134.315 0 300C0 465.685 134.315 600 300 600Z" fill="url(#paint0_radial_3964:16232)"/>
<g clip-path="url(#clip0_3964:16232)">
<path d="M167.556 262.019C171.483 270.427 181.203 287.045 181.203 287.045L293.57 101L183.903 177.699C177.368 182.065 172.007 187.975 168.292 194.907C163.297 205.365 160.644 216.79 160.517 228.382C160.389 239.974 162.792 251.454 167.556 262.019V262.019Z" fill="white"/>
<path d="M123.031 323.28C124.269 341.077 129.289 358.402 137.755 374.097C146.222 389.793 157.938 403.495 172.121 414.287L293.422 499C293.422 499 217.529 389.458 153.516 280.457C147.035 268.941 142.678 256.35 140.654 243.287C139.758 237.372 139.758 231.355 140.654 225.44C138.985 228.537 135.745 234.88 135.745 234.88C129.254 248.138 124.834 262.315 122.638 276.917C121.374 292.352 121.506 307.869 123.031 323.28V323.28Z" fill="white"/>
<path d="M432.494 337.981C428.567 329.573 418.847 312.955 418.847 312.955L306.48 499L416.147 422.35C422.681 417.984 428.043 412.074 431.757 405.142C436.76 394.677 439.417 383.244 439.545 371.643C439.672 360.042 437.265 348.553 432.494 337.981V337.981Z" fill="white"/>
<path d="M477.018 276.72C475.779 258.924 470.759 241.598 462.293 225.903C453.827 210.208 442.11 196.505 427.928 185.713L306.626 101C306.626 101 382.47 210.542 446.533 319.544C452.996 331.063 457.336 343.654 459.345 356.713C460.241 362.628 460.241 368.645 459.345 374.56C461.014 371.463 464.254 365.121 464.254 365.121C470.745 351.862 475.165 337.685 477.361 323.084C478.641 307.65 478.526 292.132 477.018 276.72Z" fill="white"/>
<g style="mix-blend-mode:color">
<path d="M168.292 194.907C172.006 187.975 177.368 182.065 183.902 177.699L293.569 101L181.202 287.094C181.202 287.094 171.384 270.476 167.555 262.068C162.784 251.496 160.377 240.007 160.505 228.406C160.632 216.805 163.289 205.372 168.292 194.907V194.907ZM123.031 323.28C124.269 341.076 129.289 358.402 137.755 374.097C146.222 389.792 157.938 403.495 172.121 414.287L293.422 499C293.422 499 217.529 389.458 153.516 280.456C147.035 268.941 142.678 256.35 140.654 243.287C139.758 237.372 139.758 231.355 140.654 225.44C138.985 228.537 135.745 234.879 135.745 234.879C129.254 248.138 124.834 262.315 122.638 276.916C121.374 292.351 121.506 307.869 123.031 323.28V323.28ZM432.297 338.03C428.37 329.623 418.65 313.004 418.65 313.004L306.48 499L416.147 422.35C422.681 417.984 428.042 412.074 431.757 405.142C436.759 394.677 439.417 383.244 439.544 371.643C439.672 360.042 437.265 348.553 432.494 337.981L432.297 338.03ZM476.822 276.769C475.584 258.973 470.563 241.647 462.097 225.952C453.631 210.257 441.914 196.554 427.732 185.762L306.627 101C306.627 101 382.471 210.542 446.533 319.544C452.997 331.063 457.337 343.654 459.346 356.713C460.242 362.628 460.242 368.645 459.346 374.56C461.015 371.463 464.255 365.121 464.255 365.121C470.745 351.862 475.166 337.685 477.362 323.084C478.642 307.65 478.527 292.132 477.018 276.72L476.822 276.769Z" fill="white"/>
</g>
</g>
<defs>
<radialGradient id="paint0_radial_3964:16232" cx="0" cy="0" r="1" gradientUnits="userSpaceOnUse" gradientTransform="translate(196 143.5) rotate(54.1675) scale(497.082)">
<stop stop-color="#66D2FF"/>
<stop offset="1" stop-color="#6D19C0"/>
</radialGradient>
<clipPath id="clip0_3964:16232">
<rect width="356" height="398" fill="white" transform="translate(122 101)"/>
</clipPath>
</defs>
</svg>
