<svg viewBox="0 0 600 600" fill="none" xmlns="http://www.w3.org/2000/svg">
<path d="M300 600C465.685 600 600 465.685 600 300C600 134.315 465.685 0 300 0C134.315 0 0 134.315 0 300C0 465.685 134.315 600 300 600Z" fill="url(#paint0_radial)"/>
<path d="M573.273 423.783C606.102 351.306 608.795 268.757 580.76 194.295C552.726 119.832 496.259 59.5567 423.783 26.7275C351.306 -6.10169 268.757 -8.79517 194.295 19.2396C119.832 47.2744 59.5567 103.741 26.7275 176.217L300 300L573.273 423.783Z" fill="url(#paint1_radial)"/>
<path d="M190 379.458V346L263.649 379.458V478L319 511.458V544L233 494.042V456L208.298 445.458V414.292L233 423.917V399.625L190 379.458Z" fill="white"/>
<path d="M293.383 347.833L319 363.417V474.333L293.383 458.75V347.833Z" fill="white"/>
<path d="M238 153.012L305 192.6V42L238 153.012ZM305 42V192.6L371.94 153.012L305 42ZM238 165.748L305 260V205.275L238 165.748ZM305 205.275V260L372 165.748L305 205.275Z" fill="#63249E"/>
<path d="M305 122.616L238 153.012L305 192.6L371.94 153.012L305 122.616Z" fill="#63249E"/>
<path d="M238 153.012L305 192.6V42L238 153.012ZM305 42V192.6L371.94 153.012L305 42ZM238 165.748L305 260V205.275L238 165.748ZM305 205.275V260L372 165.748L305 205.275Z" fill="#63249E"/>
<path d="M305 122.616L238 153.012L305 192.6L371.94 153.012L305 122.616Z" fill="#63249E"/>
<path d="M431.407 260H378.536V249.537L403.489 223.008C406.914 219.274 409.44 216.015 411.064 213.232C412.724 210.449 413.554 207.806 413.554 205.305C413.554 201.888 412.689 199.21 410.958 197.272C409.228 195.299 406.755 194.313 403.541 194.313C400.08 194.313 397.343 195.511 395.33 197.907C393.352 200.267 392.363 203.385 392.363 207.26H377C377 202.575 378.113 198.294 380.338 194.419C382.598 190.543 385.777 187.514 389.873 185.329C393.97 183.11 398.615 182 403.806 182C411.753 182 417.916 183.902 422.295 187.707C426.71 191.512 428.917 196.885 428.917 203.825C428.917 207.63 427.929 211.505 425.951 215.451C423.973 219.397 420.582 223.995 415.779 229.244L398.244 247.687H431.407V260Z" fill="#63249E"/>
<path d="M463.3 219.89L472.941 202.821H489.311L472.994 230.829L490 260H473.577L463.353 242.033L453.181 260H436.705L453.711 230.829L437.447 202.821H453.87L463.3 219.89Z" fill="#63249E"/>
<defs>
<radialGradient id="paint0_radial" cx="0" cy="0" r="1" gradientUnits="userSpaceOnUse" gradientTransform="translate(196 143.5) rotate(54.1675) scale(497.082)">
<stop stop-color="#9C61D2"/>
<stop offset="1" stop-color="#480685"/>
</radialGradient>
<radialGradient id="paint1_radial" cx="0" cy="0" r="1" gradientUnits="userSpaceOnUse" gradientTransform="translate(196 143.5) rotate(54.1675) scale(497.082)">
<stop stop-color="white"/>
<stop offset="1" stop-color="#DECFED"/>
</radialGradient>
</defs>
</svg>
