<svg  viewBox="0 0 600 600" fill="none" xmlns="http://www.w3.org/2000/svg">
<g clip-path="url(#clip0_6170_39153)">
<path d="M300 600.014C465.684 600.014 600 465.698 600 300.014C600 134.328 465.684 0.0136719 300 0.0136719C134.315 0.0136719 0 134.328 0 300.014C0 465.698 134.315 600.014 300 600.014Z" fill="url(#paint0_radial_6170_39153)"/>
<path d="M422.417 26.0452C310.257 28.1042 215.288 100.466 179.77 200.894H118.167L89 270.851H165.407C165.027 276.632 164.833 282.464 164.833 288.34V311.66C164.833 323.52 165.621 335.195 167.146 346.638H118.167L89 416.596H186.676C226.572 507.853 316.914 572.041 422.476 573.956C454.528 559.604 483.602 539.791 508.515 515.702H471.083C394.404 515.702 326.94 476.273 287.883 416.596H444.833L474 346.638H257.977C254.285 330.717 252.333 314.129 252.333 297.085C252.333 288.207 252.863 279.452 253.892 270.851H509L538.167 200.894H274.591C310.199 128.383 384.808 78.4682 471.083 78.4682H502.283C478.783 56.9992 451.855 39.2194 422.417 26.0452Z" fill="white"/>
<path d="M422.417 26.0452C310.257 28.1042 215.288 100.466 179.77 200.894H118.167L89 270.851H165.407C165.027 276.632 164.833 282.464 164.833 288.34V311.66C164.833 323.52 165.621 335.195 167.146 346.638H118.167L89 416.596H186.676C226.572 507.853 316.914 572.041 422.476 573.956C454.528 559.604 483.602 539.791 508.515 515.702H471.083C394.404 515.702 326.94 476.273 287.883 416.596H444.833L474 346.638H257.977C254.285 330.717 252.333 314.129 252.333 297.085C252.333 288.207 252.863 279.452 253.892 270.851H509L538.167 200.894H274.591C310.199 128.383 384.808 78.4682 471.083 78.4682H502.283C478.783 56.9992 451.855 39.2194 422.417 26.0452Z" fill="url(#paint1_radial_6170_39153)"/>
</g>
<defs>
<radialGradient id="paint0_radial_6170_39153" cx="0" cy="0" r="1" gradientUnits="userSpaceOnUse" gradientTransform="translate(196 143.514) rotate(54.1676) scale(497.082)">
<stop offset="0.230743" stop-color="#15BCFF"/>
<stop offset="0.742708" stop-color="#575FEC"/>
<stop offset="1" stop-color="#B030EC"/>
</radialGradient>
<radialGradient id="paint1_radial_6170_39153" cx="0" cy="0" r="1" gradientUnits="userSpaceOnUse" gradientTransform="translate(228.249 151.765) rotate(59.2029) scale(444.391 411.792)">
<stop offset="0.230743" stop-color="white"/>
<stop offset="1" stop-color="#EEE7FA"/>
</radialGradient>
<clipPath id="clip0_6170_39153">
<rect width="600" height="600" fill="white"/>
</clipPath>
</defs>
</svg>
