<svg  viewBox="0 0 600 600" fill="none" xmlns="http://www.w3.org/2000/svg">
<g clip-path="url(#clip0_6051_38294)">
<path d="M300 600.014C465.684 600.014 600 465.698 600 300.014C600 134.328 465.684 0.0136719 300 0.0136719C134.315 0.0136719 0 134.328 0 300.014C0 465.698 134.315 600.014 300 600.014Z" fill="url(#paint0_radial_6051_38294)"/>
<path d="M174.852 410.053V411.053C174.852 419.906 175.891 425.574 177.853 429.491C179.458 432.696 181.875 435.191 186.491 438.32L186.755 438.497L174.852 410.053ZM174.852 410.053H173.852M174.852 410.053H173.852M173.852 410.053H160H158.998L159 411.056L159.001 411.674L159.002 411.677C159.051 421.916 160.329 429.613 163.35 435.911C166.38 442.227 171.116 447.036 177.897 451.585C179.163 452.436 180.516 453.294 182.14 454.293L182.143 454.295L183.083 454.869L183.089 454.873L188.684 458.235L189.537 458.748L190.054 457.898L197.223 446.104L197.745 445.245M173.852 410.053L197.745 445.245M197.745 445.245L196.883 444.728M197.745 445.245L196.883 444.728M196.883 444.728L191.89 441.729L191.885 441.725L190.265 440.738C190.265 440.738 190.264 440.737 190.264 440.737M196.883 444.728L190.264 440.737M190.264 440.737C188.893 439.894 187.771 439.179 186.756 438.498L190.264 440.737ZM412.649 183.643V182.643H412.419C411.592 178.385 408.548 174.429 403.472 171.762L315.467 125.514C310.981 123.157 305.377 122 299.815 122C294.253 122 288.649 123.157 284.164 125.514L196.158 171.762L196.588 172.579L196.158 171.762C190.986 174.48 188.038 178.352 187.326 182.649L187.173 182.65L187.166 183.636L187.161 184.365C187.154 184.627 187.155 184.89 187.164 185.153L187.164 414.954C187.151 415.293 187.153 415.686 187.167 416.137C187.312 421.105 190.258 425.991 196.158 429.091L284.164 475.338C288.649 477.695 294.253 478.852 299.815 478.852C305.377 478.852 310.981 477.695 315.467 475.338L403.472 429.091L403.007 428.206L403.473 429.091C409.371 425.99 412.524 421.148 412.649 416.132L412.649 416.12V416.107V183.643ZM315.467 357.727L396.795 314.989V414.672L313.943 458.34C313.676 458.47 313.41 458.6 313.145 458.729C308.523 460.982 304.221 463.078 299.833 463.068C299.828 463.068 299.823 463.068 299.819 463.068L298.919 463.038C294.438 462.742 289.787 460.441 285.099 457.948L285.092 457.945L203.017 415.042V315.086L284.164 357.727C288.649 360.084 294.253 361.241 299.815 361.241C305.377 361.241 310.981 360.084 315.467 357.727ZM307.744 343.932V252.509C307.854 252.562 307.961 252.616 308.067 252.671L308.067 252.671L394.744 298.221L308.067 343.77L308.067 343.77C307.961 343.825 307.854 343.88 307.744 343.932ZM308.067 139.471L394.744 185.021L308.067 230.57C305.97 231.672 302.932 232.259 299.815 232.259C296.699 232.259 293.661 231.672 291.564 230.57L204.887 185.021L291.564 139.471C293.661 138.369 296.699 137.782 299.815 137.782C302.932 137.782 305.97 138.369 308.067 139.471ZM411.316 142.801L410.463 142.288L409.946 143.138L402.777 154.931L402.255 155.79L403.117 156.308L408.11 159.306L408.116 159.309L409.734 160.295C409.734 160.296 409.735 160.296 409.736 160.297C411.108 161.142 412.23 161.858 413.245 162.538L413.509 162.716C413.509 162.717 413.51 162.717 413.511 162.718C418.126 165.845 420.542 168.34 422.148 171.545C424.109 175.461 425.148 181.128 425.148 189.983V190.983H426.148H440H441.004L441 189.978L440.997 189.359C440.948 179.12 439.671 171.422 436.65 165.125C433.62 158.809 428.884 153.998 422.103 149.45L421.546 150.28L422.103 149.45C420.837 148.601 419.485 147.74 417.86 146.742L417.858 146.741L416.917 146.166L416.911 146.163L411.316 142.801ZM291.564 252.671C291.669 252.616 291.777 252.562 291.887 252.509V343.932C291.777 343.88 291.669 343.825 291.564 343.77L291.098 344.655L291.564 343.77L204.887 298.221L291.564 252.671L291.113 251.814L291.564 252.671ZM396.795 281.452L320.998 241.62L396.795 201.788V281.452ZM278.63 241.62L203.017 281.355V201.885L278.63 241.62Z" fill="white" stroke="white" stroke-width="2"/>
</g>
<defs>
<radialGradient id="paint0_radial_6051_38294" cx="0" cy="0" r="1" gradientUnits="userSpaceOnUse" gradientTransform="translate(196 143.514) rotate(54.1676) scale(497.082)">
<stop offset="0.230743" stop-color="#0412FF"/>
<stop offset="1" stop-color="#000AB3"/>
</radialGradient>
<clipPath id="clip0_6051_38294">
<rect width="600" height="600" fill="white"/>
</clipPath>
</defs>
</svg>
