<svg  viewBox="0 0 600 600" fill="none" xmlns="http://www.w3.org/2000/svg">
<g clip-path="url(#clip0_6269_38366)">
<path d="M300 600C465.684 600 600 465.685 600 300C600 134.315 465.684 0 300 0C134.315 0 0 134.315 0 300C0 465.685 134.315 600 300 600Z" fill="url(#paint0_radial_6269_38366)"/>
<path fill-rule="evenodd" clip-rule="evenodd" d="M192 159.001H380.999C395.85 159.001 408 171.149 408 186C408 200.851 395.85 212.999 380.999 212.999H192V159.001ZM202.8 202.201H380.999C389.886 202.201 397.2 194.884 397.2 186C397.2 177.116 389.886 169.799 380.999 169.799H202.8V202.201Z" fill="#33FF00"/>
<path fill-rule="evenodd" clip-rule="evenodd" d="M235.199 321.376C235.199 315.368 240.036 310.501 246 310.501H300C308.885 310.501 316.201 303.136 316.201 294.187C316.201 285.241 308.885 277.874 300 277.874H202.8V413.813C202.8 422.759 210.114 430.124 219.001 430.124C227.886 430.124 235.199 422.759 235.199 413.813V321.376ZM246 321.376H300C314.851 321.376 326.999 309.14 326.999 294.187C326.999 279.234 314.851 266.999 300 266.999H192V413.813C192 428.766 204.15 440.999 219.001 440.999C233.849 440.999 246 428.766 246 413.813V321.376Z" fill="#33FF00"/>
<path fill-rule="evenodd" clip-rule="evenodd" d="M528 300C528 425.92 425.92 528 300 528C174.08 528 72 425.92 72 300C72 174.08 174.08 72 300 72C425.92 72 528 174.08 528 300ZM300 517.143C419.925 517.143 517.143 419.925 517.143 300C517.143 180.075 419.925 82.8569 300 82.8569C180.075 82.8569 82.8569 180.075 82.8569 300C82.8569 419.925 180.075 517.143 300 517.143Z" fill="#33FF00"/>
</g>
<defs>
<radialGradient id="paint0_radial_6269_38366" cx="0" cy="0" r="1" gradientUnits="userSpaceOnUse" gradientTransform="translate(196 143.5) rotate(54.1676) scale(497.082)">
<stop offset="0.230743" stop-color="#2D2D2D"/>
<stop offset="1" stop-color="#141413"/>
</radialGradient>
<clipPath id="clip0_6269_38366">
<rect width="600" height="600" fill="white"/>
</clipPath>
</defs>
</svg>
