<svg  viewBox="0 0 40 40" fill="none" xmlns="http://www.w3.org/2000/svg">
<path d="M38.9759 12.3104H37.9487C37.9487 11.024 37.9487 9.4912 37.9487 8.2048C37.4375 8.2048 36.4086 8.2048 35.8977 8.2048C35.8977 7.69344 35.8977 6.66464 35.8977 6.15359C35.3862 6.15359 34.3575 6.15359 33.8464 6.15359C33.8464 5.64223 33.8464 4.61344 33.8464 4.10241C33.335 4.10241 32.3062 4.10241 31.7952 4.10241C31.7952 3.59105 31.7952 2.56223 31.7952 2.0512C30.5097 2.0512 28.9783 2.0512 27.6928 2.0512C27.6928 1.53984 27.6928 0.511041 27.6928 0C22.5866 0 17.4166 0 12.3104 0C12.3104 0.511359 12.3104 1.54016 12.3104 2.0512C11.025 2.0512 9.49344 2.0512 8.208 2.0512C8.208 2.56256 8.208 3.59136 8.208 4.10241C7.69664 4.10241 6.66784 4.10241 6.1568 4.10241C6.1568 4.61377 6.1568 5.64256 6.1568 6.15359C5.64544 6.15359 4.61664 6.15359 4.10559 6.15359C4.10559 6.66495 4.10559 7.69377 4.10559 8.2048C3.59359 8.2048 2.5632 8.2048 2.0512 8.2048C2.0512 9.4912 2.0512 11.024 2.0512 12.3104C1.53984 12.3104 0.511041 12.3104 0 12.3104C0 13.4314 0 14.8042 0 15.9231C13.3232 15.9231 26.6769 15.9231 40 15.9231C40 14.8048 40 13.4307 40 12.3104H38.9759Z" fill="#FA34F3"/>
<path d="M38.9759 15.3857C25.9923 15.3857 12.9837 15.3857 0 15.3857C0 18.1247 0 21.1098 0 23.8561C13.3232 23.8561 26.6769 23.8561 40 23.8561C40 21.1073 40 18.1269 40 15.3857H38.9759Z" fill="#CF15F9"/>
<path d="M38.9759 21.5391C25.9923 21.5391 12.9837 21.5391 0 21.5391C0 23.5366 0 25.6952 0 27.6927C0.511359 27.6927 1.54016 27.6927 2.0512 27.6927V28.643C14.0054 28.643 25.9945 28.643 37.9487 28.643V27.6927C38.4602 27.6927 39.4889 27.6927 40 27.6927C40 25.6952 40 23.5366 40 21.5391H38.9759Z" fill="#AC15F9"/>
<path d="M36.9248 27.6929C25.3097 27.6929 13.6662 27.6929 2.05115 27.6929C2.05115 28.9783 2.05115 30.5097 2.05115 31.7952C2.56315 31.7952 3.59355 31.7952 4.10555 31.7952C4.10555 32.3066 4.10555 33.3354 4.10555 33.8465C4.61691 33.8465 5.64571 33.8465 6.15676 33.8465L6.19196 35.1744C15.3942 35.1744 24.6441 35.1744 33.8464 35.1744V33.8465C34.3577 33.8465 35.3866 33.8465 35.8975 33.8465C35.8975 33.3351 35.8975 32.3063 35.8975 31.7952C36.4089 31.7952 37.4377 31.7952 37.9487 31.7952C37.9487 30.5097 37.9487 28.9783 37.9487 27.6929H36.9248Z" fill="#8F17F9"/>
<path d="M19.4879 39.9998C17.1414 39.9998 14.6569 39.9998 12.3103 39.9998C12.3103 39.4884 12.3103 38.4596 12.3103 37.9485C11.0249 37.9485 9.49338 37.9485 8.20794 37.9485C8.20794 37.4373 8.20794 36.4084 8.20794 35.8974C7.69658 35.8974 6.66779 35.8974 6.15674 35.8974C6.15674 35.386 6.15674 34.3573 6.15674 33.8462C15.3747 33.8462 24.6284 33.8462 33.8464 33.8462C33.8464 34.3576 33.8464 35.3863 33.8464 35.8974C33.335 35.8974 32.3062 35.8974 31.7951 35.8974C31.7951 36.4087 31.7951 37.4376 31.7951 37.9485C30.5097 37.9485 28.9782 37.9485 27.6928 37.9485C27.6928 38.4599 27.6928 39.4887 27.6928 39.9998C26.4073 39.9998 24.8757 39.9998 23.5903 39.9998C22.305 39.9998 20.7731 39.9998 19.4879 39.9998Z" fill="#7E18F8"/>
<path d="M25.9585 23.152V23.8559C26.3102 23.8559 27.018 23.8559 27.3696 23.8559C27.3696 23.2278 27.3696 22.3688 27.3696 21.7407C27.018 21.7407 26.3102 21.7407 25.9585 21.7407C25.9585 22.0924 25.9585 22.8003 25.9585 23.152Z" fill="white"/>
<path d="M24.5472 23.856C23.4154 23.856 22.1494 23.856 21.0177 23.856C21.0177 24.2086 21.0177 24.9181 21.0177 25.2705C21.9018 25.2705 22.9558 25.2705 23.84 25.2705C23.84 25.6221 23.84 26.33 23.84 26.6816C24.1918 26.6816 24.8996 26.6816 25.2513 26.6816C25.2513 26.33 25.2513 25.6221 25.2513 25.2705H25.9585C25.9585 24.9178 25.9585 24.2083 25.9585 23.856C25.6068 23.856 24.899 23.856 24.5472 23.856Z" fill="white"/>
<path d="M22.4287 21.7405C23.5606 21.7405 24.8265 21.7405 25.9584 21.7405C25.9584 21.3879 25.9584 20.6785 25.9584 20.3262C24.8265 20.3262 23.5606 20.3262 22.4287 20.3262C22.4287 20.6788 22.4287 21.3882 22.4287 21.7405Z" fill="white"/>
<path d="M21.0177 18.208C21.0177 18.8372 21.0177 19.6974 21.0177 20.3264C21.3693 20.3264 22.0772 20.3264 22.4288 20.3264C22.4288 19.6974 22.4288 18.8372 22.4288 18.208C22.0772 18.208 21.3693 18.208 21.0177 18.208Z" fill="white"/>
<path d="M25.9584 16.797H25.2512C25.2512 16.4453 25.2512 15.7375 25.2512 15.3857C24.8995 15.3857 24.1917 15.3857 23.84 15.3857C23.84 15.7375 23.84 16.4453 23.84 16.797C23.4882 16.797 22.7804 16.797 22.4287 16.797C22.4287 17.1486 22.4287 17.8564 22.4287 18.2081C24.0442 18.2081 25.7542 18.2081 27.3695 18.2081C27.3695 17.8564 27.3695 17.1486 27.3695 16.797C27.0179 16.797 26.3101 16.797 25.9584 16.797Z" fill="white"/>
<path d="M35.1361 16.7969C33.0433 16.7969 30.8769 16.7969 28.7841 16.7969C28.7841 17.1484 28.7841 17.8562 28.7841 18.208C29.6681 18.208 30.7223 18.208 31.6064 18.208C31.6064 20.5402 31.6064 22.9383 31.6064 25.2705C31.9581 25.2705 32.6659 25.2705 33.0177 25.2705C33.0177 22.9383 33.0177 20.5402 33.0177 18.208C33.9031 18.208 34.9581 18.208 35.8433 18.208C35.8433 17.8562 35.8433 17.1484 35.8433 16.7969H35.1361Z" fill="white"/>
<path d="M18.1921 16.7969C18.1921 17.9286 18.1921 19.1945 18.1921 20.3264C17.0602 20.3264 15.7943 20.3264 14.6624 20.3264C14.6624 19.1945 14.6624 17.9286 14.6624 16.7969C14.3107 16.7969 13.6029 16.7969 13.2512 16.7969C13.2512 19.6028 13.2512 22.4644 13.2512 25.2705C13.6029 25.2705 14.3107 25.2705 14.6624 25.2705C14.6624 24.1386 14.6624 22.8727 14.6624 21.7408C15.7943 21.7408 17.0602 21.7408 18.1921 21.7408C18.1921 22.8727 18.1921 24.1386 18.1921 25.2705C18.5438 25.2705 19.2516 25.2705 19.6032 25.2705C19.6032 22.4644 19.6032 19.6028 19.6032 16.7969C19.2516 16.7969 18.5438 16.7969 18.1921 16.7969Z" fill="white"/>
<path d="M10.4256 16.7969C9.05153 16.7969 7.56609 16.7969 6.19202 16.7969C6.19202 17.1484 6.19202 17.8562 6.19202 18.208C8.04706 18.208 9.98499 18.208 11.84 18.208C11.84 17.8562 11.84 17.1484 11.84 16.7969C11.4874 16.7969 10.7779 16.7969 10.4256 16.7969Z" fill="white"/>
<path d="M11.8401 23.8557C11.8401 22.724 11.8401 21.458 11.8401 20.3262C10.4647 20.3262 8.97863 20.3262 7.60327 20.3262C7.60327 20.6788 7.60327 21.3882 7.60327 21.7405C8.48744 21.7405 9.54152 21.7405 10.4257 21.7405C10.4257 22.3687 10.4257 23.2276 10.4257 23.8557C10.7783 23.8557 11.4878 23.8557 11.8401 23.8557Z" fill="white"/>
<path d="M6.19202 25.2705C7.56609 25.2705 9.05153 25.2705 10.4256 25.2705C10.4256 24.9178 10.4256 24.2083 10.4256 23.856C9.05153 23.856 7.56609 23.856 6.19202 23.856C6.19202 24.2086 6.19202 24.9181 6.19202 25.2705Z" fill="white"/>
<path d="M4.77759 18.208C4.77759 20.063 4.77759 22.001 4.77759 23.856C5.13023 23.856 5.83967 23.856 6.19198 23.856C6.19198 22.001 6.19198 20.063 6.19198 18.208C5.83934 18.208 5.1299 18.208 4.77759 18.208Z" fill="white"/>
</svg>
