<svg viewBox="0 0 600 600" fill="none" xmlns="http://www.w3.org/2000/svg">
<g clip-path="url(#clip0)">
<path d="M600 300.137C599.926 465.76 465.64 600 300 600C217.157 600 142.157 566.422 87.868 512.132L512.132 87.8682C566.392 142.128 599.963 217.075 600 299.863C600 299.909 600 299.955 600 300C600 300.046 600 300.091 600 300.137Z" fill="url(#paint0_radial)"/>
<path d="M424.386 175.614L449.359 150.641C457.292 158.461 464.62 166.93 471.258 175.982C497.572 211.921 511.7 255.276 511.7 299.868C511.7 344.459 497.572 387.815 471.258 423.753C445.033 459.691 407.947 486.358 365.563 499.868C364.238 500.486 362.737 500.751 361.324 500.574C359.912 500.397 358.499 499.956 357.351 499.073C356.115 498.278 355.232 497.13 354.614 495.806C353.996 494.481 353.731 492.98 353.907 491.567V475.232C353.907 472.848 354.614 470.464 355.938 468.521C357.263 466.578 359.205 465.077 361.413 464.194C395.143 451.921 424.194 429.581 444.768 400.177C465.342 370.861 476.38 335.806 476.38 299.956C476.38 264.106 465.342 229.139 444.768 199.735C438.683 191.064 431.856 182.996 424.386 175.614Z" fill="#2775C9"/>
<path d="M288.286 311.714L317.594 282.406C357.532 289.747 378.101 304.491 378.101 341.634C378.101 372.892 355.055 397.881 318.94 403.532V431.347C318.94 433.642 318.057 435.85 316.38 437.528C314.702 439.205 312.494 440.088 310.199 440.088H292.715C290.419 440.088 288.212 439.205 286.534 437.528C284.856 435.85 283.973 433.642 283.973 431.347V403.709C256.444 400.013 239.032 387.854 229.581 370.419L257.425 342.575C258.03 343.501 258.472 344.557 258.72 345.695C262.163 363.002 272.494 376.336 302.958 376.336C325.563 376.336 341.634 363.62 341.634 344.812C341.634 326.005 332.185 318.764 298.985 313.378C295.271 312.873 291.705 312.321 288.286 311.714Z" fill="#2775C9"/>
<path d="M151.981 448.019L176.983 423.017C195.05 441.293 217.007 455.49 241.413 464.371C243.62 465.254 245.475 466.843 246.711 468.963C248.035 470.905 248.83 473.201 248.918 475.585V491.921C249.095 493.422 248.83 494.835 248.212 496.159C247.594 497.484 246.622 498.543 245.475 499.426C244.327 500.309 242.914 500.751 241.501 500.927C240 501.104 238.587 500.839 237.263 500.221C204.912 489.909 175.7 471.933 151.981 448.019Z" fill="#2775C9"/>
<path d="M345.872 254.128H362.737C363.973 254.128 365.121 253.952 366.181 253.422C367.241 252.892 368.212 252.186 369.007 251.303C369.801 250.42 370.331 249.36 370.684 248.212C371.037 247.064 371.037 245.828 370.861 244.68C369.938 240.456 368.711 236.499 367.188 232.812L345.872 254.128Z" fill="#2775C9"/>
<path d="M87.868 512.132C33.5787 457.843 0 382.843 0 300C0 134.315 134.315 0 300 0C382.843 0 457.843 33.5787 512.132 87.868L87.868 512.132Z" fill="url(#paint1_radial)"/>
<path d="M396.726 203.274C372.563 182.126 339.351 169.472 300.484 169.472H194.789V254.208H158.059V284.644H194.789V316.532H158.059V346.968H194.789V405.211L224.395 375.605V346.899H253.101L283.537 316.463H224.395V284.575H315.425L345.792 254.208H224.395V196.588H300.484C331.76 196.588 357.685 206.773 376.324 223.676L396.726 203.274Z" fill="#FFAA00"/>
<path d="M364 600C389.726 600 414.398 589.78 432.589 571.589C450.78 553.398 461 528.726 461 503C461 477.274 450.78 452.602 432.589 434.411C414.398 416.22 389.726 406 364 406C338.274 406 313.602 416.22 295.411 434.411C277.22 452.602 267 477.274 267 503C267 528.726 277.22 553.398 295.411 571.589C313.602 589.78 338.274 600 364 600V600Z" fill="url(#paint2_radial)"/>
<path fill-rule="evenodd" clip-rule="evenodd" d="M334.803 442.477C338.003 442.929 341.318 444.17 343.375 446.654C345.432 449.137 346.232 452.072 346.804 455.12L347.032 456.361C347.49 458.28 347.832 460.086 348.633 461.892C348.861 462.57 349.318 463.134 349.661 463.811L350.233 464.94L350.918 465.843L351.833 467.311V468.101C350.69 469.23 347.604 467.988 346.461 467.423C344.518 466.408 342.804 465.166 341.318 463.473C338.838 460.598 336.98 457.252 335.86 453.641C334.74 450.03 334.38 446.231 334.803 442.477V442.477ZM387.949 498.691C384.749 507.608 389.892 515.171 395.15 522.734C400.865 531.087 406.694 539.44 400.522 549.599C406.312 546.978 410.859 542.257 413.221 536.415C415.583 530.573 415.578 524.058 413.208 518.219C410.122 510.769 402.579 506.818 395.607 503.093C392.974 501.725 390.418 500.218 387.949 498.578V498.691ZM346.804 523.524C348.662 522.135 350.699 520.996 352.861 520.138C355.147 519.122 357.433 518.558 359.719 518.106L364.062 517.429C367.148 516.977 370.12 516.526 372.748 515.51C374.577 514.72 376.292 513.704 377.892 512.349C379.331 511.003 380.427 509.34 381.092 507.495C381.778 505.464 382.121 503.432 381.892 501.4C381.778 499.142 381.206 496.885 380.406 494.853C382.134 496.62 383.393 498.781 384.071 501.144C384.749 503.507 384.825 505.999 384.292 508.398C383.606 510.882 382.349 513.252 380.52 515.171C378.659 516.906 376.435 518.216 374.006 519.009C371.72 519.912 369.32 520.364 366.919 520.477C364.638 520.684 362.351 520.835 360.062 520.928C355.49 521.041 351.033 521.944 346.804 523.411V523.524ZM390.693 556.823C389.28 557.962 387.747 558.946 386.121 559.758C384.406 560.549 382.578 561 380.635 561C375.377 561 371.72 557.049 369.548 552.76L367.948 549.148C367.148 547.229 366.348 545.423 365.319 543.73C362.805 539.666 358.462 536.505 353.547 536.957C352.532 537.063 351.554 537.392 350.684 537.919C349.814 538.447 349.074 539.159 348.518 540.005C345.547 544.52 349.775 550.954 355.262 550.051C356.23 549.924 357.142 549.528 357.891 548.909C358.64 548.289 359.195 547.471 359.49 546.552C359.828 545.61 359.907 544.598 359.719 543.617C359.605 543.085 359.385 542.582 359.071 542.136C358.757 541.69 358.355 541.311 357.89 541.02C358.926 541.5 359.741 542.346 360.176 543.391C360.633 544.52 360.748 545.649 360.519 546.777C360.29 548.019 359.719 549.148 358.919 550.164C358.119 551.067 356.976 551.744 355.719 552.195C354.576 552.534 353.204 552.76 351.947 552.534C349.799 552.255 347.796 551.306 346.232 549.825C345.089 548.922 344.289 548.019 343.489 546.89L342.461 545.987C340.726 544.143 338.675 542.614 336.403 541.472C334.051 540.449 331.538 539.838 328.974 539.666L328.403 539.553C327.717 539.44 326.574 539.214 326.345 539.44C331.564 534.344 338.017 530.652 345.089 528.717C348.747 527.701 352.633 527.362 356.519 527.814C360.491 528.327 364.225 529.975 367.262 532.555C368.748 533.909 370.005 535.602 370.92 537.521C371.72 539.327 372.291 541.133 372.634 543.052L373.091 546.213C373.891 551.518 374.691 557.614 380.749 558.63L381.892 558.855H383.149C384.064 558.855 384.864 558.742 385.664 558.517C387.378 558.065 389.092 557.501 390.693 556.823V556.823ZM343.489 547.003L344.632 548.132L344.175 547.68L343.489 547.003ZM340.632 470.923C340.403 472.052 339.832 472.955 339.26 473.858C338.059 475.358 336.483 476.525 334.689 477.244C332.667 478.126 330.496 478.623 328.288 478.711C327.151 478.77 326.062 479.185 325.178 479.895C324.295 480.605 323.663 481.574 323.374 482.662L323.145 484.242C323.001 485.142 322.887 486.045 322.802 486.952V488.983C322.345 492.031 321.431 495.079 320.059 497.788L319.259 499.481C317.773 502.416 316.402 505.125 316.745 508.737C317.129 511.282 318.427 513.606 320.402 515.284C321.316 516.187 322.459 516.977 323.831 517.767C327.26 520.025 331.031 522.508 329.774 528.83C328.631 534.022 320.173 539.327 308.058 541.246C309.201 541.02 306.915 536.957 306.573 536.28H306.458L305.544 534.812C304.401 533.232 303.487 531.764 302.687 530.184C300.744 525.895 299.829 521.154 300.629 516.413C301.429 512.236 304.058 508.963 306.801 505.689L308.173 504.109C311.716 499.707 315.487 493.95 316.287 488.306L316.516 486.839C316.516 485.71 316.745 484.581 316.973 483.452C317.316 481.42 317.888 479.614 318.802 477.808C319.373 476.68 320.173 475.777 321.088 474.873C321.629 474.432 321.995 473.817 322.12 473.135C322.246 472.453 322.123 471.749 321.774 471.148L302.458 437.059L329.888 470.697C330.219 471.097 330.639 471.417 331.114 471.632C331.59 471.847 332.109 471.952 332.631 471.939C333.126 471.949 333.617 471.853 334.071 471.659C334.525 471.464 334.93 471.174 335.26 470.81C335.603 470.471 335.717 469.907 335.832 469.342C335.832 468.891 335.603 468.327 335.374 467.988L329.774 461.102L322.916 452.523L308.973 435.592L290 412L310.687 434.011L325.545 450.266L332.86 458.393L334.689 460.425C336.517 462.457 338.46 464.489 340.289 466.746L340.632 467.198V467.875C340.861 469.004 340.632 469.907 340.518 470.923H340.632ZM351.49 482.775C354.69 488.419 347.604 490.112 344.289 490.338C339.146 490.902 338.118 488.08 339.146 484.355C339.472 483.061 340.197 481.899 341.221 481.029C342.244 480.16 343.516 479.626 344.861 479.502C346.175 479.401 347.492 479.665 348.663 480.263C349.834 480.861 350.813 481.77 351.49 482.888V482.775ZM371.263 472.616C369.32 487.516 382.463 492.821 395.15 497.901C406.122 502.303 416.751 506.592 416.294 516.977C417.974 514.382 419.114 511.483 419.65 508.449C420.186 505.414 420.106 502.305 419.415 499.301C418.723 496.298 417.435 493.46 415.624 490.952C413.813 488.445 411.516 486.317 408.865 484.694C402.787 481.467 396.089 479.544 389.207 479.05C382.121 477.921 375.492 477.018 371.263 472.616V472.616ZM399.265 461.441L398.922 461.215L399.379 461.667L399.95 462.005L399.265 461.441V461.441ZM411.38 482.436C410.922 481.533 410.465 480.743 409.894 480.066C408.179 477.808 405.779 476.115 403.036 475.551C401.208 474.986 399.379 474.648 397.55 474.535L391.721 474.309C386.38 474.048 381.105 473.021 376.063 471.261L375.491 471.036L374.12 470.358C372.177 469.455 370.463 468.101 368.977 466.746C366.234 464.15 363.948 461.328 361.776 458.393L361.205 457.716C358.919 454.668 356.633 451.733 354.004 448.911C348.916 443.259 341.854 439.711 334.232 438.978C338.118 438.527 342.232 438.978 345.889 440.333C349.661 441.8 353.09 444.058 356.176 446.767C358.005 448.573 359.833 450.492 361.433 452.411C371.683 450.103 382.43 451.505 391.721 456.361H391.95C394.675 457.863 397.207 459.682 399.493 461.78L399.836 462.118C401.436 463.586 403.036 465.279 404.408 466.972L404.522 467.085C409.094 472.729 411.38 478.824 411.38 482.436V482.436Z" fill="#FF007A"/>
<path d="M503 600C528.726 600 553.398 589.78 571.589 571.589C589.78 553.398 600 528.726 600 503C600 477.274 589.78 452.602 571.589 434.411C553.398 416.22 528.726 406 503 406C477.274 406 452.602 416.22 434.411 434.411C416.22 452.602 406 477.274 406 503C406 528.726 416.22 553.398 434.411 571.589C452.602 589.78 477.274 600 503 600V600Z" fill="url(#paint3_radial)"/>
<path d="M540.646 479.195C540.635 481.112 538.879 482.468 536.981 482.267C532.275 481.77 527.964 481.812 523.933 482.233C515.161 483.151 507.87 485.866 501.149 488.37L501.134 488.376C500.727 488.527 500.322 488.678 499.92 488.828C492.783 491.477 486.206 493.756 478.404 493.937C475.291 494.009 471.938 493.746 468.245 493.001C465.078 492.361 462.548 489.935 461.921 486.752C461.423 484.23 461.163 481.622 461.163 478.954C461.163 456.908 478.956 439.037 500.905 439.037C522.854 439.037 540.647 456.908 540.647 478.954C540.647 479.034 540.646 479.115 540.646 479.195Z" fill="url(#paint4_radial)"/>
<path opacity="0.7" d="M464.698 499.029C461.714 498.309 458.991 501.53 460.46 504.236L499.47 576.07C500.098 577.225 501.75 577.225 502.378 576.07L545.434 496.785C546.961 493.973 545.492 490.45 542.365 489.822C535.561 488.457 529.764 488.311 524.604 488.85C516.688 489.678 510.113 492.124 503.288 494.663C502.926 494.798 502.564 494.933 502.201 495.068C495.056 497.72 487.557 500.379 478.542 500.588C474.257 500.687 469.693 500.234 464.698 499.029Z" fill="url(#paint5_linear)"/>
<path d="M500.905 496.934C500.905 496.101 501.423 495.356 502.201 495.068C502.564 494.933 502.926 494.798 503.288 494.663C510.113 492.124 516.688 489.678 524.604 488.85C529.764 488.311 535.561 488.457 542.365 489.822C545.492 490.45 546.961 493.973 545.434 496.785L502.378 576.07C502.06 576.654 501.481 576.943 500.905 576.936V496.934Z" fill="url(#paint6_linear)"/>
</g>
<defs>
<radialGradient id="paint0_radial" cx="0" cy="0" r="1" gradientUnits="userSpaceOnUse" gradientTransform="translate(196 143.5) rotate(54.1675) scale(497.081)">
<stop stop-color="#E6F4FF"/>
<stop offset="1" stop-color="#8BC3FF"/>
</radialGradient>
<radialGradient id="paint1_radial" cx="0" cy="0" r="1" gradientUnits="userSpaceOnUse" gradientTransform="translate(196 143.5) rotate(54.1675) scale(497.082)">
<stop stop-color="#FFF6DE"/>
<stop offset="1" stop-color="#F5C76B"/>
</radialGradient>
<radialGradient id="paint2_radial" cx="0" cy="0" r="1" gradientUnits="userSpaceOnUse" gradientTransform="translate(330.399 452.44) rotate(54.2) scale(160.723)">
<stop stop-color="#FEF1F7"/>
<stop offset="1" stop-color="#FFA5CF"/>
</radialGradient>
<radialGradient id="paint3_radial" cx="0" cy="0" r="1" gradientUnits="userSpaceOnUse" gradientTransform="translate(469.399 452.44) rotate(54.2) scale(160.723)">
<stop stop-color="#FFBFA0"/>
<stop offset="1" stop-color="#FF898D"/>
</radialGradient>
<radialGradient id="paint4_radial" cx="0" cy="0" r="1" gradientUnits="userSpaceOnUse" gradientTransform="translate(525 450.679) rotate(167.246) scale(152.525 183.477)">
<stop/>
<stop offset="0.116813" stop-color="#1C0008"/>
<stop offset="1" stop-opacity="0"/>
</radialGradient>
<linearGradient id="paint5_linear" x1="503.046" y1="490.664" x2="503.046" y2="576.937" gradientUnits="userSpaceOnUse">
<stop stop-color="#1B0008"/>
<stop offset="1" stop-color="#1B0008" stop-opacity="0.5"/>
</linearGradient>
<linearGradient id="paint6_linear" x1="523.473" y1="488.559" x2="523.473" y2="613.776" gradientUnits="userSpaceOnUse">
<stop stop-color="#150006"/>
<stop offset="1" stop-color="#1B0008" stop-opacity="0"/>
</linearGradient>
<clipPath id="clip0">
<rect width="600" height="600" fill="white"/>
</clipPath>
</defs>
</svg>
