<svg fill="none" viewBox="0 0 600 600" xmlns="http://www.w3.org/2000/svg"><radialGradient id="a" cx="0" cy="0" gradientTransform="rotate(54.17 -42.31 263.4) scale(497.082)" gradientUnits="userSpaceOnUse" r="1"><stop offset="0" stop-color="#d4fef9"/><stop offset="1" stop-color="#00b04c"/></radialGradient><path d="M300 600c165.69 0 300-134.31 300-300S465.69 0 300 0 0 134.31 0 300s134.31 300 300 300z" fill="#b2e1db"/><path d="M300 600c165.69 0 300-134.31 300-300S465.69 0 300 0 0 134.31 0 300s134.31 300 300 300z" fill="url(#a)" fill-opacity=".35"/><g fill="#00b04c"><path d="M242.76 302.95l38.2-173.72s.32-12.43-12.11-7.54l-97.85 73s-8 4.9-8 15.77v185.06s-.08 9.7 8 15.77c8.08 5.98 97.85 73 97.85 73s11.96 5.59 12.12-7.54c.15-13.28-38.21-173.8-38.21-173.8z"/><path d="M273.12 278.95l143.83-80.76s9.16-6.22.85-12.43-97.07-72.38-97.07-72.38-10.02-5.2-12.12 4.35c-2.17 9.63-35.49 161.22-35.49 161.22zm7.07 24l146-81.93s11.5-4.2 11.5 6.52v150.82s-1.48 12.11-11.5 6.52c-10.02-5.67-146-81.93-146-81.93zm-7.07 23.92l143.9 80.69s10.02 5.67.86 12.42c-9.16 6.76-97.15 72.46-97.15 72.46s-10.02 5.2-12.12-4.35c-2.17-9.55-35.49-161.22-35.49-161.22z"/></g></svg>