<svg viewBox="0 0 40 40" fill="none" xmlns="http://www.w3.org/2000/svg">
<path d="M20 40C31.0457 40 40 31.0457 40 20C40 8.95433 31.0457 0 20 0C8.95433 0 0 8.95433 0 20C0 31.0457 8.95433 40 20 40Z" fill="url(#paint0_radial_603_28)"/>
<path fill-rule="evenodd" clip-rule="evenodd" d="M20 21.6973C18.021 21.6973 16.4166 20.1352 16.4166 18.2082C16.4166 16.2813 18.021 14.7192 20 14.7192C21.979 14.7192 23.5833 16.2813 23.5833 18.2082C23.5833 20.1352 21.979 21.6973 20 21.6973ZM20 19.6228C19.167 19.6228 18.4912 18.9476 18.4912 18.114C18.4912 17.2804 19.167 16.6052 20 16.6052C20.8329 16.6052 21.5088 17.2804 21.5088 18.114C21.5088 18.9476 20.8329 19.6228 20 19.6228Z" fill="#121619"/>
<path fill-rule="evenodd" clip-rule="evenodd" d="M14.2716 9.62744L5.66663 18.1881L20 32.4477L34.3333 18.1881L25.7283 9.62744H14.2716ZM13.8712 15.1868C17.256 11.7977 22.7439 11.7977 26.1287 15.1868L29.0526 18.1143L26.1287 21.0418C22.7439 24.4308 17.256 24.4308 13.8712 21.0418L10.9473 18.1143L13.8712 15.1868Z" fill="#121619"/>
<defs>
<radialGradient id="paint0_radial_603_28" cx="0" cy="0" r="1" gradientUnits="userSpaceOnUse" gradientTransform="translate(13.0667 9.56667) rotate(54.1675) scale(33.1388)">
<stop stop-color="#3EFC84"/>
<stop offset="1" stop-color="#0FB74D"/>
</radialGradient>
</defs>
</svg>
