<svg viewBox="0 0 32 32" fill="none" xmlns="http://www.w3.org/2000/svg">
<path d="M13.6978 29.3646C21.2543 29.3646 27.3801 23.2388 27.3801 15.6823C27.3801 8.12578 21.2543 2 13.6978 2C6.14128 2 0.0155029 8.12578 0.0155029 15.6823C0.0155029 23.2388 6.14128 29.3646 13.6978 29.3646Z" fill="#2EB6EA"/>
<path d="M13.6316 29.3645C0.0228213 29.3645 -5.34748 11.4618 6.67176 3.91699C5.24269 18.8796 12.846 19.2106 19.9028 18.8796C21.388 18.6893 22.8967 18.819 24.3277 19.2598C25.7586 19.7007 27.0788 20.4425 28.1994 21.4356C29.3201 22.4286 30.2153 23.6499 30.8251 25.0175C31.4349 26.385 31.7451 27.8672 31.7348 29.3645H13.6316Z" fill="#1542CD"/>
<path fill-rule="evenodd" clip-rule="evenodd" d="M26.6319 20.1584C25.598 22.8114 23.8056 25.1011 21.4784 26.7417C19.1513 28.3822 16.3924 29.3009 13.5463 29.3831C13.6867 29.3831 13.8276 29.3831 13.9691 29.3831H31.9604C31.9604 29.3831 31.957 22.9113 26.6319 20.1584Z" fill="#745DDF"/>
</svg>
