<svg  viewBox="0 0 600 600" fill="none" xmlns="http://www.w3.org/2000/svg">
<path d="M300 600C465.685 600 600 465.685 600 300C600 134.315 465.685 0 300 0C134.315 0 0 134.315 0 300C0 465.685 134.315 600 300 600Z" fill="url(#paint0_radial)"/>
<path d="M600 300C600 465.685 465.685 600 300 600L363 360.5L249 210L300 0C465.685 0 600 134.315 600 300Z" fill="url(#paint1_radial)"/>
<path d="M340 597.357C326.915 599.1 313.562 600 300 600C287.128 600 274.445 599.189 262 597.616V477.694C212.011 460.846 183.312 409.537 176 375.156L242.885 355.534C247.249 373.668 260.951 400.568 283 410.5C300.714 418.479 326.652 413.303 336 400.5C356.984 371.762 349 340.5 270.426 308.441C210.153 283.849 199.607 245.651 199.607 214.256C199.607 188.709 212.632 142.374 262 123.883V2.38379C274.445 0.810688 287.128 0 300 0C313.562 0 326.915 0.899963 340 2.64343V120.602C380.767 132.965 401.957 167.283 408.131 186.783L356.984 222.103C344.5 178.5 286.164 169.529 270.426 197C251.759 229.584 287.294 244.077 318.112 256.646C322.004 258.234 325.82 259.79 329.443 261.348C363.5 276 409.521 307.913 414 363C418.26 415.393 400.455 461.225 340 477.384V597.357Z" fill="white"/>
<defs>
<radialGradient id="paint0_radial" cx="0" cy="0" r="1" gradientUnits="userSpaceOnUse" gradientTransform="translate(196 143.5) rotate(54.1675) scale(497.082)">
<stop stop-color="#AFE9FF"/>
<stop offset="1" stop-color="#2EB6EA"/>
</radialGradient>
<radialGradient id="paint1_radial" cx="0" cy="0" r="1" gradientUnits="userSpaceOnUse" gradientTransform="translate(196 143.5) rotate(54.1675) scale(497.082)">
<stop stop-color="#CFC5FF"/>
<stop offset="1" stop-color="#745DDF"/>
</radialGradient>
</defs>
</svg>