<svg fill="none" viewBox="0 0 600 600" xmlns="http://www.w3.org/2000/svg"><radialGradient id="a" cx="0" cy="0" gradientTransform="rotate(54.2 -42.3 263.4) scale(497.082)" gradientUnits="userSpaceOnUse" r="1"><stop offset="0" stop-color="#c5fdf6"/><stop offset="1" stop-color="#1aab9a"/></radialGradient><path d="M300 600a300 300 0 100-600 300 300 0 000 600z" fill="#b2e1db"/><path d="M300 600a300 300 0 100-600 300 300 0 000 600z" fill="url(#a)" fill-opacity=".3"/><path d="M464.6 201.8v173.8s1 19-14.5 19-12.5-18.7-12.5-18.7v-143s1.4-16-6.1-8.4-87 60.2-87 60.2-8.3 3.7-8.3 16.5v80.9s2.6 14.5-12.4 14.5c0 0-10.4.1-10.4-8.3v-95.4s-1.3-10.4 10.4-18.7c11.5-8.3 122-83 122-83s17.8-7.5 18.8 10.6zm-176 186.5v-91.2s0-12.1-10.4-18.7l-124-87s-14.6-6.2-16.6 8.3v186.6s-.4 10.1 8.3 12.4c0 0 14.5 4.8 14.5-14.5V235s-2-11.4 8.3-4.1c10.1 7.3 89 62.2 89 62.2s6.2 2.4 6.2 10.3v85S263 401 276.3 401c13.2-.2 12.3-12.6 12.3-12.6z" fill="#1aab9a"/></svg>