<svg fill="none" viewBox="0 0 600 600" xmlns="http://www.w3.org/2000/svg"><radialGradient id="b" cx="0" cy="0" gradientTransform="rotate(54.2 -42.3 263.4) scale(497.082)" gradientUnits="userSpaceOnUse" r="1"><stop offset="0" stop-color="#3783ff"/><stop offset="1" stop-color="#0235c2"/></radialGradient><linearGradient id="c" gradientUnits="userSpaceOnUse" x1="271.5" x2="548" y1="203" y2="505.5"><stop offset="0" stop-color="#053eda"/><stop offset=".5" stop-color="#1148e0"/><stop offset="1" stop-color="#063ccf"/></linearGradient><clipPath id="a"><path d="M0 0h600v600H0z"/></clipPath><g clip-path="url(#a)"><path d="M512.2 87.8a300.3 300.3 0 00-424.4 0 300.3 300.3 0 000 424.4c117 117 307.3 117 424.4 0 117-117 117-307.4 0-424.4zm-46.8 218.8L306.6 465.4a9.5 9.5 0 01-13.6 0L134.2 306.6a9.6 9.6 0 010-13.6L293 134.2a9.5 9.5 0 0113.6 0L465.4 293a9.6 9.6 0 010 13.6z" fill="#2176ff"/><path d="M300 600a300 300 0 100-600 300 300 0 000 600z" fill="url(#b)" fill-opacity=".3"/><path clip-rule="evenodd" d="M306.6 465.4l158.8-158.8a9.6 9.6 0 002.1-10.5 9.6 9.6 0 00-2.1-3.1L306.6 134.2a9.5 9.5 0 00-13.6 0L134.2 293a9.6 9.6 0 000 13.6L293 465.4a9.5 9.5 0 0013.6 0z" fill="#fff" fill-rule="evenodd"/><path d="M600 299.5c0-79.6-31.2-156.3-87-212.5a122.6 122.6 0 00-173 .5L293.6 134a9.3 9.3 0 016.3-2.6c2.5 0 5 1.3 6.7 3L512.2 339a122.6 122.6 0 010 172.5 300 300 0 0087.8-212zM87.6 512a123.2 123.2 0 00173.3.9s19-20.5 46.1-47.8a9.8 9.8 0 01-13.5 1l-.5-.5L134.5 307c-2.1-1.7-3-4.6-3-7.2s.9-5.1 2.6-6.8l-45.6 46a123.5 123.5 0 00-.9 173z" fill="url(#c)"/></g></svg>