<svg fill="none" viewBox="0 0 600 600" xmlns="http://www.w3.org/2000/svg"><radialGradient id="a" cx="0" cy="0" gradientTransform="rotate(54.2 -42.3 263.4) scale(497.082)" gradientUnits="userSpaceOnUse" r="1"><stop offset="0" stop-color="#e8fed6"/><stop offset="1" stop-color="#88c658"/></radialGradient><path d="M300 600a300 300 0 100-600 300 300 0 000 600z" fill="#dbeecc"/><path d="M300 600a300 300 0 100-600 300 300 0 000 600z" fill="url(#a)" fill-opacity=".3"/><path d="M202 432.4a132 132 0 0091.4 44.6 83.4 83.4 0 0055-25 949.3 949.3 0 0190.3-68.4l17.7-7.3a88 88 0 0031.1-23.9A72.3 72.3 0 00502 312a114.7 114.7 0 00-18.7-55A344.9 344.9 0 01202 432.4z" fill="#05a0e4"/><path d="M241.3 137.8a83.2 83.2 0 0160.3-26c14.4-.9 28.6 4 39.4 13.5a181 181 0 00101.7 33.3c9.4 1 28 4.1 40.5 19.7a54 54 0 0110.4 32.2c-.8 16-4.3 31.8-10.4 46.7z" fill="#ece855"/><path d="M202 432.4a132 132 0 01-36.3-10.4c-14.5-6.3-32.2-13.5-43.6-33.2a64.8 64.8 0 01-8.3-33.3 143 143 0 0115.6-63.3c10-24.3 16.6-49.7 19.7-75.8l5.2-20.7c3.1-10.4 5.2-20.8 12.4-31.2l11.5-12.4a98.7 98.7 0 0163.3-14.6A323.8 323.8 0 00202 432.4z" fill="#c6e34e"/><path d="M241.3 137.8c-1 0 56.1 3.1 91.4 15.6l29 12.4c-11.4-1-84-4.1-139 50.9-69.5 70.6-46.6 167-45.6 172.2a105.7 105.7 0 01-22.8-71.6 249 249 0 0187-179.5z" fill="#87c658"/><path d="M380.4 394c40.1-73 32.9-162.9-18.6-228.3 30 5 57.7 19.6 78.9 41.5a197 197 0 0142.5 49.8 306.5 306.5 0 01-102.8 137z" fill="#35926e"/><path d="M413.7 211.4a118.3 118.3 0 00-50.9-45.7c-8.3-2-86.2-14.5-145.2 42.6a169.5 169.5 0 00-50.9 116c.3 39.2 13.4 77.2 37.4 108 30.9 5.9 62.6 5.9 93.4 0 15.6-3.2 52-9.4 83-36.4 4.2-4.2 50-46.7 53-114-.1-11.4-.1-40.4-19.8-70.5zm-37.4 150.5a103 103 0 01-75.8 33.2c-6.2 0-47.7-1-76.8-35.3-4.1-5.2-25-30-23.9-67.5 2.1-49.8 41.5-78.8 49.9-85 7.2-5.3 24.9-16.7 50.8-17.7 6.2-1 28-2.1 49.8 10.4 47.8 26 49.9 88.2 49.9 92.3 0 11.5 0 42.6-23.9 69.6z" fill="#13713c"/></svg>