<svg fill="none" viewBox="0 0 600 600" xmlns="http://www.w3.org/2000/svg"><radialGradient id="a" cx="0" cy="0" gradientTransform="rotate(54.2 -42.3 263.4) scale(497.082)" gradientUnits="userSpaceOnUse" r="1"><stop offset="0" stop-color="#f4f5f7"/><stop offset="1" stop-color="#7f8ea4"/></radialGradient><path d="M300 600a300 300 0 100-600 300 300 0 000 600z" fill="#dbdbdb"/><path d="M300 600a300 300 0 100-600 300 300 0 000 600z" fill="url(#a)" fill-opacity=".3"/><path d="M489.5 172l2.8 8.4 33.8-10.8z" fill="#5b6fad"/><path d="M405.9 199.6l59.5 17.4-19-14.2z" fill="#313a63"/><path d="M540.9 184.2l1.8 16.6-10.7-3.3z" fill="#303863"/><path d="M446.4 231.8h68.2l-9-10.7z" fill="#49578d"/><path d="M465.4 217l8.8 8.1-27.8 3.6z" fill="#2f3964"/><path d="M466.4 243l48.2-14.3h-68.2z" fill="#4e60a3"/><path d="M405.9 199.6l40.5 29 19-11.6z" fill="#3f4a81"/><path d="M481.9 238.4l6.6 22.3-22-17.7z" fill="#323967"/><path d="M491.5 320.8l-3-60-24 72.5z" fill="#313a63"/><path d="M466.4 243l-2 90.3 24-72.6z" fill="#3f4a80"/><path d="M418.7 303.9l47.7-60.9-2 90.3z" fill="#4a5692"/><path d="M412 247.3l54.4-4.3-47.7 60.9z" fill="#3f4a80"/><path d="M405.9 199.6l6.2 47.7 54.3-4.3z" fill="#4a5897"/><path d="M403 288.2l15.7 15.7-6.6-56.6z" fill="#323a65"/><path d="M347.9 169.7l58 30 6.2 47.6z" fill="#313a63"/><path d="M403 288.1L348 169.6l64.2 77.7z" fill="#3e4a80"/><path d="M314 176.5l33.9-6.8L403 288.1z" fill="#4a5897"/><path d="M306.7 251l96.3 37.1-89-111.6z" fill="#5161a2"/><path d="M207.8 264.9l99-13.8 7.3-74.6z" fill="#4a5897"/><path d="M297.3 317.3l9.4-66.2-99 13.8z" fill="#3f4a80"/><path d="M403 288.2l-105.6 29 9.3-66.1z" fill="#4a5897"/><path d="M403 288.1l-1.3 22.9-46.8-.5z" fill="#5260a4"/><path d="M297.3 317.3l57.6-6.8 48.1-22.4z" fill="#3f4980"/><path d="M401.7 311l-29.8 45-17-45.5z" fill="#4a5897"/><path d="M297.3 317.3l.6 19.7 57-26.5z" fill="#313b61"/><path d="M371.9 356l-25.3-4.9 8.3-40.6z" fill="#3f4a80"/><path d="M297.3 317.2l-59.4 9.5 60 10.3z" fill="#3f4a7f"/><path d="M346.6 351.1l-11.3 20.6 36.5-15.8z" fill="#4a5897"/><path d="M319.6 352.6l27-1.5-34 36z" fill="#3f4a80"/><path d="M335.3 371.7l-22.7 15.4 34-36z" fill="#30395f"/><path d="M207.8 264.9l30.2 61.8 59.3-9.4z" fill="#4a5897"/><path d="M207.8 264.9l1 84.4 29.1-22.6z" fill="#313a63"/><path d="M169.3 353l39.5-3.7-1-84.4z" fill="#3f4a80"/><path d="M169.3 353l22 24.6 17.5-28.3z" fill="#313a63"/><path d="M207.8 264.9l-49.9 16.7 11.4 71.4zm-16.6 112.7l-71.6 29.2 49.7-53.8z" fill="#4a5897"/><path d="M158 281.6L136.8 304l32.4 49z" fill="#5261a4"/><path d="M119.5 406.8l49.8-53.8-32.4 6.4z" fill="#323a63"/><path d="M136.9 304v55.4l32.4-6.4z" fill="#3f4a80"/><path d="M119.5 406.8l3.3 37.6 23.7-48.6z" fill="#3f4a84"/><path d="M136.9 304H99.7l37.2 22.5z" fill="#313a63"/><path d="M119.5 406.8l3.3 37.6-13.3 6.8z" fill="#1f2340"/><path d="M99.7 304l3 15.9 34.2 6.6z" fill="#3e4b80"/><path d="M122.8 444.4l-24.1 24.3 10.8-17.6z" fill="#333c63"/><path d="M98.7 468.7l27.8-5.4-3.7-19z" fill="#3e4a82"/><path d="M80.4 339.1l-25.5 7.4 24.8 4z" fill="#313b64"/><path d="M532 197.5l-17.4 31.2 23.6-27.9z" fill="#4c5da9"/><path d="M505.6 221.1l26.4-23.6-17.4 31.2z" fill="#404983"/><path d="M489.5 171.7l2.8 7.5-46 23.6z" fill="#475692"/><path d="M465.4 217l-19-14.2 45.9-23.6z" fill="#3e4b83"/><path d="M99.7 304l-19.3 35.2 22.2-19.3z" fill="#4d5aae"/><path d="M79.7 350.5l23-30.6-22.3 19.3z" fill="#485e9b"/></svg>