<svg viewBox="0 0 600 600" fill="none" xmlns="http://www.w3.org/2000/svg">
<g clip-path="url(#clip0_6170_39217)">
<path d="M300 600.014C465.684 600.014 600 465.698 600 300.014C600 134.328 465.684 0.0137329 300 0.0137329C134.315 0.0137329 0 134.328 0 300.014C0 465.698 134.315 600.014 300 600.014Z" fill="url(#paint0_radial_6170_39217)"/>
<path d="M300.459 414.279C300.326 414.279 300.201 414.279 300.069 414.279C283.97 414.273 268.054 410.874 253.359 404.301C238.663 397.729 225.518 388.132 214.783 376.136C172.783 329.139 176.876 256.749 223.869 214.766C244.788 196.047 271.876 185.699 299.949 185.704V185.704C316.047 185.708 331.964 189.107 346.66 195.68C361.355 202.252 374.5 211.85 385.234 223.847C413.473 255.454 420.84 298.547 408.377 336.154L459.737 405.154C506.344 334.483 501.669 238.693 442.594 172.586C404.824 130.307 352.5 108.763 299.944 108.767C252.954 108.724 207.606 126.05 172.616 157.414C93.87 227.769 87.0772 348.639 157.419 427.389C195.189 469.667 247.513 491.22 300.077 491.22C317.956 491.211 335.746 488.698 352.929 483.754C350.949 481.654 300.459 414.279 300.459 414.279V414.279Z" fill="black"/>
<path d="M488.648 490.821L422.927 402.506L387.51 354.934L385.17 351.784C384.578 351.056 383.837 350.194 383.027 349.286C381.191 347.229 379.245 345.273 377.198 343.427C376.29 342.604 375.318 341.767 374.284 340.916C373.761 340.487 373.221 340.059 372.664 339.63C372.107 339.201 371.55 338.773 370.992 338.344C369.835 337.487 368.612 336.63 367.324 335.773C355.731 328.059 338.918 321.004 316.324 321.004H266.387L266.567 321.249L266.387 321.386L332.112 409.71L367.525 457.307L369.865 460.453C370.452 461.181 371.198 462.043 372.008 462.956C373.845 465.011 375.791 466.967 377.837 468.814C378.745 469.633 379.718 470.473 380.751 471.321C381.274 471.75 381.814 472.179 382.371 472.607C382.928 473.036 383.484 473.464 384.038 473.893C385.201 474.75 386.425 475.607 387.711 476.464C399.282 484.153 416.112 491.229 438.711 491.229H488.648L488.468 490.984L488.648 490.821Z" fill="#00B2EC"/>
</g>
<defs>
<radialGradient id="paint0_radial_6170_39217" cx="0" cy="0" r="1" gradientUnits="userSpaceOnUse" gradientTransform="translate(196 143.514) rotate(54.1676) scale(497.082)">
<stop offset="0.230743" stop-color="white"/>
<stop offset="1" stop-color="#D9F6FF"/>
</radialGradient>
<clipPath id="clip0_6170_39217">
<rect width="600" height="600" fill="white"/>
</clipPath>
</defs>
</svg>
