<svg  viewBox="0 0 600 600" fill="none" xmlns="http://www.w3.org/2000/svg">
<g clip-path="url(#clip0)">
<path d="M28.6212 428.148L21.8137 413.517C19.2469 406.633 16.6833 399.75 14.1227 392.866C11.8043 383.976 9.48508 375.088 7.16513 366.201C5.90907 358.137 3.15326 350.343 2.84393 342.108C2.01281 336.083 1.18402 330.057 0.357582 324.03C0.340397 321.163 0.322479 318.297 0.303732 315.431C0.512293 302.816 -0.507069 290.196 0.345925 277.581C1.81054 273.096 1.30196 268.373 2.0331 263.792C2.99857 257.79 3.77195 251.758 4.62729 245.733C7.15815 234.819 9.10083 223.769 12.3863 213.036L21.0006 188.098C24.2813 182.272 26.4771 175.952 29.2844 169.915C31.5599 165.017 34.0766 160.232 36.4903 155.385C42.1145 146.381 47.6144 137.284 53.4542 128.416C56.7813 122.993 60.6083 117.893 64.8852 113.183C72.3723 104.364 80.3516 95.9933 88.1809 87.5027C97.5193 77.3787 108.411 69.1249 118.614 60.0461C121.206 58.0608 123.949 56.2799 126.816 54.7192C141.424 44.4141 156.955 35.4831 173.208 28.0406C173.563 27.806 173.88 27.5174 174.146 27.1852C195.727 17.2495 218.449 10.0083 241.799 5.62482C245.993 5.22173 250.131 4.37247 254.144 3.09147C260.237 3.19224 266.096 0.958864 272.221 1.34789C273.52 0.372984 275.24 1.55412 276.529 0.520624L284.262 0.497193C294.858 -0.165731 305.486 -0.165731 316.083 0.497193C325.018 0.807342 333.926 1.66826 342.755 3.07506L367.696 7.43167L400.384 16.9112L430.503 29.7584C441.241 34.7618 451.125 41.3119 461.464 47.0114L485.561 64.2011L502.759 78.8528C509.357 86.0396 516.236 92.9335 523.398 99.5344C527.641 105.27 532.233 110.739 537.149 115.911C539.82 120.513 542.974 124.818 546.557 128.753C549.887 134.772 553.636 140.549 557.775 146.042C560.149 151.429 563.013 156.587 566.331 161.45L574.926 179.509L584.483 204.494L592.242 231.997C593.71 240.023 595.177 248.049 596.643 256.075C598.414 268.839 599.334 281.706 599.396 294.593C599.396 294.956 599.785 295.321 599.991 295.687C600.123 302.856 598.719 309.983 599.288 317.151C599.19 322.04 597.882 326.849 598.309 331.773L594.962 354.139L589.662 378.226L583.754 397.162C580.786 404.886 577.817 412.608 574.849 420.33L559.526 450.498L546.452 471.093C534.32 487.64 520.905 503.207 506.331 517.649C496.599 526.292 486.796 534.827 476.26 542.49C453.347 559.217 428.161 572.583 401.466 582.182C400.803 582.436 400.168 582.778 399.524 583.078C384.306 588.103 368.79 592.173 353.066 595.264C341.626 597.008 330.185 598.599 318.651 599.482C306.318 599.208 293.991 600.774 281.654 599.482L260.19 597.608L239.505 594.106L221.492 589.855L199.183 582.937L177.574 574.243L160.287 565.806C154.093 562.277 147.893 558.764 141.732 555.202C139.89 554.145 138.111 552.971 136.3 551.85L111.46 533.871L92.3263 516.763L74.2307 497.842L58.7174 478.899L46.7896 461.676C43.9046 456.352 40.7413 451.184 37.3129 446.193C35.3351 439.76 30.6764 434.583 28.6212 428.148Z" fill="url(#paint0_radial)"/>
<path d="M230.095 371.643C227.687 373.331 224.841 374.286 221.902 374.392C218.963 374.499 216.056 373.753 213.531 372.243C209.692 359.623 206.833 346.748 203.355 334.039C194.537 301.73 186.052 269.331 177.373 236.984C176.773 235.249 176.612 233.394 176.904 231.582C177.001 230.534 177.768 229.998 178.516 229.421C186.743 225.418 195.902 224.791 204.532 222.272C206.291 221.762 208.082 221.371 209.893 221.101C211.618 222.021 213.017 223.45 213.902 225.193C214.786 226.936 215.113 228.91 214.836 230.845C217.598 225.636 218.118 218.89 225.305 217.389C227.518 217.106 229.711 216.687 231.873 216.135C232.521 216.089 233.166 216.26 233.705 216.621C234.725 217.675 235.369 219.035 235.538 220.491C243.039 252.393 250.618 284.278 258.274 316.146C258.578 317.159 258.755 318.205 258.802 319.262C258.423 323.523 255.673 326.725 253.737 330.26C246.924 342.716 240.205 355.224 233.17 367.559C232.329 369.05 231.295 370.423 230.095 371.643Z" fill="#1FC8A7"/>
<path d="M423.55 368.329C422.922 369.682 421.856 370.785 420.525 371.46C414.229 374.394 407.356 375.264 400.701 376.837C373.196 383.33 345.71 389.914 318.194 396.361C304.692 399.522 291.225 402.817 277.701 405.89C276.328 406.383 274.84 406.458 273.425 406.106C271.48 404.688 272.874 403.275 273.537 401.981C278.708 391.882 284.412 382.071 289.881 372.134C299.474 354.684 308.974 337.178 318.713 319.817C320.53 316.576 321.439 312.594 325.16 310.652C328.868 311.581 332.384 313.155 335.546 315.304C352.778 324.711 370.041 334.056 387.264 343.488C398.698 349.753 410.349 355.622 421.48 362.428C422.446 364.287 423.143 366.274 423.55 368.329Z" fill="#1FC8A7"/>
<path d="M272.997 405.592C285.056 403.483 296.849 400.201 308.75 397.416C345.105 388.916 381.433 380.243 417.775 371.656C418.685 371.514 419.605 371.447 420.526 371.455C413.845 376.857 406.2 380.761 398.938 385.238C357.295 410.9 315.617 436.496 273.903 462.028C268.959 465.064 264.059 468.156 259.07 471.127C255.921 473.253 252.09 474.12 248.333 473.555C244.576 472.991 241.168 471.037 238.783 468.08C237.899 466.814 238.783 465.818 239.33 464.818C249.701 445.856 260.072 426.894 270.601 408.022C271.178 407.005 271.64 405.857 272.997 405.592Z" fill="#198889"/>
<path d="M233.33 216.743L231.688 216.76C230.862 217.287 230.227 217.192 229.873 216.198C227.712 215.706 232.928 215.637 229.909 214.651C225.519 213.219 220.642 212.173 218.659 207.054C218.285 206.097 217.671 205.179 218.272 204.086C228.427 197.975 238.626 191.934 248.737 185.742C279.209 167.065 309.662 148.361 340.097 129.629C348.001 124.785 355.416 125.878 361.768 132.593C358.826 140.132 354.318 146.854 350.498 153.924C343.843 166.239 337.014 178.451 330.285 190.724C329.509 192.558 328.253 194.149 326.649 195.328C314.5 198.767 302.223 201.658 289.818 204.001C286.162 204.976 282.509 205.987 278.799 206.795C272.431 208.476 266.066 210.146 259.597 211.404C252.501 212.967 245.43 214.623 238.383 216.373C236.78 217.025 235.011 217.154 233.33 216.743Z" fill="#198889"/>
<path d="M272.999 405.591L238.783 468.084C236.886 466.444 235.487 464.305 234.745 461.909C234.004 459.513 233.95 456.957 234.589 454.532C237.577 442.018 240.596 429.512 243.647 417.014C244.229 414.851 245.188 412.807 246.482 410.978C285.826 351.885 325.164 292.783 364.497 233.673C365.596 231.399 367.42 229.556 369.683 228.434C370.519 230.177 369.316 231.48 368.633 232.826C364.992 240.006 360.908 246.935 357.084 254.001C355.896 256.052 354.905 258.212 354.124 260.45C351.326 264.591 348.78 268.896 346.501 273.343C343.031 279.404 339.669 285.531 336.469 291.737C333.423 297.499 329.987 303.05 327.059 308.88C326.727 309.739 326.11 310.458 325.311 310.917C321.625 315.137 319.527 320.307 316.857 325.108C302.192 351.488 287.714 377.978 273.187 404.437C273.063 404.809 273 405.199 272.999 405.591Z" fill="#68FDE1"/>
<path d="M326.873 194.522C336.441 177.205 345.959 159.861 355.61 142.586C357.514 139.179 358.819 135.372 361.749 132.587C363.522 134.726 364.728 137.278 365.257 140.006C365.785 142.734 365.619 145.551 364.774 148.198C361.805 159.757 359.046 171.371 356.181 182.956C355.551 185.242 354.528 187.401 353.156 189.335C313.856 248.351 274.573 307.38 235.306 366.421C234.182 368.685 232.347 370.518 230.082 371.641C238.293 356.598 246.503 341.556 254.714 326.515C256.061 324.402 257.162 322.142 257.996 319.778C260.057 313.009 264.205 307.285 267.442 301.11C270.318 295.611 273.447 290.249 276.322 284.745C281.413 276.496 285.816 267.868 290.512 259.388C293.651 253.511 296.777 247.625 300.06 241.822C307.367 229.039 314.32 216.062 321.45 203.176C322.896 200.088 324.71 197.186 326.852 194.533L326.873 194.522Z" fill="#68FDE1"/>
<path d="M423.544 368.328C421.254 367.142 421.904 364.717 421.228 362.846C417.734 356.853 417.28 349.908 415.204 343.467C414.302 339.791 413.147 336.181 411.747 332.664C409.891 323.693 406.859 315.013 405.094 306.023C403.602 298.981 401.671 292.039 399.31 285.239C394.656 267.77 390.033 250.294 385.443 232.811C384.991 231.108 383.593 229.06 386.27 227.77C389.395 229.249 391.869 231.824 393.221 235.006C407.205 263.239 421.174 291.479 435.127 319.728C436.022 321.264 436.597 322.966 436.817 324.73C437.037 326.494 436.898 328.284 436.408 329.993C432.23 342.808 428.513 355.777 423.544 368.328Z" fill="#68FDE1"/>
<path d="M176.9 231.565C181.562 248.86 186.221 266.155 190.875 283.449C198.29 311.188 205.66 338.937 212.985 366.697C213.443 368.426 215.046 370.241 213.529 372.237C210.682 370.806 208.404 368.45 207.069 365.556C193.133 337.417 179.178 309.29 165.204 281.174C164.12 279.066 163.482 276.758 163.328 274.393C163.174 272.028 163.508 269.656 164.309 267.426C167.766 256.977 171.148 246.499 174.622 236.059C174.93 234.372 175.721 232.811 176.9 231.565Z" fill="#68FDE1"/>
<path d="M386.275 227.772C385.019 228.943 385.806 230.171 386.147 231.419C390.742 248.689 395.325 265.961 399.895 283.236C400.06 283.848 400.414 284.479 399.878 285.09C399.165 285.212 398.433 285.179 397.733 284.995C397.034 284.81 396.381 284.478 395.82 284.021C382.485 276.908 369.27 269.575 355.932 262.468C355.008 261.976 354.059 261.459 353.824 260.284C352.864 257.566 355.057 255.9 356.077 253.908C360.455 245.334 365.75 237.257 369.689 228.442C372.082 226.712 374.932 225.726 377.882 225.607C380.832 225.488 383.752 226.241 386.277 227.772H386.275Z" fill="#1FC8A7"/>
<path d="M218.255 204.083C219.648 210.412 225.007 212 230.071 213.841C232.448 214.705 231.999 215.284 230.121 216.073C228.794 217.713 226.72 217.585 224.985 218.251C221.219 219.167 219.583 222.14 218.231 225.346C217.367 227.386 216.55 229.436 215.59 231.761C213.555 228.151 212.972 224.261 210.515 221.31C206.816 219.301 202.482 218.501 199.364 215.396C198.895 214.847 199.038 214.532 199.727 214.372C208.236 212.369 213.555 207.175 215.197 197.454L218.255 204.083Z" fill="#FDFEFE"/>
<path d="M199.362 215.392C203.18 217.166 207.6 217.82 210.513 221.303C206.293 223.881 201.33 223.896 196.743 225.22C190.76 226.949 184.596 228.029 178.507 229.408C184.036 224.654 190.713 221.673 196.685 217.611C197.651 216.952 198.85 216.593 199.362 215.392Z" fill="#19898A"/>
<path d="M277.018 284.873C273.823 292.684 269.117 299.688 265.256 307.158C263.026 311.462 260.442 315.585 258.019 319.781C250.022 286.184 242.023 252.593 234.023 219.009C233.839 218.246 233.554 217.497 233.334 216.743C241.888 214.072 250.68 212.3 259.426 210.414C260.706 211.577 261.52 213.164 261.716 214.882C266.974 236.658 272.16 258.45 277.273 280.26C277.8 281.771 277.71 283.429 277.023 284.875L277.018 284.873Z" fill="#A4E8DB"/>
<path d="M224.979 218.248C226.52 217.155 228.279 216.409 230.136 216.062L231.694 216.746C229.652 217.896 227.316 218.419 224.979 218.248Z" fill="#2AA197"/>
<path d="M412.572 332.631C415.424 336.588 415.549 341.43 416.826 345.889C418.432 351.507 419.774 357.192 421.226 362.844L384.358 342.985C364.669 332.319 344.986 321.631 325.311 310.921C327.889 303.875 332.442 297.855 335.657 291.142C337.385 290.347 338.731 291.378 340.086 292.141C363.082 304.867 386.231 317.31 409.333 329.84C410.668 330.424 411.797 331.397 412.572 332.631Z" fill="#A4E8DB"/>
<path d="M317.107 405.889C318.975 405.355 320.645 404.285 321.911 402.813C323.178 401.341 323.987 399.531 324.238 397.605C324.659 399.696 325.715 401.607 327.261 403.076C328.808 404.545 330.77 405.502 332.88 405.815C330.766 406.085 328.796 407.033 327.266 408.518C325.737 410.003 324.731 411.944 324.4 414.05C323.103 409.374 320.925 406.881 317.107 405.889Z" fill="#F9FBFB"/>
<path d="M277.018 284.872C274.343 273.35 271.703 261.82 268.981 250.302C265.832 237.001 262.611 223.706 259.417 210.418L278.535 205.747C279.522 206.813 280.149 208.163 280.326 209.606C283.839 224.434 287.331 239.267 290.937 254.074C291.565 255.81 291.689 257.688 291.294 259.491C287.143 268.279 282.373 276.761 277.018 284.872Z" fill="#1FC8A7"/>
<path d="M326.876 194.524C324.206 200.519 321.153 206.335 317.736 211.937C312.911 220.988 307.942 229.962 302.992 238.946C302.302 240.05 301.548 241.113 300.734 242.128C298.927 241.048 298.789 239.082 298.389 237.345C296.421 228.79 294.34 220.254 292.35 211.7C291.712 208.754 290.799 205.875 289.623 203.1L326.876 194.524Z" fill="#1FC8A7"/>
<path d="M289.632 203.093C291.596 203.167 291.72 204.621 292.067 206.094C294.922 218.112 297.841 230.112 300.74 242.119L291.298 259.491C286.705 241.657 282.377 223.76 278.55 205.747L289.632 203.093Z" fill="#A4E8DB"/>
<path d="M412.57 332.63C388.359 319.475 364.145 306.324 339.928 293.176C338.545 292.424 337.08 291.817 335.65 291.14C339.077 285.075 341.951 278.699 345.933 272.95C348.404 272.503 350.219 274.084 352.116 275.143C368.84 284.475 385.823 293.342 402.546 302.653C404.017 303.263 405.269 304.304 406.137 305.639C408.114 313.482 410.109 321.316 412.053 329.162C412.284 330.308 412.457 331.466 412.57 332.63Z" fill="#1FC8A7"/>
<path d="M406.15 305.637L345.946 272.948C348.413 268.627 349.697 263.56 353.83 260.289L399.885 285.102C402.879 289.021 402.674 294.038 404.405 298.403C405.164 300.766 405.748 303.181 406.153 305.63L406.15 305.637Z" fill="#A4E8DB"/>
<path d="M267.196 229.934C269.264 229.649 271.185 228.702 272.672 227.236C274.158 225.77 275.131 223.863 275.445 221.799C275.805 223.816 276.788 225.67 278.256 227.1C279.724 228.529 281.604 229.463 283.63 229.77C279.41 231.282 276.463 233.11 275.618 237.304C275.043 235.411 273.949 233.718 272.46 232.415C270.972 231.112 269.148 230.253 267.196 229.934Z" fill="#FAFDFC"/>
</g>
<defs>
<radialGradient id="paint0_radial" cx="0" cy="0" r="1" gradientUnits="userSpaceOnUse" gradientTransform="translate(196.836 165.414) rotate(64.9268) scale(456.835 456.844)">
<stop stop-color="#3F5D65"/>
<stop offset="1" stop-color="#192123"/>
</radialGradient>
<clipPath id="clip0">
<rect width="600" height="600" fill="white"/>
</clipPath>
</defs>
</svg>
