<svg fill="none" viewBox="0 0 600 600" xmlns="http://www.w3.org/2000/svg"><radialGradient id="a" cx="0" cy="0" gradientTransform="rotate(54.2 -42.3 263.4) scale(497.082)" gradientUnits="userSpaceOnUse" r="1"><stop offset="0" stop-color="#d5e0f3"/><stop offset="1" stop-color="#0c3169"/></radialGradient><path d="M300 600a300 300 0 100-600 300 300 0 000 600z" fill="#1a3a6a"/><path d="M300 600a300 300 0 100-600 300 300 0 000 600z" fill="#c0cadb"/><path d="M300 600a300 300 0 100-600 300 300 0 000 600z" fill="url(#a)" fill-opacity=".3"/><path d="M171.1 180.5l30-16 3.6 7.2 109.7-63.8-7-5.3-9-5.3-3.5-1.8L114.5 200v3.6l51.3-28.4zm0 67.2l86.8-51.3 3.5 7L373 139.9l-8.9-5.4-8.9-3.5-3.5-1.8-237 136.3v3.5l51.2-28.3zm0 31.8l115-65.5 3.6 5.3 111.5-63.7-9-3.5-8.8-5.4-3.5-1.8-265.4 152.4v5.3l51.3-30zm0 31.9L314.5 230l3.6 5.3 111.4-62-8.9-5.3-8.8-5.3-3.6-1.8-293.7 170v3.5l51.3-28.3zm0 33.6l171.7-99.1 3.5 7.1 111.5-63.7-8.9-5.3-7.1-3.6-5.3-3.6-322 185.8v5.3l51.2-30zm297.3-148.6l-3.5-3.6-350.4 203.6v3.5l51.3-28.3 5.3 7 171.7-100.8 3.5 7.1 129.2-72.5V200zM137.5 421l28.4-17.7 3.5 7.1 173.4-99.1 3.6 7.1 129.1-74.3v-23L132.2 417.5zM342.8 345l3.5 7.1 129.2-76V253l-315 182.2 5.3 1.8 28.4-17.7 5.3 7.1zM194.2 453l30-16 3.6 7.2 115-67.3 3.5 7.1 129.2-74.3v-23L188.8 451.2zm28.2 15.9l30-16 3.6 7.2 86.8-49.6 3.5 7.1 129.2-74.3v-24.8L217 467.1zm23 14.1l5.4 3.6 30-17.7 3.6 7.1 58.4-33.6 3.5 7.1 129.2-74.3v-23zm33.7 19.5l28.3-17.7 5.3 7.1 30-15.9 3.6 7.1 129.2-74.3V384l-200 116.7zm65.4-378.6l-8.8-5.4-9-3.5-3.5-3.6-208.7 120.4v5.3l51.3-30 5.3 7 58.4-33.6 3.6 7.2z" fill="#1a3a6a"/></svg>