<svg fill="none" viewBox="0 0 600 600" xmlns="http://www.w3.org/2000/svg"><radialGradient id="a" cx="0" cy="0" gradientTransform="rotate(54.2 -42.3 263.4) scale(497.082)" gradientUnits="userSpaceOnUse" r="1"><stop offset="0" stop-color="#ededed"/><stop offset="1" stop-color="#606165"/></radialGradient><path d="M300 600a300 300 0 100-600 300 300 0 000 600z" fill="#e0e1e5"/><path d="M300 600a300 300 0 100-600 300 300 0 000 600z" fill="url(#a)" fill-opacity=".3"/><path d="M429.5 258.7c6.7-39.3-22.8-61-63.5-76.2l14.2-52.7-32.2-8.7-14 51.7c-8.4-2.3-17-4.7-25.7-6.7l14-52-32.1-8.7-14.4 53-20.5-5.6-44.9-12-9.3 34.6s24 6 23.5 6.3c9.2 1.4 15.6 10 14.5 19.1L200 346a12 12 0 01-6 7c-2.8 1.3-6 1.5-9.1.4.3.6-23.5-6.3-23.5-6.3l-16.8 36.8 42 11.3 23.2 6.2-14.6 54 32.3 8.6 14.3-53.1 25.8 7-14.3 52.8 32.4 8.7 14.3-53.3c55.4 11.4 97 8.3 115.6-41.5 15-40 .6-63.5-28.3-79.3 21.2-4.3 37.6-18 42.3-46.6zm-76.1 102.5c-10.8 40-78.3 17-100 11l19.1-71.1c21.8 6 92.2 18.2 80.9 60zm12-104.3c-9.8 36.7-66 16.7-84 11.8l17.3-64.6c18.2 5 77 14.7 66.8 52.8z" fill="#606165"/></svg>