<svg width="600" height="600" viewBox="0 0 600 600" fill="none" xmlns="http://www.w3.org/2000/svg">
<path d="M300 600C465.685 600 600 465.685 600 300C600 134.315 465.685 0 300 0C134.315 0 0 134.315 0 300C0 465.685 134.315 600 300 600Z" fill="url(#paint0_radial_413_9)"/>
<path d="M425.689 111.93C437.97 120.765 445.188 135.294 435.514 141.381C427.364 146.508 415.251 140.154 411.567 133.404C406.543 124.201 402.356 117.452 386.391 117.452C370.426 117.452 358.146 138.313 353.847 152.425C350.409 163.714 335.222 218.484 328.058 244.458L407.268 255.502L401.128 277.59L324.988 265.319L315.163 311.336L398.672 324.834L393.76 345.082L311.479 332.197C302.637 371.465 283.234 429.139 267.883 456.136C252.532 483.132 228.38 492.54 215.69 494.176C194.812 497.244 175.164 491.108 169.023 486.2C161.348 480.064 157.424 464.211 165.339 459.817C176.392 453.681 184.988 465.339 191.742 475.156C198.497 484.973 207.707 486.2 215.076 485.586C237.181 478.224 247.006 448.773 249.462 437.729C251.427 428.894 267.883 360.421 275.865 327.289L196.655 316.245L200.953 293.543L279.549 307.041L290.602 262.251L206.479 248.14L210.778 227.279L295.514 238.323C298.38 224.62 307.918 188.87 323.146 155.493C338.374 122.115 368.584 108.186 380.865 106.408C393.76 104.541 411.935 103.095 425.689 111.93Z" fill="white"/>
<defs>
<radialGradient id="paint0_radial_413_9" cx="0" cy="0" r="1" gradientUnits="userSpaceOnUse" gradientTransform="translate(196 143.5) rotate(54.1675) scale(497.082)">
<stop stop-color="#8FCEFF"/>
<stop offset="1" stop-color="#0090FF"/>
</radialGradient>
</defs>
</svg>
