<svg fill="none" viewBox="0 0 600 600" xmlns="http://www.w3.org/2000/svg"><radialGradient id="a" cx="0" cy="0" gradientTransform="rotate(54.2 -42.3 263.4) scale(497.082)" gradientUnits="userSpaceOnUse" r="1"><stop offset="0" stop-color="#f7d6ec"/><stop offset="1" stop-color="#a02473"/></radialGradient><path d="M600 300a300 300 0 11-600 0 300 300 0 01600 0" fill="#e5bbd8"/><path d="M300 600a300 300 0 100-600 300 300 0 000 600z" fill="url(#a)" fill-opacity=".3"/><path d="M292.5 126.2h-.2L158 367.3c.6-.1 1-.4 1.4-.6 4.8-2.5 9.4-5.2 14.1-7.7a226 226 0 0134.1-14.8c3-1 6.1-1.4 9.3-1.2 6.9.4 13.3 2.8 19.4 5.8 9.4 4.7 17.5 11 25.2 18 7.4 6.7 16.2 11 26 13 2.6.6 5.3 1 8 1.4l-.5.6a50.2 50.2 0 00-9.7 12.2c-.2.3-1 .5-1.3.4-4.8-1.5-9.6-2.8-14.2-4.7-6.3-2.7-12.5-6-17.6-10.8-5.8-5.1-11.9-9.8-18.6-13.7-4.5-2.6-9-5-14-6.3-2.3-.6-4.7-1.1-7.1-.4l-9.3 3.3a284.9 284.9 0 00-46 23.7l135 80.4v-54.6l.1-3c.7-5.8 3.5-10.7 7.2-15 7.1-8.2 16.1-13.7 25.8-18.3a58 58 0 0030.3-32l.8-1.8.8 1.5 6.6 10.6c.6 1 2 2 2 3s-1.1 2.2-1.8 3.4a72.4 72.4 0 01-30.3 28.5l-12.2 6.7a40.7 40.7 0 00-11.6 10 10.3 10.3 0 00-2.5 6.4v55.1L442.1 386l-.8-.4-54.5-27.2a34 34 0 01-11-8.7 80.8 80.8 0 01-16.7-37.4 62.5 62.5 0 00-26.3-40.9c-6.9-4.8-14.6-8-23-9.3l-5.3-.7.2-.5c3.8-3.7 7.2-7.8 9.7-12.5.2-.2.9-.5 1.2-.4l5.4 1.3a77 77 0 0150.5 49c1 3.5 1.2 7.1 2 10.7 2 9.1 5 17.8 10 25.8 2.8 4.5 6.2 8.2 11.1 10.7l46.3 23.1 2 1-135.7-243.6h-.3v104c0 1.4 0 2.8-.3 4.3-.9 6.4-4.2 11.6-8.5 16.2a77.5 77.5 0 01-23.8 16.7c-2.6 1.3-5.3 2.4-7.8 4-9.2 5.8-16 14-20.9 23.7a57.8 57.8 0 00-5.1 37c.4 2.4 1 4.7 1.5 7l-.4-.1-15.7-6c-.3-.2-.8-.7-.8-1.1-.2-5-.6-10-.4-15 .4-10.8 4.1-21 9.2-30.6a73.1 73.1 0 0130.4-30.5c4.5-2.4 9-4.7 13.4-7.2 4.7-2.8 9-6.3 12.3-11 1.5-2.1 2.4-4.6 2.4-7.4V128.6l.1-2.4zM465.3 381c0 6-2.6 10.6-7.8 13.8l-73.7 44-74.5 44.6c-6 3.6-12 3.6-18 0l-148.4-88.7a15.3 15.3 0 01-8.1-12.5c-.3-3.2.6-6 2.2-8.8l23.3-41.8 121-217 5.5-10c4.7-8.2 14.5-10.4 22-4.9a18 18 0 014.7 5.7c16.7 29.7 33.2 59.5 49.8 89.3L463 373.4a16 16 0 012.3 7.6" fill="#862964"/></svg>