<svg fill="none" viewBox="0 0 600 600" xmlns="http://www.w3.org/2000/svg"><radialGradient id="b" cx="0" cy="0" gradientTransform="rotate(53.1 -61.7 276) scale(484.2)" gradientUnits="userSpaceOnUse" r="1"><stop offset="0" stop-color="#fff"/><stop offset="1" stop-color="#f0c472"/></radialGradient><clipPath id="a"><path d="M0 0h600v600H0z"/></clipPath><g clip-path="url(#a)"><path d="M300 600a300 300 0 100-600 300 300 0 000 600z" fill="#fff"/><path d="M300 600a300 300 0 100-600 300 300 0 000 600z" fill="url(#b)" fill-opacity=".3"/><path d="M110.6 300.3l189.7-189.7 189.8 189.7-189.8 189.8z" fill="#fdc526"/><path d="M300.4 110.6L110.6 300.4l191 67 188.5-67z" fill="#feae16"/><path d="M491.3 300.4L301.6 490V110.6z" fill="#231f20" opacity=".2"/><path d="M301.7 155.8l-125.9 132h86.3l39.5-37.7 41.8 37.7h88.2z" fill="#fefefe"/></g></svg>