<svg fill="none" viewBox="0 0 600 600" xmlns="http://www.w3.org/2000/svg"><radialGradient id="a" cx="0" cy="0" gradientTransform="rotate(54.2 -42.3 263.4) scale(497.082)" gradientUnits="userSpaceOnUse" r="1"><stop offset="0" stop-color="#a1abf0"/><stop offset="1" stop-color="#09145f"/></radialGradient><path d="M600 300a300 300 0 11-600 0 300 300 0 01600 0z" fill="#4957b8"/><path d="M300 600a300 300 0 100-600 300 300 0 000 600z" fill="url(#a)" fill-opacity=".3"/><path d="M187.5 274.4S217 138.8 338.8 116.8c121.7-22 147.4 46.4 148.7 74.5 1.2 28.1-21.8 97.8-128.2 89.2-109-18.3-171.8-6-171.8-6zm225 51.2S383 461.2 261.2 483.2c-121.7 22-147.4-46.4-148.7-74.5-1.2-28.1 21.8-97.8 128.2-89.2 109 18.3 171.8 6 171.8 6" fill="#fff"/></svg>