<svg fill="none" viewBox="0 0 600 600" xmlns="http://www.w3.org/2000/svg"><radialGradient id="a" cx="0" cy="0" gradientTransform="rotate(54.2 -42.3 263.4) scale(497.082)" gradientUnits="userSpaceOnUse" r="1"><stop offset="0" stop-color="#e8f2ff"/><stop offset="1" stop-color="#2c61a5"/></radialGradient><path d="M300 600a300 300 0 100-600 300 300 0 000 600z" fill="#5f5974"/><path d="M300 600a300 300 0 100-600 300 300 0 000 600z" fill="#c6dfff"/><path d="M300 600a300 300 0 100-600 300 300 0 000 600z" fill="url(#a)" fill-opacity=".3"/><path d="M314.6 285.9h7.7a64.6 64.6 0 110 129h-95.1a14.2 14.2 0 010-28.4h95.1a36.2 36.2 0 100-72.4h-44.6a64.6 64.6 0 110-129h95.1a14.2 14.2 0 010 28.4h-95.1a36.2 36.2 0 100 72.4z" fill="#5f5974"/></svg>