<svg viewBox="0 0 40 40" fill="none" xmlns="http://www.w3.org/2000/svg">
<path d="M20 40C31.0457 40 40 31.0457 40 20C40 8.95433 31.0457 0 20 0C8.95433 0 0 8.95433 0 20C0 31.0457 8.95433 40 20 40Z" fill="url(#paint0_radial_701_33)"/>
<path d="M12.2062 18.9502L11.9934 19.2765C9.59428 22.9568 10.1301 27.7767 13.2816 30.8647C15.1357 32.6813 17.5656 33.5898 19.9956 33.59C19.9956 33.59 19.9956 33.59 12.2062 18.9502Z" fill="#00A3FF"/>
<path opacity="0.6" d="M19.9933 23.3996L12.2037 18.9502C19.9933 33.59 19.9933 33.59 19.9933 33.59C19.9933 30.4015 19.9933 26.748 19.9933 23.3996Z" fill="#00A3FF"/>
<path opacity="0.6" d="M27.794 18.9502L28.0068 19.2765C30.4058 22.9568 29.87 27.7767 26.7185 30.8647C24.8645 32.6813 22.4346 33.5898 20.0045 33.59C20.0045 33.59 20.0045 33.59 27.794 18.9502Z" fill="#00A3FF"/>
<path opacity="0.2" d="M20.0035 23.3996L27.7931 18.9502C20.0035 33.59 20.0035 33.59 20.0035 33.59C20.0035 30.4015 20.0035 26.748 20.0035 23.3996Z" fill="#00A3FF"/>
<path opacity="0.2" d="M20.0057 13.46V21.134L26.7155 17.2995L20.0057 13.46Z" fill="#00A3FF"/>
<path opacity="0.6" d="M20.0043 13.46L13.2897 17.2994L20.0043 21.134V13.46Z" fill="#00A3FF"/>
<path d="M20.0043 7.00586L13.2897 17.3015L20.0043 13.4513V7.00586Z" fill="#00A3FF"/>
<path opacity="0.6" d="M20.0057 13.4505L26.7207 17.3008L20.0057 7V13.4505Z" fill="#00A3FF"/>
<defs>
<radialGradient id="paint0_radial_701_33" cx="0" cy="0" r="1" gradientUnits="userSpaceOnUse" gradientTransform="translate(13.0667 9.56667) rotate(54.1675) scale(33.1388)">
<stop offset="0.230743" stop-color="white"/>
<stop offset="1" stop-color="#D6D9DF"/>
</radialGradient>
</defs>
</svg>
