<svg viewBox="0 0 600 600" fill="none" xmlns="http://www.w3.org/2000/svg">
<path d="M300 600C465.685 600 600 465.685 600 300C600 134.315 465.685 0 300 0C134.315 0 0 134.315 0 300C0 465.685 134.315 600 300 600Z" fill="url(#paint0_radial)"/>
<path fill-rule="evenodd" clip-rule="evenodd" d="M470.437 350.713L402.624 445.239C391.958 460.25 371.264 467.477 344.362 465.265C309.659 462.399 263.653 444.06 219.558 412.43C175.463 380.783 143.309 343.088 129.3 311.171C118.635 286.433 118.793 264.593 129.617 249.566L197.272 155.04C208.097 140.029 228.79 132.802 255.534 135.014C290.237 137.88 336.401 156.234 380.496 187.865C424.591 219.495 456.746 257.191 470.595 289.108C481.42 313.846 481.102 335.701 470.437 350.713ZM215.42 168.03C222.424 158.32 236.432 155.805 253.783 157.237C285.462 159.848 327.169 177.103 367.444 205.98C407.718 234.841 437.486 268.859 450.221 297.991C457.066 313.957 459.293 328.029 452.289 337.739L461.364 344.219L452.289 337.739L384.476 432.264C377.631 441.959 363.622 444.49 346.271 443.041C314.592 440.447 272.726 423.175 232.452 394.314C192.177 365.438 162.409 331.42 149.833 302.305C142.829 286.322 140.761 272.25 147.765 262.555L215.42 168.03Z" fill="white"/>
<path fill-rule="evenodd" clip-rule="evenodd" d="M206.491 163.687C228.618 132.805 303.594 148.66 373.955 199.059C444.316 249.474 483.477 315.488 461.35 346.37L393.695 440.896C371.568 471.778 296.43 455.923 226.07 405.509C155.709 355.094 116.551 289.095 138.678 258.212L206.491 163.687Z" fill="white"/>
<path fill-rule="evenodd" clip-rule="evenodd" d="M201.61 158.034C211.453 144.253 230.483 138.184 255.091 140.153C289.05 142.942 334.001 161.151 377.312 191.994C420.458 223 452.122 259.913 465.575 291.083C475.418 313.723 475.745 333.736 465.901 347.517L398.312 442.013C388.469 455.794 369.275 461.863 344.831 459.894C310.872 456.942 265.757 438.897 222.61 407.89C179.3 377.048 147.801 340.135 134.184 308.964C124.341 286.325 124.014 266.311 133.857 252.53L201.61 158.034ZM456.552 340.628C464.426 329.8 462.785 313.722 455.074 295.676C442.114 265.983 411.765 231.038 370.423 201.508C329.245 171.979 286.426 154.425 254.107 151.8C234.421 150.16 218.838 153.77 210.963 164.761L210.633 165.416C203.251 176.408 204.893 191.993 212.604 209.711C225.564 239.569 255.914 274.513 297.092 304.043C338.269 333.572 381.085 351.128 413.404 353.752C432.762 355.229 448.019 351.784 456.058 341.448L456.552 340.628ZM351.23 228.251C371.901 243.016 387.156 260.569 393.554 275.498C397.327 283.865 398.311 291.248 394.538 296.333C390.928 301.419 383.547 302.896 374.524 302.075C358.283 300.763 336.956 291.904 316.285 277.139C295.614 262.374 280.356 244.984 273.957 230.055C270.348 221.688 269.365 214.305 272.974 209.219C276.583 204.134 283.967 202.658 293.154 203.314C309.231 204.791 330.723 213.486 351.23 228.251Z" fill="#0E0F23"/>
<mask id="mask0" mask-type="alpha" maskUnits="userSpaceOnUse" x="126" y="139" width="348" height="322">
<path fill-rule="evenodd" clip-rule="evenodd" d="M201.61 158.034C211.453 144.253 230.483 138.184 255.091 140.153C289.05 142.942 334.001 161.151 377.312 191.994C420.458 223 452.122 259.913 465.575 291.083C475.418 313.723 475.745 333.736 465.901 347.517L398.312 442.013C388.469 455.794 369.275 461.863 344.831 459.894C310.872 456.942 265.757 438.897 222.61 407.89C179.3 377.048 147.801 340.135 134.184 308.964C124.341 286.325 124.014 266.311 133.857 252.53L201.61 158.034ZM456.552 340.628C464.426 329.8 462.785 313.722 455.074 295.676C442.114 265.983 411.765 231.038 370.423 201.508C329.245 171.979 286.426 154.425 254.107 151.8C234.421 150.16 218.838 153.77 210.963 164.761L210.633 165.416C203.251 176.408 204.893 191.993 212.604 209.711C225.564 239.569 255.914 274.513 297.092 304.043C338.269 333.572 381.085 351.128 413.404 353.752C432.762 355.229 448.019 351.784 456.058 341.448L456.552 340.628ZM351.23 228.251C371.901 243.016 387.156 260.569 393.554 275.498C397.327 283.865 398.311 291.248 394.538 296.333C390.928 301.419 383.547 302.896 374.524 302.075C358.283 300.763 336.956 291.904 316.285 277.139C295.614 262.374 280.356 244.984 273.957 230.055C270.348 221.688 269.365 214.305 272.974 209.219C276.583 204.134 283.967 202.658 293.154 203.314C309.231 204.791 330.723 213.486 351.23 228.251Z" fill="#0E0F23"/>
</mask>
<g mask="url(#mask0)">
<path fill-rule="evenodd" clip-rule="evenodd" d="M112.309 344.011C114.114 344.011 117.067 348.289 118.707 349.457C124.449 353.737 130.189 358.02 136.095 361.522C153.319 372.03 171.198 377.864 188.914 373.972C216.8 367.746 242.062 319.104 270.113 325.72C285.86 329.222 297.016 351.404 310.796 366.581C323.919 381.758 338.353 388.372 352.952 385.259C396.422 376.698 412.827 291.085 456.953 295.754C493.534 299.646 479.262 343.619 514.367 359.185C514.695 359.574 599.174 285.247 599.83 272.405C602.291 222.983 555.378 -359.185 557.51 -359.185L139.049 -205.471L112.309 344.011Z" fill="url(#paint1_linear)"/>
</g>
<path fill-rule="evenodd" clip-rule="evenodd" d="M397.109 366.783C409.905 368.916 421.717 369.409 431.56 367.768C432.873 367.604 433.858 366.292 433.694 364.979C433.366 363.667 432.216 362.683 430.903 362.847C421.388 364.487 410.233 363.994 397.929 361.861C396.617 361.697 395.305 362.681 395.141 363.994C394.977 365.306 395.796 366.619 397.109 366.783ZM377.749 362.518C381.03 363.339 384.148 364.158 387.429 364.814C388.741 365.142 390.056 364.323 390.22 363.01C390.548 361.698 389.725 360.386 388.413 360.057C385.295 359.401 382.18 358.58 379.063 357.76C377.75 357.268 376.273 358.088 375.945 359.401C375.617 360.713 376.437 362.026 377.749 362.518ZM194.501 207.158C203.688 244.727 239.782 279.834 268.819 304.771C269.804 305.755 271.443 305.592 272.264 304.607C273.084 303.459 273.082 301.982 271.934 301.161C243.716 276.717 208.282 242.594 199.423 206.01C199.095 204.697 197.618 203.877 196.305 204.206C194.993 204.534 194.173 205.846 194.501 207.158ZM192.367 192.065C192.367 193.705 192.533 195.511 192.697 197.152C192.861 198.464 194.172 199.448 195.485 199.284C196.797 199.12 197.783 197.971 197.619 196.658C197.455 195.018 197.289 193.378 197.289 191.901C197.289 190.425 196.141 189.441 194.665 189.441C193.352 189.605 192.367 190.752 192.367 192.065Z" fill="white"/>
<defs>
<radialGradient id="paint0_radial" cx="0" cy="0" r="1" gradientUnits="userSpaceOnUse" gradientTransform="translate(196 143.5) rotate(54.1675) scale(497.082)">
<stop stop-color="#FFE5CB"/>
<stop offset="1" stop-color="#EA9735"/>
<stop offset="1" stop-color="#EA9735"/>
</radialGradient>
<linearGradient id="paint1_linear" x1="333.76" y1="408.608" x2="333.76" y2="-58.2749" gradientUnits="userSpaceOnUse">
<stop stop-color="#FFCE66"/>
<stop offset="1" stop-color="#FF6650"/>
</linearGradient>
</defs>
</svg>
