<svg fill="none" viewBox="0 0 600 600" xmlns="http://www.w3.org/2000/svg"><radialGradient id="a" cx="0" cy="0" gradientTransform="rotate(54.2 -42.3 263.4) scale(497.082)" gradientUnits="userSpaceOnUse" r="1"><stop offset="0" stop-color="#fff1f6"/><stop offset="1" stop-color="#ff007a"/></radialGradient><path d="M300 600a300 300 0 100-600 300 300 0 000 600z" fill="#ffe3ed"/><path d="M300 600a300 300 0 100-600 300 300 0 000 600z" fill="url(#a)" fill-opacity=".3"/><g fill="#ff007a"><path d="M283 261.5c7.2 12.8-9 16.8-16.6 17.5-11.5 1.1-13.9-5.5-11.7-13.9a14.8 14.8 0 0113-11.3 16.2 16.2 0 0115.2 7.7zm45.1-23.7c-8.4 64.7 105 51.3 102.9 102.7a54 54 0 00-17-74.7c-29.3-18.3-67.5-8.3-85.9-28zm65.4-24.3c-.7-.8-1.5-1.4-2.2-2l2.2 2zm26.3 47c-1-2-2.2-3.7-3.5-5.5-3.9-5.2-9.4-8.9-15.6-10.5-4.2-1.1-8.4-1.8-12.6-2l-13.3-.8a125.3 125.3 0 01-33.7-6l-3.2-1.4-3.4-1.6a54 54 0 01-11.6-8.5c-6.9-6.4-12.3-13.7-17.7-20.8a225 225 0 00-16.5-20.5 75.4 75.4 0 00-20.1-15.8c-7.9-4-16.4-6.4-25.2-7.2 9.1-1 18.2.2 26.8 3.3a71.2 71.2 0 0123.2 14.9c4.4 4 8.5 8.5 12.3 13.1 28.5-5.6 51.6-.6 69.3 9l.4.3c5.6 3.1 11 6.8 15.7 11l2.3 2c3.7 3.5 7.2 7.3 10.5 11.2l.2.4c10.6 13.2 15.7 27 15.7 35.5zm0 0z"/><path d="M245 168.2c7.2 1 14.6 4 19.4 9.5a41.7 41.7 0 017.9 19.6c1.1 5.3 2 10.7 4.1 15.7 1 2.5 2.5 4.6 3.7 7 1 1.9 3 3.6 3.6 5.6.2.3.2.7.2 1l-.4.8c-2.5 2.8-9.3-.3-12-1.6a38.7 38.7 0 01-11.7-9 64.2 64.2 0 01-14.8-48.6zm121.3 130c-15.7 43.9 55.3 73.3 28.7 118a56.8 56.8 0 0029-72.7c-10-23.9-39.3-32.6-57.7-45.4zm-94 57.4c4.2-3.2 9-5.9 13.9-7.9 5-2 10.2-3.5 15.5-4.5 10.5-2 21-2.6 29.7-6 4.3-1.8 8.3-4.3 11.8-7.4 3.3-3.1 5.9-7 7.4-11.2 1.6-4.6 2.2-9.4 1.8-14.1a51 51 0 00-3.4-15 34.6 34.6 0 018.8 31.2 32.3 32.3 0 01-8.6 15.5 40 40 0 01-14.7 9.2c-5.3 1.9-10.8 3-16.4 3.4-5.4.4-10.6.6-15.7.8a98.5 98.5 0 00-30.1 6zm100.2 77.2a62.9 62.9 0 01-10.3 6.8c-4 2-8.3 3-12.7 3-12-.3-20.4-9.2-25.3-19.3-3.3-6.8-5.6-14.2-9.6-20.8-5.7-9.3-15.5-16.8-26.8-15.5-4.7.6-9 2.7-11.6 6.8-6.9 10.6 3 25.5 15.4 23.4a11.7 11.7 0 009.6-8c.8-2.3 1-4.7.5-7-.5-2.5-2-4.6-4-6 2.4 1.1 4.2 3.2 5.2 5.6 1 2.5 1.2 5.3.7 8-.5 2.8-1.7 5.4-3.5 7.5-2 2.2-4.5 3.9-7.4 4.8-2.8 1-5.8 1.3-8.8 1-4-.7-8-2.4-11.2-5-4-3-6.7-7-10.3-10.5-4-4.2-8.7-7.6-13.8-10.2a50.6 50.6 0 00-17.1-4.4c-.9 0-5.2-1-5.9-.5 6-5.6 12.7-10.6 19.7-14.8 7.3-4.3 15-7.6 23.1-10 8.4-2.3 17.2-3 25.8-2a47.1 47.1 0 0124.9 10.8 38 38 0 018.2 11.6c1.8 4.1 3.1 8.4 4 12.8 2.5 13 1.6 33.3 18.6 36.3l2.7.4h2.8c2-.1 3.8-.4 5.7-.8 4-1 7.7-2.3 11.4-4zm-99-14.2l-.5-.4zM258.1 234a20 20 0 01-3.2 6.6 25.6 25.6 0 01-10.5 8.2A39.7 39.7 0 01230 252c-2.6 0-5 1-7 2.6-2 1.7-3.5 3.9-4.2 6.4l-.7 3.8c-.4 3.3-.5 6.8-.8 11-1 7-3 13.9-6 20.3-4.1 8.5-8.6 15.5-7.6 25.3.7 6.4 4 10.7 8.2 15.1 7.9 8 25.4 11.7 21.5 31.5-2.4 11.9-21.9 24.3-49.4 28.7 2.8-.5-3.5-11-3.9-11.7-3-4.6-6.1-9-8.5-14-4.6-9.8-6.6-21-4.8-31.7 2-11.3 10.3-19.9 17.2-28.5 8.2-10.2 16.7-23.6 18.7-36.9.4-3.2.7-7.2 1.5-11.2.6-4.5 2-8.7 4-12.7 1.4-2.6 3.3-5 5.5-7a7 7 0 001.3-8.5l-43.8-79.1 62.9 78a7.7 7.7 0 006 2.9 7.8 7.8 0 006-2.7c.8-.9 1.2-2 1.3-3.3 0-1.2-.4-2.4-1-3.3a1231 1231 0 00-12.7-16l-15.9-19.7-31.8-39.2-43.3-54.6 47.4 51 33.9 37.6 16.8 18.8c5.6 6.4 11.2 12.5 16.7 19.2l1 1.1.2 1.8c.1 2.2 0 4.6-.5 7zM281.7 448z"/></g></svg>