<svg viewBox="0 0 600 600" fill="none" xmlns="http://www.w3.org/2000/svg">
<path d="M300 600C465.685 600 600 465.685 600 300C600 134.315 465.685 0 300 0C134.315 0 0 134.315 0 300C0 465.685 134.315 600 300 600Z" fill="url(#paint0_radial)"/>
<path d="M247.073 418.342C247.65 424.489 249.393 430.546 252.003 436.107C253.636 439.691 255.774 442.924 257.915 446.162C258.592 447.185 259.268 448.208 259.929 449.242C259.949 449.279 259.988 449.348 260.044 449.445C260.93 450.994 265.957 459.775 263.556 460.155C289.215 456.046 307.419 444.46 309.635 433.345C312.357 419.645 304.174 414.212 296.75 409.282C294.099 407.522 291.545 405.826 289.618 403.841C285.588 399.732 282.565 395.69 281.894 389.695C281.103 381.934 283.97 376.126 287.14 369.706C287.739 368.493 288.349 367.258 288.947 365.984C291.854 359.982 293.76 353.542 294.589 346.921C294.722 345.372 294.813 343.929 294.899 342.558C295.031 340.471 295.152 338.552 295.395 336.682C295.419 336.469 295.444 336.255 295.472 336.042L247.073 418.342Z" fill="#FF007A"/>
<path d="M301.242 326.231C302.825 325.277 304.612 324.744 306.478 324.692C307.284 324.692 308.157 324.624 308.963 324.49C312.762 324.099 316.478 323.122 319.979 321.593C323.875 319.976 327.301 317.349 329.854 313.981C331.197 312.163 332.205 310.007 332.809 307.784C333.279 305.561 333.414 303.338 333.279 301.25L333.078 299.633L332.205 298.556C329.312 295.052 326.399 291.718 323.476 288.422L318.416 297.027C319.531 298.442 320.637 299.851 321.726 301.25C322.398 302.126 322.733 303.271 322.733 304.416C322.666 305.561 322.263 306.639 321.524 307.515C320.826 308.322 319.957 308.964 318.982 309.395C318.006 309.826 316.948 310.035 315.882 310.007C314.806 309.996 313.745 309.742 312.78 309.264C312.376 309.064 311.993 308.827 311.636 308.556L301.242 326.231Z" fill="#FF007A"/>
<path d="M266.846 232.873L269.576 228.172L269.266 227.826L225 180L265.437 231.127L266.846 232.873Z" fill="#FF007A"/>
<path d="M347.259 247.981L349.605 243.992C355.505 246.959 360.947 250.794 365.723 255.377C369.808 259.237 373.645 263.355 377.209 267.704C403.741 262.45 425.303 267.098 441.827 276.192L442.23 276.394C447.47 279.29 452.44 282.726 456.941 286.7C457.428 287.099 457.886 287.528 458.333 287.948C458.565 288.165 458.794 288.379 459.023 288.586C462.516 291.819 465.807 295.389 468.83 299.094L469.031 299.431C478.906 311.826 483.742 324.759 483.742 332.64L483.675 332.573C482.734 330.754 481.659 329.07 480.383 327.453C476.816 322.589 471.696 319.094 465.874 317.551C461.978 316.541 458.015 315.935 454.052 315.665C450.022 315.396 445.857 315.194 441.693 314.992C433.364 314.52 424.766 313.644 416.437 311.287C414.354 310.68 412.272 310.007 410.257 309.266C409.541 308.996 408.884 308.727 408.227 308.458L408.225 308.457C407.897 308.322 407.57 308.188 407.234 308.053C406.918 307.905 406.595 307.757 406.268 307.607C405.552 307.279 404.815 306.941 404.077 306.571C400.114 304.416 396.487 301.721 393.263 298.623C387.325 293.041 382.584 286.83 377.884 280.675C377.48 280.146 377.076 279.616 376.672 279.088C371.902 272.419 366.797 266.02 361.289 259.957C357.157 255.348 352.43 251.335 347.259 247.981Z" fill="#FF007A"/>
<path d="M327.403 281.745L341.056 258.529C343.713 263.067 344.969 268.319 345.975 273.363C346.178 274.305 346.371 275.251 346.565 276.196C347.395 280.246 348.224 284.291 349.803 288.115C350.409 289.589 351.209 290.952 352.007 292.31C352.448 293.062 352.889 293.813 353.296 294.581C353.699 295.361 354.25 296.103 354.801 296.845C355.536 297.835 356.271 298.825 356.655 299.903C356.789 300.172 356.789 300.509 356.789 300.779L356.771 300.852C356.709 301.107 356.637 301.403 356.453 301.587C354.102 304.214 347.721 301.317 345.303 300.105C341.138 298.017 337.444 295.188 334.354 291.685C331.671 288.695 329.35 285.338 327.403 281.745Z" fill="#FF007A"/>
<path d="M259.997 244.67L258.648 246.993L251.6 234.226L259.997 244.67Z" fill="#FF007A"/>
<path d="M449.003 419.931C437.928 403.631 426.786 387.233 433.699 367.803C438.539 371.164 444.176 374.224 449.986 377.378C464.903 385.475 480.967 394.194 487.638 410.24C498.183 435.703 486.093 467.699 460.568 478.342C473.688 456.26 461.387 438.157 449.003 419.931Z" fill="#FF007A"/>
<path d="M358.938 414.215C354.304 416.101 349.938 418.593 345.975 421.624C355.043 418.324 364.514 416.37 374.119 416.033C375.771 415.94 377.431 415.863 379.105 415.785C382.263 415.638 385.47 415.489 388.762 415.225C393.934 414.888 399.107 413.81 404.01 412.059C409.176 410.234 413.877 407.29 417.78 403.437C421.743 399.463 424.497 394.41 425.773 388.954C426.915 383.767 426.714 378.446 425.303 373.326C423.893 368.207 421.206 363.559 417.579 359.719C419.325 364.165 420.467 368.948 420.803 373.731C421.139 378.176 420.534 382.69 419.056 386.933C417.646 390.908 415.228 394.545 412.138 397.442C408.914 400.406 405.219 402.696 401.189 404.313C395.574 406.574 389.234 407.507 382.645 408.478C379.616 408.923 376.535 409.377 373.447 409.971C368.477 410.914 363.64 412.329 358.938 414.215Z" fill="#FF007A"/>
<path d="M439.542 493.904L439.543 493.903C436.118 495.452 432.625 496.665 428.863 497.675C427.117 498.012 425.37 498.281 423.557 498.416L420.937 498.349C420.131 498.281 419.258 498.147 418.452 498.012C405.373 495.743 403.629 482.517 402.119 471.071C401.791 468.585 401.474 466.182 401.055 463.995C400.248 459.886 399.039 455.911 397.36 452.072C395.479 447.963 392.86 444.325 389.635 441.226C386.344 438.263 382.65 435.905 378.552 434.288C374.724 432.672 370.626 431.594 366.462 431.122C358.401 430.179 350.206 430.785 342.347 433.008C334.824 435.164 327.57 438.263 320.785 442.304C314.203 446.279 308.023 450.926 302.381 456.181C302.832 455.779 305.226 456.201 306.748 456.47C307.267 456.561 307.684 456.635 307.889 456.652C309.702 456.854 311.516 457.124 313.33 457.528C316.957 458.201 320.45 459.279 323.808 460.761C328.65 463.171 333.037 466.408 336.772 470.326C338.047 471.579 339.22 472.901 340.391 474.22C342.243 476.308 344.088 478.386 346.31 480.161C349.349 482.614 352.993 484.197 356.856 484.742C359.61 485.079 362.431 484.742 365.051 483.866C367.69 483.025 370.056 481.49 371.902 479.42C373.582 477.399 374.724 474.974 375.194 472.347C375.664 469.855 375.462 467.228 374.522 464.87C373.649 462.58 371.902 460.694 369.686 459.616C371.634 460.896 372.977 462.917 373.447 465.207C373.918 467.363 373.716 469.653 372.977 471.741C372.238 473.762 371.029 475.581 369.417 476.928C367.856 478.203 365.972 479.02 363.976 479.285C352.356 481.239 343.221 467.295 349.602 457.393C352.02 453.554 356.05 451.6 360.416 451.061C371.029 449.781 380.164 456.787 385.471 465.544C387.703 469.248 389.372 473.248 391.039 477.245C392.131 479.862 393.223 482.479 394.472 485.011C399.039 494.442 406.898 502.795 418.049 502.997C422.146 503.064 426.176 502.121 429.871 500.302C431.617 499.426 433.364 498.483 434.976 497.406C436.587 496.328 438.065 495.116 439.542 493.904Z" fill="#FF007A"/>
<path d="M340.467 349.885C347.587 349.211 362.7 345.506 355.916 333.516C354.438 331.091 352.356 329.07 349.87 327.857C347.318 326.578 344.497 326.039 341.676 326.308C338.787 326.578 336.1 327.79 333.951 329.676C331.802 331.562 330.257 334.055 329.585 336.884C327.503 344.698 329.719 350.962 340.467 349.885Z" fill="#FF007A"/>
<path d="M448.923 366.111C422.038 355.123 393.911 343.626 398.099 311.354C407.068 320.983 421.139 323.003 436.434 325.199C450.349 327.196 465.278 329.34 478.301 337.49C509.065 356.621 504.632 393.804 494.153 407.478C495.094 384.982 472.486 375.742 448.923 366.111Z" fill="#FF007A"/>
<path d="M457.732 287.213C458.21 287.631 458.699 288.059 459.157 288.519C458.821 288.215 458.469 287.896 458.116 287.576L458.107 287.567C457.758 287.25 457.408 286.933 457.075 286.632C457.288 286.825 457.507 287.017 457.73 287.211L457.732 287.213Z" fill="#FF007A"/>
<path d="M86 247.446L198.5 314.735L271.803 270.891L298.03 225.72L198.5 59L86 247.446Z" fill="#6375D1"/>
<path d="M252.688 303.813L188.369 414.594L86 269.029L198.5 336.137L252.688 303.813Z" fill="#6375D1"/>
<path d="M105.5 211C133.48 211 160.315 199.885 180.1 180.1C199.885 160.315 211 133.48 211 105.5C211 77.5197 199.885 50.6853 180.1 30.9002C160.315 11.1151 133.48 0 105.5 0C77.5197 0 50.6853 11.1151 30.9002 30.9002C11.1151 50.6853 0 77.5197 0 105.5C0 133.48 11.1151 160.315 30.9002 180.1C50.6853 199.885 77.5197 211 105.5 211V211Z" fill="url(#paint1_radial)"/>
<path fill-rule="evenodd" clip-rule="evenodd" d="M73.594 39.3409C77.065 39.8348 80.66 41.1932 82.8914 43.9099C85.1227 46.6265 85.9905 49.8371 86.6103 53.1712L86.8582 54.5295C87.3541 56.6288 87.726 58.6046 88.5937 60.5803C88.8417 61.3212 89.3375 61.9386 89.7094 62.6795L90.3292 63.9144L91.073 64.9023L92.0648 66.5076V67.372C90.8251 68.6068 87.4781 67.2485 86.2384 66.6311C84.131 65.5197 82.2716 64.1614 80.66 62.3091C77.9703 59.1642 75.9557 55.5037 74.7404 51.5535C73.5252 47.6033 73.135 43.4471 73.594 39.3409ZM131.237 100.836C127.766 110.592 133.345 118.865 139.047 127.139C145.245 136.277 151.568 145.414 144.874 156.528C151.154 153.661 156.085 148.496 158.647 142.105C161.209 135.714 161.204 128.587 158.634 122.199C155.287 114.049 147.105 109.727 139.543 105.652C136.688 104.156 133.915 102.507 131.237 100.713V100.836ZM86.6103 128.003C88.6258 126.484 90.8352 125.238 93.1804 124.298C95.6597 123.187 98.139 122.57 100.618 122.076L105.329 121.335C108.676 120.841 111.899 120.347 114.75 119.236C116.734 118.371 118.593 117.26 120.329 115.778C121.89 114.305 123.079 112.486 123.8 110.468C124.543 108.245 124.915 106.023 124.667 103.8C124.543 101.33 123.924 98.8606 123.056 96.6379C124.93 98.5704 126.296 100.935 127.031 103.52C127.766 106.105 127.849 108.831 127.271 111.456C126.527 114.173 125.163 116.766 123.18 118.865C121.161 120.763 118.749 122.196 116.114 123.064C113.635 124.052 111.031 124.545 108.428 124.669C105.953 124.896 103.473 125.061 100.99 125.163C96.0316 125.286 91.197 126.274 86.6103 127.88V128.003ZM134.213 164.431C132.681 165.676 131.018 166.753 129.254 167.642C127.395 168.506 125.411 169 123.304 169C117.601 169 113.635 164.678 111.279 159.986L109.544 156.034C108.676 153.935 107.808 151.959 106.693 150.107C103.965 145.661 99.2547 142.204 93.9242 142.698C92.8233 142.814 91.7622 143.174 90.8186 143.751C89.875 144.327 89.0725 145.107 88.4698 146.032C85.2467 150.971 89.8334 158.01 95.7837 157.022C96.8343 156.884 97.8236 156.45 98.6359 155.772C99.4482 155.094 100.05 154.2 100.37 153.194C100.737 152.164 100.822 151.057 100.618 149.983C100.495 149.402 100.256 148.851 99.9153 148.363C99.5747 147.875 99.1393 147.46 98.6349 147.143C99.7578 147.668 100.642 148.593 101.114 149.736C101.61 150.971 101.734 152.206 101.486 153.441C101.238 154.799 100.618 156.034 99.7505 157.145C98.8828 158.133 97.6432 158.874 96.2795 159.368C95.0399 159.739 93.5523 159.986 92.1887 159.739C89.8585 159.434 87.6869 158.395 85.9905 156.775C84.7508 155.787 83.8831 154.799 83.0153 153.564L81.8997 152.577C80.0177 150.559 77.7937 148.887 75.3296 147.637C72.7789 146.518 70.0524 145.85 67.2719 145.661L66.6521 145.538C65.9083 145.414 64.6686 145.167 64.4207 145.414C70.0806 139.839 77.0797 135.8 84.7508 133.683C88.7177 132.572 92.9325 132.202 97.1473 132.695C101.456 133.257 105.506 135.06 108.8 137.882C110.412 139.364 111.775 141.216 112.767 143.315C113.635 145.291 114.254 147.267 114.626 149.366L115.122 152.824C115.99 158.627 116.858 165.295 123.428 166.407L124.667 166.654H126.031C127.023 166.654 127.89 166.53 128.758 166.283C130.618 165.789 132.477 165.172 134.213 164.431ZM79.9162 70.4591C79.6683 71.694 79.0485 72.6818 78.4287 73.6697C77.1252 75.3108 75.4167 76.5872 73.4701 77.3742C71.2778 78.3386 68.9227 78.8833 66.5281 78.9796C65.2943 79.0439 64.1131 79.4973 63.1549 80.2742C62.1968 81.051 61.5113 82.1112 61.1976 83.3015L60.9497 85.0303C60.7933 86.0139 60.6693 87.0023 60.5778 87.9939V90.2167C60.0819 93.5508 59.0902 96.8849 57.6026 99.8485L56.7349 101.701C55.1234 104.911 53.6358 107.875 54.0077 111.827C54.4245 114.611 55.8324 117.153 57.9745 118.989C58.9663 119.977 60.2059 120.841 61.6935 121.705C65.4124 124.175 69.5032 126.892 68.1396 133.807C66.9 139.487 57.7266 145.291 44.5864 147.39C45.826 147.143 43.3467 142.698 42.9748 141.957H42.8509L41.8592 140.352C40.6195 138.623 39.6278 137.017 38.76 135.289C36.6526 130.596 35.6609 125.41 36.5287 120.223C37.3964 115.655 40.2476 112.073 43.2227 108.492L44.7103 106.764C48.5532 101.948 52.6441 95.65 53.5118 89.4758L53.7597 87.8704C53.7597 86.6356 54.0077 85.4007 54.2556 84.1659C54.6275 81.9432 55.2473 79.9674 56.239 77.9917C56.8588 76.7568 57.7266 75.769 58.7183 74.7811C59.3053 74.2986 59.7019 73.6248 59.8381 72.879C59.9742 72.1332 59.841 71.3634 59.4621 70.7061L38.5121 33.4137L68.2636 70.2121C68.6226 70.6496 69.0774 70.9994 69.5931 71.2348C70.1087 71.4702 70.6717 71.5851 71.2387 71.5705C71.7753 71.5818 72.3079 71.4772 72.8001 71.264C73.2922 71.0509 73.7323 70.7342 74.0899 70.3356C74.4618 69.9652 74.5858 69.3477 74.7097 68.7303C74.7097 68.2364 74.4618 67.6189 74.2139 67.2485L68.1396 59.7159L60.7017 50.3311L45.5781 31.8083L25 6L47.4376 30.0795L63.5529 47.8614L73.4701 58.975C75.4535 61.1977 77.5609 63.4205 79.5443 65.8902L79.9162 66.3841V67.125C80.1642 68.3598 79.9162 69.3477 79.7923 70.4591H79.9162ZM91.6928 83.425C95.1639 89.5993 87.4781 91.4515 83.8831 91.6985C78.3047 92.3159 77.189 89.2288 78.3047 85.1538C78.658 83.738 79.4443 82.4666 80.5547 81.5153C81.6651 80.5641 83.0448 79.98 84.5029 79.8439C85.9287 79.734 87.357 80.0225 88.6271 80.6769C89.8973 81.3314 90.959 82.3258 91.6928 83.5485V83.425ZM113.139 72.3114C111.031 88.6114 125.287 94.4152 139.047 99.972C150.948 104.788 162.477 109.48 161.981 120.841C163.802 118.002 165.04 114.83 165.621 111.511C166.201 108.191 166.115 104.79 165.365 101.504C164.615 98.2186 163.218 95.1139 161.254 92.3707C159.289 89.6274 156.798 87.3002 153.923 85.5242C147.331 81.9946 140.065 79.8907 132.601 79.35C124.915 78.1151 117.725 77.1273 113.139 72.3114ZM143.51 60.0863L143.138 59.8394L143.634 60.3333L144.254 60.7038L143.51 60.0863ZM156.65 83.0545C156.154 82.0667 155.659 81.2023 155.039 80.4613C153.179 77.9917 150.576 76.1394 147.601 75.522C145.617 74.9045 143.634 74.5341 141.651 74.4106L135.328 74.1637C129.535 73.8776 123.814 72.7545 118.345 70.8295L117.725 70.5826L116.238 69.8417C114.13 68.8538 112.271 67.372 110.659 65.8902C107.684 63.05 105.205 59.9629 102.85 56.7523L102.23 56.0114C99.7505 52.6773 97.2713 49.4667 94.4201 46.3796C88.9007 40.1959 81.2417 36.315 72.9742 35.5129C77.189 35.0189 81.6517 35.5129 85.6186 36.9947C89.7094 38.6 93.4284 41.0697 96.7754 44.0333C98.7588 46.0091 100.742 48.1083 102.478 50.2076C113.594 47.6828 125.251 49.2164 135.328 54.5295H135.576C138.532 56.1719 141.279 58.1619 143.758 60.4568L144.13 60.8273C145.865 62.4326 147.601 64.2849 149.088 66.1371L149.212 66.2606C154.171 72.4348 156.65 79.103 156.65 83.0545Z" fill="#FF007A"/>
<defs>
<radialGradient id="paint0_radial" cx="0" cy="0" r="1" gradientUnits="userSpaceOnUse" gradientTransform="translate(196.078 143.63) rotate(54.2) scale(497.082)">
<stop stop-color="#FEF1F7"/>
<stop offset="1" stop-color="#FFA5CF"/>
</radialGradient>
<radialGradient id="paint1_radial" cx="0" cy="0" r="1" gradientUnits="userSpaceOnUse" gradientTransform="translate(68.9541 50.5099) rotate(54.2) scale(174.807)">
<stop stop-color="#FEF1F7"/>
<stop offset="1" stop-color="#FFA5CF"/>
</radialGradient>
</defs>
</svg>
