<svg width="600" height="600" viewBox="0 0 600 600" fill="none" xmlns="http://www.w3.org/2000/svg">
<path d="M300 600C465.685 600 600 465.685 600 300C600 134.315 465.685 0 300 0C134.315 0 0 134.315 0 300C0 465.685 134.315 600 300 600Z" fill="url(#paint0_radial_440_40)"/>
<path d="M273.528 99H325.472V279.674H273.528V99Z" fill="white"/>
<path d="M273.528 320.326H325.472V501H273.528V320.326Z" fill="white"/>
<path d="M325.472 390.337V433.247H169.64V390.337H325.472Z" fill="white"/>
<path d="M429.36 166.753V209.663H273.528V166.753H429.36Z" fill="white"/>
<path d="M236.264 166.753C195.727 166.753 162.865 199.615 162.865 240.152V246.927C162.865 287.464 195.727 320.326 236.264 320.326H273.528V279.674L250.944 279.674C230.987 279.674 214.809 263.496 214.809 243.539C214.809 223.583 230.987 207.404 250.944 207.404H273.528L273.528 166.753H236.264Z" fill="white"/>
<path d="M362.736 433.247C403.273 433.247 436.135 400.385 436.135 359.848V353.073C436.135 312.536 403.273 279.674 362.736 279.674H325.472V320.326L348.056 320.326C368.013 320.326 384.191 336.504 384.191 356.461C384.191 376.417 368.013 392.596 348.056 392.596H325.472V433.247H362.736Z" fill="white"/>
<defs>
<radialGradient id="paint0_radial_440_40" cx="0" cy="0" r="1" gradientUnits="userSpaceOnUse" gradientTransform="translate(196 143.5) rotate(54.1675) scale(497.082)">
<stop stop-color="#8BD337"/>
<stop offset="0.555208" stop-color="#009E4E"/>
<stop offset="1" stop-color="#00522C"/>
</radialGradient>
</defs>
</svg>
