<svg viewBox="0 0 600 600" fill="none" xmlns="http://www.w3.org/2000/svg">
<g clip-path="url(#clip0_611_230)">
<path d="M300 600C465.685 600 600 465.685 600 300C600 134.315 465.685 0 300 0C134.315 0 0 134.315 0 300C0 465.685 134.315 600 300 600Z" fill="url(#paint0_radial_611_230)"/>
<path d="M194.388 423V300.302L247.153 330.977V392.326L194.388 423Z" fill="#2BBDF7"/>
<path d="M141.623 208.278L299.926 300.302V361.651L194.388 300.302V423L141.623 392.325V208.278Z" fill="#2891F9"/>
<path d="M352.691 208.278V392.325L405.456 423V238.953L352.691 208.278Z" fill="#2891F9"/>
<path d="M299.926 300.302L352.691 269.628V330.977L299.926 361.651V300.302Z" fill="#2BBDF7"/>
<path d="M458.23 208.278L405.456 238.953V423L458.23 392.325V208.278Z" fill="#2BBDF7"/>
<path d="M141.623 208.278L194.388 177.604L352.691 269.627L299.926 300.302L141.623 208.278Z" fill="#2B6DEF"/>
<path d="M405.456 177.604L458.23 208.278L405.456 238.953L352.691 208.278L405.456 177.604Z" fill="#2B6DEF"/>
<path d="M30.5 436H567L554 460L529.5 494.5L486.5 536H113.5L91 515L68.5 489.5L49.5 467L30.5 436Z" fill="white"/>
<path d="M202.087 464.2L187.431 509H176.295L166.439 478.664L156.263 509H145.191L130.471 464.2H141.223L151.335 495.688L161.895 464.2H171.495L181.735 495.944L192.167 464.2H202.087ZM236.419 509L227.779 496.52H227.267H218.243V509H207.875V464.2H227.267C231.235 464.2 234.669 464.861 237.571 466.184C240.515 467.507 242.776 469.384 244.355 471.816C245.933 474.248 246.723 477.128 246.723 480.456C246.723 483.784 245.912 486.664 244.291 489.096C242.712 491.485 240.451 493.32 237.507 494.6L247.555 509H236.419ZM236.227 480.456C236.227 477.939 235.416 476.019 233.795 474.696C232.173 473.331 229.805 472.648 226.691 472.648H218.243V488.264H226.691C229.805 488.264 232.173 487.581 233.795 486.216C235.416 484.851 236.227 482.931 236.227 480.456ZM284.441 499.4H263.641L259.673 509H249.049L269.017 464.2H279.257L299.289 509H288.409L284.441 499.4ZM281.177 491.528L274.073 474.376L266.969 491.528H281.177ZM323.329 464.2C327.297 464.2 330.732 464.861 333.633 466.184C336.577 467.507 338.838 469.384 340.417 471.816C341.996 474.248 342.785 477.128 342.785 480.456C342.785 483.741 341.996 486.621 340.417 489.096C338.838 491.528 336.577 493.405 333.633 494.728C330.732 496.008 327.297 496.648 323.329 496.648H314.305V509H303.937V464.2H323.329ZM322.753 488.2C325.868 488.2 328.236 487.539 329.857 486.216C331.478 484.851 332.289 482.931 332.289 480.456C332.289 477.939 331.478 476.019 329.857 474.696C328.236 473.331 325.868 472.648 322.753 472.648H314.305V488.2H322.753ZM369.579 464.2C373.547 464.2 376.982 464.861 379.883 466.184C382.827 467.507 385.088 469.384 386.667 471.816C388.246 474.248 389.035 477.128 389.035 480.456C389.035 483.741 388.246 486.621 386.667 489.096C385.088 491.528 382.827 493.405 379.883 494.728C376.982 496.008 373.547 496.648 369.579 496.648H360.555V509H350.187V464.2H369.579ZM369.003 488.2C372.118 488.2 374.486 487.539 376.107 486.216C377.728 484.851 378.539 482.931 378.539 480.456C378.539 477.939 377.728 476.019 376.107 474.696C374.486 473.331 372.118 472.648 369.003 472.648H360.555V488.2H369.003ZM431.125 500.68V509H396.437V464.2H430.293V472.52H406.741V482.248H427.541V490.312H406.741V500.68H431.125ZM439.375 464.2H459.727C464.591 464.2 468.879 465.139 472.591 467.016C476.345 468.851 479.247 471.453 481.295 474.824C483.385 478.195 484.431 482.12 484.431 486.6C484.431 491.08 483.385 495.005 481.295 498.376C479.247 501.747 476.345 504.371 472.591 506.248C468.879 508.083 464.591 509 459.727 509H439.375V464.2ZM459.215 500.488C463.695 500.488 467.257 499.251 469.903 496.776C472.591 494.259 473.935 490.867 473.935 486.6C473.935 482.333 472.591 478.963 469.903 476.488C467.257 473.971 463.695 472.712 459.215 472.712H449.743V500.488H459.215Z" fill="#2891F9"/>
</g>
<defs>
<radialGradient id="paint0_radial_611_230" cx="0" cy="0" r="1" gradientUnits="userSpaceOnUse" gradientTransform="translate(196 143.5) rotate(54.1675) scale(497.082)">
<stop stop-color="#EFF5FF"/>
<stop offset="1" stop-color="#C2D4F8"/>
</radialGradient>
<clipPath id="clip0_611_230">
<rect width="600" height="600" fill="white"/>
</clipPath>
</defs>
</svg>
