<svg fill="none" viewBox="0 0 600 600" xmlns="http://www.w3.org/2000/svg"><radialGradient id="a" cx="0" cy="0" gradientTransform="rotate(54.2 -42.3 263.4) scale(497.082)" gradientUnits="userSpaceOnUse" r="1"><stop offset="0" stop-color="#ddf0ff"/><stop offset="1" stop-color="#007bf6"/></radialGradient><path d="M300 600a300 300 0 100-600 300 300 0 000 600z" fill="#bbe1ff"/><path d="M300 600a300 300 0 100-600 300 300 0 000 600z" fill="url(#a)" fill-opacity=".3"/><path d="M389.8 232.2l37-13.2 8.6 25.7-86.5 33-27.7-89.7 25.7-8 14.5 43.6a75.7 75.7 0 00-10.4-80.2 74.7 74.7 0 00-51.9-24c-5.7.1-33.8 1-54.8 23.4a76.2 76.2 0 00-14.2 79.4 80 80 0 0041.6 42.5v33a115 115 0 01-56.8-42.6 114.8 114.8 0 01-20.6-63.8 98.6 98.6 0 0129.4-69c7.6-8 35.1-34 76.7-32.5 49.4 1.8 76.6 41 79.6 45.5 29.7 44.3 11.6 92.6 9.8 97zM236 374.1l5 44.1 28-3.1-10.7-94.9-93.2 19.6 3.6 27.7 39.6-6.7c-20 33.9-19 76 2.7 107.3 29 42 79.3 42 83.3 41.9 6.8 0 49.8-.1 78.9-33.8a99.3 99.3 0 0023.1-58 114 114 0 00-15.1-65.4 115.2 115.2 0 00-54.8-47.7v36.1a73 73 0 0129.3 27.6 74.8 74.8 0 019.5 46.8 71.8 71.8 0 01-17 42.3 71.9 71.9 0 01-51.3 22.8c-2.4 0-39.7-.3-60.2-32.1a71.6 71.6 0 01-.7-74.5zm49.1-205.7H315v263.3H285z" fill="#007bf6"/></svg>