<svg fill="none" viewBox="0 0 600 600" xmlns="http://www.w3.org/2000/svg"><radialGradient id="b" cx="0" cy="0" gradientTransform="rotate(54.2 -42.3 263.4) scale(497.082)" gradientUnits="userSpaceOnUse" r="1"><stop offset="0" stop-color="#fff"/><stop offset="1" stop-color="#49c1bf"/></radialGradient><clipPath id="a"><path d="M0 0h600v600H0z"/></clipPath><g clip-path="url(#a)"><path d="M300 600a300 300 0 100-600 300 300 0 000 600z" fill="#fff"/><path d="M300 600a300 300 0 100-600 300 300 0 000 600z" fill="url(#b)" fill-opacity=".3"/><path d="M367 243.3L151 133.6v60.1l148.6 75.5L151 345.8V406l216 109.7v-60.1l-145.9-74 146-78z" fill="#49c1bf"/><path d="M367 243.6l56.1-26.5v59.5l-56 26.4zm0 272l56.1-26.3V305.6l-56 26.3z" fill="#298e97"/><path d="M207.5 107.6l-56.5 26 .8.5L367 243.6l56.1-26.5z" fill="#077a8f"/></g></svg>