<svg fill="none" viewBox="0 0 600 600" xmlns="http://www.w3.org/2000/svg"><radialGradient id="a" cx="0" cy="0" gradientTransform="rotate(54.2 -42.3 263.4) scale(497.082)" gradientUnits="userSpaceOnUse" r="1"><stop offset="0" stop-color="#ebebeb"/><stop offset="1" stop-color="#3c3c3e"/></radialGradient><path d="M300 599.9A300 300 0 10300 0a300 300 0 000 599.9z" fill="#434343"/><path d="M300 600a300 300 0 100-600 300 300 0 000 600z" fill="#c4c4c4"/><path d="M300 600a300 300 0 100-600 300 300 0 000 600z" fill="url(#a)" fill-opacity=".3"/><path d="M116.3 288.5c2-10.3 3.5-20.6 5.8-30.7 3.6-16.9 10-32.7 19-48 25 32.9 49.7 65 74.1 97.4 8.3 11 8.2 11-1.3 20.8-5.7 5.8-11.2 11.8-17.2 17.4-3.4 3.2-3.6 6-1.5 10a125 125 0 0035 40.2l5.7 4.4-28.8 22c-6.4 5-13 9.7-19.5 14.6-3.4 2.7-6.3 3.3-10 0a181.7 181.7 0 01-55.8-95.3c-2-9.4-3.8-19-5.6-28.4v-24.4zm195.2-172.2c10.3 2 20.6 3.5 30.7 5.7a166 166 0 0149.4 19.5l-111.5 80c-8.2-8-16.6-15.7-24.4-24-3.8-4-7-4.2-11.7-1.5-17.3 9.7-31.4 23-43.4 40.1l-6.5-8c-10.1-13.5-20.2-27.2-30.6-40.6-2.8-3.6-3-6.1.3-9.7 30.3-33.1 68-52.5 112.2-59.5l12.5-1.9h23zM209.4 458.5L320 375.8c8 8.7 16.3 17.1 23.6 26 4.5 5.4 8.5 5 14 1.8a125.5 125.5 0 0042.2-39.5c6 7.7 11.6 14.9 17 22.2 6.4 8.3 12.4 17 19 25.1 4.2 5.3 3.2 8.7-1.2 13.3a185.4 185.4 0 01-105.8 56.5c-41 6.8-79.6-.7-116.1-20-1-.5-1.8-1.5-3.4-2.7zM364 200c17.3-13 33.8-25 50.2-37.6 3.9-3 6-.7 8.5 1.5a184.4 184.4 0 0160.6 145.7 176.7 176.7 0 01-23.6 79.9l-21-27.7c-19.1-25-38-50.3-57.2-75.2-2.6-3.6-3-5.7.5-9 7.4-7 14.1-14.8 21.5-22 3.5-3.5 3.6-6.4 1.4-10.7-8.6-15.8-20-29-34.3-39.8l-6.6-5" fill="#434343"/></svg>