<svg viewBox="0 0 80 80" fill="none" xmlns="http://www.w3.org/2000/svg"><rect width="80" height="80" rx="40" fill="#E5F5F2" /><path d="M61.63 27.633v23.002s.127 2.505-1.92 2.505c-2.047 0-1.642-2.468-1.642-2.468v-18.93s.18-2.092-.825-1.095c-1.006.998-11.498 7.95-11.498 7.95s-1.095.503-1.095 2.19v10.696s.337 1.92-1.642 1.92c0 0-1.373.022-1.373-1.096V39.694s-.165-1.373 1.373-2.468C44.544 36.13 59.162 26.26 59.162 26.26s2.34-1.02 2.468 1.372zM38.357 52.306v-12.06s0-1.605-1.372-2.467L20.56 26.26s-1.92-.833-2.19 1.095v24.683s-.045 1.342 1.095 1.642c0 0 1.92.638 1.92-1.92V32.02s-.248-1.508 1.095-.548S34.255 39.7 34.255 39.7s.825.33.825 1.372v11.243s-.112 1.657 1.642 1.643c1.748-.015 1.636-1.65 1.636-1.65z" fill="#4FA89A"/></svg>