<svg  viewBox="0 0 40 40" fill="none" xmlns="http://www.w3.org/2000/svg">
<rect width="40" height="40" fill="#8247E5"/>
<path d="M24.1203 12.3894C23.9506 12.2935 23.7596 12.2432 23.5653 12.2432C23.371 12.2432 23.18 12.2935 23.0103 12.3894L20.4639 13.8853L18.7344 14.8613L16.1879 16.3572C16.0183 16.4531 15.8272 16.5035 15.6329 16.5035C15.4387 16.5035 15.2476 16.4531 15.078 16.3572L13.0539 15.1866C12.8892 15.091 12.7517 14.954 12.6545 14.7888C12.5573 14.6237 12.5037 14.4359 12.4989 14.2437V11.9364C12.4967 11.7427 12.5473 11.5521 12.6452 11.3858C12.7432 11.2194 12.8846 11.0836 13.0539 10.9935L15.0453 9.85523C15.215 9.75932 15.406 9.70896 15.6003 9.70896C15.7946 9.70896 15.9856 9.75932 16.1553 9.85523L18.1467 10.9935C18.3115 11.0891 18.4491 11.226 18.5463 11.3912C18.6435 11.5564 18.697 11.7442 18.7017 11.9364V13.4316L20.4312 12.424V10.9281C20.4335 10.7344 20.3829 10.5438 20.285 10.3774C20.187 10.211 20.0456 10.0753 19.8762 9.98521L16.1879 7.83864C16.0183 7.74273 15.8272 7.69238 15.6329 7.69238C15.4387 7.69238 15.2476 7.74273 15.078 7.83864L11.3244 9.98521C11.1551 10.0753 11.0137 10.2111 10.9157 10.3775C10.8178 10.5439 10.7671 10.7344 10.7694 10.9281V15.2536C10.7671 15.4473 10.8178 15.6378 10.9157 15.8042C11.0137 15.9706 11.1551 16.1064 11.3244 16.1965L15.078 18.343C15.2476 18.439 15.4387 18.4893 15.6329 18.4893C15.8272 18.4893 16.0183 18.439 16.1879 18.343L18.7344 16.8817L20.4639 15.8735L23.0103 14.4122C23.18 14.3162 23.371 14.2659 23.5653 14.2659C23.7596 14.2659 23.9506 14.3162 24.1203 14.4122L26.1117 15.5504C26.2763 15.6461 26.4138 15.7831 26.5109 15.9483C26.608 16.1134 26.6614 16.3012 26.666 16.4934V18.8007C26.6683 18.9943 26.6177 19.1848 26.5199 19.3512C26.4221 19.5176 26.2809 19.6534 26.1117 19.7436L24.1203 20.9141C23.9506 21.0101 23.7596 21.0604 23.5653 21.0604C23.371 21.0604 23.18 21.0101 23.0103 20.9141L21.0189 19.7759C20.8542 19.6802 20.7167 19.5432 20.6195 19.378C20.5223 19.2129 20.4687 19.0252 20.4639 18.833V17.3371L18.7344 18.3453V19.8413C18.732 20.035 18.7827 20.2256 18.8806 20.392C18.9785 20.5584 19.12 20.6941 19.2894 20.7842L23.043 22.9307C23.2126 23.0266 23.4037 23.077 23.5979 23.077C23.7922 23.077 23.9833 23.0266 24.1529 22.9307L27.9065 20.7842C28.0713 20.6886 28.2089 20.5516 28.3061 20.3864C28.4033 20.2213 28.4569 20.0335 28.4615 19.8413V15.5081C28.4638 15.3144 28.4131 15.1239 28.3152 14.9575C28.2172 14.7911 28.0758 14.6553 27.9065 14.5652L24.1203 12.3894Z" fill="white"/>
<path d="M7.96584 28.3525V29.8205H6.9231V25.4927H8.6495C8.95254 25.4865 9.25306 25.549 9.52859 25.6753C9.77224 25.7873 9.97788 25.9681 10.1203 26.1953C10.2615 26.4254 10.3342 26.6909 10.3299 26.9608C10.3376 27.1533 10.3007 27.345 10.2221 27.521C10.1435 27.6969 10.0253 27.8523 9.87685 27.9751C9.52052 28.2452 9.07963 28.3794 8.63327 28.3538L7.96584 28.3525ZM7.96584 27.5471H8.6495C8.81732 27.5588 8.98308 27.5044 9.11136 27.3956C9.16662 27.3395 9.2095 27.2724 9.23722 27.1986C9.26494 27.1249 9.2769 27.0462 9.2723 26.9676C9.28114 26.7912 9.22265 26.6182 9.10865 26.4834C9.05196 26.4225 8.9828 26.3746 8.9059 26.3428C8.829 26.3111 8.74616 26.2963 8.66302 26.2994H7.96786L7.96584 27.5471ZM14.5482 27.7459C14.5559 28.1323 14.4756 28.5155 14.3136 28.8664C14.1701 29.1772 13.9378 29.4386 13.6461 29.6177C13.3487 29.7956 13.0074 29.8867 12.6609 29.8807C12.3169 29.8871 11.9778 29.7991 11.6803 29.6265C11.3922 29.4542 11.1603 29.2019 11.0129 28.9002C10.8485 28.5632 10.7627 28.1932 10.762 27.8182V27.5748C10.7541 27.188 10.8339 26.8045 10.9953 26.4529C11.1391 26.1421 11.3718 25.8808 11.6641 25.7023C11.9625 25.5227 12.3052 25.43 12.6534 25.4346C12.9983 25.4288 13.3378 25.5194 13.634 25.6963C13.9252 25.8737 14.1587 26.1319 14.3061 26.4394C14.4705 26.7852 14.5529 27.1643 14.5469 27.5471L14.5482 27.7459ZM13.4872 27.5647C13.5084 27.2245 13.4337 26.8852 13.2715 26.5855C13.2077 26.4796 13.1168 26.3928 13.0081 26.3341C12.8994 26.2753 12.7769 26.2468 12.6534 26.2514C12.1305 26.2514 11.8541 26.6436 11.8244 27.4281V27.7459C11.8047 28.0849 11.8776 28.423 12.0354 28.7237C12.0988 28.8324 12.1907 28.9217 12.3012 28.9819C12.4117 29.0421 12.5365 29.0709 12.6622 29.0652C12.7847 29.0687 12.9058 29.0392 13.0129 28.9797C13.12 28.9202 13.2091 28.8329 13.2708 28.7271C13.431 28.4314 13.5061 28.0972 13.4879 27.7614L13.4872 27.5647ZM16.1292 29.0179H17.9449V29.8205H15.0878V25.4927H16.1292V29.0179ZM19.1398 27.3713L19.9357 25.4927H21.0623L19.6686 28.2652V29.8205H18.6103V28.2652L17.22 25.4927H18.3405L19.1398 27.3713ZM24.8336 29.285C24.6384 29.4853 24.3961 29.6336 24.129 29.7164C23.8026 29.8282 23.4596 29.8835 23.1146 29.8801C22.8643 29.8921 22.6142 29.8521 22.3802 29.7626C22.1461 29.6731 21.9331 29.536 21.7547 29.36C21.3975 28.9637 21.2042 28.4464 21.2138 27.9129V27.5383C21.2051 27.1542 21.2823 26.773 21.4396 26.4225C21.5757 26.1197 21.7986 25.8642 22.08 25.6881C22.3739 25.513 22.7111 25.424 23.0531 25.4312C23.5021 25.4033 23.9466 25.5342 24.3088 25.8011C24.4652 25.9409 24.5919 26.1107 24.6815 26.3003C24.771 26.49 24.8216 26.6958 24.8302 26.9053H23.826C23.8126 26.7108 23.7304 26.5274 23.5941 26.388C23.4497 26.2779 23.2701 26.224 23.0889 26.2366C22.967 26.2323 22.8461 26.261 22.739 26.3195C22.632 26.3781 22.5426 26.4643 22.4803 26.5693C22.3207 26.8597 22.2455 27.1891 22.2633 27.52V27.7817C22.2417 28.1201 22.3195 28.4574 22.4871 28.7521C22.5656 28.8616 22.671 28.949 22.7931 29.0059C22.9152 29.0627 23.05 29.0871 23.1843 29.0767C23.4026 29.0942 23.6197 29.0296 23.7929 28.8955V28.2247H23.0673V27.5085H24.8329L24.8336 29.285ZM29.1039 27.7459C29.1116 28.1323 29.0314 28.5155 28.8693 28.8664C28.7258 29.1772 28.4936 29.4386 28.2019 29.6177C27.9044 29.7956 27.5631 29.8867 27.2166 29.8807C26.8727 29.8871 26.5336 29.7991 26.2361 29.6265C25.9481 29.4539 25.7164 29.2014 25.5693 28.8995C25.4049 28.5625 25.3191 28.1926 25.3184 27.8176V27.5741C25.3105 27.1874 25.3903 26.8038 25.5517 26.4523C25.6943 26.1392 25.9269 25.8758 26.2198 25.6956C26.5192 25.5168 26.8626 25.4252 27.2112 25.4312C27.556 25.4254 27.8956 25.5161 28.1917 25.6929C28.4825 25.8716 28.715 26.131 28.8612 26.4394C29.0259 26.7849 29.1088 27.1637 29.1033 27.5464L29.1039 27.7459ZM28.043 27.5647C28.0642 27.2245 27.9894 26.8852 27.8272 26.5855C27.7636 26.4798 27.6728 26.3932 27.5644 26.3344C27.456 26.2757 27.3338 26.247 27.2105 26.2514C26.6876 26.2514 26.4112 26.6436 26.3815 27.4281V27.7459C26.3618 28.0849 26.4347 28.423 26.5925 28.7237C26.6559 28.8324 26.7478 28.9217 26.8583 28.9819C26.9688 29.0421 27.0936 29.0709 27.2193 29.0652C27.3418 29.0687 27.4629 29.0392 27.57 28.9797C27.6771 28.9202 27.7662 28.8329 27.8279 28.7271C27.9881 28.4314 28.0632 28.0972 28.045 27.7614L28.043 27.5647ZM33.2553 29.8205H32.218L30.6843 27.1285V29.8205H29.6415V25.4927H30.6843L32.2146 28.1848V25.4927H33.2546L33.2553 29.8205Z" fill="white"/>
</svg>
