<svg width="20" height="20" viewBox="0 0 20 20" fill="none" xmlns="http://www.w3.org/2000/svg">
<g clip-path="url(#clip0_1_256)">
<path d="M5.81087 11.421C6.37292 11.421 6.91619 11.3847 7.43029 11.3171V5.6822C6.91624 5.61467 6.37292 5.57837 5.81087 5.57837C2.60166 5.57837 7.62939e-05 6.7583 7.62939e-05 8.21388V8.78544C7.62939e-05 10.241 2.60166 11.421 5.81087 11.421Z" fill="#9FB0C9"/>
<path d="M5.81087 14.3631C6.37292 14.3631 6.91619 14.3268 7.43029 14.2593V12.6076C6.91609 12.6751 6.37307 12.7119 5.81087 12.7119C3.00958 12.7119 0.671489 11.8128 0.122287 10.6162C0.0423073 10.7905 7.62939e-05 10.971 7.62939e-05 11.156V11.7276C7.62939e-05 13.1831 2.60166 14.3631 5.81087 14.3631Z" fill="#9FB0C9"/>
<path d="M7.43021 15.6784V15.55C6.91602 15.6175 6.37299 15.6543 5.81079 15.6543C3.0095 15.6543 0.671413 14.7552 0.122211 13.5586C0.042231 13.7328 0 13.9133 0 14.0983V14.6699C0 16.1255 2.60159 17.3055 5.81079 17.3055C6.45257 17.3055 7.06985 17.2581 7.64709 17.171C7.50401 16.8783 7.43021 16.5697 7.43021 16.2499V15.6784Z" fill="#9FB0C9"/>
<path d="M14.1895 1.1145C10.9803 1.1145 8.37874 2.29443 8.37874 3.75001V4.32157C8.37874 5.77715 10.9803 6.95708 14.1895 6.95708C17.3987 6.95708 20.0003 5.77715 20.0003 4.32157V3.75001C20.0003 2.29443 17.3987 1.1145 14.1895 1.1145Z" fill="#9FB0C9"/>
<path d="M14.1895 8.2483C11.3882 8.2483 9.05015 7.34925 8.50095 6.15259C8.42097 6.32684 8.37874 6.50732 8.37874 6.69238V7.26394C8.37874 8.71952 10.9803 9.89945 14.1895 9.89945C17.3987 9.89945 20.0003 8.71952 20.0003 7.26394V6.69238C20.0003 6.50732 19.9581 6.32684 19.8781 6.15259C19.3289 7.34925 16.9908 8.2483 14.1895 8.2483Z" fill="#9FB0C9"/>
<path d="M14.1895 11.1907C11.3882 11.1907 9.05015 10.2916 8.50095 9.09497C8.42097 9.26922 8.37874 9.4497 8.37874 9.63476V10.2063C8.37874 11.662 10.9803 12.8419 14.1895 12.8419C17.3987 12.8419 20.0003 11.662 20.0003 10.2063V9.63476C20.0003 9.4497 19.9581 9.26922 19.8781 9.09497C19.3289 10.2916 16.9908 11.1907 14.1895 11.1907Z" fill="#9FB0C9"/>
<path d="M14.1895 14.2918C11.3882 14.2918 9.05015 13.3927 8.50095 12.196C8.42097 12.3703 8.37874 12.5508 8.37874 12.7358V13.3074C8.37874 14.763 10.9803 15.9429 14.1895 15.9429C17.3987 15.9429 20.0003 14.763 20.0003 13.3074V12.7358C20.0003 12.5508 19.9581 12.3702 19.8781 12.196C19.3289 13.3926 16.9908 14.2918 14.1895 14.2918Z" fill="#9FB0C9"/>
<path d="M14.1895 17.2344C11.3882 17.2344 9.05015 16.3353 8.50095 15.1387C8.42097 15.313 8.37874 15.4936 8.37874 15.6785V16.25C8.37874 17.7056 10.9803 18.8855 14.1895 18.8855C17.3987 18.8855 20.0003 17.7056 20.0003 16.25V15.6784C20.0003 15.4934 19.9581 15.3129 19.8781 15.1387C19.3289 16.3353 16.9908 17.2344 14.1895 17.2344Z" fill="#9FB0C9"/>
</g>
<defs>
<clipPath id="clip0_1_256">
<rect width="20" height="20" fill="white"/>
</clipPath>
</defs>
</svg>
