<svg width="16" height="16" viewBox="0 0 16 16" fill="none" xmlns="http://www.w3.org/2000/svg">
<path d="M8 0C3.589 0 0 3.589 0 8C0 12.411 3.589 16 8 16C12.411 16 16 12.411 16 8C16 3.589 12.411 0 8 0ZM8 14.546C6.26464 14.5439 4.60097 13.8535 3.37397 12.6263C2.14698 11.3991 1.45685 9.73536 1.455 8C1.45712 6.26481 2.14736 4.60129 3.37432 3.37432C4.60129 2.14736 6.26481 1.45712 8 1.455C9.73536 1.45685 11.3991 2.14698 12.6263 3.37397C13.8535 4.60097 14.5439 6.26464 14.546 8C14.5441 9.73554 13.8539 11.3995 12.6267 12.6267C11.3995 13.8539 9.73554 14.5441 8 14.546Z" fill="#9FB0C9"/>
<path d="M9.01891 7.60273L7.33141 7.04727C7.1361 6.98398 7.00016 6.77832 7.00016 6.5498C7.00016 6.26328 7.20641 6.03125 7.4611 6.03125H8.49704C8.68766 6.03125 8.87516 6.09629 9.03141 6.21582C9.12673 6.28789 9.25485 6.27031 9.3361 6.18066L9.87985 5.58301C9.99079 5.46172 9.97516 5.25957 9.85173 5.15234C9.46891 4.81484 8.99079 4.62676 8.50016 4.625V3.78125C8.50016 3.62656 8.38766 3.5 8.25016 3.5H7.75016C7.61266 3.5 7.50016 3.62656 7.50016 3.78125V4.625H7.4611C6.46579 4.625 5.66579 5.58652 5.75798 6.72734C5.8236 7.5377 6.3736 8.19688 7.06735 8.42539L8.66891 8.95273C8.86423 9.01777 9.00016 9.22168 9.00016 9.4502C9.00016 9.73672 8.79391 9.96875 8.53923 9.96875H7.50329C7.31266 9.96875 7.12516 9.90371 6.96891 9.78418C6.8736 9.71211 6.74548 9.72969 6.66423 9.81934L6.12048 10.417C6.00954 10.5383 6.02516 10.7404 6.1486 10.8477C6.53141 11.1852 7.00954 11.3732 7.50016 11.375V12.2188C7.50016 12.3734 7.61266 12.5 7.75016 12.5H8.25016C8.38766 12.5 8.50016 12.3734 8.50016 12.2188V11.3715C9.22829 11.3557 9.9111 10.8688 10.1517 10.0936C10.4877 9.01074 9.9236 7.8998 9.01891 7.60273Z" fill="#9FB0C9"/>
</svg>
