<svg width="27" height="27" viewBox="0 0 27 27" fill="none" xmlns="http://www.w3.org/2000/svg">
<path d="M9.97372 13.6552C10.8201 12.8088 11.3562 11.6239 11.3562 10.2978C11.3562 9.81821 11.2151 9.28216 10.9894 8.7179C10.7355 8.12542 10.3969 7.53295 10.0019 6.91226C10.0019 6.88405 9.97372 6.88405 9.97372 6.85583C9.15554 5.61445 8.08344 4.40129 7.18061 3.3574L6.61635 2.7085L6.05209 3.3574C4.30287 5.38875 1.87654 8.18185 1.87654 10.2978C1.87654 11.5956 2.41259 12.7806 3.25898 13.6552C4.10538 14.5016 5.29033 15.0377 6.61635 15.0377C7.91416 15.0377 9.09911 14.5016 9.97372 13.6552Z" fill="white"/>
<path d="M22.6421 0.169279L22.5011 0L22.36 0.169279C21.3161 1.38245 19.8773 3.04702 19.8773 4.23198C19.8773 4.96552 20.1594 5.61442 20.639 6.09404C21.1186 6.57367 21.7675 6.8558 22.5011 6.8558C23.2346 6.8558 23.8835 6.57367 24.3631 6.09404C24.8428 5.61442 25.1249 4.96552 25.1249 4.23198C25.1249 3.04702 23.686 1.38245 22.6421 0.169279Z" fill="white"/>
<path fill-rule="evenodd" clip-rule="evenodd" d="M13.0543 4.7144C13.2376 4.50084 13.4156 4.29358 13.5846 4.09082C14.036 4.59866 14.4874 5.13471 14.967 5.7554C15.0116 5.80725 15.0564 5.85939 15.1014 5.9118C18.1935 9.50906 22.3871 14.3877 22.3871 18.1974C22.3871 20.6237 21.4278 22.8526 19.8197 24.4325C18.2115 26.0125 16.0109 26.9999 13.5846 26.9999C11.1582 26.9999 8.9576 26.0407 7.34945 24.4325C5.76951 22.8244 4.78205 20.6237 4.78205 18.1974C4.78205 17.7742 4.83848 17.3792 4.92312 16.956L5.0924 16.2789C5.16293 16.293 5.22641 16.3071 5.28989 16.3212C5.35337 16.3353 5.41685 16.3494 5.48738 16.3635C5.85415 16.4482 6.22092 16.4764 6.61591 16.4764C8.33691 16.4764 9.86042 15.7993 10.9889 14.6708C12.1175 13.5422 12.7946 11.9905 12.7946 10.2977C12.7946 9.6206 12.6253 8.91527 12.315 8.18173C12.0893 7.64568 11.8071 7.10963 11.4686 6.57358L12.2021 5.72718C12.4902 5.37126 12.7784 5.03571 13.0543 4.7144ZM16.152 20.0313C16.152 19.6752 15.8639 19.3864 15.5084 19.3864H12.2904V18.0968H15.5084C15.8639 18.0968 16.152 17.808 16.152 17.4519C16.152 17.0957 15.8639 16.807 15.5084 16.807H14.2212V16.1621C14.2212 15.8059 13.933 15.5172 13.5776 15.5172C13.2221 15.5172 12.934 15.8059 12.934 16.1621V16.8069H11.6468C11.2913 16.8069 11.0031 17.0957 11.0031 17.4518V20.0313C11.0031 20.3874 11.2913 20.6761 11.6468 20.6761H14.8648V21.9658H11.6468C11.2913 21.9658 11.0031 22.2545 11.0031 22.6107C11.0031 22.9668 11.2913 23.2555 11.6468 23.2555H12.934V23.9004C12.934 24.2566 13.2221 24.5454 13.5776 24.5454C13.933 24.5454 14.2212 24.2566 14.2212 23.9005V23.2556H15.5084C15.8639 23.2556 16.152 22.9669 16.152 22.6107V20.0313Z" fill="white"/>
</svg>
