<svg width="22" height="22" viewBox="0 0 22 22" fill="none" xmlns="http://www.w3.org/2000/svg">
<path d="M8.1011 18.7968C8.30806 18.9472 8.56604 18.9868 8.80959 18.905C10.2195 18.4356 11.7728 18.4351 13.1827 18.9055C13.4237 18.9849 13.6835 18.9472 13.8905 18.7968C14.0981 18.647 14.2171 18.4149 14.2171 18.1594C14.2171 17.9525 14.1333 17.7499 13.9868 17.6032L13.1076 16.7242C12.8834 16.8363 12.6424 16.9263 12.3711 16.9634C12.3416 16.9672 12.3125 16.9691 12.2837 16.9691C11.9666 16.9691 11.6897 16.7351 11.6457 16.4117C11.5979 16.0593 11.8444 15.7346 12.1974 15.6862C12.5573 15.637 12.8047 15.4628 12.8945 15.1961C12.9732 14.962 12.9141 14.7085 12.7397 14.5343C12.4881 14.2825 12.0804 14.2825 11.8286 14.5343L11.4512 14.9118C11.1996 15.1634 10.7919 15.1634 10.5403 14.9118L10.1628 14.5343C9.91116 14.2825 9.5033 14.2825 9.25169 14.5343C9.07747 14.7085 9.01822 14.962 9.09694 15.1961C9.1869 15.4628 9.43414 15.6372 9.79401 15.6862C10.147 15.7346 10.3936 16.0593 10.3457 16.4117C10.298 16.764 9.97327 17.0087 9.62029 16.9634C9.34921 16.9263 9.10818 16.8363 8.88377 16.7242L8.00459 17.6032C7.85806 17.7499 7.77448 17.9525 7.77448 18.1594C7.77448 18.4147 7.89348 18.6469 8.1011 18.7968Z" fill="#9FB0C9"/>
<path d="M9.70721 20.7877H12.2843C12.6366 20.7877 12.9216 20.5037 12.9267 20.1524C12.8765 20.1397 12.8253 20.1444 12.7756 20.1277C11.6269 19.7452 10.3642 19.7447 9.2166 20.1271C9.16692 20.1435 9.11623 20.1457 9.06604 20.1583C9.07426 20.5064 9.35709 20.7877 9.70721 20.7877Z" fill="#9FB0C9"/>
<path d="M10.9958 13.5486C11.7546 12.8712 12.9228 12.8957 13.6508 13.623C13.8084 13.7806 13.9232 13.9636 14.0162 14.1561C14.9024 13.8419 15.5055 13.1678 15.5055 12.4125C15.5055 11.3468 14.3499 10.4797 12.9285 10.4797C12.3517 10.4797 11.7986 10.6301 11.3293 10.9138C11.1242 11.0385 10.8674 11.0385 10.6624 10.9138C10.193 10.6301 9.63992 10.4797 9.06303 10.4797C7.64171 10.4797 6.48608 11.3467 6.48608 12.4125C6.48608 13.1678 7.08916 13.8419 7.97539 14.1561C8.06837 13.9636 8.18318 13.7804 8.34079 13.623C9.06874 12.8957 10.2383 12.8712 10.9958 13.5486ZM13.5722 11.7683C13.9279 11.7683 14.2164 12.0567 14.2164 12.4125C14.2164 12.7683 13.9279 13.0567 13.5722 13.0567C13.2164 13.0567 12.9279 12.7683 12.9279 12.4125C12.9279 12.0567 13.2164 11.7683 13.5722 11.7683ZM8.41817 13.0567C8.06233 13.0567 7.77397 12.7683 7.77397 12.4125C7.77397 12.0567 8.06233 11.7683 8.41817 11.7683C8.774 11.7683 9.06236 12.0567 9.06236 12.4125C9.06236 12.7683 8.774 13.0567 8.41817 13.0567Z" fill="#9FB0C9"/>
<path d="M16.9085 5.72542C15.8743 4.59413 15.0671 3.11121 14.3291 1.86478C13.6068 0.644867 12.4542 0 10.9958 0C9.58018 0 8.44521 0.624725 7.71222 1.80754C6.91612 3.09459 6.09737 4.61528 5.08307 5.72542C2.80421 8.21928 1.33203 11.8559 1.33203 14.9895C1.33203 19.2278 3.9825 21.5764 9.19917 22C8.38075 21.7751 7.77449 21.0324 7.77449 20.1436V20.0795C7.62595 20.0179 7.48244 19.939 7.34732 19.8417C6.79997 19.4471 6.4861 18.8337 6.4861 18.1593C6.4861 17.6132 6.70749 17.0784 7.09387 16.692L7.97809 15.8078C7.94586 15.7397 7.90038 15.6802 7.87587 15.6074C7.85959 15.5594 7.8606 15.51 7.84834 15.4615C6.28989 15.0313 5.19754 13.8134 5.19754 12.4126C5.19754 10.6364 6.9314 9.19145 9.06305 9.19145C9.74384 9.19145 10.4043 9.34235 10.9958 9.62987C11.5871 9.34235 12.2478 9.19145 12.9286 9.19145C15.06 9.19145 16.7941 10.6364 16.7941 12.4126C16.7941 13.8136 15.7017 15.0313 14.1433 15.4615C14.131 15.51 14.1319 15.5594 14.1157 15.6074C14.0912 15.6802 14.0456 15.7397 14.0134 15.8078L14.8977 16.692C15.2841 17.0784 15.5055 17.6132 15.5055 18.1593C15.5055 18.8337 15.1915 19.4471 14.6441 19.8417C14.5108 19.9377 14.3635 19.9979 14.2169 20.0594V20.1436C14.2169 21.0324 13.6109 21.7751 12.7924 22C18.0091 21.5764 20.6596 19.2278 20.6596 14.9895C20.6596 11.8559 19.1874 8.21928 16.9085 5.72542ZM12.9286 7.90289C12.3327 7.90289 11.7483 7.99219 11.1902 8.16893C11.1272 8.18907 11.0613 8.19914 10.9958 8.19914C10.9303 8.19914 10.8644 8.18907 10.8014 8.16893C10.2433 7.99219 9.65891 7.90289 9.06305 7.90289C8.70688 7.90289 8.41885 7.6147 8.41885 7.25853C8.41885 6.90253 8.70688 6.61433 9.06305 6.61433C9.72185 6.61433 10.3711 6.7043 10.9958 6.88239C11.6205 6.7043 12.2698 6.61433 12.9286 6.61433C13.2847 6.61433 13.5728 6.90253 13.5728 7.25853C13.5728 7.6147 13.2847 7.90289 12.9286 7.90289Z" fill="#9FB0C9"/>
</svg>
