<svg width="32" height="32" viewBox="0 0 32 32" fill="none" xmlns="http://www.w3.org/2000/svg">
<path d="M12.0032 20.646C12.9438 24.6497 11.8816 28.324 9.63055 28.8528C7.37955 29.3817 4.79223 26.5648 3.8516 22.5612C2.91097 18.5575 3.97324 14.8832 6.22424 14.3543C8.47524 13.8255 11.0626 16.6424 12.0032 20.646Z" fill="url(#paint0_angular_1_339)"/>
<path d="M30.6951 12.0939C30.6951 12.0939 30.2989 10.9978 29.5917 9.97479C27.0561 6.31502 20.0463 3.42859 18.7845 2.91099C17.2973 2.30204 15.8039 1.85143 15.8039 1.85143C13.8961 1.28188 12.1529 0.917794 9.9522 0.73091C9.37928 0.682256 7.46531 0.755278 5.63062 1.80881L12.6586 6.27851C11.6862 7.29997 11.6786 11.1266 12.9462 14.72C13.7395 17.38 12.3395 18.4533 23.7729 15.5133C26.2514 14.4866 26.3185 12.2096 26.2514 12.5689L30.6951 12.0939Z" fill="url(#paint1_linear_1_339)"/>
<path d="M31.214 14.7064C31.1531 13.5737 30.897 12.6662 30.6959 12.0938L26.2524 12.5688C25.9781 13.9694 22.6803 14.5663 19.7362 15.0961C18.2001 15.3701 17.5183 15.4697 16.4002 15.5598C15.4183 15.6391 14.9332 15.651 14.6772 15.8398C14.2597 16.3179 14.732 17.2003 14.7199 19.6665C14.7199 20.5312 14.7139 21.3037 14.6772 21.7665C14.5371 23.4107 13.6991 25.2157 14.1136 25.4532C14.3086 25.5628 15.7927 24.7236 16.0244 24.6383C16.9203 24.3095 17.8529 24.0721 18.7733 23.8224C21.2176 23.1708 23.6497 22.5619 24.4116 22.367C25.4906 22.166 26.3683 21.9102 26.9961 21.7031C28.1055 21.3316 28.7637 21.0575 29.3732 20.5521C31.4456 18.8653 31.2628 15.5649 31.214 14.7064Z" fill="url(#paint2_linear_1_339)"/>
<path d="M5.63107 1.80884C2.86369 3.39814 1.9372 6.36984 1.35816 8.22719C0.663279 10.4559 0.626648 12.3863 0.626648 13.9452C0.626648 15.157 0.733952 16.8031 0.953315 18.3133C1.09967 19.3363 1.39044 21.6136 2.21332 23.8667C3.14665 26.76 4.92 30.26 8.53861 31.3733C8.84942 31.422 9.45293 31.4952 10.1782 31.2881C12.9822 30.4904 14.7438 26.179 14.8108 20.601C14.8779 19.3405 14.8718 17.8851 14.7194 16.2714C14.6218 15.2666 14.4694 13.6529 13.8965 11.619C13.482 10.1515 12.9943 8.9518 12.5982 8.0871C12.4031 7.466 12.2812 6.72308 12.6591 6.27858L12.3867 5.85334L5.63107 1.80884ZM9.64799 28.7914C7.40483 29.3212 4.81423 26.5261 3.86947 22.5375C2.92463 18.5489 3.97307 14.889 6.21623 14.3593C8.4593 13.8295 11.0499 16.6246 11.9947 20.6132C12.9395 24.5958 11.8911 28.2616 9.64799 28.7914Z" fill="url(#paint3_radial_1_339)"/>
<defs>
<radialGradient id="paint0_angular_1_339" cx="0" cy="0" r="1" gradientUnits="userSpaceOnUse" gradientTransform="translate(17.4736 19.9) rotate(175.956) scale(13.8946 8.49415)">
<stop stop-color="#E8FE42"/>
<stop offset="0.199738" stop-color="#F35432"/>
<stop offset="0.404167" stop-color="#EBFB41"/>
<stop offset="0.555208" stop-color="#84FFC1"/>
<stop offset="0.701042" stop-color="#5981F2"/>
<stop offset="0.841667" stop-color="#7AD6CE"/>
<stop offset="1" stop-color="#E8FF46"/>
</radialGradient>
<linearGradient id="paint1_linear_1_339" x1="10.9862" y1="2.95997" x2="15.5045" y2="19.4823" gradientUnits="userSpaceOnUse">
<stop stop-color="#ED2626"/>
<stop offset="0.259729" stop-color="#FFA84C"/>
<stop offset="0.544792" stop-color="#FFD84C"/>
<stop offset="0.815625" stop-color="#ECFF5A"/>
<stop offset="1" stop-color="#62CDDD"/>
</linearGradient>
<linearGradient id="paint2_linear_1_339" x1="18.0338" y1="14.0665" x2="21.5758" y2="23.2617" gradientUnits="userSpaceOnUse">
<stop stop-color="#FFD84C"/>
<stop offset="0.196022" stop-color="#EAFF44"/>
<stop offset="0.357292" stop-color="#CDF364"/>
<stop offset="0.556721" stop-color="#A2E093"/>
<stop offset="1" stop-color="#5FCEF1"/>
</linearGradient>
<radialGradient id="paint3_radial_1_339" cx="0" cy="0" r="1" gradientUnits="userSpaceOnUse" gradientTransform="translate(7.34665 3.28668) rotate(84.4117) scale(28.2744 11.0113)">
<stop offset="0.1125" stop-color="#ED2626"/>
<stop offset="0.625386" stop-color="#FFC04C"/>
<stop offset="0.779167" stop-color="#E9FF3F"/>
<stop offset="0.904167" stop-color="#71D3D9"/>
<stop offset="1" stop-color="#4C53FF"/>
</radialGradient>
</defs>
</svg>
