<svg width="27" height="27" viewBox="0 0 27 27" fill="none" xmlns="http://www.w3.org/2000/svg">
<path d="M22.1669 7.0549C22.0602 6.86806 21.929 6.73802 21.7271 6.66625L15.8725 4.53525C15.8946 3.89928 15.6642 3.25644 15.1796 2.77234C14.1826 1.77482 12.5173 1.85466 11.6279 2.99014L5.78228 0.86283C5.78176 0.862303 5.78123 0.862303 5.78123 0.862303C5.37175 0.716018 4.95915 0.932809 4.80511 1.2499L1.10052 8.60635H2.87187L5.51545 3.35611L8.19119 8.60635H9.96676L7.12806 3.03601L11.1253 4.49096C11.1417 5.50725 11.791 6.36725 12.7089 6.69209V22.0557C12.7089 22.4924 13.0633 22.8467 13.5 22.8467C13.9366 22.8467 14.291 22.4924 14.291 22.0557V6.69209C14.6763 6.55635 15.0227 6.32263 15.294 6.00812L20.3533 7.84961L17.0231 14.4651H18.7945L21.4602 9.16955L24.128 14.4651H25.8994L22.1669 7.0549ZM14.0611 5.01303C13.7515 5.32258 13.2484 5.32258 12.9389 5.01303C12.6293 4.70348 12.6293 4.20039 12.9389 3.89084C13.2484 3.58129 13.7515 3.58129 14.0611 3.89084C14.3711 4.20086 14.3716 4.70247 14.0611 5.01303Z" fill="white"/>
<path d="M14.4308 21.3174H12.568C10.3207 21.3174 8.49225 23.1457 8.49225 25.3931C8.49225 25.83 8.84641 26.1841 9.28326 26.1841H17.7155C18.1523 26.1841 18.5065 25.83 18.5065 25.3931C18.5065 23.1457 16.6781 21.3174 14.4308 21.3174Z" fill="white"/>
<path d="M26.2096 16.0469H16.7148C16.278 16.0469 15.9238 16.401 15.9238 16.8379C15.9238 19.8918 18.4083 22.3763 21.4622 22.3763C24.5161 22.3763 27.0006 19.8918 27.0006 16.8379C27.0006 16.401 26.6465 16.0469 26.2096 16.0469Z" fill="white"/>
<path d="M10.2885 10.1885H0.791016C0.354164 10.1885 0 10.5426 0 10.9795C0 14.0341 2.48511 16.5192 5.53975 16.5192C8.59439 16.5192 11.0795 14.0341 11.0795 10.9795C11.0795 10.5426 10.7253 10.1885 10.2885 10.1885Z" fill="white"/>
</svg>
