<svg width="24" height="28" viewBox="0 0 24 28" fill="none" xmlns="http://www.w3.org/2000/svg">
<path d="M9.93468 18.1496L10.0276 18.2037L17.3994 22.5867L12.3792 25.5733C12.2382 25.6561 12.0795 25.7021 11.9171 25.7073C11.7546 25.7125 11.5934 25.6768 11.4477 25.6032L11.3948 25.5733L2.44448 20.2813C2.30355 20.1976 2.18503 20.0795 2.09947 19.9375C2.01392 19.7955 1.96399 19.634 1.95412 19.4675V17.8435C3.21379 17.2452 4.59424 16.962 5.98175 17.0172C7.36926 17.0724 8.72411 17.4643 9.93468 18.1608V18.1496ZM4.38402 6.81894L12.1732 11.4483L12.2734 11.508C13.7182 12.3424 15.3319 12.8232 16.9883 12.9129C18.6448 13.0026 20.299 12.6987 21.8217 12.0251V19.3947C21.8215 19.5618 21.7807 19.7262 21.7031 19.8731C21.6254 20.0201 21.5133 20.145 21.3769 20.2365L21.3295 20.2701L19.3845 21.4163L11.0266 16.4491C9.66498 15.6402 8.14638 15.1476 6.57828 15.0063C5.01018 14.8651 3.43093 15.0785 1.9523 15.6315V8.83681C1.95282 8.66979 1.99371 8.5055 2.07132 8.35861C2.14893 8.21171 2.26085 8.08677 2.39708 7.99494L2.44448 7.96508L4.38402 6.81894ZM11.887 2.54988C12.0373 2.54991 12.1857 2.58502 12.3208 2.65254L12.3792 2.68428L21.3277 7.96508C21.4689 8.04816 21.5878 8.16583 21.6737 8.30755C21.7596 8.44927 21.8098 8.6106 21.8198 8.77708V9.77201C20.516 10.5175 19.0476 10.9088 17.5543 10.9088C16.061 10.9088 14.5926 10.5175 13.2888 9.77201L13.1721 9.70668L6.36549 5.65041L11.3948 2.68428C11.5252 2.6054 11.672 2.55934 11.8232 2.54988H11.887ZM24 7.61041C23.9999 7.39624 23.9447 7.18586 23.8401 7.00041C23.7355 6.81496 23.585 6.66096 23.4039 6.55388L12.5961 0.16241C12.4146 0.0559879 12.2091 0 12 0C11.7909 0 11.5854 0.0559879 11.4039 0.16241L0.596081 6.55388C0.414951 6.66096 0.264521 6.81496 0.159893 7.00041C0.0552648 7.18586 0.000121742 7.39624 0 7.61041L0 20.3896C0.000353877 20.604 0.0555782 20.8145 0.160167 21.0002C0.264756 21.1859 0.415056 21.3403 0.596081 21.448L11.4039 27.8376C11.5854 27.944 11.7909 28 12 28C12.2091 28 12.4146 27.944 12.5961 27.8376L23.4039 21.448C23.5849 21.3403 23.7352 21.1859 23.8398 21.0002C23.9444 20.8145 23.9996 20.604 24 20.3896V7.61041Z" fill="#06051B"/>
</svg>
