<svg width="24" height="28" viewBox="0 0 24 28" fill="none" xmlns="http://www.w3.org/2000/svg">
<path d="M11.3434 0.180266L0.655168 6.50909C0.455956 6.62702 0.290528 6.79664 0.17551 7.0009C0.0604924 7.20516 -6.23935e-05 7.43687 -6.82372e-05 7.67273V20.3277C-0.00144818 20.5649 0.0584492 20.7983 0.173536 21.0041C0.288623 21.2099 0.454797 21.3808 0.655168 21.4994L11.3434 27.8282C11.5426 27.9461 11.7686 28.0082 11.9986 28.0082C12.2287 28.0082 12.4546 27.9461 12.6539 27.8282L23.3447 21.4994C23.5439 21.3815 23.7093 21.2118 23.8244 21.0076C23.9394 20.8033 23.9999 20.5716 23.9999 20.3357V7.67273C23.9999 7.43687 23.9394 7.20516 23.8244 7.0009C23.7093 6.79664 23.5439 6.62702 23.3447 6.50909L12.6539 0.180266C12.4546 0.0623315 12.2287 0.000244141 11.9986 0.000244141C11.7686 0.000244141 11.5426 0.0623315 11.3434 0.180266ZM20.86 6.89876C20.9395 6.94601 21.0054 7.01382 21.0513 7.09542C21.0971 7.17701 21.1212 7.26952 21.1212 7.36368C21.1212 7.45784 21.0971 7.55035 21.0513 7.63194C21.0054 7.71354 20.9395 7.78135 20.86 7.8286L19.2875 8.76381C18.5746 9.18574 18.2103 9.86296 17.8879 10.4569C17.8407 10.5456 17.7935 10.6342 17.7437 10.7256C16.9575 12.1338 16.5905 13.6119 16.2655 14.918C15.6496 17.4038 15.2014 18.8389 13.1545 19.3737C12.397 19.5725 11.6029 19.5725 10.8454 19.3737C8.79845 18.8362 8.34765 17.4038 7.7291 14.9153C7.40411 13.6092 7.03717 12.1311 6.24827 10.7229L6.10674 10.4542C5.78436 9.86027 5.42005 9.18305 4.70715 8.76113L3.13458 7.8286C3.05453 7.78153 2.98802 7.71363 2.94176 7.63176C2.8955 7.54989 2.87115 7.45695 2.87115 7.36234C2.87115 7.26772 2.8955 7.17478 2.94176 7.09291C2.98802 7.01104 3.05453 6.94314 3.13458 6.89607L11.3434 2.04263C11.5426 1.9247 11.7686 1.86261 11.9986 1.86261C12.2287 1.86261 12.4546 1.9247 12.6539 2.04263L20.86 6.89876ZM11.3434 25.9578L2.22774 20.5615C2.02852 20.4436 1.8631 20.2739 1.74808 20.0697C1.63306 19.8654 1.57251 19.6337 1.5725 19.3978V9.69634C1.57259 9.60204 1.59688 9.50943 1.64293 9.4278C1.68897 9.34616 1.75516 9.27839 1.83483 9.23128C1.9145 9.18418 2.00485 9.15939 2.09682 9.15941C2.18879 9.15944 2.27914 9.18427 2.35878 9.23142L3.93135 10.1613C4.26945 10.3601 4.48961 10.7659 4.74122 11.2362L4.89848 11.505C5.57731 12.725 5.90492 14.0338 6.20895 15.2969C6.79867 17.6725 7.40935 20.1342 10.468 20.9216C11.4751 21.1831 12.53 21.1831 13.5371 20.9216C16.5905 20.1557 17.2012 17.6887 17.7935 15.3184C18.1081 14.0553 18.433 12.7465 19.104 11.5291L19.2586 11.2443C19.5207 10.7713 19.733 10.3655 20.0711 10.1693L21.628 9.24217C21.7076 9.19502 21.798 9.17019 21.8899 9.17016C21.9819 9.17014 22.0723 9.19493 22.1519 9.24203C22.2316 9.28914 22.2978 9.35691 22.3438 9.43855C22.3899 9.52018 22.4142 9.61279 22.4143 9.70709V19.4086C22.4143 19.6445 22.3537 19.8762 22.2387 20.0804C22.1237 20.2847 21.9582 20.4543 21.759 20.5722L12.6539 25.9578C12.4546 26.0757 12.2287 26.1378 11.9986 26.1378C11.7686 26.1378 11.5426 26.0757 11.3434 25.9578Z" fill="#06051B"/>
</svg>
