<svg width="8" height="8" viewBox="0 0 8 8" fill="none" xmlns="http://www.w3.org/2000/svg">
<path d="M0.176021 1.02575C-0.0586248 1.26047 -0.0586248 1.64087 0.176021 1.87559L2.30045 4.00004L0.175984 6.12449C-0.0586615 6.35913 -0.0586615 6.7396 0.175984 6.97425L1.02578 7.82401C1.26042 8.05866 1.64089 8.05866 1.87553 7.82401L4 5.69957L6.12446 7.82401C6.35911 8.05866 6.73958 8.05866 6.97422 7.82401L7.82402 6.97425C8.05866 6.7396 8.05866 6.35913 7.82402 6.12449L5.69955 4.00004L7.82398 1.87559C8.05862 1.64087 8.05862 1.26047 7.82398 1.02575L6.97419 0.175986C6.73954 -0.058662 6.35907 -0.058662 6.12443 0.175986L4 2.30043L1.87557 0.175986C1.64093 -0.058662 1.26046 -0.058662 1.02581 0.175986L0.176021 1.02575Z" fill="white"/>
</svg>
