<svg width="24" height="22" viewBox="0 0 24 22" fill="none" xmlns="http://www.w3.org/2000/svg">
<path d="M16.1651 13.2205C16.1651 11.0448 14.8418 10.3101 12.2799 9.9569C10.3867 9.68376 10.0241 9.23637 10.0241 8.35572C10.0241 7.47036 10.6646 6.92408 11.889 6.92408C13.0051 6.92408 13.6503 7.31496 13.914 8.20973C13.9423 8.30863 13.9988 8.3934 14.0836 8.45462C14.1636 8.51584 14.2625 8.55351 14.3661 8.55351H15.3457C15.4116 8.55351 15.4728 8.54409 15.5294 8.51584C15.5859 8.48758 15.6377 8.44991 15.6801 8.40281C15.7224 8.35572 15.7507 8.29921 15.7695 8.23799C15.7884 8.17677 15.7884 8.11083 15.7789 8.04961C15.4681 6.62739 14.5121 5.775 13.0099 5.50657V4.00899C13.0099 3.88655 12.9628 3.76882 12.8733 3.67934C12.7838 3.58986 12.6661 3.54277 12.5436 3.54277H11.6112C11.4887 3.54277 11.371 3.58986 11.2815 3.67934C11.192 3.76882 11.145 3.88655 11.145 4.00899V5.45476C9.28005 5.71378 8.10271 6.94763 8.10271 8.52526C8.10271 10.5691 9.34598 11.3603 11.9455 11.7135C13.7163 12.0008 14.2202 12.3869 14.2202 13.39C14.2202 14.3931 13.3631 15.0712 12.1575 15.0712C10.5327 15.0712 9.98174 14.3601 9.79808 13.4371C9.77453 13.3288 9.71802 13.2346 9.63796 13.1687C9.55319 13.098 9.44959 13.0604 9.34127 13.0604H8.27696C8.21574 13.0604 8.14981 13.0745 8.09329 13.098C8.03678 13.1263 7.98498 13.164 7.9426 13.2111C7.90021 13.2582 7.87196 13.3147 7.85312 13.3759C7.83428 13.4371 7.83428 13.503 7.8437 13.5643C8.11213 15.1183 9.11051 16.258 11.145 16.5311V18.0052C11.145 18.1276 11.192 18.2453 11.2815 18.3348C11.371 18.4243 11.4887 18.4714 11.6112 18.4714H12.5436C12.6661 18.4714 12.7838 18.4243 12.8733 18.3348C12.9628 18.2453 13.0099 18.1276 13.0099 18.0052V16.5217C14.936 16.2203 16.1651 14.8876 16.1651 13.2205ZM8.87505 19.7665C7.07608 19.1119 5.5267 17.9157 4.42943 16.3522C3.33215 14.7887 2.74348 12.9191 2.74348 11.0071C2.74348 9.09509 3.33215 7.22548 4.42943 5.66197C5.5267 4.09376 7.07608 2.9023 8.87505 2.2477C8.98807 2.1959 9.08697 2.11584 9.15761 2.01223C9.22825 1.90863 9.27063 1.78618 9.27534 1.65903V0.787802C9.28476 0.712453 9.27063 0.632394 9.23767 0.561754C9.2047 0.491114 9.15761 0.429892 9.09168 0.387508C9.03045 0.340415 8.95511 0.316868 8.87976 0.307449C8.80441 0.29803 8.72435 0.312158 8.65371 0.345124C6.39322 1.06565 4.4153 2.48788 3.01662 4.40458C1.61795 6.32128 0.859741 8.63357 0.859741 11.0118C0.859741 13.39 1.61324 15.7023 3.01662 17.619C4.42001 19.5357 6.39322 20.9579 8.65371 21.6785C8.72435 21.7114 8.7997 21.7256 8.87976 21.7161C8.95511 21.7067 9.03045 21.6832 9.09168 21.6361C9.1529 21.589 9.2047 21.5325 9.23767 21.4618C9.27063 21.3912 9.28476 21.3158 9.27534 21.2358V20.3645C9.27063 20.2374 9.22825 20.115 9.15761 20.0113C9.09168 19.8983 8.99278 19.8136 8.87505 19.7665ZM15.4964 0.335705C15.4257 0.30274 15.3504 0.288612 15.2703 0.29803C15.195 0.307449 15.1196 0.330996 15.0584 0.378089C14.9972 0.425183 14.9454 0.481695 14.9124 0.552335C14.8795 0.622975 14.8653 0.698325 14.8748 0.778384V1.64961C14.8795 1.77676 14.9218 1.89921 14.9925 2.00281C15.0631 2.10642 15.162 2.18648 15.275 2.23828C17.074 2.89288 18.6234 4.08905 19.7207 5.65256C20.8179 7.22077 21.4066 9.08567 21.4066 10.9977C21.4066 12.9097 20.8179 14.7793 19.7207 16.3428C18.6234 17.911 17.074 19.1024 15.275 19.757C15.1573 19.8041 15.0537 19.8842 14.9831 19.9878C14.9124 20.0914 14.8748 20.2186 14.8748 20.3457V21.2169C14.8653 21.2923 14.8795 21.3724 14.9124 21.443C14.9454 21.5136 14.9925 21.5749 15.0584 21.6172C15.1196 21.6643 15.195 21.6879 15.2703 21.6973C15.3457 21.7067 15.4257 21.6926 15.4964 21.6596C17.7569 20.9391 19.7348 19.5169 21.1335 17.6002C22.5369 15.6835 23.2904 13.3712 23.2904 10.993C23.2904 8.61473 22.5369 6.30245 21.1335 4.38574C19.7348 2.47846 17.7616 1.05624 15.4964 0.335705Z" fill="white"/>
</svg>
