<svg width="27" height="27" viewBox="0 0 27 27" fill="none" xmlns="http://www.w3.org/2000/svg">
<path d="M22.3947 0H0.605279C0.271005 0 0 0.271005 0 0.605279V19.9736C0 20.3079 0.271005 20.5789 0.605279 20.5789H1.81578V22.3947C1.81578 22.7289 2.08679 22.9999 2.42106 22.9999H6.05262C6.3869 22.9999 6.6579 22.7289 6.6579 22.3947V20.5789H16.342V22.3947C16.342 22.7289 16.613 22.9999 16.9473 22.9999H20.5789C20.9131 22.9999 21.1842 22.7289 21.1842 22.3947V20.5789H22.3947C22.7289 20.5789 22.9999 20.3079 22.9999 19.9736V0.605279C22.9999 0.271005 22.7289 0 22.3947 0V0ZM2.42106 3.02628C2.42106 2.69201 2.69207 2.421 3.02634 2.421H19.9736C20.3079 2.421 20.5789 2.69201 20.5789 3.02628V17.5525C20.5789 17.8868 20.3079 18.1578 19.9736 18.1578H3.02628C2.69201 18.1578 2.421 17.8868 2.421 17.5525V3.02628H2.42106Z" fill="white"/>
<path d="M3.63205 3.63135V16.9471H19.3688V3.63135H3.63205ZM13.3162 9.68397C13.6505 9.68397 13.9215 9.95498 13.9215 10.2892V12.7103C13.9215 13.0445 13.6505 13.3155 13.3162 13.3155H12.1057V13.9208C12.1057 14.2551 11.8347 14.5261 11.5005 14.5261C11.1662 14.5261 10.8952 14.255 10.8952 13.9208V13.3155H9.68467C9.3504 13.3155 9.07939 13.0445 9.07939 12.7102C9.07939 12.3759 9.3504 12.1049 9.68467 12.1049H12.711V10.8945H9.68467C9.3504 10.8945 9.07939 10.6235 9.07939 10.2892V7.86813C9.07939 7.53386 9.3504 7.26285 9.68467 7.26285H10.8952V6.65757C10.8952 6.3233 11.1662 6.05229 11.5005 6.05229C11.8347 6.05229 12.1057 6.3233 12.1057 6.65757V7.26291H13.3162C13.6505 7.26291 13.9215 7.53392 13.9215 7.86819C13.9215 8.20246 13.6505 8.47347 13.3162 8.47347H10.29V9.68397H13.3162Z" fill="white"/>
</svg>
