<svg fill="none" viewBox="0 0 600 601" xmlns="http://www.w3.org/2000/svg"><linearGradient id="b" gradientUnits="userSpaceOnUse" x1="226.83" x2="320.45" y1="31.25" y2="552.99"><stop offset="0" stop-color="#27d3a2"/><stop offset="1" stop-color="#9388fd"/></linearGradient><radialGradient id="c" cx="0" cy="0" gradientTransform="matrix(190.62474 497.90568 -496.37409 190.03836 279.31 47.12)" gradientUnits="userSpaceOnUse" r="1"><stop offset=".19" stop-color="#fff" stop-opacity="0"/><stop offset="1" stop-color="#031249" stop-opacity=".45"/></radialGradient><clipPath id="a"><path d="M.67 0h600v600H.67z"/></clipPath><g clip-path="url(#a)"><path d="M300.67 600c165.68 0 300-134.31 300-300S466.34 0 300.66 0 .66 134.31.66 300s134.31 300 300 300z" fill="#fff"/><path d="M493.67 531.8c-53.91 44.06-121.5 68.16-191.27 68.2S165 576.01 111.06 532.01A299.74 299.74 0 016.5 358.71a298.64 298.64 0 0129.68-199.97 300.44 300.44 0 0186.26-99.6A302.33 302.33 0 01243.22 5.8a303.09 303.09 0 01132.1 3.15A302.16 302.16 0 01493.4 67.99l-60.83 73.82a206.52 206.52 0 00-227.37-22.14 205.09 205.09 0 00-84.37 84.02 203.66 203.66 0 0016.3 218.26 205.46 205.46 0 0086.51 67.09 206.59 206.59 0 00108.87 13.29 206.12 206.12 0 00100.24-44.28z" fill="url(#b)"/><path d="M300.66 505c113.22 0 205-91.78 205-205s-91.78-205-205-205-205 91.78-205 205 91.79 205 205 205z" fill="#fff"/><path d="M300.67 600c165.68 0 300-134.32 300-300 0-165.69-134.32-300-300-300C134.97 0 .66 134.31.66 300c0 165.68 134.31 300 300 300z" fill="url(#c)" fill-opacity=".8" opacity=".6"/><path clip-rule="evenodd" d="M285.74 233.77l-72.26 118.9 28.74-16.6.21-.35 43.3-70.5zm81.08 135.3H227.15l26.04-15.04h86.63c.3 0 .61 0 .91-.03zm11.38-17.73l-71.42-117.53v31.43l42.7 69.51zm-71.68-158.46a12.02 12.02 0 00-20.55 0L177.21 371.83a12.02 12.02 0 0010.28 18.27H405a12.02 12.02 0 0010.27-18.27zm-10.27 95.41L268.79 333h54.91z" fill="#323232" fill-rule="evenodd"/><path d="M213.48 352.67l-2.5-1.53 3.97 4.06zm72.26-118.9h2.93v-10.46l-5.44 8.94zm-43.52 102.3l1.47 2.54.68-.4.4-.68zm.21-.35l-2.5-1.53zm43.3-70.5l2.5 1.52.44-.7v-.83zm-58.58 103.84l-1.46-2.54-9.47 5.47h10.93zm139.67 0V372h10.93l-9.46-5.47zm-113.64-15.03v-2.93h-.78l-.68.4zm87.55-.03l1.47-2.54-.78-.45-.9.07zm37.47-2.66l-1.46 2.54 3.97-4.06zm-71.43-117.53l2.5-1.52-5.43-8.94v10.46zm0 31.43h-2.93v.83l.44.7zm42.7 69.51l-2.5 1.54.4.63.64.37zm-63.5-141.87l2.5 1.52-2.5-1.52zm20.55 0l-2.5 1.52 2.5-1.52zm-129.3 178.95l-2.5-1.52zm238.05 0l-2.5 1.53zM268.8 333l-2.5-1.54-2.74 4.47h5.24zm27.46-44.7l2.5-1.54-2.5-4.07-2.5 4.07zM323.7 333v2.93h5.24l-2.74-4.47zM216 354.19l72.25-118.9-5-3.04-72.26 118.9zm24.77-20.66l-28.74 16.6 2.93 5.07 28.74-16.6zm-.83.66l-.25.43 5.09 2.9.16-.27zm43.31-70.51l-43.3 70.5 4.99 3.07 43.3-70.5zm-.43-29.9v31.43h5.86v-31.44zm-55.65 138.21h139.66v-5.86H227.15V372zm24.56-20.5l-26.03 15.03 2.93 5.08 26.03-15.03zm88.1-.39H253.2v5.86h86.63zm.7-.02l-.7.02v5.86c.38 0 .75-.01 1.12-.04zm-1.25 5.46l26.09 15.06 2.93-5.08-26.1-15.06zm41.44-6.72l-71.43-117.53-5 3.04 71.42 117.53zm-76.86-116.01v31.43h5.85V233.8zm.43 32.96l42.7 69.52 4.99-3.07-42.7-69.51zm75.39 82.04l-28.73-16.6-2.93 5.08 28.73 16.59zm-91.2-154.4a9.1 9.1 0 0115.54 0l5.01-3.05a14.95 14.95 0 00-25.55 0zM179.73 373.35L288.48 194.4l-5.01-3.04L174.7 370.31zm7.77 13.8a9.1 9.1 0 01-7.77-13.8l-5-3.05a14.95 14.95 0 0012.77 22.72zm217.51 0H187.5v5.87H405zm7.77-13.8a9.09 9.09 0 01-7.77 13.8v5.87a14.95 14.95 0 0012.78-22.72zM304 194.4l108.76 178.96 5-3.05-108.75-178.95zM271.3 334.53l27.45-44.7-4.99-3.07-27.45 44.7zm52.41-4.46h-54.9v5.86h54.9zm-29.95-40.24l27.46 44.7 4.99-3.07-27.46-44.7z" fill="#fff"/></g></svg>