<svg fill="none" viewBox="0 0 600 601" xmlns="http://www.w3.org/2000/svg"><linearGradient id="b" gradientUnits="userSpaceOnUse" x1="226.82" x2="321.35" y1="29.39" y2="553.58"><stop offset="0" stop-color="#00d395"/><stop offset="1" stop-color="#9669ed"/></linearGradient><radialGradient id="c" cx="0" cy="0" gradientTransform="matrix(190.62474 497.90568 -496.37409 190.03836 280.31 47.12)" gradientUnits="userSpaceOnUse" r="1"><stop offset=".19" stop-color="#fff" stop-opacity="0"/><stop offset="1" stop-color="#031249" stop-opacity=".45"/></radialGradient><linearGradient id="d" gradientUnits="userSpaceOnUse" x1="315.32" x2="315.32" y1="184.54" y2="408.85"><stop offset="0" stop-color="#283947"/><stop offset="1" stop-color="#657786"/></linearGradient><clipPath id="a"><path d="M.67 0h600v600H.67z"/></clipPath><g clip-path="url(#a)"><path d="M301.67 600c165.68 0 300-134.31 300-300S467.34 0 301.66 0s-300 134.31-300 300 134.31 300 300 300z" fill="#fff"/><path d="M493.67 532.46a301.6 301.6 0 01-493-232.78A301.45 301.45 0 01173.13 27.02a301.62 301.62 0 01320.26 39.3l-60.82 74.2A205.64 205.64 0 0096.6 299.61a205.55 205.55 0 00117.81 185.76 205.65 205.65 0 00218.34-27.05z" fill="url(#b)"/><path d="M302.67 505c113.21 0 205-91.78 205-205s-91.79-205-205-205c-113.23 0-205 91.78-205 205s91.77 205 205 205z" fill="#fff"/><path d="M301.67 600c165.68 0 300-134.32 300-300 0-165.69-134.32-300-300-300-165.69 0-300 134.31-300 300 0 165.68 134.31 300 300 300z" fill="url(#c)" fill-opacity=".8" opacity=".6"/><path d="M420.8 268.42h-22.68c-12.48-34.64-46.03-58.38-90.28-58.38h-72.77v58.38h-25.28v20.94h25.28v21.97h-25.28v20.95h25.28v57.68h72.77c43.74 0 77.04-23.55 89.84-57.68h23.1v-20.95h-18.01c.45-3.7.7-7.51.7-11.33v-.51c0-3.44-.19-6.81-.5-10.13h17.88v-20.94h-.06zm-165.36-39.73h52.4c32.47 0 56.6 15.97 67.74 39.66H255.44zm52.4 142.43h-52.4v-38.9h120.02c-11.21 23.3-35.27 38.9-67.62 38.9zm74.55-70.67c0 3.68-.25 7.32-.76 10.81H255.45V289.3H381.7c.44 3.44.7 7 .7 10.63z" fill="url(#d)"/></g></svg>