<svg fill="none" viewBox="0 0 600 601" xmlns="http://www.w3.org/2000/svg"><linearGradient id="b" gradientUnits="userSpaceOnUse" x1="225.45" x2="319.61" y1="31.25" y2="552.79"><stop offset="0" stop-color="#27d3a2"/><stop offset="1" stop-color="#9388fd"/></linearGradient><radialGradient id="c" cx="0" cy="0" gradientTransform="matrix(190.62474 497.90568 -496.37409 190.03836 279.31 47.12)" gradientUnits="userSpaceOnUse" r="1"><stop offset=".19" stop-color="#fff" stop-opacity="0"/><stop offset="1" stop-color="#031249" stop-opacity=".45"/></radialGradient><clipPath id="a"><path d="M.67 0h600v600H.67z"/></clipPath><g clip-path="url(#a)"><path d="M300.67 600c165.68 0 300-134.31 300-300S466.34 0 300.66 0 .66 134.31.66 300s134.31 300 300 300z" fill="#fff"/><path d="M490.67 531.8a299.57 299.57 0 01-380.29.21A300.06 300.06 0 016.46 358.71a300.25 300.25 0 0129.5-199.97 299.93 299.93 0 0185.74-99.6 299.59 299.59 0 01251.35-50.2A299.63 299.63 0 01490.4 68l-60.46 73.82a204.27 204.27 0 00-225.99-22.14 204.46 204.46 0 00-83.84 84.02 204.71 204.71 0 0016.2 218.26 204.19 204.19 0 00293.81 36.1z" fill="url(#b)"/><path d="M300.67 600c165.68 0 300-134.32 300-300 0-165.69-134.32-300-300-300C134.97 0 .66 134.31.66 300c0 165.68 134.31 300 300 300z" fill="url(#c)" fill-opacity=".8" opacity=".6"/><g fill="#323232"><path d="M301.2 174.78v90.45l76.44 34.16z" fill-opacity=".6"/><path d="M301.2 174.78L224.74 299.4l76.46-34.16V174.8z"/><path d="M301.2 358v61.47l76.49-105.84z" fill-opacity=".6"/><path d="M301.2 419.46V358l-76.47-44.36z"/></g><path d="M301.2 343.78l76.44-44.4-76.45-34.13zm-76.47-44.4l76.46 44.4v-78.53z" fill="#989898"/></g></svg>