<svg fill="none" viewBox="0 0 600 600" xmlns="http://www.w3.org/2000/svg"><radialGradient id="a" cx="0" cy="0" gradientTransform="rotate(54.17 -42.31 263.4) scale(497.082)" gradientUnits="userSpaceOnUse" r="1"><stop offset="0" stop-color="#d4c3f6"/><stop offset="1" stop-color="#592cba"/></radialGradient><path d="M300 600c165.69 0 300-134.31 300-300S465.69 0 300 0 0 134.31 0 300s134.31 300 300 300z" fill="#d4c3f6"/><path d="M300 600c165.69 0 300-134.31 300-300S465.69 0 300 0 0 134.31 0 300s134.31 300 300 300z" fill="url(#a)" fill-opacity=".35"/><path d="M194 415.5l181 175S529.31 559.72 583.5 398L359.51 202.6s85 217.98-165.51 212.9z" fill="#4a18cf" opacity=".3"/><path d="M270.47 376V251.32h43.18s22.29 1.6 38.52 10.23c-.07.07 32.24 107.33-81.7 114.43z" fill="#4a18cf" opacity=".5"/><path d="M234.6 412.2v39.85h94.17s102.72-6.55 108.36-117.15c3.07-60.31-27.3-91.51-55.57-107.4 0 0 28.97 39.29 6.27 112.28 0 0-21.04 64.7-99.67 73.33z" fill="#4c18ba" opacity=".6"/><path d="M295.26 172H194v243.76h94.16s102.73-6.62 108.37-118.82C402.24 184.81 295.26 172 295.26 172zM265.8 376.27l-31.2-.35v-164.3h37.54s83.93-4.73 82.6 82.33c-1.25 87.06-88.93 82.32-88.93 82.32z" fill="#7742e9"/></svg>