<svg fill="none" viewBox="0 0 600 600" xmlns="http://www.w3.org/2000/svg"><radialGradient id="a" cx="0" cy="0" gradientTransform="rotate(54.17 -42.31 263.4) scale(497.082)" gradientUnits="userSpaceOnUse" r="1"><stop offset="0" stop-color="#f6fdff"/><stop offset="1" stop-color="#3ec3dc"/></radialGradient><path d="M300 600c165.69 0 300-134.31 300-300S465.69 0 300 0 0 134.31 0 300s134.31 300 300 300z" fill="#dff9ff"/><path d="M300 600c165.69 0 300-134.31 300-300S465.69 0 300 0 0 134.31 0 300s134.31 300 300 300z" fill="url(#a)" fill-opacity=".35"/><path d="M359.35 106.82c-68 0-125.68 52.28-133 119.53-67.33 7.23-119.62 65-119.62 133 0 73.9 59.94 133.83 133.92 133.92 68 0 125.93-52.29 133-119.54 67.33-7.23 119.62-65 119.62-133-.09-73.98-60.02-133.91-133.92-133.91zm102.5 148.87a104.15 104.15 0 01-87.29 87.29v-87.29zm-323.7 88.62a104.14 104.14 0 0187.29-87.54v87.29h-87.29zm205.07 30.25a103.52 103.52 0 01-102.49 88.45 103.45 103.45 0 01-102.5-88.45zm1.09-118.87v88.45h-88.62v-88.45zm117.53-30.25H256.78a103.52 103.52 0 01102.49-88.45c51.45 0 95.1 37.66 102.57 88.45z" fill="#00ccf3"/></svg>