<svg  viewBox="0 0 600 600" fill="none" xmlns="http://www.w3.org/2000/svg">
<path d="M300 600C465.685 600 600 465.685 600 300C600 134.315 465.685 0 300 0C134.315 0 0 134.315 0 300C0 465.685 134.315 600 300 600Z" fill="url(#paint0_radial)"/>
<path d="M300 457.651C300 467.698 308.175 475.938 318.177 474.914C406.838 465.825 476 390.983 476 300C476 209.018 406.838 134.176 318.177 125.087C308.175 124.056 300 132.303 300 142.35V190.858C300 200.905 308.229 208.86 318.092 210.843C359.7 219.229 391.034 255.955 391.034 300C391.034 344.046 359.7 380.772 318.092 389.158C308.229 391.141 300 399.102 300 409.143V457.651ZM245.379 157.86C245.379 145.491 233.26 136.772 222.159 142.247C164.001 170.945 124 230.804 124 300C124 369.197 164.001 429.056 222.159 457.754C233.26 463.229 245.379 454.51 245.379 442.141V157.866V157.86Z" fill="#3F75FF"/>
<defs>
<radialGradient id="paint0_radial" cx="0" cy="0" r="1" gradientUnits="userSpaceOnUse" gradientTransform="translate(196 143.5) rotate(54.1675) scale(497.082)">
<stop stop-color="white"/>
<stop offset="1" stop-color="#D5E0FC"/>
</radialGradient>
</defs>
</svg>

