<svg fill="none" viewBox="0 0 600 600" xmlns="http://www.w3.org/2000/svg"><radialGradient id="a" cx="0" cy="0" gradientTransform="rotate(54.17 -42.31 263.4) scale(497.082)" gradientUnits="userSpaceOnUse" r="1"><stop offset="0" stop-color="#c7f1fc"/><stop offset="1" stop-color="#0487b8"/></radialGradient><path d="M300 600c165.69 0 300-134.31 300-300S465.69 0 300 0 0 134.31 0 300s134.31 300 300 300z" fill="#b3e4f1"/><path d="M300 600c165.69 0 300-134.31 300-300S465.69 0 300 0 0 134.31 0 300s134.31 300 300 300z" fill="url(#a)" fill-opacity=".35"/><path d="M418.24 297.06l-79.78-79.86 76.91-76.91-31.65-34.05-111.5 110.96L384.2 331.1zm-50.07 50.6l-34.12 34.13-111.97-113.9 34.12-32.2zm-48.75 47.28L208.46 505.91l-31.65-34.13 76.92-76.83-79.86-79.86L208 280.97z" fill="#0487b8"/></svg>