<svg fill="none" viewBox="0 0 600 600" xmlns="http://www.w3.org/2000/svg" xmlns:xlink="http://www.w3.org/1999/xlink"><linearGradient id="c" gradientUnits="userSpaceOnUse" x1="64.8" x2="539.1" y1="468.6" y2="128.8"><stop offset="0" stop-color="#ffcf89"/><stop offset=".4" stop-color="#fbae94"/><stop offset=".8" stop-color="#f9999b"/><stop offset="1" stop-color="#f8919d"/></linearGradient><radialGradient id="d" cx="0" cy="0" gradientTransform="rotate(54.2 -42.3 263.4) scale(497.082)" gradientUnits="userSpaceOnUse" r="1"><stop offset="0" stop-color="#ffe9e9"/><stop offset="1" stop-color="#ac0121"/></radialGradient><linearGradient id="a"><stop offset="0" stop-color="#b346bf"/><stop offset=".2" stop-color="#b848b9"/><stop offset=".5" stop-color="#c64fa9"/><stop offset=".8" stop-color="#dd598e"/><stop offset="1" stop-color="#f26276"/></linearGradient><linearGradient id="e" gradientUnits="userSpaceOnUse" x1="306" x2="306" xlink:href="#a" y1="195.8" y2="421.5"/><linearGradient id="b"><stop offset="0" stop-color="#dedede"/><stop offset=".1" stop-color="#e9e9e9"/><stop offset=".3" stop-color="#f6f6f6"/><stop offset=".5" stop-color="#fdfdfd"/><stop offset="1" stop-color="#fff"/></linearGradient><linearGradient id="f" gradientUnits="userSpaceOnUse" x1="118.5" x2="118.5" xlink:href="#b" y1="414.3" y2="193"/><linearGradient id="g" gradientUnits="userSpaceOnUse" x1="300" x2="338" y1="480" y2="546.5"><stop offset="0" stop-color="#fdb592"/><stop offset="1" stop-color="#f5a57e"/></linearGradient><linearGradient id="h" gradientUnits="userSpaceOnUse" x1="271" x2="300" y1="516" y2="600"><stop offset="0" stop-color="#f26276"/><stop offset="1" stop-color="#dd3a51"/></linearGradient><linearGradient id="i" gradientUnits="userSpaceOnUse" x1="471" x2="471" xlink:href="#a" y1="317" y2="476.9"/><linearGradient id="j" gradientUnits="userSpaceOnUse" x1="333.5" x2="333.5" xlink:href="#b" y1="475.5" y2="316.9"/><linearGradient id="k" gradientUnits="userSpaceOnUse" x1="170" x2="200.5" y1="420" y2="486"><stop offset="0" stop-color="#ffcf89"/><stop offset="1" stop-color="#fcc77a"/></linearGradient><path d="M300 600a300 300 0 100-600 300 300 0 000 600z" fill="url(#c)"/><path d="M300 600a300 300 0 100-600 300 300 0 000 600z" fill="url(#d)" fill-opacity=".3"/><path d="M212 195v225h188z" fill="url(#e)"/><path d="M25 420h187V195z" fill="url(#f)"/><path d="M60 480a307.2 307.2 0 0060 60h360a307.2 307.2 0 0060-60z" fill="url(#g)"/><path d="M120 540c50.1 37.6 112.5 60 180 60s129.9-22.4 180-60z" fill="url(#h)"/><path d="M402 315v165h138z" fill="url(#i)"/><path d="M265 480h137V315z" fill="url(#j)"/><path d="M402.5 270c41.7 0 75.5-33.6 75.5-75s-33.8-75-75.5-75-75.5 33.6-75.5 75 33.8 75 75.5 75zM212.5 150a37.5 37.5 0 100-75 37.5 37.5 0 000 75z" fill="#fce65e"/><path d="M315 420l-50 60H60s-25.4-34.6-35-60z" fill="url(#k)"/></svg>