<svg fill="none" viewBox="0 0 600 600" xmlns="http://www.w3.org/2000/svg"><radialGradient id="a" cx="0" cy="0" gradientTransform="rotate(54.2 -42.3 263.4) scale(497.082)" gradientUnits="userSpaceOnUse" r="1"><stop offset="0" stop-color="#eaf3ff"/><stop offset="1" stop-color="#0e4c9c"/></radialGradient><path d="M300 600a300 300 0 100-600 300 300 0 000 600z" fill="#5f5974"/><path d="M300 600a300 300 0 100-600 300 300 0 000 600z" fill="#c6dfff"/><path d="M300 600a300 300 0 100-600 300 300 0 000 600z" fill="url(#a)" fill-opacity=".3"/><g fill="#5f5974"><path d="M353.8 365.7c0-9 1.7-16 5.3-21 3.6-5 8.6-7.5 15.1-7.5 4.8 0 8.7 1.4 11.7 4s5 6.5 5.8 11.3c.8-5.8 2.6-10.2 5.5-13.3 3-3.2 7.2-4.8 12.5-4.8 6.8 0 12.2 2.7 16.2 7.8a36.3 36.3 0 015.8 22v31h-77.8v-29.5zm32 12.9v-13.4c0-3.6-.9-6.4-2.5-8.3-1.6-2-4-3-6.9-3s-5.2 1-6.8 3c-1.7 2-2.6 4.7-2.6 8.3v13.4zm32.5 0V364c0-4-.9-7-2.5-9.2a8.5 8.5 0 00-7.2-3.2c-3.2 0-5.6 1-7.3 3.3s-2.7 5.3-2.7 9.1v14.5zM353.8 333v-61.6H368v22.4h63.5v16.7H368V333zm38.9-62.2c-8 0-15-1.6-20.8-4.6-6-3-10.7-7.5-14-13.2-3.2-5.8-4.9-12.6-4.9-20.3a36 36 0 013.6-16.4c2.4-4.8 5.7-8.7 10-11.7s9.2-4.7 14.9-5.3v16.6c-4.5 1-8 3-10.5 6.1-2.6 3-3.9 6.9-3.9 11.4 0 6.2 2.4 11.2 7 14.8a29 29 0 0018.5 5.5 30 30 0 0018.5-5.5c4.6-3.6 7-8.5 7-14.8 0-4.6-1.3-8.4-3.8-11.4-2.7-3-6.1-5.1-10.6-6v-16.7a30 30 0 0124.9 17 36 36 0 013.6 16.4c0 7.7-1.7 14.6-5 20.3s-7.8 10.1-13.8 13.2c-5.8 3-12.8 4.6-20.7 4.6z"/><path d="M173 408.4L149.9 392l145.4-202.2 23 16.6z" opacity=".5"/><path d="M247.9 285.9h7.7a64.6 64.6 0 110 129h-95.2a14.2 14.2 0 010-28.4h95.2a36.2 36.2 0 100-72.4h-44.7a64.6 64.6 0 110-129h95.2a14.2 14.2 0 010 28.4h-95.2a36.2 36.2 0 100 72.4z"/></g></svg>