<svg fill="none" viewBox="0 0 600 600" xmlns="http://www.w3.org/2000/svg"><radialGradient id="a" cx="0" cy="0" gradientTransform="rotate(54.2 -42.3 263.4) scale(497.082)" gradientUnits="userSpaceOnUse" r="1"><stop offset="0" stop-color="#f6f2ff"/><stop offset="1" stop-color="#786e98"/></radialGradient><path d="M300 600a300 300 0 100-600 300 300 0 000 600z" fill="#eee7ff"/><path d="M300 600a300 300 0 100-600 300 300 0 000 600z" fill="url(#a)" fill-opacity=".3"/><g fill="#5f5974"><path d="M260.9 281.9c7.4 0 13.5 6.1 13.5 13.7 0 7.7-6 13.8-13.6 13.8h-35.2c-34 0-61.7-28-61.7-62.5s27.6-62.6 61.7-62.6h90.9c7.5 0 13.5 6.2 13.5 13.8 0 7.6-6.1 13.6-13.5 13.6h-90.8a34.8 34.8 0 00-34.5 35c0 19.5 15.5 35.2 34.5 35.2z"/><path d="M233 309.3c-7.5 0-13.5-6.1-13.5-13.8s6-13.7 13.6-13.7h35.1c34.1 0 61.8 28 61.8 62.5S302.3 407 268.2 407h-90.6c-7.5 0-13.5-6.2-13.5-13.8 0-7.6 6-13.8 13.5-13.8h90.7c19.1 0 34.6-15.7 34.6-35S287.4 309 268.3 309h-35.2z"/><path d="M188.3 401.4l-22-16 138.5-196 22 16z" opacity=".5"/></g><path d="M351.8 380.6h44c6.1 0 10.8-1.2 13.8-3.5s4.7-6.1 4.7-11c0-5.2-1.6-8.9-4.7-11.2s-7.7-3.6-13.8-3.6h-44v-16h43c10.9 0 19.1 2.6 24.8 7.9 5.7 5.2 8.5 12.8 8.5 22.9s-2.9 17.7-8.5 22.8c-5.7 5.2-14 7.8-24.7 7.8h-43zm51-70.3c3.8-.3 6.8-1.8 9.1-4.6 2.3-2.7 3.5-6.3 3.5-11a16 16 0 00-2.5-9.2 7.8 7.8 0 00-6.8-3.5 6 6 0 00-4.8 2 13.8 13.8 0 00-2.8 5.5c-1 3.6-1.8 7.3-2.5 11-1 5-2.2 9.1-3.7 12.5a20 20 0 01-6.6 8.1c-2.9 2.1-6.8 3.2-11.6 3.2-4.4 0-8.3-1.2-11.8-3.5-3.5-2.6-6.3-6-8.1-9.9-2-4.3-3-9-3-14.3 0-5.6 1-10.4 3-14.8a26 26 0 018.6-10.3c3.6-2.6 7.9-4 12.2-4v15.8c-3 .2-5.9 1.7-7.8 4-2 2.4-3 5.5-3 9.3 0 3.5.8 6.4 2.3 8.5a7.5 7.5 0 006.5 3.2c2 0 3.7-.7 4.7-2s2-3 2.8-5.4c.7-2.3 1.5-6 2.4-10.9 1-5 2-9.1 3.5-12.6 1.4-3.4 3.6-6.1 6.4-8.2 2.8-2 6.6-3.2 11.4-3.2 4.6 0 8.8 1.3 12.4 3.7 3.7 2.5 6.6 6 8.6 10.5 2.2 4.7 3.2 9.8 3.2 15 0 6-1 11.3-3.3 15.9-2 4.4-5.1 8.1-9.1 11-3.9 2.6-8.4 4-13.2 4zm-51-54v-26c0-7.4 1.6-14 4.8-19.7a33 33 0 0113.4-13.3 41 41 0 0119.7-4.6c7.3 0 13.9 1.5 19.7 4.6a33 33 0 0113.4 13.3 40.1 40.1 0 014.8 19.7v26zm62.2-26c0-6.8-2.3-12-6.6-15.8a26.7 26.7 0 00-17.7-5.6c-7.3 0-13.2 2-17.7 5.6-4.4 3.8-6.6 9-6.6 15.8v9.9h48.7v-9.9z" fill="#000"/><path d="M351.8 380.6h44c6.1 0 10.8-1.2 13.8-3.5s4.7-6.1 4.7-11c0-5.2-1.6-8.9-4.7-11.2s-7.7-3.6-13.8-3.6h-44v-16h43c10.9 0 19.1 2.6 24.8 7.9 5.7 5.2 8.5 12.8 8.5 22.9s-2.9 17.7-8.5 22.8c-5.7 5.2-14 7.8-24.7 7.8h-43zm51-70.3c3.8-.3 6.8-1.8 9.1-4.6 2.3-2.7 3.5-6.3 3.5-11a16 16 0 00-2.5-9.2 7.8 7.8 0 00-6.8-3.5 6 6 0 00-4.8 2 13.8 13.8 0 00-2.8 5.5c-1 3.6-1.8 7.3-2.5 11-1 5-2.2 9.1-3.7 12.5a20 20 0 01-6.6 8.1c-2.9 2.1-6.8 3.2-11.6 3.2-4.4 0-8.3-1.2-11.8-3.5-3.5-2.6-6.3-6-8.1-9.9-2-4.3-3-9-3-14.3 0-5.6 1-10.4 3-14.8a26 26 0 018.6-10.3c3.6-2.6 7.9-4 12.2-4v15.8c-3 .2-5.9 1.7-7.8 4-2 2.4-3 5.5-3 9.3 0 3.5.8 6.4 2.3 8.5a7.5 7.5 0 006.5 3.2c2 0 3.7-.7 4.7-2s2-3 2.8-5.4c.7-2.3 1.5-6 2.4-10.9 1-5 2-9.1 3.5-12.6 1.4-3.4 3.6-6.1 6.4-8.2 2.8-2 6.6-3.2 11.4-3.2 4.6 0 8.8 1.3 12.4 3.7 3.7 2.5 6.6 6 8.6 10.5 2.2 4.7 3.2 9.8 3.2 15 0 6-1 11.3-3.3 15.9-2 4.4-5.1 8.1-9.1 11-3.9 2.6-8.4 4-13.2 4zm-51-54v-26c0-7.4 1.6-14 4.8-19.7a33 33 0 0113.4-13.3 41 41 0 0119.7-4.6c7.3 0 13.9 1.5 19.7 4.6a33 33 0 0113.4 13.3 40.1 40.1 0 014.8 19.7v26zm62.2-26c0-6.8-2.3-12-6.6-15.8a26.7 26.7 0 00-17.7-5.6c-7.3 0-13.2 2-17.7 5.6-4.4 3.8-6.6 9-6.6 15.8v9.9h48.7v-9.9z" fill="#5f5974"/></svg>