<svg viewBox="0 0 600 600" fill="none" xmlns="http://www.w3.org/2000/svg">
<circle cx="300" cy="300" r="300" fill="url(#paint0_radial)"/>
<path fill-rule="evenodd" clip-rule="evenodd" d="M244.362 419.226C251.233 432.501 260.291 444.571 271.197 454.908C286.929 469.819 306.035 480.675 326.873 486.543C327.832 486.477 328.756 486.153 329.547 485.605C330.215 485.068 330.884 484.264 331.285 483.459C331.686 482.654 331.819 481.716 331.686 480.777V470.049C331.631 468.566 331.168 467.128 330.349 465.892C329.547 464.551 328.344 463.478 326.873 462.942L326.739 463.076C304.97 455.204 286.124 440.838 272.732 421.908C266.44 413.017 261.523 403.304 258.082 393.097L244.362 419.226ZM368.181 344.801C399.299 348.955 415.34 357.792 415.371 384.151C415.341 404.238 400.375 420.302 377.004 423.919V441.754C377.004 443.248 376.412 444.681 375.359 445.737C374.306 446.793 372.878 447.387 371.389 447.387H360.026C359.278 447.405 358.533 447.272 357.837 446.997C357.14 446.722 356.505 446.31 355.969 445.785C355.434 445.26 355.008 444.633 354.718 443.941C354.427 443.249 354.278 442.506 354.278 441.754V424.054C329.547 420.701 317.515 407.023 314.173 388.249C313.964 387.099 314.155 385.912 314.715 384.886C315.275 383.861 316.169 383.06 317.248 382.617C317.916 382.215 318.718 382.215 319.521 382.215H332.354C333.65 382.209 334.91 382.644 335.929 383.447C336.949 384.25 337.667 385.375 337.969 386.64C340.241 397.77 346.925 406.353 366.71 406.353C381.282 406.353 391.709 398.173 391.709 386.104C391.709 374.035 385.56 369.341 364.17 365.855C332.488 361.698 317.382 352.177 317.382 327.503C317.382 308.461 331.552 293.576 354.278 290.492V273.059C354.278 272.308 354.427 271.564 354.718 270.872C355.008 270.18 355.434 269.553 355.969 269.028C356.505 268.503 357.14 268.091 357.837 267.816C358.533 267.541 359.278 267.409 360.026 267.427H371.389C372.878 267.427 374.306 268.02 375.359 269.076C376.412 270.133 377.004 271.565 377.004 273.059V291.028C395.318 294.246 406.949 304.572 410.558 321.737C410.826 322.541 410.826 323.212 410.558 324.016C410.337 324.754 409.96 325.436 409.452 326.014C408.945 326.593 408.319 327.055 407.617 327.369C406.949 327.637 406.147 327.905 405.478 327.905H393.447C392.244 327.905 391.041 327.369 390.105 326.564C389.07 325.862 388.313 324.818 387.966 323.614C384.758 312.886 377.004 308.058 363.368 308.058C348.53 308.058 340.642 314.763 340.642 325.491C340.642 336.085 345.054 341.449 368.181 344.801ZM415.371 384.151C415.371 384.176 415.371 384.201 415.371 384.226V384.092C415.371 384.112 415.371 384.132 415.371 384.151ZM404.543 228.27C405.478 228.136 406.414 228.27 407.216 228.672H407.082C434.569 237.292 458.624 254.427 475.795 277.618C492.814 300.667 502 328.59 502 357.273C502 385.955 492.814 413.878 475.795 436.927C458.672 460.108 434.662 477.245 407.216 485.873C406.576 486.164 405.884 486.326 405.181 486.349C404.478 486.372 403.777 486.256 403.119 486.007C402.461 485.758 401.858 485.381 401.345 484.897C400.832 484.414 400.42 483.834 400.131 483.191C399.73 482.386 399.596 481.448 399.596 480.509V470.049C399.596 468.44 400.131 466.965 400.933 465.624C401.869 464.417 403.206 463.478 404.543 462.942C420.861 457.249 435.633 447.82 447.687 435.403C459.741 422.987 468.745 407.925 473.987 391.41C479.228 374.896 480.562 357.383 477.882 340.262C475.203 323.14 468.584 306.88 458.55 292.771C445.158 273.841 426.312 259.475 404.543 251.603C403.153 250.996 401.963 250.006 401.111 248.748C400.26 247.49 399.781 246.016 399.73 244.496V234.036C399.596 233.098 399.73 232.159 400.131 231.354C400.532 230.55 401.2 229.745 401.869 229.209C402.66 228.66 403.583 228.336 404.543 228.27Z" fill="url(#paint1_radial)"/>
<path fill-rule="evenodd" clip-rule="evenodd" d="M88 267.725L193.874 331.187L266.208 287.829L288.673 249.136L193.874 90L88 267.725ZM248.156 318.922L185.442 426.936L88 288.081L193.874 351.371L248.156 318.922Z" fill="url(#paint2_radial)"/>
<path d="M105.5 211C133.48 211 160.315 199.885 180.1 180.1C199.885 160.315 211 133.48 211 105.5C211 77.5197 199.885 50.6853 180.1 30.9002C160.315 11.1151 133.48 0 105.5 0C77.5197 0 50.6853 11.1151 30.9002 30.9002C11.1151 50.6853 0 77.5197 0 105.5C0 133.48 11.1151 160.315 30.9002 180.1C50.6853 199.885 77.5197 211 105.5 211V211Z" fill="url(#paint3_radial)"/>
<path fill-rule="evenodd" clip-rule="evenodd" d="M73.594 39.3409C77.065 39.8348 80.66 41.1932 82.8914 43.9099C85.1227 46.6265 85.9905 49.8371 86.6103 53.1712L86.8582 54.5295C87.3541 56.6288 87.726 58.6046 88.5937 60.5803C88.8417 61.3212 89.3375 61.9386 89.7094 62.6795L90.3292 63.9144L91.073 64.9023L92.0648 66.5076V67.372C90.8251 68.6068 87.4781 67.2485 86.2384 66.6311C84.131 65.5197 82.2716 64.1614 80.66 62.3091C77.9703 59.1642 75.9557 55.5037 74.7404 51.5535C73.5252 47.6033 73.135 43.4471 73.594 39.3409V39.3409ZM131.237 100.836C127.766 110.592 133.345 118.865 139.047 127.139C145.245 136.277 151.568 145.414 144.874 156.528C151.154 153.661 156.085 148.496 158.647 142.105C161.209 135.714 161.204 128.587 158.634 122.199C155.287 114.049 147.105 109.727 139.543 105.652C136.688 104.156 133.915 102.507 131.237 100.713V100.836ZM86.6103 128.003C88.6258 126.484 90.8352 125.238 93.1804 124.298C95.6597 123.187 98.139 122.57 100.618 122.076L105.329 121.335C108.676 120.841 111.899 120.347 114.75 119.236C116.734 118.371 118.593 117.26 120.329 115.778C121.89 114.305 123.079 112.486 123.8 110.468C124.543 108.245 124.915 106.023 124.667 103.8C124.543 101.33 123.924 98.8606 123.056 96.6379C124.93 98.5704 126.296 100.935 127.031 103.52C127.766 106.105 127.849 108.831 127.271 111.456C126.527 114.173 125.163 116.766 123.18 118.865C121.161 120.763 118.749 122.196 116.114 123.064C113.635 124.052 111.031 124.545 108.428 124.669C105.953 124.896 103.473 125.061 100.99 125.163C96.0316 125.286 91.197 126.274 86.6103 127.88V128.003ZM134.213 164.431C132.681 165.676 131.018 166.753 129.254 167.642C127.395 168.506 125.411 169 123.304 169C117.601 169 113.635 164.678 111.279 159.986L109.544 156.034C108.676 153.935 107.808 151.959 106.693 150.107C103.965 145.661 99.2547 142.204 93.9242 142.698C92.8233 142.814 91.7622 143.174 90.8186 143.751C89.875 144.327 89.0725 145.107 88.4698 146.032C85.2467 150.971 89.8334 158.01 95.7837 157.022C96.8343 156.884 97.8236 156.45 98.6359 155.772C99.4482 155.094 100.05 154.2 100.37 153.194C100.737 152.164 100.822 151.057 100.618 149.983C100.495 149.402 100.256 148.851 99.9153 148.363C99.5747 147.875 99.1393 147.46 98.6349 147.143C99.7578 147.668 100.642 148.594 101.114 149.736C101.61 150.971 101.734 152.206 101.486 153.441C101.238 154.799 100.618 156.034 99.7505 157.145C98.8828 158.133 97.6432 158.874 96.2795 159.368C95.0399 159.739 93.5523 159.986 92.1887 159.739C89.8585 159.434 87.6869 158.395 85.9905 156.775C84.7508 155.787 83.8831 154.799 83.0153 153.564L81.8997 152.577C80.0177 150.559 77.7937 148.887 75.3296 147.637C72.7789 146.518 70.0524 145.85 67.2719 145.661L66.6521 145.538C65.9083 145.414 64.6686 145.167 64.4207 145.414C70.0806 139.839 77.0797 135.8 84.7508 133.683C88.7177 132.572 92.9325 132.202 97.1473 132.695C101.456 133.257 105.506 135.06 108.8 137.882C110.411 139.364 111.775 141.216 112.767 143.315C113.635 145.291 114.254 147.267 114.626 149.366L115.122 152.824C115.99 158.627 116.858 165.295 123.428 166.407L124.667 166.654H126.031C127.023 166.654 127.89 166.53 128.758 166.283C130.618 165.789 132.477 165.172 134.213 164.431V164.431ZM83.0153 153.688L84.255 154.923L83.7591 154.429L83.0153 153.688ZM79.9162 70.4591C79.6683 71.694 79.0485 72.6818 78.4287 73.6697C77.1252 75.3108 75.4167 76.5872 73.4701 77.3742C71.2778 78.3386 68.9227 78.8833 66.5281 78.9796C65.2943 79.0439 64.1131 79.4973 63.1549 80.2742C62.1968 81.051 61.5113 82.1112 61.1976 83.3015L60.9497 85.0303C60.7933 86.0139 60.6693 87.0023 60.5778 87.9939V90.2167C60.0819 93.5508 59.0902 96.8848 57.6026 99.8485L56.7349 101.701C55.1234 104.911 53.6358 107.875 54.0077 111.827C54.4245 114.611 55.8325 117.153 57.9745 118.989C58.9663 119.977 60.2059 120.841 61.6935 121.705C65.4124 124.175 69.5032 126.892 68.1396 133.807C66.9 139.487 57.7266 145.291 44.5864 147.39C45.826 147.143 43.3467 142.698 42.9748 141.957H42.8509L41.8592 140.352C40.6195 138.623 39.6278 137.017 38.76 135.289C36.6526 130.596 35.6609 125.41 36.5287 120.223C37.3964 115.655 40.2476 112.073 43.2227 108.492L44.7103 106.764C48.5532 101.948 52.6441 95.65 53.5118 89.4758L53.7597 87.8704C53.7597 86.6356 54.0077 85.4007 54.2556 84.1659C54.6275 81.9432 55.2473 79.9674 56.239 77.9917C56.8588 76.7568 57.7266 75.769 58.7183 74.7811C59.3053 74.2986 59.7019 73.6248 59.8381 72.879C59.9742 72.1332 59.841 71.3634 59.4621 70.7061L38.5121 33.4137L68.2636 70.2121C68.6226 70.6496 69.0774 70.9994 69.5931 71.2348C70.1087 71.4702 70.6717 71.5851 71.2387 71.5705C71.7753 71.5817 72.3079 71.4772 72.8001 71.264C73.2922 71.0509 73.7323 70.7342 74.0899 70.3356C74.4618 69.9652 74.5858 69.3477 74.7097 68.7303C74.7097 68.2363 74.4618 67.6189 74.2139 67.2485L68.1396 59.7159L60.7017 50.3311L45.5781 31.8083L25 6L47.4376 30.0795L63.5529 47.8614L71.4867 56.7523L73.4701 58.975C75.4535 61.1977 77.5609 63.4205 79.5443 65.8902L79.9162 66.3841V67.125C80.1642 68.3598 79.9162 69.3477 79.7923 70.4591H79.9162ZM91.6928 83.425C95.1639 89.5993 87.4781 91.4515 83.8831 91.6985C78.3047 92.3159 77.189 89.2288 78.3047 85.1538C78.658 83.738 79.4443 82.4666 80.5547 81.5153C81.6651 80.5641 83.0448 79.98 84.5029 79.8439C85.9287 79.734 87.357 80.0225 88.6271 80.6769C89.8973 81.3314 90.959 82.3258 91.6928 83.5485V83.425ZM113.139 72.3114C111.031 88.6114 125.287 94.4152 139.047 99.972C150.948 104.788 162.477 109.48 161.981 120.841C163.802 118.002 165.04 114.83 165.621 111.511C166.201 108.191 166.115 104.79 165.365 101.504C164.615 98.2186 163.218 95.1139 161.254 92.3707C159.289 89.6274 156.798 87.3002 153.923 85.5242C147.331 81.9946 140.065 79.8907 132.601 79.35C124.915 78.1151 117.725 77.1273 113.139 72.3114V72.3114ZM143.51 60.0863L143.138 59.8394L143.634 60.3333L144.254 60.7038L143.51 60.0863V60.0863ZM156.65 83.0545C156.154 82.0667 155.659 81.2023 155.039 80.4613C153.179 77.9917 150.576 76.1394 147.601 75.522C145.617 74.9045 143.634 74.5341 141.651 74.4106L135.328 74.1637C129.535 73.8776 123.814 72.7545 118.345 70.8295L117.725 70.5826L116.238 69.8417C114.13 68.8538 112.271 67.372 110.659 65.8902C107.684 63.05 105.205 59.9629 102.85 56.7523L102.23 56.0114C99.7505 52.6773 97.2713 49.4667 94.4201 46.3796C88.9007 40.1959 81.2417 36.315 72.9742 35.5129C77.189 35.0189 81.6517 35.5129 85.6186 36.9947C89.7094 38.6 93.4284 41.0697 96.7754 44.0333C98.7588 46.0091 100.742 48.1083 102.478 50.2076C113.594 47.6828 125.251 49.2164 135.328 54.5295H135.576C138.532 56.1719 141.279 58.1619 143.758 60.4568L144.13 60.8273C145.865 62.4326 147.601 64.2849 149.088 66.1371L149.212 66.2606C154.171 72.4348 156.65 79.103 156.65 83.0545V83.0545Z" fill="#FF007A"/>
<defs>
<radialGradient id="paint0_radial" cx="0" cy="0" r="1" gradientUnits="userSpaceOnUse" gradientTransform="translate(181 165.5) rotate(48.9812) scale(483.768)">
<stop stop-color="#A0DEF9"/>
<stop offset="1" stop-color="#4E99CF"/>
</radialGradient>
<radialGradient id="paint1_radial" cx="0" cy="0" r="1" gradientUnits="userSpaceOnUse" gradientTransform="translate(292.313 310.414) rotate(53.3051) scale(248.003 247.345)">
<stop stop-color="#2775C9"/>
<stop offset="1" stop-color="#1C66B7"/>
</radialGradient>
<radialGradient id="paint2_radial" cx="0" cy="0" r="1" gradientUnits="userSpaceOnUse" gradientTransform="translate(145.359 98.7404) rotate(77.8234) scale(347.046 206.695)">
<stop stop-color="#7C8FEE"/>
<stop offset="1" stop-color="#4C5DB8"/>
</radialGradient>
<radialGradient id="paint3_radial" cx="0" cy="0" r="1" gradientUnits="userSpaceOnUse" gradientTransform="translate(68.9541 50.5099) rotate(54.2) scale(174.807)">
<stop stop-color="#FEF1F7"/>
<stop offset="1" stop-color="#FFA5CF"/>
</radialGradient>
</defs>
</svg>
