<svg fill="none" viewBox="0 0 600 622" xmlns="http://www.w3.org/2000/svg"><path d="M280 560a280 280 0 100-560 280 280 0 000 560z" fill="#ff0079"/><path d="M300 480H100a60 60 0 100 120h200a60 60 0 000-120z" fill="#000"/><path d="M280 560a280 280 0 110-560 280 280 0 010 560zm0-20a260 260 0 100-520 260 260 0 000 520z" fill="#000"/><path d="M340 580a260 260 0 100-520 260 260 0 000 520z" fill="#fff"/><g fill="#000"><path d="M340 600a280 280 0 110-560 280 280 0 010 560zm0-20a260 260 0 100-520 260 260 0 000 520z"/><path clip-rule="evenodd" d="M230 388.5h-28.5l-16-67.5a352.6 352.6 0 01-5.5-30c-.3 3.1-1.2 8.2-2.4 15.2l-3 15-16 67.3h-28.4L100 260h24.6l15.2 70.1a442 442 0 015.7 33.7A259.5 259.5 0 01151 332l17.3-72h23.6l17.3 72a400.8 400.8 0 015.4 31.8 353 353 0 015.8-33.7l15-70.1h24.7zm113 0h-68V260h68v22.3h-43v28.2h40V333h-40V366h43zm70.4 0h-25V282.7h-32.2V260h89.3v22.7h-32.1v105.8zm147.1 0h-25V333h-46.8v55.5h-25V260h25v50.4h46.8V260h25z" fill-rule="evenodd"/></g></svg>