<svg width="76" height="76" viewBox="0 0 76 76" fill="none" xmlns="http://www.w3.org/2000/svg">
  <g clip-path="url(#clip0)">
  <path d="M37.8643 76.1287C58.7761 76.1287 75.7286 59.1601 75.7286 38.2282C75.7286 17.2963 58.7761 0.327637 37.8643 0.327637C16.9524 0.327637 0 17.2963 0 38.2282C0 59.1601 16.9524 76.1287 37.8643 76.1287Z" fill="#C4C4C4"/>
  <path d="M37.8643 76.1287C58.7761 76.1287 75.7286 59.1601 75.7286 38.2282C75.7286 17.2963 58.7761 0.327637 37.8643 0.327637C16.9524 0.327637 0 17.2963 0 38.2282C0 59.1601 16.9524 76.1287 37.8643 76.1287Z" fill="url(#paint0_radial)"/>
  <path d="M38 70.5714C55.9887 70.5714 70.5714 55.9887 70.5714 38C70.5714 20.0113 55.9887 5.42859 38 5.42859C20.0113 5.42859 5.42859 20.0113 5.42859 38C5.42859 55.9887 20.0113 70.5714 38 70.5714Z" fill="#C4C4C4"/>
  <path d="M38 70.5714C55.9887 70.5714 70.5714 55.9887 70.5714 38C70.5714 20.0113 55.9887 5.42859 38 5.42859C20.0113 5.42859 5.42859 20.0113 5.42859 38C5.42859 55.9887 20.0113 70.5714 38 70.5714Z" fill="white"/>
  <g clip-path="url(#clip1)">
  <path d="M38 57.8403C48.4932 57.8403 57 49.099 57 38.3165C57 27.5335 48.4932 18.7927 38 18.7927C27.5068 18.7927 19 27.5335 19 38.3165C19 49.099 27.5068 57.8403 38 57.8403Z" fill="#3B5D8B"/>
  <path d="M38.1632 31.4828C38.1632 36.1339 44.1639 37.3609 46.8785 40.7312C51.3478 46.2799 44.2294 54.1797 37.5253 54.1797C28.1455 54.1797 21.6128 46.0686 21.6128 36.3642C21.6128 26.6594 26.6003 18.7084 38.0003 18.7084C38.8942 18.7084 38.1632 21.7785 38.1632 31.4828Z" fill="#ECF3FF"/>
  <path fill-rule="evenodd" clip-rule="evenodd" d="M26.1251 25.6261L27.7876 27.0904C24.8928 30.6913 23.4699 35.3055 23.8185 39.9624L23.9876 42.2213L23.6385 41.0548C22.8618 38.4609 22.6821 35.717 23.1137 33.0395C23.5452 30.3621 24.5761 27.8242 26.1251 25.6261ZM28.9751 28.3106L30.4001 29.5309C28.5545 31.4273 27.3872 33.9093 27.0879 36.5736L26.8376 38.8042L26.6495 37.0666C26.3123 33.9499 27.1439 30.8183 28.9751 28.3096V28.3106Z" fill="#C9D2E2"/>
  <path d="M33.4874 21.637L34.4374 19.6846L31.3974 20.9341C30.2651 21.3994 29.215 22.0529 28.289 22.8684C28.1131 23.0233 27.9503 23.1931 27.8021 23.376L26.8374 24.5655H31.3499L33.4874 21.637Z" fill="#C9D2E2"/>
  <path d="M41.8656 44.1166L45.8936 40.1201C45.9451 40.0691 46.0118 40.0377 46.0829 40.0308C46.1541 40.024 46.2253 40.0422 46.285 40.0825L48.2748 41.4243C49.726 42.4029 50.7989 43.8718 51.3078 45.577C51.8168 47.2822 51.7299 49.1166 51.0621 50.763C53.5507 47.9136 55.2036 44.3985 55.8294 40.6242C56.4552 36.8499 56.0284 32.9707 54.5985 29.4352L53.9121 27.7381L56.0496 29.2863C54.6588 23.1412 49.3293 18.7923 43.1895 18.7923H41.7996L44.1746 17.328C41.5402 16.8502 38.8273 17.1725 36.3685 18.2554L35.1496 18.7928L36.5746 17L34.5397 17.757C33.9972 17.959 33.4713 18.2051 32.967 18.4931L32.4682 18.7772C31.6269 19.2576 30.9801 20.0309 30.6444 20.9579C30.3087 21.8849 30.3061 22.9046 30.6371 23.8333L22.1375 19.8798C21.9916 19.8114 21.8643 20.0052 21.9807 20.1189L31.8246 29.7744L31.6997 30.0312C31.4696 30.5043 31.3497 31.026 31.3496 31.555V31.6746C31.3496 31.8684 31.4009 32.0582 31.4978 32.2247C31.8609 32.8465 31.9854 33.5851 31.8469 34.2961L31.8246 34.4113L30.2319 40.5482C30.0291 41.33 29.6775 42.0627 29.1974 42.7041L28.5153 43.6153C28.2093 44.0241 27.985 44.491 27.8553 44.9891C27.7255 45.4873 27.6928 46.0069 27.7591 46.518L27.8812 47.4615C27.975 48.1839 28.2588 48.8664 28.702 49.4354L28.758 49.5081C28.9012 49.6919 29.0751 49.8481 29.2715 49.9694C29.8605 50.3325 30.5065 50.5892 31.1805 50.7274L32.0517 50.9065C32.3697 50.9717 32.6987 50.9507 33.0064 50.8455C33.1684 50.7899 33.3261 50.723 33.4786 50.6444L34.1996 50.2754L35.6246 50.5195C35.9951 50.5956 36.3775 50.5849 36.7434 50.4884C37.1094 50.3918 37.4494 50.2117 37.7384 49.9616L40.7594 47.3478C41.1218 47.0342 41.351 46.5877 41.3982 46.1032L41.5203 44.8493C41.5474 44.5709 41.6698 44.3114 41.8656 44.1171V44.1166Z" fill="#3B5D8B"/>
  <path d="M28.3996 24.8887L33.2503 29.0424L33.3045 29.0473C33.978 29.1107 34.2882 28.2077 33.7253 27.8221L28.5079 24.7291C28.4072 24.6695 28.3103 24.8121 28.3996 24.8887ZM40.0927 44.4564L40.0784 44.4174L40.01 44.2251C39.8731 43.8401 39.6617 43.4877 39.3886 43.189C39.1155 42.8903 38.7863 42.6515 38.4209 42.4871C38.0556 42.3227 37.6616 42.236 37.2628 42.2323C36.8639 42.2285 36.4685 42.3079 36.1003 42.4655C36.3896 42.0938 36.7682 41.8061 37.1988 41.6308C37.6294 41.4555 38.0971 41.3986 38.5556 41.4659L40.0879 41.6909C40.2679 41.7172 40.4489 41.6518 40.5729 41.5156L43.9373 37.8286L46.5498 37.9506C47.5191 37.9174 48.4405 37.5094 49.1297 36.8082C49.8189 36.1071 50.2251 35.1645 50.2672 34.1688L50.3503 32.2155L50.7968 33.6939C51.6508 36.5215 49.6663 39.4134 46.7878 39.5364L48.0304 40.4301C49.1234 41.2164 50.0284 42.2475 50.6772 43.4456C51.3259 44.6437 51.7014 45.9775 51.7753 47.3464C56.0854 41.2238 54.2671 32.6118 47.8755 28.875L46.0753 27.8221L46.9569 32.1262C47.0011 32.3418 46.973 32.5665 46.8771 32.7636L46.2064 34.142C46.167 34.2231 46.1064 34.2912 46.0314 34.3389C45.9564 34.3866 45.8699 34.4119 45.7817 34.4119H44.1753L45.3077 32.4722C45.4955 32.1505 45.5561 31.767 45.4768 31.4009L44.6503 27.5781C43.7362 28.2043 42.6213 28.4414 41.5405 28.2395L40.6128 28.0662L41.9138 27.3584C42.752 26.9024 43.4642 26.2358 43.9842 25.4208C44.5042 24.6058 44.8151 23.6688 44.8878 22.6971V20.4802C44.8878 20.443 44.8769 20.4067 44.8566 20.376C44.8362 20.3452 44.8074 20.3215 44.7737 20.3078C44.7401 20.2941 44.7032 20.2912 44.6679 20.2993C44.6326 20.3074 44.6005 20.3262 44.5757 20.3533L38.1276 27.3677C37.6037 27.9378 36.6698 27.624 36.5753 26.8455L34.2103 31.7064C33.987 32.165 33.8744 32.6721 33.882 33.1849C33.8895 33.6976 34.0169 34.201 34.2535 34.6525C34.5284 35.1772 34.6704 35.7645 34.6666 36.3603C34.6628 36.9562 34.5132 37.5415 34.2317 38.0624L33.9628 38.5602C33.9628 37.9238 33.7795 37.3009 33.4356 36.7714L33.0128 36.1193L31.6961 41.338C31.4687 42.2386 31.0337 43.0698 30.4279 43.7614L30.1718 44.0542C29.8718 44.3969 29.6487 44.8033 29.5186 45.2444C29.3884 45.6856 29.3542 46.1507 29.4185 46.607L29.532 47.4133C29.5567 47.5895 29.5957 47.7633 29.6493 47.9322L29.7524 48.2606C29.8065 48.4326 29.8967 48.5901 30.0167 48.7222C30.1368 48.8542 30.2836 48.9574 30.4469 49.0245L30.4706 49.0343C30.8948 49.2085 31.3475 49.2978 31.8044 49.2978C32.1322 49.2978 32.4566 49.2339 32.7606 49.1089L33.2023 48.9274C33.3922 48.8493 33.5737 48.7512 33.7438 48.6345C34.498 48.1181 35.0464 47.3403 35.289 46.443L35.7678 44.6712C35.8675 44.3025 36.0663 43.9702 36.3414 43.7123C36.6164 43.4543 36.9566 43.2812 37.3229 43.2128L38.7128 42.9531C38.5608 43.2118 38.3166 43.4007 38.0316 43.4793L37.2878 43.6852C38.2587 43.4632 39.1075 44.3939 38.8458 45.3799C38.76 45.7032 38.5678 45.9859 38.3019 46.1799L36.8128 47.262L34.8492 48.7165C34.8212 48.7375 34.7994 48.7659 34.7862 48.7987C34.7729 48.8316 34.7688 48.8675 34.7741 48.9026C34.7795 48.9377 34.7941 48.9706 34.8165 48.9977C34.8389 49.0248 34.8681 49.0451 34.9009 49.0562L35.0135 49.0938C35.4135 49.2275 35.8419 49.2427 36.2499 49.1377C36.4646 49.0826 36.666 48.9829 36.8418 48.8449L39.4362 46.8066C39.7767 46.5392 40.0243 46.1663 40.1425 45.743C40.2607 45.3198 40.2433 44.8687 40.0927 44.4564Z" fill="white"/>
  <path d="M41.5401 28.2394L40.6124 28.0661L41.1758 28.2399C42.3704 28.6084 43.6268 28.7157 44.8637 28.5547L44.6499 27.5785C43.7359 28.2047 42.6209 28.4418 41.5401 28.2399V28.2394Z" fill="#C9D2E2"/>
  <path fill-rule="evenodd" clip-rule="evenodd" d="M52.25 44.6613L52.7483 42.8416C53.2508 41.006 53.2945 39.0698 52.8753 37.2122C52.456 35.3547 51.5875 33.6358 50.35 32.2148L49.8783 33.8309C49.6029 34.7747 49.0387 35.6021 48.2695 36.1903C47.5002 36.7785 46.5669 37.0962 45.6081 37.0963H43.7071C42.9129 37.0963 42.1202 37.1768 41.3412 37.3369C41.3361 37.3378 41.3312 37.3398 41.3269 37.3428C41.3225 37.3457 41.3188 37.3495 41.316 37.354L38.7125 41.4886L40.375 41.7327L43.6383 38.1559C43.7321 38.0531 43.8465 37.9724 43.9736 37.9193C44.1007 37.8662 44.2375 37.8421 44.3745 37.8484L46.55 37.9504C47.5193 37.9172 48.4407 37.5092 49.1299 36.8081C49.8191 36.1069 50.2253 35.1643 50.2674 34.1687L50.35 32.2153L50.7965 33.6938C51.6506 36.5213 49.666 39.4133 46.7875 39.5363L47.7717 39.9297C48.8046 40.3424 49.7391 40.9785 50.5118 41.7949C51.2845 42.6113 51.8773 43.5888 52.25 44.6613ZM40.0781 44.4172L40.0924 44.4563C40.2429 44.8685 40.2603 45.3196 40.1421 45.7428C40.0239 46.1661 39.7763 46.539 39.4359 46.8064L36.8415 48.8447C36.6657 48.9829 36.4643 49.0829 36.2496 49.1376C35.8417 49.2425 35.4132 49.2273 35.0132 49.0937L34.8736 49.0468C34.8431 49.0366 34.8161 49.0179 34.7953 48.9929C34.7746 48.9678 34.7611 48.9373 34.7561 48.9048C34.7512 48.8724 34.7551 48.8391 34.7675 48.8088C34.7798 48.7784 34.8001 48.7522 34.8261 48.733L36.8125 47.2618L37.2652 47.1603C37.4376 47.1213 37.6024 47.0563 37.7559 46.9665L38.4399 46.5648C38.6713 46.429 38.8679 46.2386 39.0136 46.0093C39.1593 45.78 39.2498 45.5183 39.2778 45.246C39.4269 43.7886 37.8319 42.8333 36.6714 43.6856L36.5351 43.7856C36.291 43.9652 36.1076 44.219 36.0107 44.5109L35.3566 46.4897C35.0686 47.3614 34.5084 48.1109 33.763 48.6217C33.5799 48.7471 33.3846 48.8526 33.1802 48.9365L33.0472 48.9912C32.9474 49.0326 32.8377 49.0424 32.7323 49.0195L31.3728 48.7251C30.9016 48.6231 30.4881 48.3354 30.2209 47.9237C30.2149 47.9145 30.2114 47.9039 30.2106 47.8929C30.2098 47.8819 30.2119 47.8708 30.2165 47.8609C30.2212 47.8509 30.2283 47.8424 30.2371 47.8361C30.246 47.8298 30.2563 47.826 30.267 47.8251L30.3221 47.8202C31.0556 47.7574 31.7393 47.4136 32.2376 46.8571C32.736 46.3005 33.0125 45.5718 33.0125 44.8155V42.2838C33.0125 42.2266 33.0871 42.2066 33.1142 42.2569L33.1826 42.3848C33.3849 42.7621 33.5388 43.1648 33.6409 43.5826L33.725 43.9291C34.0935 42.945 34.6811 42.0633 35.4408 41.3545C36.2005 40.6456 37.1111 40.1294 38.0998 39.8472L39.1875 39.5368L38.2375 41.4384C37.4737 41.4707 36.7497 41.797 36.2093 42.3526L36.1 42.4648C36.4682 42.3073 36.8636 42.2281 37.2624 42.2319C37.6613 42.2356 38.0552 42.3224 38.4205 42.4869C38.7858 42.6513 39.1149 42.8901 39.388 43.1888C39.661 43.4875 39.8724 43.84 40.0093 44.2249L40.0781 44.4177V44.4172Z" fill="#C9D2E2"/>
  <path fill-rule="evenodd" clip-rule="evenodd" d="M35.3094 33.317L35.497 34.404C35.5084 34.4709 35.538 34.533 35.5824 34.5833C35.6268 34.6335 35.6842 34.6698 35.7479 34.6879C35.8115 34.706 35.8789 34.7052 35.9421 34.6855C36.0053 34.6658 36.0618 34.6281 36.105 34.5768L40.7752 29.0555C40.8023 29.0237 40.8512 29.0589 40.8308 29.0955L39.678 31.2109C39.676 31.2144 39.6749 31.2183 39.6745 31.2224C39.6742 31.2264 39.6747 31.2305 39.6761 31.2343C39.6774 31.2382 39.6796 31.2417 39.6824 31.2446C39.6852 31.2476 39.6885 31.2499 39.6922 31.2514C41.1742 31.8786 41.1809 34.033 39.7027 34.67L36.3378 36.1197C35.7146 36.4403 34.9907 35.9342 35.0515 35.2216L35.213 33.3219C35.2182 33.2638 35.2994 33.2599 35.3094 33.317ZM32.0628 43.4416L30.4112 45.8664C30.404 45.877 30.3981 45.8885 30.3936 45.9006C30.1723 46.5063 30.8363 47.0476 31.3602 46.6889L31.4909 46.5995C31.7086 46.4503 31.8772 46.2367 31.9744 45.987L32.0613 45.7634C32.0921 45.6846 32.1068 45.6002 32.1046 45.5153C32.1024 45.4305 32.0833 45.347 32.0486 45.2699C32.0139 45.1929 31.9642 45.124 31.9026 45.0674C31.841 45.0109 31.7687 44.9678 31.6904 44.941C31.6769 44.9364 31.6645 44.9292 31.6538 44.9196C31.6431 44.9101 31.6343 44.8985 31.6279 44.8855C31.6216 44.8725 31.6178 44.8583 31.6168 44.8438C31.6157 44.8293 31.6175 44.8147 31.622 44.8009L32.0628 43.4416Z" fill="#4B6A92"/>
  <path d="M39.1189 32.0593L36.3373 35.6322L39.2158 34.223C40.0993 33.7911 40.1382 32.5142 39.2832 32.0261C39.2564 32.0108 39.2252 32.0057 39.1951 32.0118C39.165 32.0179 39.138 32.0347 39.1189 32.0593Z" fill="#EBD56E"/>
  <path d="M36.7417 44.8068L35.6587 47.0339C35.5893 47.1755 35.7522 47.3175 35.8772 47.2243L37.9007 45.7127C37.9653 45.6639 38.0142 45.5955 38.0394 45.5174L38.0546 45.4711C38.2764 44.7867 37.5425 44.1927 36.9473 44.5754C36.8595 44.6315 36.7882 44.7121 36.7421 44.8072L36.7417 44.8068Z" fill="white"/>
  <path fill-rule="evenodd" clip-rule="evenodd" d="M38.9497 18.7854L39.9767 18.3988L38.6956 19.8553C37.3634 21.3703 36.6259 23.3396 36.626 25.3815C35.2366 22.9186 36.3477 19.7635 38.9497 18.7854ZM33.7494 25.3259L35.1502 26.3577C34.371 25.4842 33.8526 24.3989 33.6567 23.2312C33.4608 22.0635 33.5957 20.8625 34.0453 19.7713L34.2477 19.2803L33.4568 20.0154C31.8846 21.4767 32.0271 24.0563 33.7499 25.3259H33.7494ZM45.6002 21.344V22.5906C45.6002 22.6506 45.6448 22.7004 45.7033 22.7058C47.5142 22.8608 49.2732 23.4059 50.8655 24.3057L53.0681 25.5504C53.09 25.5631 53.1109 25.5338 53.0938 25.5162L52.3257 24.727C51.6436 24.0261 50.8958 23.3962 50.0932 22.8463C49.0101 22.1043 47.7862 21.6069 46.5022 21.3869L45.7071 21.2507C45.6939 21.2485 45.6804 21.2492 45.6675 21.2528C45.6546 21.2565 45.6427 21.2629 45.6325 21.2718C45.6223 21.2807 45.6142 21.2918 45.6086 21.3042C45.603 21.3167 45.6001 21.3302 45.6002 21.344ZM38.0273 24.6274L37.7627 25.137L37.7826 25.1199C38.8673 24.1643 40.1222 23.4341 41.4777 22.9698C41.5336 22.9506 41.5845 22.9184 41.6263 22.8756L43.1577 21.3015C43.1629 21.2962 43.1663 21.2895 43.1676 21.2822C43.169 21.2748 43.1681 21.2672 43.1651 21.2604C43.1621 21.2536 43.1571 21.248 43.1509 21.2441C43.1446 21.2403 43.1374 21.2385 43.1302 21.239C42.0695 21.3117 41.0443 21.6609 40.1515 22.2538C39.2586 22.8466 38.5275 23.6636 38.0273 24.6274ZM46.5849 25.1594L47.1021 25.4913C49.3343 26.9249 51.2664 28.8006 52.7861 31.0092C54.3057 33.2178 55.3823 35.7151 55.9533 38.3556L55.9737 38.4498C55.9818 38.4883 56.0369 38.4805 56.0354 38.4415L55.9832 37.1417C55.872 34.4044 54.9875 31.7596 53.4377 29.5303L52.8962 28.743C52.176 27.6945 51.2352 26.8261 50.1436 26.2023C49.0521 25.5785 47.8378 25.2154 46.591 25.1399C46.5801 25.1399 46.5754 25.154 46.5849 25.1594Z" fill="#FF8484"/>
  <path d="M43.8026 22.8459L41.0143 25.9317C41.0024 25.9448 40.9947 25.9614 40.9923 25.9792C40.99 25.997 40.9931 26.0151 41.0013 26.031C41.0094 26.0469 41.0222 26.0598 41.0378 26.0679C41.0534 26.076 41.0711 26.0789 41.0884 26.0762L41.315 26.0405C42.045 25.9251 42.7107 25.545 43.1916 24.969C43.6726 24.393 43.937 23.6591 43.937 22.9001C43.937 22.8881 43.9344 22.8763 43.9293 22.8654C43.9242 22.8546 43.9169 22.8451 43.9078 22.8376C43.8986 22.8301 43.888 22.8248 43.8766 22.8221C43.8652 22.8194 43.8534 22.8194 43.842 22.822C43.8268 22.8257 43.8131 22.8341 43.8026 22.8459Z" fill="#3B5D8B"/>
  <path fill-rule="evenodd" clip-rule="evenodd" d="M44.4005 34.012L44.8119 34.256L43.3683 36.6081L43.3669 36.6067V36.6077L41.1553 36.8224L38.2398 41.8005L37.8693 41.5404L40.7877 36.5047C40.809 36.4481 40.8454 36.3987 40.8925 36.3622C40.9397 36.3256 40.9958 36.3033 41.0546 36.2977L43.157 36.083L44.4005 34.012Z" fill="#3B5D8B"/>
  <path d="M38.152 57.8634C48.7292 57.8634 57.304 49.098 57.304 38.2859C57.304 27.4732 48.7292 18.7084 38.152 18.7084C27.5748 18.7084 19 27.4732 19 38.2859C19 49.098 27.5748 57.8634 38.152 57.8634Z" fill="url(#paint1_radial)" fill-opacity="0.8"/>
  </g>
  </g>
  <defs>
  <radialGradient id="paint0_radial" cx="0" cy="0" r="1" gradientUnits="userSpaceOnUse" gradientTransform="translate(37.0587 37.4218) rotate(52.6208) scale(40.2046 40.1945)">
  <stop offset="0.756735" stop-color="#D6DAE0"/>
  <stop offset="1" stop-color="#F0F3F9"/>
  </radialGradient>
  <radialGradient id="paint1_radial" cx="0" cy="0" r="1" gradientUnits="userSpaceOnUse" gradientTransform="translate(36.7887 21.7834) rotate(69.4674) scale(34.6967 34.0252)">
  <stop offset="0.186668" stop-color="white" stop-opacity="0"/>
  <stop offset="1" stop-color="#020E37" stop-opacity="0.45"/>
  </radialGradient>
  <clipPath id="clip0">
  <rect width="76" height="76" fill="white"/>
  </clipPath>
  <clipPath id="clip1">
  <rect width="38" height="41" fill="white" transform="translate(19 17)"/>
  </clipPath>
  </defs>
</svg>
