<svg viewBox="0 0 22 33" fill="none" xmlns="http://www.w3.org/2000/svg">
    <path fill-rule="evenodd" clip-rule="evenodd"
        d="M12.208 27.7797V28.6067C12.2013 28.7109 12.1792 29.1731 11.8053 29.5243C11.4469 29.8393 11.0354 29.8143 10.9491 29.8098H10.9469C10.7965 29.7917 10.3142 29.7056 10.0354 29.3068C9.87356 29.0402 9.78773 28.7326 9.78761 28.4186C9.78413 28.3446 9.78561 28.2704 9.79204 28.1966C9.80189 28.112 9.79891 28.0264 9.78319 27.9428C9.73379 27.6948 9.61548 27.4666 9.44248 27.2858C9.21249 27.0488 8.90534 26.9068 8.57965 26.887C8.04425 26.8689 7.52212 27.2586 7.29204 27.8567V29.982C7.25515 30.2839 7.11395 30.5622 6.89399 30.7667C6.67404 30.9712 6.38987 31.0883 6.09292 31.0968C5.806 31.101 5.52644 31.0037 5.3015 30.8212C5.07657 30.6387 4.92005 30.3823 4.85841 30.0953V27.8431C4.80138 27.5562 4.6516 27.2972 4.43323 27.1081C4.21487 26.919 3.94067 26.8108 3.65487 26.8009C3.35692 26.7959 3.06676 26.8985 2.83534 27.0907C2.60392 27.283 2.44603 27.5526 2.38938 27.8522V31.9985C2.32858 32.2834 2.17413 32.5383 1.95184 32.7206C1.72955 32.9029 1.4529 33.0015 1.16814 33C0.902255 32.9926 0.64561 32.8985 0.435525 32.7314C0.225441 32.5643 0.0728708 32.333 0 32.071V10.2156C0.079646 9.30023 0.469027 5.94692 3.20354 3.19177C6.46018 -0.0935678 10.5619 -0.0210636 11.2788 0.00612536C15.3186 0.146602 17.9115 2.53017 18.5885 3.19177C21.4735 6.02396 21.9115 9.48602 22 10.3923L21.9845 21.2L21.969 32.0076C21.9081 32.2738 21.7658 32.5131 21.5629 32.6908C21.3599 32.8685 21.107 32.9752 20.8407 32.9954C20.2168 33.0226 19.6283 32.5061 19.5619 31.7901V27.8159C19.5011 27.5219 19.3416 27.259 19.1113 27.0728C18.881 26.8866 18.5943 26.7888 18.3009 26.7964C17.9905 26.8118 17.6969 26.9454 17.4776 27.1708C17.2583 27.3963 17.129 27.6974 17.115 28.0153V29.8597C17.1055 30.16 16.9929 30.4473 16.7971 30.671C16.6013 30.8948 16.3347 31.0407 16.0442 31.0832C15.7389 31.1195 15.4311 31.04 15.1792 30.8596C14.9272 30.6792 14.7485 30.4105 14.677 30.1044V28.0244C14.6598 27.7328 14.5475 27.4555 14.3582 27.2369C14.1689 27.0184 13.9134 26.8712 13.6327 26.819C13.3216 26.7725 13.0046 26.8447 12.7419 27.0218C12.4793 27.1989 12.2893 27.4686 12.208 27.7797ZM8.95133 10.5283C8.95133 10.8443 8.89055 11.1572 8.77248 11.4491C8.6544 11.741 8.48133 12.0063 8.26316 12.2297C8.04498 12.4532 7.78597 12.6304 7.50091 12.7513C7.21585 12.8723 6.91032 12.9345 6.60177 12.9345C6.29322 12.9345 5.98769 12.8723 5.70263 12.7513C5.41757 12.6304 5.15856 12.4532 4.94038 12.2297C4.72221 12.0063 4.54914 11.741 4.43106 11.4491C4.31299 11.1572 4.25221 10.8443 4.25221 10.5283C4.25221 9.8901 4.49975 9.27807 4.94038 8.82681C5.38101 8.37556 5.97863 8.12204 6.60177 8.12204C7.22491 8.12204 7.82253 8.37556 8.26316 8.82681C8.70379 9.27807 8.95133 9.8901 8.95133 10.5283ZM14.7301 12.9345C15.3532 12.9345 15.9508 12.681 16.3915 12.2297C16.8321 11.7785 17.0796 11.1664 17.0796 10.5283C17.0796 9.8901 16.8321 9.27807 16.3915 8.82681C15.9508 8.37556 15.3532 8.12204 14.7301 8.12204C14.1069 8.12204 13.5093 8.37556 13.0687 8.82681C12.6281 9.27807 12.3805 9.8901 12.3805 10.5283C12.3805 11.1664 12.6281 11.7785 13.0687 12.2297C13.5093 12.681 14.1069 12.9345 14.7301 12.9345ZM12.8451 14.8876C12.8451 14.8876 12.6106 15.9434 11.4823 16.0794C9.5177 16.3195 9.28761 14.8876 9.28761 14.8876C9.28761 14.8876 9.17257 14.1082 10.031 14.3665C10.8894 14.6247 12.1239 14.3665 12.1239 14.3665C12.1239 14.3665 13.0221 14.1444 12.8451 14.8876Z"
        fill="url(#paint0_linear)" />
    <defs>
        <linearGradient id="paint0_linear" x1="-1.19248" y1="30.5167" x2="22.2457" y2="9.80174"
            gradientUnits="userSpaceOnUse">
            <stop offset="0.229" stop-color="#8ADAE2" />
            <stop offset="0.72" stop-color="#9EADCE" />
            <stop offset="1" stop-color="#C499C9" />
        </linearGradient>
    </defs>
</svg>