<svg width="76" height="76" viewBox="0 0 76 76" fill="none" xmlns="http://www.w3.org/2000/svg">
  <g clip-path="url(#clip0)">
  <path d="M37.8643 76.1287C58.7762 76.1287 75.7286 59.1601 75.7286 38.2282C75.7286 17.2963 58.7762 0.327637 37.8643 0.327637C16.9524 0.327637 3.05176e-05 17.2963 3.05176e-05 38.2282C3.05176e-05 59.1601 16.9524 76.1287 37.8643 76.1287Z" fill="#C4C4C4"/>
  <path d="M37.8643 76.1287C58.7762 76.1287 75.7286 59.1601 75.7286 38.2282C75.7286 17.2963 58.7762 0.327637 37.8643 0.327637C16.9524 0.327637 3.05176e-05 17.2963 3.05176e-05 38.2282C3.05176e-05 59.1601 16.9524 76.1287 37.8643 76.1287Z" fill="url(#paint0_radial)"/>
  <path d="M38 70.5713C55.9887 70.5713 70.5714 55.9886 70.5714 37.9999C70.5714 20.0112 55.9887 5.42847 38 5.42847C20.0113 5.42847 5.42856 20.0112 5.42856 37.9999C5.42856 55.9886 20.0113 70.5713 38 70.5713Z" fill="#C4C4C4"/>
  <path d="M38 70.5713C55.9887 70.5713 70.5714 55.9886 70.5714 37.9999C70.5714 20.0112 55.9887 5.42847 38 5.42847C20.0113 5.42847 5.42856 20.0112 5.42856 37.9999C5.42856 55.9886 20.0113 70.5713 38 70.5713Z" fill="white"/>
  <path fill-rule="evenodd" clip-rule="evenodd" d="M39.208 48.7797V49.6067C39.2013 49.7109 39.1792 50.1731 38.8053 50.5243C38.4469 50.8393 38.0354 50.8143 37.9491 50.8098H37.9469C37.7965 50.7917 37.3142 50.7056 37.0354 50.3068C36.8736 50.0402 36.7877 49.7326 36.7876 49.4186C36.7841 49.3446 36.7856 49.2704 36.792 49.1966C36.8019 49.112 36.7989 49.0264 36.7832 48.9428C36.7338 48.6948 36.6155 48.4666 36.4425 48.2858C36.2125 48.0488 35.9053 47.9068 35.5796 47.887C35.0442 47.8689 34.5221 48.2586 34.292 48.8567V50.982C34.2551 51.2839 34.1139 51.5622 33.894 51.7667C33.674 51.9712 33.3899 52.0883 33.0929 52.0968C32.806 52.101 32.5264 52.0037 32.3015 51.8212C32.0766 51.6387 31.92 51.3823 31.8584 51.0953V48.8431C31.8014 48.5562 31.6516 48.2972 31.4332 48.1081C31.2149 47.919 30.9407 47.8108 30.6549 47.8009C30.3569 47.7959 30.0668 47.8985 29.8353 48.0907C29.6039 48.283 29.446 48.5526 29.3894 48.8522V52.9985C29.3286 53.2834 29.1741 53.5383 28.9518 53.7206C28.7296 53.9029 28.4529 54.0015 28.1681 54C27.9023 53.9926 27.6456 53.8985 27.4355 53.7314C27.2254 53.5643 27.0729 53.333 27 53.071V31.2156C27.0796 30.3002 27.469 26.9469 30.2035 24.1918C33.4602 20.9064 37.5619 20.9789 38.2788 21.0061C42.3186 21.1466 44.9115 23.5302 45.5885 24.1918C48.4735 27.024 48.9115 30.486 49 31.3923L48.9845 42.2L48.969 53.0076C48.9081 53.2738 48.7658 53.5131 48.5629 53.6908C48.3599 53.8685 48.107 53.9752 47.8407 53.9954C47.2168 54.0226 46.6283 53.5061 46.5619 52.7901V48.8159C46.5011 48.5219 46.3416 48.259 46.1113 48.0728C45.881 47.8866 45.5943 47.7888 45.3009 47.7964C44.9905 47.8118 44.6969 47.9454 44.4776 48.1708C44.2583 48.3963 44.129 48.6974 44.115 49.0153V50.8597C44.1055 51.16 43.9929 51.4473 43.7971 51.671C43.6013 51.8948 43.3347 52.0407 43.0442 52.0832C42.7389 52.1195 42.4311 52.04 42.1792 51.8596C41.9272 51.6792 41.7485 51.4105 41.677 51.1044V49.0244C41.6598 48.7328 41.5475 48.4555 41.3582 48.2369C41.1689 48.0184 40.9134 47.8712 40.6327 47.819C40.3216 47.7725 40.0046 47.8447 39.7419 48.0218C39.4793 48.1989 39.2893 48.4686 39.208 48.7797ZM35.9513 31.5283C35.9513 31.8443 35.8906 32.1572 35.7725 32.4491C35.6544 32.741 35.4813 33.0063 35.2632 33.2297C35.045 33.4532 34.786 33.6304 34.5009 33.7513C34.2158 33.8723 33.9103 33.9345 33.6018 33.9345C33.2932 33.9345 32.9877 33.8723 32.7026 33.7513C32.4176 33.6304 32.1586 33.4532 31.9404 33.2297C31.7222 33.0063 31.5491 32.741 31.4311 32.4491C31.313 32.1572 31.2522 31.8443 31.2522 31.5283C31.2522 30.8901 31.4998 30.2781 31.9404 29.8268C32.381 29.3756 32.9786 29.122 33.6018 29.122C34.2249 29.122 34.8225 29.3756 35.2632 29.8268C35.7038 30.2781 35.9513 30.8901 35.9513 31.5283ZM41.7301 33.9345C42.3532 33.9345 42.9508 33.681 43.3915 33.2297C43.8321 32.7785 44.0796 32.1664 44.0796 31.5283C44.0796 30.8901 43.8321 30.2781 43.3915 29.8268C42.9508 29.3756 42.3532 29.122 41.7301 29.122C41.1069 29.122 40.5093 29.3756 40.0687 29.8268C39.6281 30.2781 39.3805 30.8901 39.3805 31.5283C39.3805 32.1664 39.6281 32.7785 40.0687 33.2297C40.5093 33.681 41.1069 33.9345 41.7301 33.9345ZM39.8451 35.8876C39.8451 35.8876 39.6106 36.9434 38.4823 37.0794C36.5177 37.3195 36.2876 35.8876 36.2876 35.8876C36.2876 35.8876 36.1726 35.1082 37.031 35.3665C37.8894 35.6247 39.1239 35.3665 39.1239 35.3665C39.1239 35.3665 40.0221 35.1444 39.8451 35.8876Z" fill="url(#paint1_linear)"/>
  </g>
  <defs>
  <radialGradient id="paint0_radial" cx="0" cy="0" r="1" gradientUnits="userSpaceOnUse" gradientTransform="translate(37.0587 37.4218) rotate(52.6208) scale(40.2046 40.1945)">
  <stop offset="0.756735" stop-color="#D6DAE0"/>
  <stop offset="1" stop-color="#F0F3F9"/>
  </radialGradient>
  <linearGradient id="paint1_linear" x1="25.8075" y1="51.5167" x2="49.2457" y2="30.8017" gradientUnits="userSpaceOnUse">
  <stop offset="0.229" stop-color="#8ADAE2"/>
  <stop offset="0.72" stop-color="#9EADCE"/>
  <stop offset="1" stop-color="#C499C9"/>
  </linearGradient>
  <clipPath id="clip0">
  <rect width="76" height="76" fill="white"/>
  </clipPath>
  </defs>
</svg>
