<svg viewBox="0 0 27 33" fill="none" xmlns="http://www.w3.org/2000/svg">
    <path
        d="M1.38136 25.7159C0.959472 25.4686 0.610963 25.122 0.369124 24.7093C0.127286 24.2965 0.000196677 23.8313 0 23.3582V17.9946C0 17.792 0.0593228 17.5895 0.161018 17.4193C0.491526 16.8684 1.23729 16.682 1.81356 17.0061L14.4746 24.0631C15.2119 24.4763 15.6695 25.2298 15.6695 26.0562V31.6143C15.6695 31.8655 15.5932 32.1166 15.4576 32.3354C15.0424 32.9916 14.1525 33.1942 13.4661 32.7972L1.38136 25.7159ZM20.2627 15.5315C21 15.9447 21.4576 16.6982 21.4576 17.5247V28.8028C21.4576 29.135 21.2712 29.4429 20.9661 29.605L18.1949 31.0957C18.161 31.1119 18.1186 31.1282 18.0847 31.1363V24.8733C18.0847 24.0631 17.6441 23.3096 16.9153 22.8964L5.79661 16.5362V9.47113C5.79661 9.26857 5.85593 9.06602 5.95763 8.89587C6.28814 8.34493 7.0339 8.15858 7.61017 8.48267L20.2627 15.5315ZM25.7966 7.20253C26.5424 7.61574 27 8.37734 27 9.19565V25.6673C27 26.0076 26.8051 26.3155 26.4915 26.4775L23.8644 27.8306V16.3661C23.8644 15.5558 23.4237 14.8104 22.6949 14.3891L11.3305 7.8669V1.15833C11.3305 0.955775 11.3898 0.753221 11.4915 0.574974C11.822 0.0240284 12.5678 -0.162322 13.1441 0.153662L25.7966 7.20253Z"
        fill="#00B04C" />
</svg>