<svg width="76" height="76" viewBox="0 0 76 76" fill="none" xmlns="http://www.w3.org/2000/svg">
  <g clip-path="url(#clip0)">
  <path d="M37.8643 76.1287C58.7761 76.1287 75.7286 59.1601 75.7286 38.2282C75.7286 17.2963 58.7761 0.327637 37.8643 0.327637C16.9524 0.327637 0 17.2963 0 38.2282C0 59.1601 16.9524 76.1287 37.8643 76.1287Z" fill="#C4C4C4"/>
  <path d="M37.8643 76.1287C58.7761 76.1287 75.7286 59.1601 75.7286 38.2282C75.7286 17.2963 58.7761 0.327637 37.8643 0.327637C16.9524 0.327637 0 17.2963 0 38.2282C0 59.1601 16.9524 76.1287 37.8643 76.1287Z" fill="url(#paint0_radial)"/>
  <path d="M38 70.5713C55.9887 70.5713 70.5714 55.9886 70.5714 37.9999C70.5714 20.0112 55.9887 5.42847 38 5.42847C20.0113 5.42847 5.42859 20.0112 5.42859 37.9999C5.42859 55.9886 20.0113 70.5713 38 70.5713Z" fill="#C4C4C4"/>
  <path d="M38 70.5713C55.9887 70.5713 70.5714 55.9886 70.5714 37.9999C70.5714 20.0112 55.9887 5.42847 38 5.42847C20.0113 5.42847 5.42859 20.0112 5.42859 37.9999C5.42859 55.9886 20.0113 70.5713 38 70.5713Z" fill="white"/>
  <path d="M24.3814 46.7159C23.9595 46.4686 23.611 46.122 23.3691 45.7093C23.1273 45.2965 23.0002 44.8313 23 44.3582V38.9946C23 38.792 23.0593 38.5895 23.161 38.4193C23.4915 37.8684 24.2373 37.682 24.8136 38.0061L37.4746 45.0631C38.2119 45.4763 38.6695 46.2298 38.6695 47.0562V52.6143C38.6695 52.8655 38.5932 53.1166 38.4576 53.3354C38.0424 53.9916 37.1525 54.1942 36.4661 53.7972L24.3814 46.7159ZM43.2627 36.5315C44 36.9447 44.4576 37.6982 44.4576 38.5247V49.8028C44.4576 50.135 44.2712 50.4429 43.9661 50.605L41.1949 52.0957C41.161 52.1119 41.1186 52.1282 41.0847 52.1363V45.8733C41.0847 45.0631 40.6441 44.3096 39.9153 43.8964L28.7966 37.5362V30.4711C28.7966 30.2686 28.8559 30.066 28.9576 29.8959C29.2881 29.3449 30.0339 29.1586 30.6102 29.4827L43.2627 36.5315ZM48.7966 28.2025C49.5424 28.6157 50 29.3773 50 30.1957V46.6673C50 47.0076 49.8051 47.3155 49.4915 47.4775L46.8644 48.8306V37.3661C46.8644 36.5558 46.4237 35.8104 45.6949 35.3891L34.3305 28.8669V22.1583C34.3305 21.9558 34.3898 21.7532 34.4915 21.575C34.822 21.024 35.5678 20.8377 36.1441 21.1537L48.7966 28.2025Z" fill="#00B04C"/>
  </g>
  <defs>
  <radialGradient id="paint0_radial" cx="0" cy="0" r="1" gradientUnits="userSpaceOnUse" gradientTransform="translate(37.0587 37.4218) rotate(52.6208) scale(40.2046 40.1945)">
  <stop offset="0.756735" stop-color="#D6DAE0"/>
  <stop offset="1" stop-color="#F0F3F9"/>
  </radialGradient>
  <clipPath id="clip0">
  <rect width="76" height="76" fill="white"/>
  </clipPath>
  </defs>
</svg>