<svg width="76" height="76" viewBox="0 0 76 76" fill="none" xmlns="http://www.w3.org/2000/svg">
  <g clip-path="url(#clip0)">
  <path d="M37.8643 76.1287C58.7762 76.1287 75.7286 59.1601 75.7286 38.2282C75.7286 17.2963 58.7762 0.327637 37.8643 0.327637C16.9524 0.327637 3.05176e-05 17.2963 3.05176e-05 38.2282C3.05176e-05 59.1601 16.9524 76.1287 37.8643 76.1287Z" fill="#C4C4C4"/>
  <path d="M37.8643 76.1287C58.7762 76.1287 75.7286 59.1601 75.7286 38.2282C75.7286 17.2963 58.7762 0.327637 37.8643 0.327637C16.9524 0.327637 3.05176e-05 17.2963 3.05176e-05 38.2282C3.05176e-05 59.1601 16.9524 76.1287 37.8643 76.1287Z" fill="url(#paint0_radial)"/>
  <path d="M38 70.5714C55.9887 70.5714 70.5714 55.9887 70.5714 38C70.5714 20.0113 55.9887 5.42859 38 5.42859C20.0113 5.42859 5.42856 20.0113 5.42856 38C5.42856 55.9887 20.0113 70.5714 38 70.5714Z" fill="#C4C4C4"/>
  <path d="M38 70.5714C55.9887 70.5714 70.5714 55.9887 70.5714 38C70.5714 20.0113 55.9887 5.42859 38 5.42859C20.0113 5.42859 5.42856 20.0113 5.42856 38C5.42856 55.9887 20.0113 70.5714 38 70.5714Z" fill="white"/>
  <g clip-path="url(#clip1)">
  <path d="M38.6736 54.8806C48.3256 54.8806 56.15 47.0723 56.15 37.4403C56.15 27.8083 48.3256 20 38.6736 20C29.0217 20 21.1973 27.8083 21.1973 37.4403C21.1973 47.0723 29.0217 54.8806 38.6736 54.8806Z" fill="#2EB6EA"/>
  <path d="M38.5785 54.8805C21.1971 54.8805 14.3372 32.0614 29.6902 22.4448C27.8643 41.5169 37.577 41.9387 46.5901 41.5169C61.6928 40.81 61.7029 54.8805 61.7029 54.8805H38.5785Z" fill="#1542CD"/>
  <path fill-rule="evenodd" clip-rule="evenodd" d="M55.193 43.1456C52.5637 49.8706 46.0979 54.6795 38.4802 54.8936C38.6593 54.8985 38.8395 54.901 39.0208 54.901H62C62 54.901 61.9941 46.6541 55.193 43.1456Z" fill="#745DDF"/>
  </g>
  </g>
  <defs>
  <radialGradient id="paint0_radial" cx="0" cy="0" r="1" gradientUnits="userSpaceOnUse" gradientTransform="translate(37.0587 37.4218) rotate(52.6208) scale(40.2046 40.1945)">
  <stop offset="0.756735" stop-color="#D6DAE0"/>
  <stop offset="1" stop-color="#F0F3F9"/>
  </radialGradient>
  <clipPath id="clip0">
  <rect width="76" height="76" fill="white"/>
  </clipPath>
  <clipPath id="clip1">
  <rect width="41" height="35" fill="white" transform="translate(21 20)"/>
  </clipPath>
  </defs>
</svg>
