<svg viewBox="0 0 32 22" fill="none" xmlns="http://www.w3.org/2000/svg">
    <path
        d="M14.7847 20.0949V11.1577C14.7847 11.1577 14.7847 9.97337 13.7835 9.3266L1.81138 0.809359C1.81138 0.809359 0.413105 0.196186 0.214534 1.62412V19.8933C0.214534 19.8933 0.18144 20.8845 1.01709 21.1113C1.01709 21.1113 2.41536 21.5817 2.41536 19.6917V5.07638C2.41536 5.07638 2.23334 3.95923 3.21792 4.6732C4.19423 5.38716 11.8061 10.7629 11.8061 10.7629C11.8061 10.7629 12.4018 11.0065 12.4018 11.7793V20.1033C12.4018 20.1033 12.3191 21.3297 13.6015 21.3213C14.8674 21.3045 14.7847 20.0949 14.7847 20.0949Z"
        fill="#1AAB9A" />
    <path
        d="M17.2153 20.0949V11.1577C17.2153 11.1577 17.2153 9.97337 18.2165 9.3266L30.1886 0.809359C30.1886 0.809359 31.5869 0.196186 31.7855 1.62412V19.8933C31.7855 19.8933 31.8186 20.8845 30.9829 21.1113C30.9829 21.1113 29.5846 21.5817 29.5846 19.6917V5.07638C29.5846 5.07638 29.7667 3.95923 28.7821 4.6732C27.8058 5.38716 20.1939 10.7629 20.1939 10.7629C20.1939 10.7629 19.5982 11.0065 19.5982 11.7793V20.1033C19.5982 20.1033 19.6809 21.3297 18.3985 21.3213C17.1326 21.3045 17.2153 20.0949 17.2153 20.0949Z"
        fill="#1AAB9A" />
</svg>