<svg width="76" height="76" viewBox="0 0 76 76" fill="none" xmlns="http://www.w3.org/2000/svg">
  <g clip-path="url(#clip0)">
  <path d="M37.8643 76.1287C58.7761 76.1287 75.7286 59.1601 75.7286 38.2282C75.7286 17.2963 58.7761 0.327637 37.8643 0.327637C16.9524 0.327637 0 17.2963 0 38.2282C0 59.1601 16.9524 76.1287 37.8643 76.1287Z" fill="#C4C4C4"/>
  <path d="M37.8643 76.1287C58.7761 76.1287 75.7286 59.1601 75.7286 38.2282C75.7286 17.2963 58.7761 0.327637 37.8643 0.327637C16.9524 0.327637 0 17.2963 0 38.2282C0 59.1601 16.9524 76.1287 37.8643 76.1287Z" fill="url(#paint0_radial)"/>
  <path d="M38 70.5713C55.9887 70.5713 70.5714 55.9886 70.5714 37.9999C70.5714 20.0112 55.9887 5.42847 38 5.42847C20.0113 5.42847 5.42859 20.0112 5.42859 37.9999C5.42859 55.9886 20.0113 70.5713 38 70.5713Z" fill="#C4C4C4"/>
  <path d="M38 70.5713C55.9887 70.5713 70.5714 55.9886 70.5714 37.9999C70.5714 20.0112 55.9887 5.42847 38 5.42847C20.0113 5.42847 5.42859 20.0112 5.42859 37.9999C5.42859 55.9886 20.0113 70.5713 38 70.5713Z" fill="white"/>
  <path d="M36.7847 47.0949V38.1577C36.7847 38.1577 36.7847 36.9734 35.7835 36.3266L23.8114 27.8094C23.8114 27.8094 22.4131 27.1962 22.2145 28.6241V46.8933C22.2145 46.8933 22.1814 47.8845 23.0171 48.1113C23.0171 48.1113 24.4154 48.5817 24.4154 46.6917V32.0764C24.4154 32.0764 24.2333 30.9592 25.2179 31.6732C26.1942 32.3872 33.8061 37.7629 33.8061 37.7629C33.8061 37.7629 34.4018 38.0065 34.4018 38.7793V47.1033C34.4018 47.1033 34.3191 48.3297 35.6015 48.3213C36.8674 48.3045 36.7847 47.0949 36.7847 47.0949Z" fill="#1AAB9A"/>
  <path d="M39.2153 47.0949V38.1577C39.2153 38.1577 39.2153 36.9734 40.2165 36.3266L52.1886 27.8094C52.1886 27.8094 53.5869 27.1962 53.7855 28.6241V46.8933C53.7855 46.8933 53.8186 47.8845 52.9829 48.1113C52.9829 48.1113 51.5846 48.5817 51.5846 46.6917V32.0764C51.5846 32.0764 51.7667 30.9592 50.7821 31.6732C49.8058 32.3872 42.1939 37.7629 42.1939 37.7629C42.1939 37.7629 41.5982 38.0065 41.5982 38.7793V47.1033C41.5982 47.1033 41.6809 48.3297 40.3985 48.3213C39.1326 48.3045 39.2153 47.0949 39.2153 47.0949Z" fill="#1AAB9A"/>
  </g>
  <defs>
  <radialGradient id="paint0_radial" cx="0" cy="0" r="1" gradientUnits="userSpaceOnUse" gradientTransform="translate(37.0587 37.4218) rotate(52.6208) scale(40.2046 40.1945)">
  <stop offset="0.756735" stop-color="#D6DAE0"/>
  <stop offset="1" stop-color="#F0F3F9"/>
  </radialGradient>
  <clipPath id="clip0">
  <rect width="76" height="76" fill="white"/>
  </clipPath>
  </defs>
</svg>
