<svg width="76" height="76" viewBox="0 0 76 76" fill="none" xmlns="http://www.w3.org/2000/svg">
  <g clip-path="url(#clip0)">
  <path d="M37.8643 76.1287C58.7761 76.1287 75.7286 59.1601 75.7286 38.2282C75.7286 17.2963 58.7761 0.327637 37.8643 0.327637C16.9524 0.327637 0 17.2963 0 38.2282C0 59.1601 16.9524 76.1287 37.8643 76.1287Z" fill="#C4C4C4"/>
  <path d="M37.8643 76.1287C58.7761 76.1287 75.7286 59.1601 75.7286 38.2282C75.7286 17.2963 58.7761 0.327637 37.8643 0.327637C16.9524 0.327637 0 17.2963 0 38.2282C0 59.1601 16.9524 76.1287 37.8643 76.1287Z" fill="url(#paint0_radial)"/>
  <path d="M38 70.5714C55.9887 70.5714 70.5714 55.9887 70.5714 38C70.5714 20.0113 55.9887 5.42859 38 5.42859C20.0113 5.42859 5.42859 20.0113 5.42859 38C5.42859 55.9887 20.0113 70.5714 38 70.5714Z" fill="#C4C4C4"/>
  <path d="M38 70.5714C55.9887 70.5714 70.5714 55.9887 70.5714 38C70.5714 20.0113 55.9887 5.42859 38 5.42859C20.0113 5.42859 5.42859 20.0113 5.42859 38C5.42859 55.9887 20.0113 70.5714 38 70.5714Z" fill="white"/>
  <path d="M35.1238 33.0607C35.9076 34.4713 34.1616 34.9072 33.3391 34.9864C32.0975 35.1132 31.8415 34.3762 32.082 33.4569C32.1596 33.1241 32.3381 32.8309 32.5864 32.609C32.8347 32.3871 33.1451 32.2444 33.4788 32.2127C33.8047 32.181 34.1306 32.2444 34.4255 32.395C34.7126 32.5376 34.9531 32.7754 35.1238 33.0607ZM39.997 30.4534C39.0891 37.5778 51.3263 36.0959 51.0935 41.7622C52.304 40.1534 52.8162 35.7789 49.2622 33.5283C46.104 31.5153 41.9757 32.6169 39.997 30.4534ZM47.0507 27.7669C46.9731 27.6876 46.8877 27.6163 46.8101 27.545C46.8877 27.6163 46.9731 27.6956 47.0507 27.7669ZM49.8907 32.9577L49.883 32.9497C49.7743 32.7358 49.6502 32.5376 49.5028 32.3475C49.0906 31.7751 48.4992 31.3641 47.8266 31.1825C47.3766 31.0636 46.9187 30.9923 46.4609 30.9606C45.9953 30.9289 45.5142 30.9051 45.0331 30.8814C44.0709 30.8259 43.0776 30.7229 42.1154 30.4455C41.8749 30.3742 41.6343 30.2949 41.4015 30.2077C41.2774 30.1602 41.1687 30.1126 41.0523 30.0651C40.9359 30.0096 40.8118 29.9542 40.6876 29.8908C40.2298 29.6372 39.8108 29.3202 39.4383 28.9556C38.6934 28.2424 38.1114 27.442 37.5216 26.6574C36.9707 25.8729 36.3809 25.12 35.7446 24.4068C35.1238 23.7015 34.3867 23.115 33.5719 22.6633C32.7263 22.2268 31.8074 21.9578 30.8637 21.8708C31.8415 21.7599 32.8269 21.8867 33.7504 22.2354C34.6815 22.6078 35.5351 23.1626 36.2568 23.8679C36.7288 24.3221 37.172 24.8064 37.5837 25.3181C40.6488 24.7 43.1397 25.2468 45.0486 26.3166L45.0952 26.3404C45.7005 26.6812 46.2747 27.0854 46.7946 27.5529C46.8799 27.6242 46.9575 27.7035 47.0351 27.7748C47.4386 28.1552 47.8189 28.5752 48.1681 29.0111L48.1914 29.0507C49.332 30.5089 49.8907 32.0305 49.8907 32.9577Z" fill="#FF007A"/>
  <path d="M31.0267 22.7822C31.8104 22.9011 32.6097 23.2181 33.1218 23.8283C33.634 24.4385 33.828 25.231 33.9754 25.9838C34.0996 26.5703 34.1927 27.1646 34.4177 27.7194C34.5263 27.9888 34.6893 28.2266 34.8212 28.4802C34.9299 28.6941 35.1316 28.8843 35.2092 29.1062C35.2247 29.1379 35.2247 29.1775 35.2247 29.2092C35.217 29.2409 35.2092 29.2806 35.1859 29.3043C34.9143 29.6134 34.1772 29.2726 33.8978 29.13C33.4167 28.8843 32.9899 28.5515 32.633 28.1394C31.5155 26.8714 30.9413 25.0408 30.9801 23.3766C30.9801 23.1784 30.9956 22.9803 31.0267 22.7822ZM44.1097 37.0944C42.4181 41.9365 50.0847 45.1778 47.2136 50.0991C50.1623 48.847 51.5591 45.0827 50.3408 42.0871C49.27 39.464 46.104 38.5051 44.1097 37.0944ZM33.9754 43.4264C34.4332 43.0698 34.9376 42.7766 35.473 42.5547C36.0162 42.3328 36.5749 42.1664 37.1492 42.0554C38.2821 41.8335 39.4073 41.778 40.3539 41.3897C40.8195 41.1995 41.2463 40.9301 41.6188 40.5814C41.9757 40.2406 42.2551 39.8127 42.4181 39.3451C42.5888 38.8458 42.6586 38.3149 42.6198 37.7918C42.581 37.2292 42.4491 36.6665 42.2473 36.1435C42.6664 36.5952 42.9768 37.142 43.1397 37.7443C43.3027 38.3466 43.326 38.9726 43.194 39.5829C43.0466 40.2248 42.7284 40.8191 42.2706 41.2867C41.8198 41.7401 41.2766 42.0864 40.6799 42.3011C40.1134 42.5071 39.5159 42.6339 38.9184 42.6735C38.3364 42.7211 37.7777 42.7369 37.2267 42.7686C36.1171 42.8083 35.023 43.0381 33.9754 43.4264ZM44.7848 51.9298C44.6141 52.0724 44.4434 52.215 44.2571 52.3418C44.0709 52.4686 43.8691 52.5796 43.6674 52.6826C43.2406 52.8966 42.775 53.0075 42.3017 52.9996C41.0135 52.9758 40.1056 51.9931 39.578 50.8837C39.2133 50.1308 38.9649 49.3146 38.5382 48.5934C37.9251 47.5632 36.8698 46.739 35.6438 46.8896C35.1394 46.953 34.6738 47.1828 34.3944 47.6345C33.6572 48.7994 34.7126 50.4399 36.055 50.2101C36.2856 50.1788 36.5032 50.0828 36.6836 49.9327C36.8698 49.7742 37.0095 49.5602 37.0948 49.3225C37.1802 49.0768 37.2035 48.8074 37.1492 48.5538C37.0948 48.2843 36.9396 48.0466 36.7146 47.896C36.9707 48.0228 37.1724 48.2447 37.2733 48.5141C37.3819 48.7915 37.4052 49.1006 37.3509 49.3938C37.2966 49.7029 37.1647 49.9882 36.9707 50.2259C36.7574 50.4694 36.4841 50.65 36.1792 50.749C35.8765 50.852 35.5506 50.8916 35.2325 50.852C34.7862 50.7878 34.3653 50.6016 34.0142 50.3131C33.5952 49.9723 33.2925 49.5364 32.9123 49.1561C32.4808 48.6951 31.974 48.3143 31.4147 48.0307C31.0267 47.8564 30.6232 47.7296 30.2041 47.6503C29.9946 47.6028 29.7851 47.5711 29.5756 47.5473C29.4825 47.5394 29.0091 47.4284 28.9393 47.4918C29.5911 46.8737 30.305 46.3269 31.0655 45.8593C31.8492 45.3838 32.6873 45.0193 33.5564 44.7657C34.4643 44.5042 35.411 44.4329 36.3421 44.5438C36.8232 44.5993 37.2966 44.7261 37.7389 44.9163C38.2122 45.1065 38.639 45.3838 39.0193 45.7325C39.3917 46.0971 39.6944 46.525 39.9116 47.0084C40.1056 47.4601 40.2453 47.9277 40.3384 48.4111C40.61 49.8534 40.5091 52.0882 42.3482 52.4132C42.4413 52.429 42.5422 52.4449 42.6353 52.4528L42.938 52.4607C43.1475 52.4449 43.3492 52.4132 43.551 52.3735C43.9855 52.2547 44.389 52.112 44.7848 51.9298ZM32.4545 30.0334C32.3846 30.2949 32.2682 30.5485 32.113 30.7625C31.8182 31.1587 31.4224 31.4678 30.9724 31.658C30.5679 31.8379 30.1386 31.9528 29.6997 31.9988C29.6066 32.0146 29.5058 32.0226 29.4126 32.0226C29.1333 32.0305 28.8694 32.1335 28.6522 32.3158C28.434 32.494 28.2765 32.7381 28.2021 33.0132C28.1711 33.1479 28.1478 33.2905 28.1323 33.4332C28.0857 33.7977 28.0779 34.1781 28.0392 34.6378C27.9434 35.4167 27.7232 36.1743 27.3873 36.8805C26.9528 37.8235 26.4639 38.5843 26.5725 39.67C26.6501 40.3753 26.9993 40.8508 27.4649 41.3342C28.3107 42.2218 30.2041 42.6181 29.7773 44.8053C29.5213 46.1129 27.4184 47.476 24.4541 47.9594C24.749 47.9119 24.0739 46.7469 24.0351 46.6756C23.7169 46.1684 23.3678 45.685 23.1194 45.1302C22.6228 44.0525 22.3978 42.8162 22.5995 41.6354C22.8168 40.3991 23.7092 39.4481 24.4464 38.5051C25.331 37.3797 26.2544 35.9057 26.4639 34.4396C26.5105 34.083 26.5493 33.6392 26.6269 33.2034C26.6967 32.712 26.8519 32.2444 27.0692 31.8007C27.2166 31.5154 27.4184 31.2538 27.6512 31.0319C27.7754 30.9159 27.8576 30.7604 27.8843 30.5906C27.9111 30.4208 27.8809 30.2468 27.7986 30.0968L23.0729 21.3795L29.8549 29.97C29.9315 30.0701 30.0292 30.1513 30.1407 30.2075C30.2522 30.2638 30.3747 30.2937 30.499 30.2949C30.6221 30.2982 30.7444 30.2736 30.8571 30.2229C30.9698 30.1723 31.0701 30.0967 31.1508 30.0017C31.2362 29.8987 31.2827 29.7719 31.2905 29.6372C31.2905 29.5025 31.2517 29.3677 31.1741 29.2647C30.7318 28.6862 30.2662 28.0918 29.8084 27.5133L28.1012 25.3419L24.6714 21.015L20 15L25.1137 20.6266L28.7608 24.7634L30.5766 26.8397C31.1819 27.5371 31.7871 28.2107 32.3846 28.9477L32.4855 29.0745L32.5088 29.2647C32.5243 29.5104 32.5088 29.7719 32.4545 30.0334Z" fill="#FF007A"/>
  </g>
  <defs>
  <radialGradient id="paint0_radial" cx="0" cy="0" r="1" gradientUnits="userSpaceOnUse" gradientTransform="translate(37.0587 37.4218) rotate(52.6208) scale(40.2046 40.1945)">
  <stop offset="0.756735" stop-color="#D6DAE0"/>
  <stop offset="1" stop-color="#F0F3F9"/>
  </radialGradient>
  <clipPath id="clip0">
  <rect width="76" height="76" fill="white"/>
  </clipPath>
  </defs>
</svg>
