<svg viewBox="0 0 30 33" fill="none" xmlns="http://www.w3.org/2000/svg">
    <path
        d="M15.693 1.46516C15.5187 1.45682 15.3436 1.45162 15.1677 1.44959C15.2132 1.49658 15.2487 1.56831 15.2758 1.66726C15.4087 1.59159 15.5478 1.52394 15.693 1.46516Z"
        fill="currentColor" />
    <path fill-rule="evenodd" clip-rule="evenodd"
        d="M15.3509 2.54941C15.3533 3.05603 15.3251 3.74504 15.2881 4.64999C15.2741 4.9914 15.2589 5.36369 15.2436 5.76836C15.6209 5.16053 16.1161 4.64113 16.6985 4.24532C17.4034 3.76628 18.2127 3.48408 19.0501 3.42538C19.0558 3.42497 19.0615 3.42641 19.0665 3.4295C19.0714 3.43259 19.0753 3.43719 19.0777 3.44268C19.08 3.44818 19.0807 3.4543 19.0797 3.46023C19.0787 3.46616 19.0759 3.47161 19.0719 3.47586L17.8629 4.74778C17.8299 4.78235 17.7897 4.8084 17.7455 4.8239C16.8376 5.14218 15.9869 5.6151 15.2269 6.22269C15.2048 6.84481 15.1834 7.53686 15.1663 8.30437L20.1913 2.70958C20.2109 2.68768 20.2362 2.67247 20.2641 2.66592C20.292 2.65936 20.3211 2.66177 20.3476 2.67282C20.3742 2.68387 20.397 2.70306 20.413 2.7279C20.4291 2.75274 20.4377 2.78208 20.4377 2.81212V4.60345C20.3803 5.3886 20.1349 6.1457 19.7243 6.80425C19.3138 7.46281 18.7515 8.00141 18.0898 8.3699L17.0627 8.94176L17.7951 9.08177C18.6484 9.24492 19.5286 9.05333 20.2502 8.54737L20.9027 11.6363C20.9653 11.9321 20.9175 12.242 20.7692 12.5019L19.8752 14.0693H21.1434C21.2131 14.0692 21.2813 14.0488 21.3405 14.0103C21.3997 13.9718 21.4476 13.9167 21.4787 13.8512L22.0082 12.7374C22.0839 12.5781 22.1061 12.3966 22.0712 12.2223L21.3752 8.74457L22.7964 9.59527C27.8424 12.6147 29.2779 19.5734 25.8752 24.5207C25.8168 23.4145 25.5204 22.3368 25.0082 21.3687C24.4961 20.4006 23.7816 19.5675 22.9187 18.9321L21.9377 18.21C24.2102 18.1106 25.7769 15.7738 25.1027 13.4891L24.7502 12.2945L24.6846 13.8729C24.6513 14.6773 24.3306 15.439 23.7865 16.0055C23.2424 16.5721 22.515 16.9017 21.7498 16.9286L19.6873 16.83L19.5127 17.0258C20.448 17.6659 21.351 18.3389 22.0093 19.1754C25.5377 23.6588 19.9179 30.0421 14.6252 30.0421C5.93064 30.0421 2.06268 23.4881 2.06268 15.6468C2.06268 11.0833 3.39618 6.9997 6.28491 4.38297C2.48002 7.24432 0 11.9296 0 17.2243C0 25.9368 5.15625 33 15 33C23.2841 33 30 25.9368 30 17.2243C30 12.9711 28.3997 9.11118 25.7979 6.27401L25.157 5.90335C23.8998 5.1763 22.5112 4.7358 21.0815 4.61053C21.0354 4.60619 21.0001 4.56596 21.0001 4.51745V3.51018C21.0001 3.49909 21.0023 3.48813 21.0068 3.47806C21.0112 3.46799 21.0176 3.45906 21.0257 3.45188C21.0337 3.44471 21.0431 3.43947 21.0533 3.43652C21.0634 3.43358 21.0741 3.43301 21.0845 3.43485L21.7122 3.54488C22.182 3.62725 22.6416 3.75776 23.0846 3.93378C21.0791 2.58159 18.7474 1.71777 16.2413 1.50187L15.5491 2.30728C15.4811 2.38648 15.415 2.46722 15.3509 2.54941ZM22.1859 6.86133L21.7775 6.59314C21.77 6.5888 21.7737 6.57736 21.7824 6.57736C22.7667 6.63838 23.7253 6.93179 24.5871 7.43581C25.4488 7.93983 26.1915 8.64151 26.7601 9.48877L27.1876 10.1249C28.4111 11.9262 29.1095 14.0633 29.1972 16.2751L29.2385 17.3253C29.2396 17.3569 29.1961 17.3632 29.1897 17.332L29.1736 17.2559C28.7229 15.1224 27.8729 13.1045 26.6732 11.3199C25.4735 9.53534 23.9481 8.0197 22.1859 6.86133Z"
        fill="currentColor" />
    <path fill-rule="evenodd" clip-rule="evenodd"
        d="M5.62508 6.97006L6.93758 8.15324C4.65217 11.0628 3.5289 14.7913 3.80407 18.5542L3.93757 20.3794L3.66195 19.4368C3.04878 17.3409 2.90694 15.1237 3.24761 12.9603C3.58829 10.7969 4.40217 8.74621 5.62508 6.97006ZM7.87508 9.13922L9.00008 10.1252C7.54303 11.6576 6.62149 13.6631 6.3852 15.8159L6.18758 17.6183L6.03908 16.2142C5.77285 13.6959 6.42942 11.1663 7.87508 9.13922Z"
        fill="currentColor" />
    <path fill-rule="evenodd" clip-rule="evenodd"
        d="M21.2317 18.6816L18.0517 21.9109C17.8971 22.0679 17.8004 22.2779 17.779 22.5028L17.6827 23.516C17.6454 23.9075 17.4645 24.2683 17.1783 24.5217L14.7933 26.6337C14.5652 26.8358 14.2967 26.9813 14.0078 27.0594C13.7189 27.1374 13.417 27.146 13.1245 27.0845L11.9995 26.8873L11.4303 27.1855C11.3099 27.249 11.1854 27.303 11.0575 27.3479C10.8146 27.433 10.5549 27.4499 10.3038 27.3972L9.61605 27.2525C9.08392 27.1409 8.57393 26.9334 8.10892 26.64C7.95387 26.542 7.81661 26.4158 7.70355 26.2673L7.6593 26.2085C7.30941 25.7488 7.08537 25.1973 7.0113 24.6136L6.91492 23.8513C6.8626 23.4382 6.8884 23.0184 6.99085 22.6159C7.09331 22.2134 7.27039 21.8361 7.51193 21.5058L8.05042 20.7695C8.42943 20.2513 8.70703 19.6592 8.86718 19.0275L10.1245 14.0688L10.1422 13.9757C10.2515 13.4011 10.1532 12.8043 9.86655 12.3019C9.79005 12.1674 9.74955 12.014 9.74955 11.8574V11.7608C9.74962 11.3334 9.84424 10.9118 10.0259 10.5295L10.1245 10.322L2.35305 2.52017C2.26117 2.42827 2.36167 2.2717 2.4768 2.32691L9.18705 5.52149C8.92573 4.77103 8.92776 3.94711 9.1928 3.19809C9.45783 2.44907 9.96844 1.82419 10.6327 1.43598L11.0264 1.20645C11.4246 0.973745 11.8398 0.774865 12.268 0.611702L13.8745 0L12.7495 1.4486L13.7118 1.01438C15.653 0.139401 17.7947 -0.121017 19.8745 0.265032L17.9995 1.44821H19.0968C23.944 1.44821 28.1516 4.96224 29.2496 9.92764L27.562 8.67663L28.1039 10.0479C29.2328 12.9047 29.5697 16.0392 29.0757 19.0889C28.5816 22.1386 27.2768 24.9789 25.312 27.2813C25.8392 25.951 25.9078 24.4688 25.506 23.0909C25.1042 21.713 24.2573 20.5261 23.1115 19.7354L21.5407 18.6512C21.4935 18.6187 21.4373 18.6039 21.3811 18.6095C21.325 18.615 21.2723 18.6404 21.2317 18.6816ZM11.2502 9.73051L7.42069 6.37423C7.35019 6.31231 7.42669 6.19715 7.50619 6.24526L11.6252 8.74453C12.0696 9.0561 11.8247 9.78572 11.2929 9.73445L11.2502 9.73051ZM16.6408 22.1539L16.6521 22.1854C16.771 22.5185 16.7847 22.883 16.6914 23.225C16.5981 23.567 16.4026 23.8683 16.1338 24.0844L14.0856 25.7314C13.9468 25.8429 13.7878 25.9235 13.6183 25.968C13.2962 26.0528 12.9579 26.0405 12.6422 25.9325L12.5533 25.9022C12.5274 25.8932 12.5043 25.8768 12.4867 25.8549C12.469 25.833 12.4574 25.8064 12.4532 25.778C12.449 25.7497 12.4523 25.7206 12.4627 25.6941C12.4732 25.6676 12.4904 25.6446 12.5124 25.6277L14.0627 24.4524L15.2383 23.578C15.4482 23.4213 15.6 23.1928 15.6677 22.9316C15.8743 22.1349 15.2042 21.3828 14.4377 21.5623L15.0249 21.3958C15.2499 21.3323 15.4427 21.1797 15.5627 20.9707L14.4654 21.1805C14.1762 21.2358 13.9076 21.3757 13.6905 21.5841C13.4734 21.7925 13.3164 22.0611 13.2377 22.3589L12.8597 23.7906C12.6681 24.5156 12.2352 25.1441 11.6398 25.5614C11.5055 25.6557 11.3622 25.735 11.2123 25.798L10.8636 25.9448C10.6236 26.0457 10.3674 26.0974 10.1087 26.0974C9.74794 26.0974 9.39057 26.0252 9.05569 25.8844L9.03694 25.8765C8.90806 25.8223 8.79213 25.7389 8.69737 25.6322C8.60261 25.5255 8.53137 25.3982 8.48869 25.2593L8.40732 24.9939C8.36494 24.8574 8.33419 24.717 8.31469 24.5746L8.22507 23.9231C8.17432 23.5545 8.2013 23.1786 8.30408 22.8221C8.40686 22.4657 8.58293 22.1373 8.81982 21.8604L9.02194 21.6238C9.50024 21.065 9.84366 20.3934 10.0232 19.6656L11.0627 15.4488L11.3964 15.9757C11.6679 16.4036 11.8127 16.9069 11.8127 17.4212L12.0249 17.0189C12.2472 16.598 12.3653 16.125 12.3683 15.6436C12.3714 15.1621 12.2592 14.6876 12.0422 14.2637C11.8554 13.8988 11.7548 13.4921 11.7489 13.0778C11.7429 12.6634 11.8318 12.2537 12.0081 11.8831L13.8752 7.95535C13.9498 8.5844 14.6871 8.838 15.1007 8.37735L20.1913 2.70958C20.2109 2.68768 20.2362 2.67247 20.2641 2.66592C20.292 2.65936 20.3211 2.66177 20.3476 2.67282C20.3742 2.68387 20.397 2.70306 20.413 2.7279C20.4291 2.75274 20.4377 2.78208 20.4377 2.81212V4.60345C20.3803 5.3886 20.1349 6.1457 19.7243 6.80425C19.3138 7.46281 18.7515 8.00141 18.0898 8.3699L17.0627 8.94176L17.7951 9.08177C18.6484 9.24492 19.5286 9.05333 20.2502 8.54737L20.9027 11.6363C20.9653 11.9321 20.9175 12.242 20.7692 12.5019L19.8752 14.0693H21.1434C21.2131 14.0692 21.2813 14.0488 21.3405 14.0103C21.3997 13.9718 21.4476 13.9167 21.4787 13.8512L22.0082 12.7374C22.0839 12.5781 22.1061 12.3966 22.0712 12.2223L21.3752 8.74457L22.7964 9.59527C27.8424 12.6147 29.2779 19.5734 25.8752 24.5207C25.8168 23.4145 25.5204 22.3368 25.0082 21.3687C24.4961 20.4006 23.7816 19.5675 22.9187 18.9321L21.9377 18.21C24.2102 18.1106 25.7769 15.7738 25.1027 13.4891L24.7502 12.2945L24.6846 13.8729C24.6513 14.6773 24.3306 15.439 23.7865 16.0055C23.2424 16.5721 22.515 16.9017 21.7498 16.9286L19.6873 16.83L17.0312 19.8092C16.9333 19.9192 16.7904 19.9721 16.6483 19.9508L15.4386 19.769C15.0766 19.7147 14.7074 19.7606 14.3674 19.9022C14.0275 20.0439 13.7286 20.2764 13.5002 20.5767C13.7909 20.4493 14.1031 20.3852 14.4179 20.3882C14.7328 20.3912 15.0438 20.4613 15.3323 20.5941C15.6207 20.727 15.8806 20.9199 16.0962 21.1613C16.3118 21.4026 16.4787 21.6874 16.5868 21.9985L16.6408 22.1539ZM14.0064 22.4685L13.1514 24.2681C13.0966 24.3825 13.2252 24.4973 13.3239 24.4219L14.9214 23.2005C14.9724 23.1611 15.011 23.1059 15.0309 23.0427L15.0429 23.0053C15.218 22.4523 14.6386 21.9724 14.1687 22.2816C14.0994 22.3269 14.0427 22.3916 14.0064 22.4685ZM16.5605 1.13037L15.7497 1.44273C13.6955 2.23309 12.8184 4.78244 13.9152 6.77255C13.9152 5.12265 14.4974 3.53149 15.5491 2.30728L16.5605 1.13037ZM12.7501 7.56133L11.6442 6.72759C10.2841 5.70177 10.172 3.61741 11.4132 2.4366L12.0376 1.84265L11.8779 2.2394C11.5229 3.12109 11.4164 4.0915 11.571 5.03506C11.7257 5.97861 12.135 6.85552 12.7501 7.56133ZM21.0001 4.51745V3.51018C21.0001 3.49909 21.0023 3.48813 21.0068 3.47806C21.0112 3.46799 21.0176 3.45906 21.0257 3.45188C21.0337 3.44471 21.0431 3.43947 21.0533 3.43652C21.0634 3.43358 21.0741 3.43301 21.0845 3.43485L21.7122 3.54488C22.7259 3.72262 23.6922 4.12451 24.5472 4.72407C25.1809 5.16835 25.7712 5.67735 26.3097 6.24367L26.9161 6.8814C26.9296 6.8956 26.9131 6.91926 26.8959 6.90901L25.157 5.90335C23.8998 5.1763 22.5112 4.7358 21.0815 4.61053C21.0354 4.60619 21.0001 4.56596 21.0001 4.51745ZM14.8126 6.57496L15.0215 6.16321C15.4164 5.38441 15.9936 4.72437 16.6985 4.24532C17.4034 3.76628 18.2127 3.48408 19.0501 3.42538C19.0558 3.42497 19.0615 3.42641 19.0665 3.4295C19.0714 3.43259 19.0753 3.43719 19.0777 3.44268C19.08 3.44818 19.0807 3.4543 19.0797 3.46023C19.0787 3.46616 19.0759 3.47161 19.0719 3.47586L17.8629 4.74778C17.8299 4.78235 17.7897 4.8084 17.7455 4.8239C16.6754 5.19905 15.6847 5.78902 14.8284 6.56115L14.8126 6.57496ZM22.1859 6.86133L21.7775 6.59314C21.77 6.5888 21.7737 6.57736 21.7824 6.57736C22.7667 6.63838 23.7253 6.93179 24.5871 7.43581C25.4488 7.93983 26.1915 8.64151 26.7601 9.48877L27.1876 10.1249C28.4111 11.9262 29.1095 14.0633 29.1972 16.2751L29.2385 17.3253C29.2396 17.3569 29.1961 17.3632 29.1897 17.332L29.1736 17.2559C28.7229 15.1224 27.8729 13.1045 26.6732 11.3199C25.4735 9.53534 23.9481 8.0197 22.1859 6.86133Z"
        fill="currentColor" />
    <path fill-rule="evenodd" clip-rule="evenodd"
        d="M13.0238 14.0629L12.8757 13.1846C12.8678 13.1385 12.8037 13.1416 12.7996 13.1885L12.6721 14.7235C12.6241 15.2993 13.1956 15.7083 13.6876 15.4492L16.3441 14.2778C17.5111 13.7632 17.5058 12.0223 16.3358 11.5155C16.3329 11.5143 16.3302 11.5124 16.328 11.51C16.3258 11.5077 16.3242 11.5048 16.3231 11.5017C16.322 11.4986 16.3216 11.4954 16.3219 11.4921C16.3221 11.4888 16.323 11.4857 16.3246 11.4828L17.2347 9.7735C17.2508 9.74392 17.2122 9.71552 17.1908 9.74116L13.5038 14.2025C13.4697 14.244 13.4251 14.2745 13.3752 14.2904C13.3253 14.3063 13.2721 14.3069 13.2218 14.2923C13.1716 14.2777 13.1263 14.2484 13.0912 14.2078C13.0562 14.1672 13.0328 14.1169 13.0238 14.0629ZM13.6871 15.0552L15.8831 12.1682C15.8983 12.1483 15.9196 12.1347 15.9433 12.1298C15.9671 12.1249 15.9917 12.129 16.0129 12.1414C16.6879 12.5358 16.6571 13.5675 15.9596 13.9166L13.6871 15.0552Z"
        fill="currentColor" />
    <path
        d="M9.00869 23.3248L10.3126 21.3655L9.96456 22.4639C9.96104 22.475 9.95964 22.4868 9.96045 22.4985C9.96126 22.5103 9.96425 22.5217 9.96927 22.5322C9.97428 22.5427 9.98122 22.5521 9.98968 22.5598C9.99813 22.5675 10.008 22.5733 10.0186 22.577C10.0804 22.5987 10.1374 22.6335 10.1861 22.6792C10.2347 22.7249 10.274 22.7806 10.3014 22.8428C10.3288 22.9051 10.3439 22.9726 10.3456 23.0411C10.3473 23.1097 10.3357 23.1779 10.3114 23.2416L10.2428 23.4222C10.1661 23.624 10.033 23.7966 9.86106 23.9172L9.75794 23.9894C9.34431 24.2792 8.82006 23.8419 8.99481 23.3524C8.99832 23.3426 9.00298 23.3334 9.00869 23.3248Z"
        fill="currentColor" />
    <path
        d="M19.581 4.72368L17.3797 7.21703C17.3703 7.22762 17.3642 7.24105 17.3624 7.25544C17.3605 7.26983 17.363 7.28447 17.3695 7.29732C17.3759 7.31016 17.386 7.32058 17.3983 7.32711C17.4106 7.33365 17.4246 7.33597 17.4382 7.33377L17.6171 7.30498C18.1934 7.21172 18.719 6.90458 19.0987 6.43915C19.4784 5.97371 19.6871 5.38071 19.6871 4.76745C19.6871 4.75775 19.685 4.74818 19.6811 4.73944C19.6771 4.73069 19.6712 4.72301 19.664 4.71695C19.6568 4.71089 19.6484 4.70661 19.6394 4.70443C19.6305 4.70225 19.6211 4.70222 19.6121 4.70435C19.6001 4.70735 19.5893 4.71408 19.581 4.72368Z"
        fill="currentColor" />
    <path fill-rule="evenodd" clip-rule="evenodd"
        d="M20.0531 13.7461L20.3778 13.9433L19.2382 15.8439L19.2371 15.8427L17.4911 16.017L15.1893 20.0394L14.8968 19.8292L17.2008 15.7603C17.2177 15.7146 17.2464 15.6747 17.2836 15.6451C17.3208 15.6156 17.3651 15.5976 17.4116 15.593L19.0713 15.4195L20.0531 13.7461Z"
        fill="currentColor" />
</svg>