<svg viewBox="0 0 21 20" fill="none" xmlns="http://www.w3.org/2000/svg">
    <g clip-path="url(#clip0arb)">
        <path d="M10.5337 12.0149L12.2372 14.7045L13.8109 13.7871L11.5736 10.2397L10.5337 12.0149Z" fill="currentColor" />
        <path
            d="M15.2441 11.9721L12.7995 8.14176L11.8925 9.68992L14.2525 13.5294L15.1057 13.032C15.1895 12.9636 15.2401 12.8632 15.2454 12.755L15.2441 11.9721Z"
            fill="currentColor" />
        <path
            d="M5 12.9604C5 13.2327 5.14504 13.4844 5.38065 13.621L6.20496 14.0988L10.2148 7.62987L9.53425 7.61181C8.9544 7.60359 8.32976 7.75522 8.0431 8.22599L5.76604 11.7763L5 12.9604Z"
            fill="currentColor" />
        <path d="M12.5291 7.62917L10.7355 7.63572L6.67766 14.3718L8.09601 15.1933L12.5291 7.62917Z" fill="currentColor" />
        <path
            d="M16 7.623C15.985 7.24569 15.7819 6.90026 15.4638 6.69913L11.0048 4.11963C10.6901 3.96024 10.297 3.96004 9.98178 4.11953C9.94451 4.13844 5.64557 6.6465 5.64557 6.6465C5.58608 6.67521 5.52878 6.70942 5.47486 6.74824C5.19089 6.95296 5.01778 7.27114 5 7.6207V12.9628L5.76604 11.7788L5.75937 7.6568C5.76027 7.64172 5.76212 7.62689 5.76481 7.61224C5.78213 7.51528 5.83596 7.42875 5.91701 7.37028C5.93723 7.35572 10.3096 4.80972 10.3235 4.80274C10.4263 4.75082 10.5569 4.7502 10.6598 4.80112L15.061 7.34782C15.1651 7.41455 15.2304 7.52766 15.2362 7.65129V12.7574C15.2309 12.8657 15.1883 12.966 15.1047 13.0344L10.6416 15.6363C10.5556 15.6675 10.4551 15.6657 10.3699 15.6309L8.48168 14.5384L8.09597 15.1965L9.79282 16.1793C9.84893 16.2114 9.8989 16.2398 9.93994 16.263C10.0035 16.2988 10.0468 16.3228 10.062 16.3303C10.1826 16.3892 10.3562 16.4235 10.5125 16.4235C10.6559 16.4235 10.7957 16.397 10.928 16.3449L15.5634 13.6444C15.8294 13.437 15.9859 13.1243 16 12.7855V7.623Z"
            fill="currentColor" />
    </g>
    <defs>
        <clipPath id="clip0arb">
            <rect x="0.580627" width="20" height="20" rx="2" fill="currentColor" />
        </clipPath>
    </defs>
</svg>