<svg viewBox="0 0 18 14" fill="none" xmlns="http://www.w3.org/2000/svg">
    <path
        d="M17.6567 6.65653C17.6567 6.10453 17.2087 5.65653 16.6567 5.65653L3.58643 5.65653L7.44971 1.79325C7.84071 1.40225 7.84071 0.769188 7.44971 0.379188L7.36377 0.29325C6.97277 -0.09775 6.33971 -0.09775 5.94971 0.29325L0.293457 5.9495C-0.0975437 6.3405 -0.0975437 6.97356 0.293457 7.36356L5.94971 13.0198C6.34071 13.4108 6.97377 13.4108 7.36377 13.0198L7.44971 12.9339C7.84071 12.5429 7.84071 11.9098 7.44971 11.5198L3.58643 7.65653L16.6567 7.65653C17.2087 7.65653 17.6567 7.20853 17.6567 6.65653Z"
        fill="currentColor" />
</svg>