<svg viewBox="0 0 32 32" fill="none" xmlns="http://www.w3.org/2000/svg">
    <path
        d="M8.82066 21.5824C8.5701 21.4331 8.363 21.2233 8.21928 20.9732C8.07556 20.723 8.00005 20.4408 8 20.1539V16.9011C8.0002 16.7782 8.03348 16.6575 8.0965 16.5512C8.15951 16.4448 8.25004 16.3566 8.35898 16.2954C8.46792 16.2341 8.59142 16.202 8.71707 16.2023C8.84272 16.2025 8.96608 16.2352 9.07475 16.2969L16.579 20.5796C16.7944 20.7032 16.9731 20.8798 17.0973 21.0917C17.2215 21.3037 17.287 21.5437 17.2872 21.7881V25.1594C17.2876 25.3084 17.2474 25.4548 17.1707 25.5835C17.0941 25.7123 16.9837 25.8187 16.8511 25.8919C16.7184 25.9651 16.5682 26.0023 16.4159 25.9999C16.2637 25.9974 16.1148 25.9553 15.9847 25.8779L8.82066 21.5824ZM20.0062 15.4112C20.2212 15.5351 20.3995 15.7118 20.5235 15.9237C20.6474 16.1357 20.7127 16.3755 20.713 16.6197V23.458C20.7128 23.5572 20.6856 23.6546 20.6343 23.7402C20.583 23.8258 20.5093 23.8965 20.4209 23.9451L18.7767 24.8508C18.7551 24.8613 18.7326 24.8699 18.7095 24.8765V21.0738C18.7098 20.8317 18.6457 20.5937 18.5236 20.383C18.4015 20.1724 18.2255 19.9965 18.013 19.8724L11.4228 16.0154V11.7299C11.4228 11.6069 11.4559 11.486 11.5188 11.3794C11.5817 11.2729 11.6722 11.1845 11.7812 11.1231C11.8902 11.0616 12.0138 11.0294 12.1395 11.0296C12.2653 11.0298 12.3888 11.0624 12.4976 11.1242L20.0047 15.4098L20.0062 15.4112ZM23.2889 10.3571C23.5054 10.4797 23.6851 10.656 23.81 10.8681C23.9348 11.0803 24.0003 11.3208 24 11.5656V21.5552C24 21.7609 23.8832 21.9481 23.7006 22.0466L22.1426 22.8709V15.914C22.1427 15.673 22.079 15.4361 21.9577 15.2263C21.8364 15.0165 21.6616 14.841 21.4504 14.7169L14.7186 10.7642V6.69867C14.719 6.57569 14.7511 6.4548 14.8121 6.34725C14.9075 6.18719 15.064 6.07068 15.2471 6.02329C15.4302 5.97589 15.6251 6.00146 15.789 6.09441L23.2889 10.3585V10.3571Z"
        fill="currentColor" />
</svg>