<svg width="16" height="16" viewBox="0 0 16 16" fill="none" xmlns="http://www.w3.org/2000/svg">
<path d="M8 0C3.5888 0 0 3.58885 0 8.00005C0 12.4112 3.5888 16 8 16C12.4112 16 16 12.4112 16 8.00005C16 3.58885 12.4112 0 8 0ZM8 14.5455C4.39079 14.5455 1.45455 11.6092 1.45455 8.00005C1.45455 4.39088 4.39079 1.45455 8 1.45455C11.6092 1.45455 14.5455 4.39088 14.5455 8.00005C14.5455 11.6092 11.6092 14.5455 8 14.5455Z" fill="currentColor"/>
<path d="M7.9999 3.39394C7.46531 3.39394 7.0304 3.82914 7.0304 4.36407C7.0304 4.89852 7.46531 5.33333 7.9999 5.33333C8.5345 5.33333 8.96941 4.89852 8.96941 4.36407C8.96941 3.82914 8.5345 3.39394 7.9999 3.39394Z" fill="currentColor"/>
<path d="M8 6.78788C7.59835 6.78788 7.27273 7.1135 7.27273 7.51515V11.8788C7.27273 12.2804 7.59835 12.6061 8 12.6061C8.40165 12.6061 8.72727 12.2804 8.72727 11.8788V7.51515C8.72727 7.1135 8.40165 6.78788 8 6.78788Z" fill="currentColor"/>
</svg>
