<svg viewBox="0 0 20 20" fill="none" xmlns="http://www.w3.org/2000/svg">
    <path fill-rule="evenodd" clip-rule="evenodd"
        d="M4.74612 12.685C5.20246 13.0212 5.78786 13.1893 6.50239 13.1893C7.36706 13.1893 8.05754 12.9882 8.57392 12.5859C9.0903 12.1776 9.45357 11.5621 9.66371 10.7395C9.78981 10.2352 9.8979 9.71577 9.98795 9.18139C10.018 8.98925 10.033 8.83013 10.033 8.70403C10.033 8.28374 9.9279 7.92345 9.71776 7.62326C9.50762 7.31702 9.21942 7.08883 8.85314 6.93873C8.48685 6.78264 8.07256 6.70459 7.61023 6.70459C5.91098 6.70459 4.85719 7.53019 4.44891 9.18139C4.30481 9.78782 4.19374 10.3072 4.11564 10.7395C4.08564 10.9317 4.07062 11.0938 4.07062 11.2259C4.07062 11.8564 4.29579 12.3427 4.74612 12.685ZM7.48413 11.5952C7.24994 11.7933 6.96477 11.8924 6.62849 11.8924C6.0521 11.8924 5.76386 11.6162 5.76386 11.0638C5.76386 10.9317 5.77586 10.8056 5.79991 10.6855C5.90796 10.1031 6.01605 9.6107 6.12415 9.20841C6.2262 8.80013 6.39434 8.49691 6.62849 8.29872C6.86868 8.10057 7.15687 8.0015 7.49316 8.0015C8.06354 8.0015 8.34875 8.27472 8.34875 8.8211C8.34875 8.95325 8.33675 9.08232 8.31275 9.20841C8.24071 9.6287 8.13559 10.1211 7.99749 10.6855C7.89544 11.0938 7.72432 11.397 7.48413 11.5952Z"
        fill="currentColor" />
    <path fill-rule="evenodd" clip-rule="evenodd"
        d="M10.2934 13.0363C10.3294 13.0783 10.3805 13.0993 10.4465 13.0993H11.6714C11.7314 13.0993 11.7885 13.0783 11.8426 13.0363C11.8966 12.9942 11.9296 12.9402 11.9416 12.8742L12.3559 10.9017H13.5718C14.3584 10.9017 14.9769 10.7366 15.4272 10.4063C15.8835 10.0761 16.1867 9.56572 16.3368 8.87519C16.3729 8.71309 16.3909 8.55695 16.3909 8.40685C16.3909 7.88447 16.1867 7.48521 15.7784 7.20897C15.3761 6.93277 14.8417 6.79468 14.1753 6.79468H11.7795C11.7194 6.79468 11.6624 6.8157 11.6084 6.8577C11.5543 6.89975 11.5213 6.9538 11.5093 7.01985L10.2664 12.8742C10.2544 12.9342 10.2634 12.9882 10.2934 13.0363ZM14.2923 9.45162C14.1062 9.58972 13.887 9.65879 13.6349 9.65879H12.5991L12.9413 8.04661H14.0221C14.2683 8.04661 14.4424 8.09461 14.5445 8.19071C14.6466 8.28076 14.6976 8.41285 14.6976 8.587C14.6976 8.66505 14.6886 8.75509 14.6706 8.85719C14.6106 9.11538 14.4845 9.31353 14.2923 9.45162Z"
        fill="currentColor" />
</svg>