<svg viewBox="0 0 20 20" fill="none" xmlns="http://www.w3.org/2000/svg">
    <path
        d="M13.5643 6.7159C13.4303 6.64018 13.279 6.60039 13.1251 6.60039C12.9712 6.60039 12.8199 6.64018 12.686 6.7159L10.6714 7.89885L9.3025 8.67113L7.28793 9.85487C7.15397 9.93066 7.00268 9.9705 6.84877 9.9705C6.69486 9.9705 6.54357 9.93066 6.40962 9.85487L4.80809 8.92908C4.67769 8.85208 4.56899 8.74321 4.49217 8.6127C4.41536 8.48219 4.37296 8.3343 4.36894 8.18292V6.35667C4.36714 6.20379 4.40708 6.05332 4.48446 5.92147C4.56177 5.79009 4.67373 5.6825 4.80809 5.6105L6.38351 4.71004C6.51748 4.63432 6.66876 4.59452 6.82266 4.59452C6.97656 4.59452 7.12784 4.63432 7.26181 4.71004L8.83802 5.6105C8.96842 5.68751 9.07712 5.79637 9.15394 5.92688C9.23075 6.0574 9.27315 6.20528 9.27718 6.35667V7.5404L10.6461 6.74281V5.55907C10.6476 5.40612 10.6074 5.25565 10.5298 5.12387C10.4527 4.99231 10.3407 4.88467 10.2061 4.8129L7.28793 3.11563C7.15397 3.03983 7.00268 3 6.84877 3C6.69486 3 6.54357 3.03983 6.40962 3.11563L3.43919 4.81369C3.30511 4.88643 3.19338 4.99433 3.11601 5.1258C3.03864 5.25726 2.99854 5.40732 3.00004 5.55986V8.98289C2.99854 9.13542 3.03864 9.28548 3.11601 9.41695C3.19338 9.54841 3.30511 9.65631 3.43919 9.72906L6.40962 11.4271C6.54355 11.503 6.69485 11.5429 6.84877 11.5429C7.0027 11.5429 7.154 11.503 7.28793 11.4271L9.3025 10.2711L10.6714 9.47268L12.686 8.31743C12.8199 8.24164 12.9712 8.2018 13.1251 8.2018C13.279 8.2018 13.4303 8.24164 13.5643 8.31743L15.1405 9.2171C15.2717 9.29311 15.381 9.40176 15.4578 9.53251C15.5346 9.66326 15.5763 9.81165 15.5788 9.96327V11.7895C15.5803 11.942 15.5403 12.0919 15.4631 12.2234C15.3859 12.3548 15.2744 12.4628 15.1405 12.5357L13.5643 13.4615C13.4303 13.5373 13.279 13.5771 13.1251 13.5771C12.9712 13.5771 12.8199 13.5373 12.686 13.4615L11.1105 12.561C10.9801 12.484 10.8714 12.3751 10.7946 12.2446C10.7178 12.1141 10.6754 11.9662 10.6714 11.8148V10.6311L9.3025 11.4287V12.6124C9.30091 12.765 9.34097 12.9151 9.41835 13.0466C9.49573 13.178 9.60751 13.2859 9.74165 13.3586L12.7121 15.0575C12.846 15.1333 12.9973 15.1731 13.1512 15.1731C13.3051 15.1731 13.4564 15.1333 13.5904 15.0575L16.5608 13.3586C16.6913 13.2817 16.8001 13.1729 16.8769 13.0423C16.9537 12.9118 16.9961 12.7639 17 12.6124V9.18387C17.0015 9.03133 16.9614 8.88127 16.884 8.74981C16.8066 8.61835 16.6949 8.51045 16.5608 8.4377L13.5643 6.7159Z"
        fill="#8247E5" />
</svg>