<svg width="100" height="100" viewBox="0 0 100 100" fill="none" xmlns="http://www.w3.org/2000/svg">
<path d="M15.7052 15.7052L16.0588 16.0588L15.7052 15.7052C6.54562 24.865 1.5 37.0461 1.5 50C1.5 62.9539 6.54562 75.135 15.7052 84.2948C24.865 93.4546 37.0461 98.5 50 98.5C62.9539 98.5 75.135 93.4546 84.2948 84.2948C93.4544 75.135 98.5 62.9539 98.5 50C98.5 37.0461 93.4544 24.865 84.2948 15.7052L83.9554 16.0446L84.2948 15.7052C75.135 6.54543 62.9539 1.5 50 1.5C37.0461 1.5 24.865 6.54543 15.7052 15.7052ZM50 91.875C26.9105 91.875 8.125 73.0895 8.125 50C8.125 26.9105 26.9105 8.125 50 8.125C73.0895 8.125 91.875 26.9105 91.875 50C91.875 73.0895 73.0895 91.875 50 91.875ZM46.9874 46.6874C43.831 46.6874 41.2624 44.1188 41.2624 40.9626C41.2624 37.8062 43.8312 35.2376 46.9874 35.2376H59.0375C60.8669 35.2376 62.35 33.7545 62.35 31.9251C62.35 30.0957 60.8669 28.6126 59.0375 28.6126H53.3125V22.8876C53.3125 21.0582 51.8294 19.5751 50 19.5751C48.1706 19.5751 46.6875 21.0582 46.6875 22.8876V28.6162C40.0152 28.7761 34.6376 34.2528 34.6376 40.9626C34.6376 47.7728 40.1774 53.3124 46.9876 53.3124H53.0127C56.1689 53.3124 58.7375 55.8812 58.7375 59.0374C58.7375 62.1937 56.1689 64.7624 53.0127 64.7624H40.9626C39.1332 64.7624 37.6501 66.2455 37.6501 68.0749C37.6501 69.9043 39.1332 71.3874 40.9626 71.3874H46.6875V77.1126C46.6875 78.942 48.1706 80.4251 50 80.4251C51.8294 80.4251 53.3125 78.942 53.3125 77.1126V71.3839C59.9846 71.2241 65.3624 65.7473 65.3624 59.0374C65.3624 52.2273 59.8227 46.6874 53.0125 46.6874H46.9874Z" fill="currentColor" stroke="currentColor" stroke-width="2.5"/>
</svg>
