<svg viewBox="0 0 18 31" fill="none" xmlns="http://www.w3.org/2000/svg">
    <path
        d="M16.2422 1.73483e-05H13.2187L10.5612 12.5593L10.6137 12.5837C11.0051 12.7867 11.3525 13.0614 11.6369 13.3926C11.7077 13.4737 11.774 13.5588 11.8356 13.648C12.1202 14.0498 12.31 14.5079 12.3914 14.9895C12.4729 15.471 12.4439 15.9642 12.3066 16.4336C12.3066 16.447 12.3004 16.4616 12.2966 16.4737C12.2411 16.6553 12.1696 16.832 12.083 17.0016C12.073 17.0211 12.0642 17.0418 12.0542 17.0612C11.9685 17.2221 11.8695 17.3759 11.7581 17.521L11.7107 17.5843C11.5985 17.7233 11.4753 17.8534 11.3421 17.9735L11.2784 18.0307C11.1434 18.1473 10.9993 18.2534 10.8473 18.3482L10.7736 18.392C10.6177 18.4856 10.4543 18.567 10.2851 18.6353L10.2102 18.6632C10.0348 18.7283 9.85432 18.7792 9.67042 18.8153L9.60295 18.8262C9.47869 18.8438 9.35359 18.8551 9.22814 18.8603L7.27411 28.0891H12.4515L17.9625 2.04965C18.0156 1.80126 18.011 1.54448 17.949 1.29805C17.8871 1.05163 17.7693 0.821795 17.6044 0.625349C17.4396 0.428903 17.2317 0.270807 16.996 0.162616C16.7603 0.0544251 16.5027 -0.00112771 16.2422 1.73483e-05Z"
        fill="currentColor" />
    <path
        d="M7.09295 18.3166C6.90879 18.1975 6.73683 18.0615 6.57946 17.9103C6.50116 17.8357 6.4262 17.757 6.35457 17.6743C6.21257 17.51 6.08706 17.3328 5.97976 17.1452C5.92645 17.0511 5.87772 16.9546 5.83358 16.8557C5.65397 16.4494 5.55967 16.0122 5.55622 15.5699C5.55065 15.2519 5.59274 14.9347 5.68115 14.6285C5.68115 14.6151 5.6874 14.6017 5.69115 14.5883C5.74668 14.4067 5.81816 14.2301 5.90479 14.0604C5.91479 14.0409 5.92353 14.0203 5.93353 14.002C6.01929 13.8416 6.11831 13.6882 6.22963 13.5434L6.27711 13.4802C6.38919 13.3408 6.51243 13.2102 6.64567 13.0897L6.70939 13.0325C6.8443 12.9159 6.98843 12.8097 7.14043 12.7151L7.21414 12.6713C7.37006 12.5776 7.53341 12.4963 7.70265 12.428L7.77886 12.4C7.95416 12.3349 8.13469 12.2841 8.31859 12.248L8.38606 12.237C8.51524 12.2182 8.64536 12.206 8.77587 12.2005L10.7461 2.91939H5.56996L0.0576997 28.9503C0.00467314 29.1986 0.00927131 29.4553 0.0711583 29.7017C0.133045 29.948 0.250659 30.1778 0.41541 30.3742C0.580162 30.5706 0.787892 30.7287 1.02343 30.837C1.25897 30.9453 1.51637 31.0009 1.77684 31H4.80034L7.44653 18.51C7.42529 18.499 7.4003 18.4942 7.37906 18.4832C7.27911 18.4321 7.18374 18.3766 7.09295 18.3166Z"
        fill="currentColor" />
    <path
        d="M5.7886 14.6601C5.7886 14.6479 5.7886 14.6345 5.79859 14.6223C5.79485 14.6345 5.79235 14.6479 5.7886 14.6601Z"
        fill="currentColor" />
    <path
        d="M6.00599 14.1103C6.01599 14.092 6.02473 14.0726 6.03473 14.0531C6.02348 14.0726 6.01474 14.092 6.00599 14.1103Z"
        fill="currentColor" />
    <path
        d="M9.00075 18.7691H9.01325C8.9083 18.7691 8.80335 18.7691 8.69715 18.7581C8.80127 18.7654 8.90247 18.7691 9.00075 18.7691Z"
        fill="currentColor" />
    <path
        d="M12.2029 16.4044C12.2029 16.4166 12.2029 16.4299 12.1929 16.4421C12.1979 16.4299 12.1992 16.4214 12.2029 16.4044Z"
        fill="currentColor" />
    <path
        d="M8.99201 12.2954H8.97827C9.08321 12.2954 9.18816 12.2954 9.29436 12.3064C9.19274 12.2991 9.09196 12.2954 8.99201 12.2954Z"
        fill="currentColor" />
    <path
        d="M11.988 16.9554C11.978 16.9737 11.9693 16.9931 11.9593 17.0126C11.9693 16.9931 11.9768 16.9737 11.988 16.9554Z"
        fill="currentColor" />
    <path
        d="M15.9061 9.92828C15.1497 9.04376 14.2207 8.31391 13.173 7.78089C12.1252 7.24787 10.9794 6.92224 9.80161 6.82281C9.53299 6.7997 9.26062 6.78754 8.99201 6.78754C6.67763 6.78498 4.45155 7.65231 2.77795 9.20869C1.10436 10.7651 0.112422 12.8904 0.00898338 15.1414C-0.0944557 17.3924 0.698585 19.5955 2.22275 21.2911C3.74691 22.9868 5.88453 24.0442 8.18991 24.2429C8.45852 24.266 8.73089 24.2782 8.9995 24.2782C10.7097 24.2823 12.3856 23.8108 13.8299 22.9191C15.2742 22.0274 16.4269 20.7527 17.1523 19.2448C17.8777 17.7369 18.1457 16.0587 17.9247 14.4076C17.7037 12.7565 17.0029 11.2011 15.9048 9.92463L15.9061 9.92828ZM12.3154 15.823C12.2965 16.0197 12.2593 16.2143 12.2042 16.4044C12.2042 16.4178 12.2042 16.4312 12.1942 16.4433C12.1406 16.6191 12.0716 16.79 11.988 16.9542C11.978 16.9737 11.9705 16.9931 11.9605 17.0114C11.8773 17.1671 11.7812 17.316 11.6732 17.4566L11.6269 17.5174C11.5183 17.6525 11.3988 17.779 11.2696 17.8957L11.2084 17.9504C11.0774 18.0635 10.9374 18.1664 10.7899 18.2582L10.7186 18.3008C10.5678 18.3899 10.4099 18.4672 10.2464 18.5319L10.1727 18.5586C10.0026 18.6216 9.82752 18.6708 9.64918 18.7058L9.58421 18.7156C9.3958 18.749 9.20476 18.7665 9.01325 18.7679H9.00075C8.9008 18.7679 8.80002 18.7634 8.6984 18.7545C8.47362 18.7358 8.25135 18.695 8.03498 18.6329C7.82524 18.5715 7.62227 18.49 7.42903 18.3896C7.33325 18.3401 7.24079 18.2866 7.15167 18.229C6.97249 18.114 6.80513 17.9824 6.65192 17.8361C6.57613 17.7631 6.50408 17.6869 6.43578 17.6074C6.29892 17.4483 6.17802 17.2768 6.07471 17.0953C6.02307 17.0045 5.97601 16.9108 5.93353 16.8143C5.75893 16.4225 5.66633 16.0007 5.66116 15.5736C5.65702 15.2652 5.69911 14.9579 5.7861 14.6613C5.7861 14.6479 5.7861 14.6345 5.7961 14.6224C5.85039 14.4461 5.92019 14.2748 6.00474 14.1103C6.01474 14.0908 6.02223 14.0713 6.03223 14.0531C6.11537 13.8973 6.21148 13.7484 6.31959 13.6079L6.36581 13.5471C6.47444 13.412 6.59392 13.2855 6.72314 13.1688L6.78436 13.114C6.91537 13.0009 7.05531 12.898 7.2029 12.8063L7.27411 12.7637C7.42501 12.6746 7.58293 12.5974 7.74638 12.5326L7.82009 12.5058C7.99013 12.4428 8.16522 12.3936 8.34358 12.3587L8.40855 12.3477C8.59697 12.3143 8.788 12.2968 8.97951 12.2954L8.99201 12.2954C9.09196 12.2954 9.19274 12.2999 9.29436 12.3088C9.40753 12.3187 9.52012 12.3341 9.63169 12.355C9.84947 12.3959 10.0625 12.4578 10.2676 12.5399C10.3684 12.5804 10.4667 12.6255 10.5625 12.6749C10.9415 12.8715 11.2779 13.1375 11.5532 13.4583C11.6215 13.5394 11.6861 13.6205 11.7469 13.7016C12.1842 14.3209 12.3853 15.0696 12.3154 15.8181V15.823Z"
        fill="currentColor" />
</svg>