<svg width="22" height="26" viewBox="0 0 22 26" fill="none" xmlns="http://www.w3.org/2000/svg">
<path d="M10.4163 0.715927L0.915705 6.34155C0.738628 6.44637 0.59158 6.59715 0.489342 6.77871C0.387104 6.96028 0.333278 7.16624 0.333273 7.3759V18.6247C0.332046 18.8356 0.385288 19.0431 0.487588 19.226C0.589887 19.4089 0.737597 19.5608 0.915705 19.6663L10.4163 25.2919C10.5934 25.3967 10.7943 25.4519 10.9988 25.4519C11.2033 25.4519 11.4041 25.3967 11.5812 25.2919L21.0842 19.6663C21.2613 19.5614 21.4083 19.4107 21.5105 19.2291C21.6128 19.0475 21.6666 18.8416 21.6666 18.6319V7.3759C21.6666 7.16624 21.6128 6.96028 21.5105 6.77871C21.4083 6.59715 21.2613 6.44637 21.0842 6.34155L11.5812 0.715927C11.4041 0.611097 11.2033 0.555908 10.9988 0.555908C10.7943 0.555908 10.5934 0.611097 10.4163 0.715927V0.715927ZM18.8756 6.68792C18.9462 6.72992 19.0048 6.7902 19.0456 6.86273C19.0863 6.93526 19.1077 7.01749 19.1077 7.10118C19.1077 7.18488 19.0863 7.26711 19.0456 7.33964C19.0048 7.41217 18.9462 7.47245 18.8756 7.51445L17.4778 8.34575C16.8441 8.72079 16.5202 9.32277 16.2337 9.85069C16.1917 9.92952 16.1498 10.0084 16.1055 10.0896C15.4066 11.3413 15.0805 12.6551 14.7916 13.8161C14.2441 16.0257 13.8457 17.3014 12.0262 17.7767C11.3529 17.9535 10.647 17.9535 9.9737 17.7767C8.15418 17.299 7.75346 16.0257 7.20365 13.8137C6.91476 12.6528 6.5886 11.3389 5.88735 10.0872L5.76154 9.8483C5.47499 9.32038 5.15116 8.7184 4.51747 8.34336L3.11963 7.51445C3.04847 7.47261 2.98935 7.41226 2.94823 7.33948C2.90712 7.26671 2.88546 7.18409 2.88546 7.09999C2.88546 7.01589 2.90712 6.93327 2.94823 6.8605C2.98935 6.78773 3.04847 6.72737 3.11963 6.68553L10.4163 2.37136C10.5934 2.26653 10.7943 2.21135 10.9988 2.21135C11.2033 2.21135 11.4041 2.26653 11.5812 2.37136L18.8756 6.68792ZM10.4163 23.6293L2.31354 18.8326C2.13647 18.7277 1.98942 18.577 1.88718 18.3954C1.78494 18.2138 1.73112 18.0079 1.73111 17.7982V9.17466C1.73119 9.09084 1.75279 9.00851 1.79371 8.93595C1.83464 8.86339 1.89347 8.80315 1.96429 8.76128C2.03511 8.7194 2.11543 8.69737 2.19718 8.69739C2.27893 8.69741 2.35923 8.71949 2.43003 8.7614L3.82787 9.58792C4.1284 9.7647 4.3241 10.1254 4.54776 10.5434L4.68754 10.7823C5.29094 11.8668 5.58216 13.0302 5.8524 14.1529C6.37659 16.2646 6.91942 18.4528 9.63822 19.1527C10.5335 19.3851 11.4711 19.3851 12.3663 19.1527C15.0805 18.4719 15.6233 16.2789 16.1498 14.172C16.4294 13.0493 16.7183 11.8859 17.3147 10.8038L17.4521 10.5506C17.6851 10.1302 17.8738 9.76947 18.1743 9.59509L19.5582 8.77095C19.629 8.72904 19.7093 8.70697 19.7911 8.70695C19.8728 8.70693 19.9531 8.72896 20.0239 8.77083C20.0948 8.81271 20.1536 8.87295 20.1945 8.94551C20.2355 9.01807 20.257 9.10039 20.2571 9.18422V17.8078C20.2571 18.0174 20.2033 18.2234 20.1011 18.405C19.9988 18.5865 19.8518 18.7373 19.6747 18.8421L11.5812 23.6293C11.4041 23.7341 11.2033 23.7893 10.9988 23.7893C10.7943 23.7893 10.5934 23.7341 10.4163 23.6293Z" fill="white"/>
</svg>
