<?xml version="1.0" encoding="UTF-8"?>
<svg width="154px" height="105px" viewBox="0 0 154 105" version="1.1" xmlns="http://www.w3.org/2000/svg" xmlns:xlink="http://www.w3.org/1999/xlink">
    <defs>
        <filter id="filter-1">
            <feColorMatrix in="SourceGraphic" type="matrix" values="0 0 0 0 1.000000 0 0 0 0 1.000000 0 0 0 0 1.000000 0 0 0 1.000000 0"></feColorMatrix>
        </filter>
    </defs>
    <g id="page-1" stroke="none" stroke-width="1" fill="none" fill-rule="evenodd">
        <g filter="url(#filter-1)" id="group-back-2-16">
            <g id="group-back">
                <path d="M118.665405,21.2788414 C110.531264,29.801988 100.692682,38.9193121 88.9593068,47.8630785 C68.4378714,63.5149669 48.4213303,73.8119283 31.9050709,80.6601248 C29.6708992,77.1780749 27.8506175,73.4241973 26.4935033,69.455552 C25.3267427,66.0479972 24.5075067,62.4835273 24.0689779,58.7954273 C23.8124575,56.7327461 23.6882706,54.6288549 23.6882706,52.5 C23.6882706,23.5067589 47.262915,0 76.3403299,0 C87.3621641,0 97.5897984,3.37466602 106.046428,9.1585341 C106.451973,9.42263495 106.849172,9.70318019 107.238026,9.99184856 C111.598874,13.151945 115.463172,16.9557502 118.665405,21.2788414" id="Fill-1" fill="#45F5A1"></path>
                <path d="M124.035723,30.2393692 C123.721183,30.7015952 123.398495,31.163425 123.059316,31.6254529 C117.945598,38.7954046 111.449929,45.0825106 104.871402,50.8499343 C94.4536127,59.9918259 83.0427258,68.0363022 71.1106513,75.0659813 C64.9625065,78.696427 58.6406987,82.0380061 52.1366839,84.9999774 C49.5220036,86.188134 46.8741405,87.3184381 44.1930947,88.3663221 C42.9104926,88.86956 41.6113985,89.3480323 40.303959,89.8100602 L40.2958123,89.8100602 C40.0144545,89.8679128 39.7412434,89.9174441 39.4682309,89.9667772 C36.6051768,87.1617211 34.06481,84.0428347 31.9051504,80.6600455 C48.4214097,73.811849 68.4379509,63.5148877 88.9591876,47.8631974 C100.692762,38.9192329 110.531343,29.8019088 118.665485,21.2787621 C120.014254,23.0860599 121.247181,24.9918259 122.355922,26.972087 C122.951621,28.0364154 123.514337,29.1255095 124.035723,30.2393692" id="Fill-3" fill="#2FBC79"></path>
                <path d="M128.99223,52.5 C128.99223,81.4932411 105.417586,105 76.3403696,105 C65.3596661,105 55.1570678,101.6501 46.7250765,95.9076397 C57.275398,98.8860554 79.3357572,102.565834 98.6324119,89.2985803 C113.361175,79.1749785 122.29806,62.0545863 123.398456,43.3662315 C124.747224,42.1041742 126.071156,40.8086337 127.362103,39.4885257 C128.429515,43.6469749 128.99223,48.0116724 128.99223,52.5" id="Fill-5" fill="#2FBC79"></path>
                <path d="M127.362084,39.4884663 C126.071136,40.8087724 124.747205,42.1041148 123.398436,43.3663702 C122.298041,62.0545269 113.361354,79.1749191 98.632392,89.298719 C79.3357374,102.565973 57.2753782,98.8859959 46.7250567,95.9075803 C44.4000795,94.3316927 42.2072372,92.5660012 40.1715658,90.6433945 C40.0392323,90.5197644 39.8985534,90.387813 39.7660211,90.2639848 C39.6998544,90.197811 39.6336876,90.1320334 39.5675208,90.0660578 C39.5343381,90.0329709 39.501354,89.999884 39.4681713,89.9667971 C39.7411838,89.9174639 40.0143949,89.8679326 40.2957527,89.81008 L40.3038994,89.81008 C41.6113389,89.3480521 42.910433,88.8695799 44.1930351,88.3663419 C46.8740809,87.3184579 49.521944,86.1881538 52.136823,84.999799 C58.6406391,82.0380259 64.9624469,78.6964468 71.1105917,75.0660012 C83.0428649,68.036322 94.4535531,59.9918457 104.871541,50.8499541 C106.617509,49.3150785 108.363477,47.7475121 110.076263,46.1304145 C110.506446,45.726041 110.936828,45.3218657 111.358865,44.9093691 C111.780902,44.4966743 112.202939,44.0841777 112.624975,43.6716811 C114.048058,42.2608318 115.446501,40.8168955 116.787123,39.3400705 C117.167632,38.9273758 117.531847,38.5148792 117.895864,38.1023826 C118.268226,37.6815647 118.640588,37.2524256 118.996259,36.8318059 C119.343784,36.4274324 119.683162,36.0149358 120.022539,35.6024392 C120.378211,35.1649788 120.734081,34.7195934 121.081605,34.2740099 C121.420983,33.8448708 121.760162,33.4078067 122.08285,32.9622232 C122.413882,32.5166397 122.736569,32.0710562 123.059256,31.6254727 C123.092439,31.5842626 123.125423,31.5347313 123.150261,31.4935213 C123.456456,31.0808266 123.74596,30.6602068 124.035663,30.239389 C125.425762,33.1849159 126.542848,36.2790367 127.362084,39.4884663" id="Fill-7" fill="#45F5A1"></path>
                <path d="M133.234333,10.4854417 C130.720443,11.2461075 129.124663,11.9226576 128.810123,11.5761367 C129.124663,11.9226576 131.331194,11.0629765 133.234333,10.4854417 Z M122.480168,4.96707726 C116.977398,6.16355516 111.474627,7.54131759 106.046568,9.15841523 C106.451914,9.42251608 106.849113,9.70325944 107.238165,9.99172969 C108.950951,9.30720723 109.953064,9.08503085 111.690687,8.44964343 C113.42831,7.81425601 114.006847,7.78897405 114.809393,7.71467711 C116.861556,7.51655194 118.946704,7.442255 120.990522,7.68159021 C124.0026,8.019988 126.97315,9.00169822 128.785285,11.5511729 C131.913205,16.6667648 128.379939,23.3501211 125.624381,27.8053618 C125.119686,28.6305532 124.590153,29.439102 124.035783,30.2393295 C123.754425,30.6601474 123.456575,31.072644 123.15038,31.4934619 C123.125542,31.53487 123.09236,31.5844013 123.059376,31.6254132 C122.736689,32.0709967 122.413803,32.5165802 122.082969,32.9621638 C121.751936,33.399426 121.420904,33.8366883 121.081526,34.2739505 C120.734001,34.719534 120.378131,35.1651175 120.02246,35.6023798 C119.683082,36.0148764 119.343903,36.4192498 118.996378,36.8317464 C118.640508,37.2525643 118.268146,37.6817034 117.895784,38.1023232 C117.531768,38.5150179 117.159406,38.9275145 116.787044,39.3400111 C115.44662,40.8168361 114.048177,42.2607723 112.624896,43.6718198 C112.202859,44.0843164 111.780822,44.5051343 111.358786,44.9093096 C110.928602,45.3218062 110.506566,45.7261797 110.076184,46.130355 C108.363398,47.7474527 106.61743,49.315019 104.871462,50.8498947 C94.4536723,59.9917863 83.0427854,68.0364607 71.110711,75.0661398 C64.9625661,78.6963873 58.6405596,82.0379664 52.1367435,84.9999377 C49.5220632,86.1880944 46.8740014,87.3183985 44.1931544,88.3662825 C42.9103535,88.8697185 41.6114581,89.3479927 40.3040186,89.8102187 C40.0143154,89.8680713 39.741303,89.9176026 39.4682905,89.9669357 C38.781388,90.0990852 38.1525057,90.2062709 37.7056316,90.2558022 C35.7196349,90.4784949 33.7089996,90.5942 31.706511,90.4703718 C29.0089732,90.288691 26.0465696,89.7113543 23.9862595,87.8216364 C19.6419043,83.8282255 22.2651287,77.1040553 24.5654672,72.7641235 C25.1611668,71.6417444 25.8067399,70.5364041 26.4934437,69.4554332 C25.3266831,66.0480765 24.507447,62.4836066 24.0689183,58.7955065 C21.0902214,61.8317747 18.2684967,65.0083156 15.6701097,68.3498947 C11.7561366,73.3747453 5.38485273,81.7407787 7.66850048,88.6634702 C9.9606923,95.6105312 19.9729369,94.677956 25.5667115,93.778864 C30.4902743,92.9867596 35.3639637,91.9388756 40.1714863,90.6435332 C62.6373902,84.6369724 83.7378345,73.5479067 102.554631,60.1568246 C109.770187,55.0331095 116.878048,49.4885767 123.398555,43.3663108 C124.747324,42.1040553 126.071255,40.808713 127.362004,39.4884068 C130.307916,36.501868 133.088311,33.3829816 135.669809,30.1073782 C139.840302,24.8103036 147.519224,14.8269745 143.175068,7.70635586 C138.847403,1.6338194 128.578439,3.63864799 122.480168,4.96707726 Z" id="Fill-9" fill="#FCD535"></path>
                <path d="M7.11102079,39.4708863 C7.11102079,41.4185327 5.51906541,42.9972929 3.55551039,42.9972929 C1.59178993,42.9972929 0,41.4185327 0,39.4708863 C0,37.52324 1.59178993,35.9444798 3.55551039,35.9444798 C5.51906541,35.9444798 7.11102079,37.52324 7.11102079,39.4708863" id="Fill-64" fill="#45F5A1"></path>
                <path d="M154,35.2023445 C154,37.7992063 151.877393,39.9042199 149.259319,39.9042199 C146.641026,39.9042199 144.518639,37.7992063 144.518639,35.2023445 C144.518639,32.6054827 146.641026,30.500469 149.259319,30.500469 C151.877393,30.500469 154,32.6054827 154,35.2023445" id="Fill-70" fill="#FCD535"></path>
            </g>
        </g>
    </g>
</svg>