<svg viewBox="0 0 26 26" fill="none" xmlns="http://www.w3.org/2000/svg">
<path d="M11.375 11.375C11.375 10.4788 12.1038 9.75 13 9.75C13.8962 9.75 14.625 10.4788 14.625 11.375C14.625 12.2712 13.8962 13 13 13C12.1038 13 11.375 12.2712 11.375 11.375Z" fill="white"/>
<path d="M7.3125 16.25H18.6875V6.5H7.3125V16.25ZM13 8.125C14.5096 8.125 15.7714 9.165 16.1346 10.5625H17.0625C17.511 10.5625 17.875 10.9265 17.875 11.375C17.875 11.8235 17.511 12.1875 17.0625 12.1875H16.1346C15.7714 13.585 14.5096 14.625 13 14.625C11.2076 14.625 9.75 13.1674 9.75 11.375C9.75 9.58262 11.2076 8.125 13 8.125Z" fill="white"/>
<path d="M21.125 1.625H4.875C3.53112 1.625 2.4375 2.71862 2.4375 4.0625V18.6875C2.4375 20.0314 3.53112 21.125 4.875 21.125H21.125C22.4689 21.125 23.5625 20.0314 23.5625 18.6875V4.0625C23.5625 2.71862 22.4689 1.625 21.125 1.625ZM20.3125 17.0625C20.3125 17.511 19.9485 17.875 19.5 17.875H6.5C6.0515 17.875 5.6875 17.511 5.6875 17.0625V5.6875C5.6875 5.239 6.0515 4.875 6.5 4.875H19.5C19.9485 4.875 20.3125 5.239 20.3125 5.6875V17.0625Z" fill="white"/>
<path d="M17.0625 22.75H21.125V23.5625C21.125 24.011 20.761 24.375 20.3125 24.375H17.875C17.4265 24.375 17.0625 24.011 17.0625 23.5625V22.75Z" fill="white"/>
<path d="M4.875 22.75H8.9375V23.5625C8.9375 24.011 8.5735 24.375 8.125 24.375H5.6875C5.239 24.375 4.875 24.011 4.875 23.5625V22.75Z" fill="white"/>
</svg>
